<?xml version="1.0" encoding="UTF-8" standalone="no"?>
<!-- Created with Inkscape (http://www.inkscape.org/) -->

<svg
   xmlns:dc="http://purl.org/dc/elements/1.1/"
   xmlns:cc="http://creativecommons.org/ns#"
   xmlns:rdf="http://www.w3.org/1999/02/22-rdf-syntax-ns#"
   xmlns:svg="http://www.w3.org/2000/svg"
   xmlns="http://www.w3.org/2000/svg"
   xmlns:xlink="http://www.w3.org/1999/xlink"
   xmlns:sodipodi="http://sodipodi.sourceforge.net/DTD/sodipodi-0.dtd"
   xmlns:inkscape="http://www.inkscape.org/namespaces/inkscape"
   width="357.87402"
   height="357.87402"
   id="svg2"
   version="1.1"
   inkscape:version="0.48.4 r9939"
   sodipodi:docname="techinc_sticker-black.svg">
  <defs
     id="defs4">
    <linearGradient
       id="linearGradient3834">
      <stop
         id="stop3836"
         offset="0"
         style="stop-color:#000000;stop-opacity:1;" />
      <stop
         id="stop3838"
         offset="1"
         style="stop-color:#1a1200;stop-opacity:1;" />
    </linearGradient>
    <linearGradient
       id="linearGradient3803">
      <stop
         style="stop-color:#dfded4;stop-opacity:1;"
         offset="0"
         id="stop3805" />
      <stop
         style="stop-color:#b4aaa3;stop-opacity:1;"
         offset="1"
         id="stop3807" />
    </linearGradient>
    <clipPath
       clipPathUnits="userSpaceOnUse"
       id="clipPath4403">
      <path
         inkscape:connector-curvature="0"
         d="m 180,180 5580,0 0,7740 -5580,0 0,-7740 z"
         id="path4405" />
    </clipPath>
    <clipPath
       clipPathUnits="userSpaceOnUse"
       id="clipPath6692">
      <path
         inkscape:connector-curvature="0"
         d="m 180,180 5580,0 0,7740 -5580,0 0,-7740 z"
         id="path6694" />
    </clipPath>
    <clipPath
       clipPathUnits="userSpaceOnUse"
       id="clipPath3654">
      <path
         inkscape:connector-curvature="0"
         d="m 180,180 5580,0 0,7740 -5580,0 0,-7740 z"
         id="path3656-2" />
    </clipPath>
    <clipPath
       clipPathUnits="userSpaceOnUse"
       id="clipPath3654-7">
      <path
         inkscape:connector-curvature="0"
         d="m 180,180 5580,0 0,7740 -5580,0 0,-7740 z"
         id="path3656-7" />
    </clipPath>
    <radialGradient
       inkscape:collect="always"
       xlink:href="#linearGradient3803"
       id="radialGradient3809"
       cx="325.7341"
       cy="1205.9625"
       fx="325.7341"
       fy="1205.9625"
       r="84.539986"
       gradientTransform="matrix(1,0,0,0.99998156,0,0.02267732)"
       gradientUnits="userSpaceOnUse" />
    <radialGradient
       inkscape:collect="always"
       xlink:href="#linearGradient3803"
       id="radialGradient3821"
       gradientUnits="userSpaceOnUse"
       gradientTransform="matrix(1,0,0,0.99998156,0,-219.97732)"
       cx="325.7341"
       cy="1205.9625"
       fx="325.7341"
       fy="1205.9625"
       r="84.539986" />
    <radialGradient
       inkscape:collect="always"
       xlink:href="#linearGradient3834"
       id="radialGradient3902"
       cx="341.06003"
       cy="583.35675"
       fx="341.06003"
       fy="583.35675"
       r="84.539986"
       gradientTransform="matrix(1,0,0,1.000012,140,319.99261)"
       gradientUnits="userSpaceOnUse" />
    <radialGradient
       inkscape:collect="always"
       xlink:href="#linearGradient3834"
       id="radialGradient5590"
       gradientUnits="userSpaceOnUse"
       gradientTransform="matrix(1,0,0,0.99998156,-101.6741,-1596.2545)"
       cx="325.7341"
       cy="1205.9625"
       fx="325.7341"
       fy="1205.9625"
       r="84.539986" />
    <radialGradient
       inkscape:collect="always"
       xlink:href="#linearGradient3834"
       id="radialGradient5592"
       gradientUnits="userSpaceOnUse"
       gradientTransform="matrix(1,0,0,0.99998156,-101.6741,-1596.2545)"
       cx="325.7341"
       cy="1205.9625"
       fx="325.7341"
       fy="1205.9625"
       r="84.539986" />
    <radialGradient
       inkscape:collect="always"
       xlink:href="#linearGradient3834"
       id="radialGradient6783"
       gradientUnits="userSpaceOnUse"
       gradientTransform="matrix(1,0,0,0.99998156,-77.548734,-716.2545)"
       cx="325.7341"
       cy="1205.9625"
       fx="325.7341"
       fy="1205.9625"
       r="84.539986" />
    <radialGradient
       inkscape:collect="always"
       xlink:href="#linearGradient3834"
       id="radialGradient7069"
       gradientUnits="userSpaceOnUse"
       gradientTransform="matrix(1,0,0,0.99998156,-77.548734,-716.2545)"
       cx="325.7341"
       cy="1205.9625"
       fx="325.7341"
       fy="1205.9625"
       r="84.539986" />
    <radialGradient
       inkscape:collect="always"
       xlink:href="#linearGradient3834"
       id="radialGradient4186"
       gradientUnits="userSpaceOnUse"
       gradientTransform="matrix(2.7746509,0,0,2.7746015,-555.28812,-2853.576)"
       cx="330.28345"
       cy="1203.7321"
       fx="330.28345"
       fy="1203.7321"
       r="84.539986" />
    <radialGradient
       inkscape:collect="always"
       xlink:href="#linearGradient3834"
       id="radialGradient3047"
       gradientUnits="userSpaceOnUse"
       gradientTransform="matrix(2.7746509,0,0,2.7746015,-537.74397,-2853.576)"
       cx="330.28345"
       cy="1203.7321"
       fx="330.28345"
       fy="1203.7321"
       r="84.539986" />
    <path
       transform="matrix(-0.89638853,-0.00465642,0.00465642,-0.89638853,-801.29384,1138.0877)"
       d="m -195.16147,438.62436 a 230.51682,230.51682 0 1 1 -461.03363,0 230.51682,230.51682 0 1 1 461.03363,0 z"
       sodipodi:ry="230.51682"
       sodipodi:rx="230.51682"
       sodipodi:cy="438.62436"
       sodipodi:cx="-425.67828"
       id="path5009-5"
       style="fill:#ffffff;fill-opacity:1;stroke:#000000;stroke-width:3;stroke-linejoin:round;stroke-miterlimit:4;stroke-opacity:1;stroke-dasharray:none"
       sodipodi:type="arc" />
  </defs>
  <sodipodi:namedview
     id="base"
     pagecolor="#7f7f7f"
     bordercolor="#666666"
     borderopacity="1.0"
     inkscape:pageopacity="0.49411765"
     inkscape:pageshadow="2"
     inkscape:zoom="1.4403975"
     inkscape:cx="209.59216"
     inkscape:cy="170.58267"
     inkscape:document-units="px"
     inkscape:current-layer="g3793"
     showgrid="false"
     inkscape:window-width="1551"
     inkscape:window-height="876"
     inkscape:window-x="1415"
     inkscape:window-y="24"
     inkscape:window-maximized="1"
     showguides="true"
     inkscape:guide-bbox="true"
     units="mm"
     fit-margin-top="0"
     fit-margin-left="0"
     fit-margin-right="0"
     fit-margin-bottom="0"
     inkscape:snap-object-midpoints="true"
     inkscape:snap-midpoints="true" />
  <metadata
     id="metadata7">
    <rdf:RDF>
      <cc:Work
         rdf:about="">
        <dc:format>image/svg+xml</dc:format>
        <dc:type
           rdf:resource="http://purl.org/dc/dcmitype/StillImage" />
        <dc:title />
      </cc:Work>
    </rdf:RDF>
  </metadata>
  <g
     inkscape:groupmode="layer"
     id="layer2"
     inkscape:label="Layer"
     transform="translate(67.322845,-749.40942)" />
  <g
     inkscape:label="Layer 1"
     inkscape:groupmode="layer"
     id="layer1"
     transform="translate(67.322845,-749.40942)">
    <g
       id="g3793"
       transform="matrix(1.3571428,0,0,1.3571429,-56.692914,-331.55236)">
      <text
         xml:space="preserve"
         style="font-size:14.73684216px;font-style:normal;font-variant:normal;font-weight:normal;font-stretch:normal;text-align:start;line-height:125%;letter-spacing:0px;word-spacing:0px;text-anchor:start;fill:#000000;fill-opacity:1;stroke:#ffff00;stroke-width:0.7368421;font-family:Arial;-inkscape-font-specification:Arial"
         id="text3073"
         sodipodi:linespacing="125%"
         x="259.57763"
         y="180.41211"><tspan
           id="tspan3075"
           style="font-size:11.78947353px;font-style:normal;font-variant:normal;font-weight:500;font-stretch:normal;fill:#ffff00;stroke:#ffff00;stroke-width:0.7368421;font-family:OCRA;-inkscape-font-specification:OCRA Medium">TECHINC.NL</tspan></text>
      <path
         style="fill:none;stroke:none;stroke-width:0.73684210000000006"
         d="m 340.0701,1011.082 c 46.99387,21.8623 102.79306,1.4962 124.65529,-45.49766 L 294.55152,886.41706 c -21.86221,46.99387 -1.47529,102.80279 45.51858,124.66494 z"
         id="path3084"
         inkscape:connector-curvature="0" />
      <g
         id="g3067">
        <path
           style="fill:#000000;fill-opacity:1;stroke:none"
           d="m 69.89753,1039.8996 c 61.60913,29.8887 135.78269,4.1741 165.67141,-57.43493 29.88865,-61.60913 4.17415,-135.78273 -57.43496,-165.67142 -30.80457,-14.94433 -64.75027,-15.98787 -94.73088,-5.59418 -29.98063,10.39368 -55.99621,32.2246 -70.94053,63.02914 -29.88867,61.60914 -4.17415,135.78269 57.43496,165.67139 z"
           id="path5163"
           inkscape:connector-curvature="0"
           sodipodi:nodetypes="ssssss"
           inkscape:export-filename="/home/erik/techinc_sticker_2048.png"
           inkscape:export-xdpi="381.03931"
           inkscape:export-ydpi="381.03931" />
        <path
           inkscape:connector-curvature="0"
           style="font-size:medium;font-style:normal;font-variant:normal;font-weight:normal;font-stretch:normal;text-indent:0;text-align:start;text-decoration:none;line-height:normal;letter-spacing:normal;word-spacing:normal;text-transform:none;direction:ltr;block-progression:tb;writing-mode:lr-tb;text-anchor:start;baseline-shift:baseline;color:#000000;fill:#0084ae;fill-opacity:1;stroke:none;stroke-width:7.92560863;marker:none;visibility:visible;display:inline;overflow:visible;enable-background:accumulate;font-family:Sans;-inkscape-font-specification:Sans"
           d="m 136.36301,841.72687 c -0.29054,-0.0987 -0.5891,-0.17535 -0.90407,-0.21687 -0.15758,-0.0205 -0.29083,-0.0683 -0.44637,-0.0731 -2.33533,-0.0679 -4.43291,1.64561 -4.74505,4.00774 -0.12201,0.92448 0.0574,1.76496 0.25422,2.39296 0.14271,0.54054 0.36109,1.12887 0.51296,1.56908 0.3019,1.05117 0.57361,2.57662 0.11554,6.03702 -0.47658,3.60508 -0.98928,4.83136 -2.13894,9.58651 -0.10806,0.44698 -0.25187,0.82593 -0.36243,1.26065 2.21399,0.14142 4.50204,0.50058 6.3868,0.79886 -6.7e-4,0.0159 -0.01,0.0166 -0.01,0.0305 -0.0142,1.26364 9e-4,2.64157 -0.034,3.84454 -0.004,0.0115 0.0173,0.0346 0.0209,0.04 13.39522,2.54291 24.93932,9.47087 33.3113,19.14372 1.11348,-0.60625 2.37038,-1.29507 3.33586,-1.86896 1.26821,1.47296 2.59389,3.16023 3.59012,4.58038 -0.95544,0.93244 -1.96173,1.88115 -2.76466,2.71881 6.83947,10.05516 10.61214,22.27145 10.12217,35.12678 -0.66455,-0.18616 -1.36901,-0.40707 -1.96248,-0.58283 -0.45306,-0.13155 -4.62935,-1.35329 -5.03307,-1.48008 -0.19828,0.204 -0.39406,0.37326 -0.56565,0.62694 -0.17163,0.25377 -0.25276,0.36436 -0.53336,0.73764 -0.28139,0.37388 -0.88902,1.16511 -1.26014,1.98444 -2.26879,-0.31021 -3.4063,-0.50749 -6.20296,-1.27751 -3.1879,-0.87776 -7.22564,-1.94437 -10.41999,-2.36716 -1.37258,-0.18142 -2.92317,-0.31152 -4.50803,-0.37648 0.006,0.30981 0.0108,0.63053 0.006,0.94065 l -0.10105,0.002 -0.88865,6.45918 0.10106,-0.002 c -0.0771,0.30728 -0.10859,0.63991 -0.19598,0.94416 1.53779,0.35077 3.0707,0.64223 4.4349,0.82284 3.19454,0.42275 7.3223,0.43951 10.62877,0.42132 2.90075,-0.0159 4.08183,0.065 6.35881,0.35426 0.14428,0.85267 0.40988,1.66357 0.76943,2.35362 l 0.40728,0.73133 0.77672,-0.12483 c 0.21279,-0.0362 0.50082,-0.0757 0.83775,-0.10568 0.38283,-1.77802 0.79143,-3.98434 0.9691,-5.32763 0.19698,-1.48334 0.32696,-2.95972 0.41834,-4.42784 l 2.74628,0.86245 c 0.0104,0.004 0.0295,-0.0242 0.04,-0.0209 l 0.6408,0.20124 c 0.14088,0.0442 0.31244,0.10131 0.45771,0.14374 l 1.06801,0.3354 c 1.6e-4,-0.0107 0.009,-0.0199 0.01,-0.0305 0.28484,0.0787 0.60264,0.16424 0.89448,0.24744 0.0369,0.0104 0.0551,0.0173 0.0915,0.0287 0.40284,0.11362 0.81325,0.24103 1.23014,0.35285 0.13998,0.044 0.32403,0.0736 0.46728,0.11328 0.61833,0.17057 1.22969,0.35881 1.88054,0.52351 -0.0308,0.39572 -0.0312,0.78737 -0.0704,1.18476 -0.0594,0.59991 -0.14405,1.18581 -0.2219,1.77411 -0.0756,0.56948 -0.16181,1.10401 -0.25419,1.66341 -0.062,0.3755 -0.1225,0.77006 -0.19241,1.14642 -0.25287,-0.004 -0.51137,-0.0344 -0.75932,-0.0373 l -1.20392,-0.009 c -0.015,-0.005 -0.0135,-0.015 -0.0305,-0.01 -0.35413,-10e-4 -0.66446,0.0176 -1.01126,0.0177 -0.27604,0.002 -0.56663,0.005 -0.83952,0.005 -2.53834,13.40367 -9.50563,24.95562 -19.18381,33.33223 0.13115,0.23471 0.27388,0.49258 0.40728,0.73133 0.47617,0.85251 0.90999,1.72546 1.45209,2.63505 0.005,0.0122 0.0245,1.9e-4 0.0305,0.01 -0.75707,0.64062 -1.53891,1.24895 -2.32461,1.8513 -0.75193,0.57637 -1.49747,1.15635 -2.2767,1.69873 -0.01,-0.003 -0.0233,-0.002 -0.0305,-0.01 -0.18171,-0.18344 -0.34979,-0.38683 -0.5258,-0.56741 l -0.81355,-0.82539 c -0.016,-0.0157 -0.0356,-0.034 -0.0515,-0.0496 -0.10393,-0.10451 -0.20666,-0.1976 -0.30867,-0.29808 -0.0154,-0.0156 -0.006,-0.0247 -0.0209,-0.04 -0.11755,-0.12167 -0.2568,-0.26366 -0.38105,-0.38786 -0.19935,-0.19348 -0.40338,-0.36338 -0.59642,-0.55606 -10.58855,7.19571 -23.55096,10.95305 -37.15283,9.95524 -0.16008,0.57021 -0.32396,1.16857 -0.48518,1.75848 13.52882,1.07185 26.43932,-2.42234 37.17477,-9.27788 0.11375,0.11404 0.2418,0.22822 0.36012,0.34776 l 0.82313,0.79488 c 0.48848,0.4999 0.9639,1.04693 1.4536,1.56277 0.0448,0.0462 0.0899,0.0631 0.1334,0.10894 0.41836,-0.27487 0.8247,-0.5673 1.23947,-0.85113 2.9592,3.09188 4.13747,4.11928 6.22949,6.85076 2.12326,2.77047 2.67201,4.21809 2.9347,5.27969 0.12873,0.52037 0.14584,0.95506 0.28019,1.56303 l 0.0209,0.04 c 0.14273,0.64224 0.42162,1.44782 0.98907,2.18794 1.54508,2.01797 4.46126,2.37379 6.47835,0.82761 0.12659,-0.097 0.2456,-0.18248 0.3591,-0.28951 1.69915,-1.60322 1.98867,-4.30919 0.53912,-6.20018 -0.56744,-0.74011 -1.28421,-1.22063 -1.86768,-1.52519 l -0.0305,-0.01 c -0.54648,-0.28533 -0.95283,-0.45531 -1.41853,-0.71366 -0.95755,-0.52921 -2.25955,-1.42147 -4.38248,-4.19227 -2.10839,-2.75109 -2.66935,-4.08524 -4.92117,-7.81436 0.3706,-0.32269 0.7424,-0.63552 1.10607,-0.96007 -0.0334,-0.0534 -0.0502,-0.10565 -0.0837,-0.16038 -0.68738,-1.12578 -1.31083,-2.18616 -1.92822,-3.25391 8.92436,-8.1601 15.45691,-18.9953 18.20436,-31.49431 0.16009,-10e-4 0.30864,-0.0196 0.47511,-0.0184 l 1.14289,-0.01 c 0.69875,0.009 1.40485,0.0761 2.11582,0.0945 0.065,10e-4 0.11827,-0.0452 0.18131,-0.0436 0.0691,-0.33306 0.14913,-0.66891 0.21515,-1.00519 l 0.0635,-0.41585 c 4.3071,0.0946 5.81093,-0.0688 9.23218,0.38501 3.46119,0.45703 4.89963,1.13372 5.83604,1.69866 0.45897,0.27694 0.80566,0.55231 1.33052,0.88717 l 0.0209,0.04 c 0.55506,0.35347 1.33522,0.6882 2.25983,0.8102 2.51947,0.33422 4.81651,-1.49521 5.14955,-4.0148 0.0208,-0.15748 0.0591,-0.2601 0.0636,-0.41585 0.034,-1.16765 -0.39693,-2.31017 -1.11745,-3.16691 -0.7203,-0.85687 -1.70955,-1.42178 -2.89028,-1.57814 -0.92541,-0.12144 -1.76512,0.0573 -2.39297,0.25422 l -0.061,-0.0192 c -0.58829,0.18556 -0.98657,0.35458 -1.49847,0.5016 -1.05151,0.30206 -2.57692,0.57385 -6.03701,0.11555 -3.41571,-0.45101 -4.88796,-0.97649 -9.05819,-2.00655 l 0.0524,-0.48646 0.0529,-1.02261 c -0.0602,-0.0189 -0.0915,-0.0279 -0.15257,-0.0479 -1.22751,-0.29752 -2.45038,-0.59031 -3.60673,-0.89799 0.57747,-12.79149 -2.92445,-24.95264 -9.44481,-35.14873 0.94205,-0.95843 1.91478,-1.93388 2.78383,-2.77984 -0.26872,-0.40858 -0.54307,-0.82359 -0.82061,-1.22989 3.11323,-2.9809 4.08027,-4.14055 6.82025,-6.23907 2.77146,-2.12403 4.24857,-2.66249 5.3102,-2.92512 0.52032,-0.12871 0.95537,-0.14597 1.56303,-0.28019 0.8407,-0.29188 1.64809,-0.57498 2.22803,-1.01001 2.01675,-1.54425 2.37363,-4.46104 0.82761,-6.47834 -0.0894,-0.13106 -0.2106,-0.25634 -0.28951,-0.35911 -1.60354,-1.69916 -4.30952,-1.98843 -6.20018,-0.53912 -0.74112,0.56818 -1.19003,1.29399 -1.49468,1.87727 -0.27354,0.49177 -0.52546,1.05744 -0.73283,1.47956 -0.5298,0.95669 -1.40234,2.19848 -4.1731,4.32145 -2.73948,2.09942 -4.14134,2.75232 -7.83353,4.9822 -0.32727,-0.37912 -0.67977,-0.78435 -1.01151,-1.15575 -1.15142,0.66375 -2.37483,1.43737 -3.38378,2.02153 -8.16138,-8.9149 -18.99811,-15.45954 -31.49431,-18.20436 0.0157,-1.33998 0.0274,-2.69684 0.0532,-3.90556 -0.53046,-0.10222 -0.99868,-0.19396 -1.48208,-0.29782 0.0922,-4.28556 -0.037,-5.80885 0.41552,-9.22259 0.45766,-3.46042 1.1038,-4.90965 1.66814,-5.84563 0.35155,-0.49378 0.6554,-0.9586 0.92727,-1.35146 0.35357,-0.55503 0.73991,-1.2858 0.86169,-2.21014 0.16817,-1.26045 -0.20312,-2.5057 -0.93008,-3.4433 -0.54816,-0.70091 -1.32999,-1.23314 -2.20157,-1.52947 z"
           id="path3187-5" />
        <path
           inkscape:connector-curvature="0"
           style="font-size:medium;font-style:normal;font-variant:normal;font-weight:normal;font-stretch:normal;text-indent:0;text-align:start;text-decoration:none;line-height:normal;letter-spacing:normal;word-spacing:normal;text-transform:none;direction:ltr;block-progression:tb;writing-mode:lr-tb;text-anchor:start;baseline-shift:baseline;color:#000000;fill:#620074;fill-opacity:1;stroke:none;stroke-width:0.52217156;marker:none;visibility:visible;display:inline;overflow:visible;enable-background:accumulate;font-family:Sans;-inkscape-font-specification:Sans"
           d="m 128.73393,868.26191 c -13.53359,-1.06594 -26.45881,2.47393 -37.193934,9.3389 -0.114674,-0.11325 -0.241565,-0.22835 -0.360121,-0.34776 l -0.823132,-0.79487 c -0.487817,-0.50045 -0.973396,-1.0165 -1.46318,-1.53225 -0.04391,-0.0471 -0.08983,-0.0631 -0.133408,-0.10895 -0.408738,0.26846 -0.823671,0.54301 -1.229892,0.82062 -2.959326,-3.08913 -4.146826,-4.08871 -6.239068,-6.82025 -2.122459,-2.77107 -2.662435,-4.2486 -2.925119,-5.3102 -0.127924,-0.52087 -0.176267,-0.96462 -0.310701,-1.57261 l 0.0096,-0.0305 c -0.142394,-0.64246 -0.421668,-1.44773 -0.989082,-2.18794 -1.544293,-2.01847 -4.461261,-2.37379 -6.478345,-0.82761 -0.126011,0.0966 -0.276344,0.17304 -0.389618,0.27993 -1.699377,1.60336 -1.958478,4.31899 -0.508604,6.20977 0.56656,0.74079 1.294036,1.18997 1.877262,1.49467 l 0.02089,0.04 c 0.548038,0.2841 0.992581,0.4347 1.458635,0.69273 0.956551,0.52997 2.219372,1.44249 4.342375,4.21319 2.092798,2.73247 2.747387,4.12515 4.961269,7.79343 -0.377937,0.32812 -0.784214,0.68 -1.155749,1.01152 0.03254,0.0542 0.05977,0.0751 0.09332,0.12983 0.688208,1.12518 1.310477,2.18647 1.928219,3.2539 -8.903275,8.1546 -15.455463,19.01775 -18.204351,31.49431 -0.145241,5.2e-4 -0.283454,-0.002 -0.435017,-0.003 l -1.173408,2.7e-4 c -0.698747,-0.009 -1.423986,-0.0151 -2.134985,-0.0335 -0.0645,-9.5e-4 -0.09876,-0.0168 -0.162136,-0.0174 -0.0691,0.33306 -0.118537,0.67841 -0.184592,1.01479 -0.02775,0.16153 -0.01623,0.29763 -0.04266,0.45593 -4.332341,-0.0937 -5.864223,0.0505 -9.293208,-0.40417 -3.460369,-0.45764 -4.909226,-1.10321 -5.845625,-1.66815 -0.459728,-0.27632 -0.786451,-0.61343 -1.31136,-0.9482 l -0.04002,0.0209 c -0.555762,-0.35294 -1.28556,-0.73955 -2.21014,-0.8617 -2.519432,-0.33432 -4.856906,1.51627 -5.189647,4.03573 -0.02165,0.15809 -0.06837,0.29049 -0.07313,0.44637 -0.06729,2.33485 1.716112,4.42161 4.078348,4.7337 0.924094,0.12253 1.694513,-0.0459 2.322352,-0.24287 l 0.04002,-0.0209 c 0.588163,-0.1855 1.026444,-0.37537 1.538568,-0.52254 1.050374,-0.30124 2.576266,-0.57329 6.037013,-0.11555 3.438634,0.45532 4.799848,1.02102 9.039022,2.06758 -0.01686,0.15455 -0.02565,0.30133 -0.04266,0.45594 l -0.05295,1.0226 c 0.06054,0.019 0.08864,0.0375 0.15257,0.0479 1.251133,0.3028 2.49209,0.60353 3.667761,0.91716 -0.570825,12.77631 2.875484,24.9438 9.383772,35.12956 -0.113745,0.11318 -0.218587,0.2113 -0.338174,0.32961 l -0.804457,0.85365 c -0.500405,0.48779 -1.047004,0.96387 -1.562767,1.4536 -0.04635,0.0444 -0.06326,0.09 -0.108944,0.1334 0.273466,0.41822 0.567323,0.82466 0.85113,1.23947 -3.088791,2.95908 -4.079128,4.11651 -6.810665,6.20856 -2.770319,2.1231 -4.258068,2.69292 -5.319781,2.95563 -0.519557,0.1281 -0.95512,0.14573 -1.563031,0.28019 l -0.04002,0.0209 c -0.643296,0.14308 -1.407731,0.40072 -2.147837,0.96814 -2.018286,1.54538 -2.413875,4.48225 -0.867713,6.49929 0.0967,0.12585 0.182596,0.24584 0.289511,0.35911 1.60331,1.69929 4.31846,1.95835 6.209768,0.50859 0.740094,-0.56754 1.180375,-1.2635 1.485093,-1.84675 l 0.0096,-0.0305 c 0.284813,-0.54724 0.465233,-0.98308 0.723247,-1.44905 0.529877,-0.95678 1.442456,-2.21951 4.213192,-4.34238 2.731882,-2.09366 4.12533,-2.74721 7.793433,-4.96126 0.3284,0.37829 0.649167,0.77484 0.981004,1.14616 0.05325,-0.0316 0.105549,-0.0505 0.160386,-0.0837 1.125742,-0.68736 2.186181,-1.31081 3.253907,-1.92822 8.160406,8.92425 19.00274,15.42714 31.503894,18.17384 0.001,0.15989 0.01,0.33916 0.009,0.50563 l 0.01,1.14302 c -0.008,0.69823 -0.0763,1.40495 -0.0945,2.11582 -0.002,0.0649 0.0553,0.0871 0.0532,0.15079 0.33358,0.0683 0.63849,0.13926 0.97468,0.20557 l 0.45593,0.0427 c -0.097,4.37288 0.0523,5.85033 -0.40417,9.29317 -0.45723,3.46 -1.09353,4.8786 -1.65857,5.8151 -0.27653,0.4587 -0.58267,0.7959 -0.91768,1.3209 l -0.01,0.03 c -0.35354,0.555 -0.72829,1.3562 -0.85033,2.2808 -0.33429,2.5194 1.49529,4.8165 4.01479,5.1495 0.15812,0.021 0.25993,0.06 0.41585,0.064 2.3353,0.068 4.47301,-1.6666 4.78515,-4.0287 0.12205,-0.9246 -0.0877,-1.7747 -0.28473,-2.4026 l 0.01,-0.03 c -0.18473,-0.5889 -0.38481,-0.9962 -0.53212,-1.508 -0.30107,-1.0518 -0.54284,-2.5673 -0.085,-6.0274 0.47674,-3.60525 0.98941,-4.83143 2.13894,-9.58651 0.10893,-0.44757 0.21163,-0.80473 0.32228,-1.23974 -0.18933,-0.0133 -0.35945,-0.0556 -0.54747,-0.0714 -0.98647,-0.081 -1.96086,-0.19226 -2.94929,-0.32277 -0.63266,-0.084 -1.29474,-0.1677 -1.92668,-0.26982 -0.1269,-0.0216 -0.24949,-0.0618 -0.37574,-0.0845 -0.16976,-0.0372 -0.36767,-0.0699 -0.5379,-0.10188 0.002,-0.26825 0.0127,-0.53658 0.0164,-0.79942 l 0.0303,-1.16383 c 7.1e-4,-0.0159 0.0102,-0.0153 0.01,-0.0305 0.001,-0.35151 -0.0147,-0.67982 -0.0177,-1.01125 -0.003,-0.27863 -0.005,-0.56443 -0.005,-0.83952 -13.404583,-2.53941 -24.955204,-9.50605 -33.332227,-19.18382 -0.225775,0.12606 -0.4921,0.2485 -0.721745,0.37677 -0.0099,0.008 -2.89e-4,0.0248 -0.0096,0.0305 -0.852831,0.47645 -1.695055,0.91955 -2.60454,1.46167 -0.0099,0.008 -0.03044,0.0142 -0.04002,0.0209 -0.640758,-0.75766 -1.249048,-1.53881 -1.851299,-2.32461 -0.576472,-0.75174 -1.15598,-1.49736 -1.698725,-2.2767 0.0079,-0.008 0.0019,-0.0232 0.0096,-0.0305 0.183311,-0.1808 0.396399,-0.38025 0.576992,-0.55632 l 0.815806,-0.78304 c 0.01559,-0.0155 0.03425,-0.0359 0.04963,-0.0515 0.10393,-0.10242 0.199613,-0.2128 0.298077,-0.30868 0.01559,-0.0155 0.02494,-0.005 0.04002,-0.0209 0.12389,-0.12361 0.266642,-0.25981 0.387853,-0.38105 0.193097,-0.19908 0.394216,-0.39397 0.586573,-0.58684 -6.83474,-10.04981 -10.58052,-22.26849 -10.091649,-35.11719 0.64883,0.18122 1.35164,0.40161 1.931963,0.57325 0.453341,0.13164 4.639248,1.32174 5.042667,1.44951 0.198244,-0.2039 0.394033,-0.37316 0.565643,-0.62694 0.171597,-0.25366 0.242938,-0.33371 0.523781,-0.70712 0.280364,-0.37313 0.88911,-1.1652 1.260142,-1.98444 2.269375,0.30975 3.446393,0.48655 6.243061,1.25658 3.18787,0.87786 7.185458,1.96537 10.379884,2.38809 1.379418,0.18259 2.924183,0.28109 4.517612,0.34596 -0.0058,-0.31078 0.01986,-0.62058 0.0242,-0.93106 l 0.0915,0.0287 0.827611,-6.47834 -0.07059,0.0113 c 0.07907,-0.31566 0.145883,-0.65207 0.236038,-0.96511 -1.537883,-0.35069 -3.070714,-0.64223 -4.434904,-0.82284 -3.194542,-0.42275 -7.322308,-0.4395 -10.628772,-0.42131 -2.900739,0.0159 -4.121524,-0.0443 -6.398903,-0.33333 -0.144025,-0.85291 -0.369966,-1.68434 -0.729334,-2.37456 l -0.40728,-0.73133 -0.816822,0.14577 c -0.212396,0.0363 -0.491245,0.0452 -0.828167,0.0752 -0.382825,1.77802 -0.800677,4.01464 -0.978682,5.35815 -0.19643,1.48297 -0.286849,2.93879 -0.378239,4.4069 l -2.786362,-0.84156 c -0.0096,-0.004 -0.02011,-0.006 -0.03046,-0.01 l -0.640797,-0.20124 c -0.140278,-0.044 -0.322056,-0.0709 -0.46728,-0.11328 l -1.058435,-0.36585 c -0.0014,0.0146 -0.0092,0.0156 -0.0096,0.0305 -0.266405,-0.0729 -0.598706,-0.13063 -0.873564,-0.20729 -0.570784,-0.15887 -1.157185,-0.32318 -1.758476,-0.48518 -0.656156,-0.17495 -1.263488,-0.36943 -1.941566,-0.54269 -0.01485,-0.004 -0.01561,-0.005 -0.03046,-0.01 0.02684,-0.3222 0.05963,-0.61973 0.09481,-0.94241 0.0034,-0.0451 0.01334,-0.11666 0.01746,-0.16214 0.05461,-0.625 0.128932,-1.22692 0.210557,-1.84472 0.07571,-0.57107 0.173114,-1.12937 0.263768,-1.69392 0.05841,-0.36399 0.117409,-0.74973 0.182825,-1.11591 0.01376,0.004 0.01392,0.0151 0.03046,0.01 0.253266,1.5e-4 0.521215,0.004 0.768908,0.007 l 1.133311,0.0207 c 0.01514,0.005 0.05291,-0.006 0.0706,-0.0113 0.353633,0.002 0.654659,0.0131 1.001671,0.0129 0.276498,-0.002 0.566037,-0.003 0.839516,-0.005 2.539093,-13.40537 9.504628,-24.95487 19.183817,-33.33223 -0.127793,-0.22847 -0.23221,-0.51153 -0.367184,-0.75226 -0.0086,0.007 -0.02271,-0.0179 -0.03046,-0.01 -0.472944,-0.82928 -0.978993,-1.74896 -1.49219,-2.61413 0.75518,-0.64679 1.536776,-1.24769 2.324608,-1.85129 0.752869,-0.57576 1.525688,-1.15157 2.307213,-1.68914 0.180865,0.18327 0.350009,0.38668 0.525805,0.5674 l 0.813553,0.82539 c 0.01657,0.0159 0.03565,0.034 0.05146,0.0496 0.103302,0.10324 0.212469,0.19953 0.308675,0.29808 0.139449,0.13926 0.234484,0.28502 0.37147,0.41837 0.199833,0.19309 0.434199,0.37273 0.626929,0.56564 10.588983,-7.20426 23.556383,-10.98058 37.162403,-9.98575 0.1609,-0.57114 0.33295,-1.19788 0.49477,-1.789 z"
           id="path3185-2" />
        <path
           inkscape:connector-curvature="0"
           style="font-size:medium;font-style:normal;font-variant:normal;font-weight:normal;font-stretch:normal;text-indent:0;text-align:start;text-decoration:none;line-height:normal;letter-spacing:normal;word-spacing:normal;text-transform:none;direction:ltr;block-progression:tb;writing-mode:lr-tb;text-anchor:start;baseline-shift:baseline;color:#000000;fill:#f69600;fill-opacity:1;stroke:none;stroke-width:7.92560863;marker:none;visibility:visible;display:inline;overflow:visible;enable-background:accumulate;font-family:Sans;-inkscape-font-specification:Sans"
           d="m 141.0733,873.37735 c -2.34247,-0.72231 -4.75907,-1.30806 -7.23263,-1.73496 -0.74476,-0.12876 -1.48544,-0.23494 -2.24141,-0.33514 -0.007,-10e-4 -0.0129,-0.0398 -0.0209,-0.04 -0.7766,-0.10304 -1.53684,-0.15153 -2.31026,-0.22266 -0.7701,-0.0709 -1.52323,-0.1427 -2.28932,-0.18257 -12.5208,-0.65263 -24.46087,2.80351 -34.383348,9.24936 -0.625417,0.40626 -1.260594,0.82679 -1.869677,1.25664 -0.6234,0.43994 -1.222202,0.87275 -1.827814,1.33684 -0.61372,0.47023 -1.212158,0.98082 -1.805117,1.47806 -0.568719,0.47321 -1.134624,0.92069 -1.684823,1.41527 -0.0244,0.0213 -0.03504,0.0607 -0.05919,0.0819 -9.831078,8.86528 -16.706078,21.12152 -18.583604,35.26395 -0.002,0.0101 -0.0082,0.0223 -0.0096,0.0305 -0.111766,0.84273 -0.205859,1.65492 -0.280156,2.49333 0.02335,0.007 0.02811,0.0434 0.05146,0.0496 -0.01137,0.14275 -0.0226,0.28238 -0.03308,0.42542 l 4.067964,1.24404 c 0.07625,-1.21681 0.178219,-2.41867 0.340921,-3.64759 0.155673,-1.17491 0.336724,-2.3661 0.565871,-3.50988 l -2.396497,0.052 c 2.313024,-12.25342 8.521173,-22.88375 17.14443,-30.78794 0.893539,1.66855 1.63824,3.13737 1.887373,3.81099 l 0.275642,0.72351 0.778487,-0.0237 c 0.798395,-0.0337 1.647131,-0.24236 2.488794,-0.55937 1.385627,1.82372 2.058487,2.79872 3.491773,5.32054 1.633423,2.87495 3.720929,6.4674 5.680761,9.02509 0.84709,1.10599 1.89099,2.27727 2.97352,3.44808 0.95873,-0.99374 1.99915,-1.93935 3.1273,-2.80607 1.12788,-0.86649 2.29324,-1.61624 3.50054,-2.28658 -0.84291,-1.34111 -1.70221,-2.65068 -2.54381,-3.74893 -1.9599,-2.55782 -4.87705,-5.50959 -7.22788,-7.83478 -2.062397,-2.03989 -2.83449,-2.93642 -4.240507,-4.7511 0.502011,-0.70548 0.890954,-1.45216 1.124972,-2.1945 l 0.249151,-0.79337 -0.695779,-0.45317 c -0.591877,-0.42059 -1.764148,-1.49128 -3.144242,-2.7977 9.420695,-6.01984 20.681025,-9.25814 32.510895,-8.7311 -0.54463,1.81313 -1.06603,3.37755 -1.366,4.02966 l -0.33106,0.73413 0.61558,0.49503 c 0.58827,0.54078 1.28892,1.02869 2.10827,1.3996 -0.30984,2.26941 -0.50739,3.40623 -1.27751,6.20296 -0.87775,3.18785 -1.94462,7.22584 -2.36716,10.41998 -0.18178,1.37236 -0.31685,2.92728 -0.37647,4.50803 0.32471,-0.006 0.64608,-0.002 0.97115,0.003 l 0.002,0.10106 6.43824,0.84854 0.0287,-0.0915 c 0.30096,0.0752 0.60638,0.13089 0.90408,0.21687 0.35066,-1.53784 0.642,-3.0705 0.82284,-4.4349 0.42182,-3.19382 0.47005,-7.31281 0.45182,-10.61919 -0.0156,-2.90103 0.0746,-4.11182 0.36385,-6.38932 0.8519,-0.14322 1.62308,-0.38882 2.31352,-0.74849 l 0.75227,-0.36719 -0.14577,-0.81682 c -0.12197,-0.72036 -0.194,-2.32025 -0.24592,-4.23416 11.5608,2.54772 21.59446,8.58297 29.1437,16.82922 -1.6679,0.89332 -3.13783,1.63834 -3.81098,1.88737 l -0.72351,0.27564 0.0237,0.77849 c 0.0341,0.798 0.20229,1.66805 0.51927,2.50973 -1.82428,1.38606 -2.75841,2.03786 -5.28044,3.47084 -2.87435,1.63312 -6.46721,3.72083 -9.02509,5.68075 -1.10569,0.84685 -2.27725,1.89106 -3.44808,2.97352 0.99361,0.9588 1.93946,1.99931 2.80607,3.1273 0.87321,1.13662 1.61265,2.28363 2.28658,3.50054 1.34092,-0.84292 2.64104,-1.67173 3.73935,-2.51329 2.55782,-1.95984 5.51919,-4.90753 7.84436,-7.2584 2.03989,-2.06241 2.93635,-2.83449 4.7511,-4.2405 0.70444,0.50164 1.45229,0.89124 2.1945,1.12497 l 0.79337,0.24915 0.45317,-0.69577 c 0.41998,-0.59147 1.49155,-1.76411 2.7977,-3.14425 5.66392,8.86319 8.87171,19.33044 8.79514,30.38549 0.26261,0.0825 0.5072,0.16467 0.82388,0.25874 0.28846,0.0906 0.62648,0.17711 0.95551,0.2666 0.18261,-11.75112 -3.22642,-22.89299 -9.31339,-32.25795 -0.40896,-0.6293 -0.82376,-1.25689 -1.25665,-1.86968 -0.43192,-0.61623 -0.87935,-1.23079 -1.33684,-1.82781 -0.47162,-0.6154 -0.9821,-1.20889 -1.47806,-1.80512 -0.47308,-0.56876 -0.92056,-1.13426 -1.41526,-1.68482 -0.0213,-0.0238 -0.0604,-0.0353 -0.0819,-0.0592 -6.81742,-7.5623 -15.64878,-13.35308 -25.79949,-16.483 z"
           id="path3183-8" />
        <path
           inkscape:connector-curvature="0"
           style="font-size:medium;font-style:normal;font-variant:normal;font-weight:normal;font-stretch:normal;text-indent:0;text-align:start;text-decoration:none;line-height:normal;letter-spacing:normal;word-spacing:normal;text-transform:none;direction:ltr;block-progression:tb;writing-mode:lr-tb;text-anchor:start;baseline-shift:baseline;color:#000000;fill:#2aa600;fill-opacity:1;stroke:none;stroke-width:7.92560863;marker:none;visibility:visible;display:inline;overflow:visible;enable-background:accumulate;font-family:Sans;-inkscape-font-specification:Sans"
           d="m 181.54744,933.12151 -4.03745,-1.23446 c -0.0756,1.21626 -0.20899,2.40933 -0.37144,3.638 -0.1561,1.17532 -0.33663,2.36602 -0.56587,3.5099 l 2.40608,-0.0825 c -2.31601,12.26826 -8.51077,22.91014 -17.15401,30.81845 -0.89745,-1.67481 -1.6374,-3.13559 -1.88737,-3.81098 l -0.27564,-0.72351 -0.7785,0.0237 c -0.79836,0.0336 -1.67772,0.23286 -2.5193,0.54978 -1.38624,-1.82326 -2.0283,-2.78891 -3.46126,-5.31095 -1.63352,-2.87488 -3.72085,-6.46748 -5.68075,-9.02509 -0.84134,-1.0986 -1.8685,-2.27546 -2.94301,-3.43849 -0.95178,0.98411 -1.99956,1.91652 -3.11772,2.77555 -1.13673,0.87326 -2.32379,1.63374 -3.54064,2.30751 0.84292,1.34111 1.67161,2.64118 2.51329,3.73935 1.95909,2.55842 4.90765,5.51909 7.25841,7.84436 2.0627,2.03967 2.83458,2.93634 4.2405,4.7511 -0.50128,0.70496 -0.8912,1.4523 -1.12498,2.1945 l -0.24915,0.79337 0.66527,0.44359 c 0.59248,0.42003 1.79458,1.50095 3.17476,2.80728 -9.42087,6.00895 -20.69049,9.25871 -32.5109,8.7311 0.54825,-1.8135 1.06575,-3.37667 1.366,-4.02966 l 0.33104,-0.73408 -0.57549,-0.51596 c -0.58827,-0.54079 -1.32913,-1.00758 -2.14836,-1.37867 0.30909,-2.26879 0.54752,-3.42726 1.31761,-6.22389 0.87773,-3.18786 1.90421,-7.20469 2.32707,-10.39905 0.18165,-1.3724 0.31156,-2.92326 0.37647,-4.50804 -0.31455,0.006 -0.62663,0.0119 -0.94064,0.006 l -0.002,-0.10106 -6.43825,-0.84855 -0.0192,0.061 c -0.31569,-0.0798 -0.61188,-0.16726 -0.925,-0.25702 -0.35512,1.55318 -0.65965,3.11839 -0.842,4.49593 -0.42276,3.1945 -0.43932,7.32225 -0.42131,10.62877 0.0166,2.90027 -0.0654,4.08154 -0.35427,6.35881 -0.85349,0.14444 -1.66348,0.40988 -2.35362,0.76943 l -0.75226,0.36718 0.14577,0.81683 c 0.12133,0.71629 0.2335,2.3119 0.28601,4.21322 -11.56968,-2.54064 -21.633371,-8.56145 -29.183796,-16.80828 1.674846,-0.89747 3.135675,-1.63741 3.810977,-1.88738 l 0.723514,-0.27564 -0.02371,-0.77849 c -0.0336,-0.79827 -0.242346,-1.64721 -0.559364,-2.48879 1.823711,-1.3856 2.798496,-2.05879 5.320536,-3.49177 2.87485,-1.6335 6.467376,-3.72099 9.025083,-5.68076 1.10603,-0.84717 2.27725,-1.89106 3.44808,-2.97352 -0.99357,-0.95867 -1.91863,-1.95935 -2.78513,-3.0872 -0.87312,-1.13658 -1.63364,-2.32385 -2.307506,-3.54064 -1.341061,0.84299 -2.650463,1.70209 -3.748939,2.5438 -2.557364,1.95956 -5.509459,4.87697 -7.83477,7.22789 -2.039397,2.06204 -2.936444,2.83458 -4.751099,4.2405 -0.704941,-0.50126 -1.452315,-0.89114 -2.194507,-1.12497 l -0.793371,-0.24915 -0.45317,0.69578 c -0.420507,0.59195 -1.491399,1.76404 -2.797693,3.14424 -5.649107,-8.85574 -8.839213,-19.32817 -8.764625,-30.37591 -0.271144,-0.0851 -0.5267,-0.17613 -0.854399,-0.26831 -0.294176,-0.0924 -0.612229,-0.20084 -0.945942,-0.29707 -0.193707,11.77081 3.172602,22.90672 9.273293,32.27888 0.02814,0.0453 0.09476,0.0949 0.123837,0.13941 0.297414,0.45524 0.603541,0.91354 0.913924,1.35977 0.315038,0.45294 0.626213,0.89518 0.954021,1.33883 0.209561,0.28616 0.386193,0.57784 0.601717,0.85944 0.23241,0.30245 0.515429,0.60984 0.754287,0.90735 0.232428,0.28904 0.46451,0.57331 0.702842,0.85766 0.01302,0.017 0.007,0.0241 0.02089,0.04 0.43444,0.51887 0.870711,1.05022 1.321959,1.55495 0.06457,0.0718 0.140674,0.12699 0.205785,0.19872 8.39974,9.30235 19.824536,15.95067 33.032126,18.21796 0.74106,0.13081 1.48621,0.26698 2.23182,0.36565 0.77686,0.10279 1.56737,0.161 2.34077,0.23224 0.77077,0.0703 1.52313,0.14276 2.28932,0.18256 12.5141,0.65299 24.45294,-2.78461 34.37377,-9.21884 0.39957,-0.25964 0.80485,-0.56157 1.19938,-0.8302 0.22997,-0.15745 0.45227,-0.29629 0.67988,-0.45696 0.49315,-0.34557 0.98757,-0.68554 1.46871,-1.04733 0.11948,-0.0905 0.23046,-0.16787 0.34952,-0.25899 0.0925,-0.0707 0.17731,-0.14562 0.26933,-0.21713 1.12693,-0.87355 2.22922,-1.83411 3.28946,-2.78867 9.84084,-8.86051 16.67458,-21.12412 18.55309,-35.27354 0.002,-0.01 0.029,0.0177 0.0305,0.01 0.11146,-0.8423 0.21582,-1.68596 0.28973,-2.52385 -0.0148,-0.004 -0.0463,-0.0145 -0.061,-0.0192 0.013,-0.1577 0.0308,-0.29951 0.0427,-0.45593 z"
           id="path3167-0" />
        <path
           inkscape:connector-curvature="0"
           style="font-size:medium;font-style:normal;font-variant:normal;font-weight:normal;font-stretch:normal;text-indent:0;text-align:start;text-decoration:none;line-height:normal;letter-spacing:normal;word-spacing:normal;text-transform:none;direction:ltr;block-progression:tb;writing-mode:lr-tb;text-anchor:start;baseline-shift:baseline;color:#000000;fill:#acacac;fill-opacity:1;stroke:none;stroke-width:7.92560863;marker:none;visibility:visible;display:inline;overflow:visible;enable-background:accumulate;font-family:Sans;-inkscape-font-specification:Sans"
           d="m 131.49385,902.92045 c -1.28667,-0.3734 -2.62154,-0.67145 -3.9903,-0.85084 -14.59956,-1.91444 -28.032076,8.37902 -29.945574,22.97969 -1.912839,14.60131 8.410714,28.04084 23.010204,29.95516 14.59966,1.91243 28.03226,-8.38025 29.94557,-22.97969 0.95649,-7.30085 -1.1417,-14.31987 -5.3013,-19.73406 -3.37961,-4.3991 -8.14309,-7.75213 -13.7186,-9.37026 z m -0.4756,1.72796 c 5.20484,1.5059 9.60091,4.62789 12.74642,8.72972 3.87179,5.04822 5.81631,11.56021 4.92352,18.37505 -1.78593,13.62731 -14.23039,23.24159 -27.85801,21.45623 -13.6275,-1.78683 -23.232111,-14.25914 -21.446646,-27.88852 1.786166,-13.62863 14.261146,-23.23366 27.888526,-21.44665 1.27765,0.16745 2.54507,0.42665 3.74619,0.77417 z"
           id="path3157-8" />
        <path
           inkscape:connector-curvature="0"
           style="font-size:medium;font-style:normal;font-variant:normal;font-weight:normal;font-stretch:normal;text-indent:0;text-align:start;text-decoration:none;line-height:normal;letter-spacing:normal;word-spacing:normal;text-transform:none;direction:ltr;block-progression:tb;writing-mode:lr-tb;text-anchor:start;baseline-shift:baseline;color:#000000;fill:#f69600;fill-opacity:1;stroke:none;stroke-width:7.92560863;marker:none;visibility:visible;display:inline;overflow:visible;enable-background:accumulate;font-family:Sans;-inkscape-font-specification:Sans"
           d="m 130.63922,905.53509 c -1.12553,-0.31924 -2.29943,-0.57165 -3.49249,-0.72803 -6.36342,-0.834 -12.48228,0.90124 -17.28108,4.42899 l 1.11794,1.45736 c 3.59806,-2.63426 8.00943,-4.21717 12.68076,-4.29807 l -0.58403,4.20819 6.50886,0.8372 0.54393,-4.18726 c 3.60402,1.02443 6.75113,2.96492 9.3109,5.4718 l -11.42963,8.74732 1.09701,1.41726 11.56908,-8.87114 c 0.18282,0.2106 0.39271,0.43045 0.56768,0.6476 l 1.49745,-1.13887 c -3.02884,-3.77425 -7.22908,-6.60897 -12.10638,-7.99235 z"
           id="path4019-4" />
        <path
           inkscape:connector-curvature="0"
           style="font-size:medium;font-style:normal;font-variant:normal;font-weight:normal;font-stretch:normal;text-indent:0;text-align:start;text-decoration:none;line-height:normal;letter-spacing:normal;word-spacing:normal;text-transform:none;direction:ltr;block-progression:tb;writing-mode:lr-tb;text-anchor:start;baseline-shift:baseline;color:#000000;fill:#0084ae;fill-opacity:1;stroke:none;stroke-width:7.92560863;marker:none;visibility:visible;display:inline;overflow:visible;enable-background:accumulate;font-family:Sans;-inkscape-font-specification:Sans"
           d="m 143.32638,914.34678 -1.49745,1.13887 c 0.18249,0.24933 0.35702,0.51311 0.52934,0.76966 l -11.52899,8.85021 1.08742,1.44777 11.42005,-8.7168 c 1.72869,3.09249 2.76113,6.60769 2.83034,10.30898 l -4.17767,-0.57444 -0.86771,6.49927 4.21777,0.55351 c -1.28202,4.49281 -3.94056,8.31727 -7.41284,11.11504 l 1.08742,1.44777 c 4.64542,-3.72771 7.93783,-9.18597 8.77182,-15.54918 0.83395,-6.36324 -0.93173,-12.49166 -4.4595,-17.29066 z"
           id="path4017-9" />
        <path
           inkscape:connector-curvature="0"
           style="font-size:medium;font-style:normal;font-variant:normal;font-weight:normal;font-stretch:normal;text-indent:0;text-align:start;text-decoration:none;line-height:normal;letter-spacing:normal;word-spacing:normal;text-transform:none;direction:ltr;block-progression:tb;writing-mode:lr-tb;text-anchor:start;baseline-shift:baseline;color:#000000;fill:#ffff00;fill-opacity:1;stroke:none;stroke-width:7.92560863;marker:none;visibility:visible;display:inline;overflow:visible;enable-background:accumulate;font-family:Sans;-inkscape-font-specification:Sans"
           d="m 118.37305,908.08602 -4.59173,3.51951 3.97471,5.17048 1.10783,-0.85894 7.50271,0.98169 -1.15751,0.91039 1.09701,1.41726 6.30883,-4.82407 -1.0665,-1.40767 -3.41504,2.54808 -7.53323,-0.99127 1.71711,-1.30456 -3.94419,-5.1609 z"
           id="path4015-2" />
        <path
           inkscape:connector-curvature="0"
           style="font-size:medium;font-style:normal;font-variant:normal;font-weight:normal;font-stretch:normal;text-indent:0;text-align:start;text-decoration:none;line-height:normal;letter-spacing:normal;word-spacing:normal;text-transform:none;direction:ltr;block-progression:tb;writing-mode:lr-tb;text-anchor:start;baseline-shift:baseline;color:#000000;fill:#620074;fill-opacity:1;stroke:none;stroke-width:7.92560863;marker:none;visibility:visible;display:inline;overflow:visible;enable-background:accumulate;font-family:Sans;-inkscape-font-specification:Sans"
           d="m 109.09776,909.86651 c -4.64541,3.72782 -7.93781,9.18576 -8.77182,15.54919 -0.83391,6.36324 0.94125,12.46123 4.46908,17.26014 l 1.40768,-1.06649 c -0.17496,-0.23946 -0.33342,-0.51375 -0.49882,-0.76007 l 11.57867,-8.90166 -1.12752,-1.42685 -11.40871,8.78742 c -1.72685,-3.09803 -2.70776,-6.67927 -2.77107,-10.39094 l 4.11665,0.55528 0.85812,-6.46876 -4.12623,-0.52476 c 1.282,-4.49271 3.91959,-8.35749 7.39191,-11.15514 l -1.11794,-1.45736 z"
           id="path4013-0" />
        <path
           inkscape:connector-curvature="0"
           style="font-size:medium;font-style:normal;font-variant:normal;font-weight:normal;font-stretch:normal;text-indent:0;text-align:start;text-decoration:none;line-height:normal;letter-spacing:normal;word-spacing:normal;text-transform:none;direction:ltr;block-progression:tb;writing-mode:lr-tb;text-anchor:start;baseline-shift:baseline;color:#000000;fill:#ef0000;fill-opacity:1;stroke:none;stroke-width:7.92560863;marker:none;visibility:visible;display:inline;overflow:visible;enable-background:accumulate;font-family:Sans;-inkscape-font-specification:Sans"
           d="m 110.32795,914.27567 -4.62224,3.50993 3.99563,5.21058 1.33707,-1.05515 14.37712,18.6955 -3.67986,-0.45164 1.18803,-0.9008 -1.14846,-1.46695 -6.32799,4.8851 1.09701,1.41726 3.45514,-2.56902 6.74162,0.84325 0.31044,0.3992 -1.33707,1.05515 3.95378,5.13038 1.35799,-1.01505 1.41726,-1.09701 1.84698,-1.39786 -3.9747,-5.17048 -1.10783,0.85894 -1.28765,-0.16971 -15.46455,-20.14327 1.8374,-1.36735 -3.96512,-5.201 z"
           id="path4011-8" />
        <path
           inkscape:connector-curvature="0"
           style="font-size:medium;font-style:normal;font-variant:normal;font-weight:normal;font-stretch:normal;text-indent:0;text-align:start;text-decoration:none;line-height:normal;letter-spacing:normal;word-spacing:normal;text-transform:none;direction:ltr;block-progression:tb;writing-mode:lr-tb;text-anchor:start;baseline-shift:baseline;color:#000000;fill:#ffff00;fill-opacity:1;stroke:none;stroke-width:7.92560863;marker:none;visibility:visible;display:inline;overflow:visible;enable-background:accumulate;font-family:Sans;-inkscape-font-specification:Sans"
           d="m 139.92249,923.9048 -6.30883,4.82407 1.08743,1.44777 1.14793,-0.87988 -0.98169,7.50272 -1.10783,0.85894 4.0148,5.14955 4.56121,-3.52908 -3.93461,-5.19142 -1.72669,1.33508 0.98169,-7.50272 3.38453,-2.55767 -1.11794,-1.45736 z"
           id="path4009-8" />
        <path
           inkscape:connector-curvature="0"
           style="font-size:medium;font-style:normal;font-variant:normal;font-weight:normal;font-stretch:normal;text-indent:0;text-align:start;text-decoration:none;line-height:normal;letter-spacing:normal;word-spacing:normal;text-transform:none;direction:ltr;block-progression:tb;writing-mode:lr-tb;text-anchor:start;baseline-shift:baseline;color:#000000;fill:#acacac;fill-opacity:1;stroke:none;stroke-width:7.92560863;marker:none;visibility:visible;display:inline;overflow:visible;enable-background:accumulate;font-family:Sans;-inkscape-font-specification:Sans"
           d="m 113.38022,926.86691 -6.31841,4.85458 1.08743,1.44777 6.31841,-4.85458 -1.08743,-1.44777 z"
           id="path4007-6" />
        <path
           inkscape:connector-curvature="0"
           style="font-size:medium;font-style:normal;font-variant:normal;font-weight:normal;font-stretch:normal;text-indent:0;text-align:start;text-decoration:none;line-height:normal;letter-spacing:normal;word-spacing:normal;text-transform:none;direction:ltr;block-progression:tb;writing-mode:lr-tb;text-anchor:start;baseline-shift:baseline;color:#000000;fill:#2aa600;fill-opacity:1;stroke:none;stroke-width:7.92560863;marker:none;visibility:visible;display:inline;overflow:visible;enable-background:accumulate;font-family:Sans;-inkscape-font-specification:Sans"
           d="m 118.99086,934.1938 -11.56909,8.87114 c -0.19002,-0.21844 -0.41679,-0.43158 -0.59819,-0.65718 l -1.44777,1.08743 c 3.72768,4.64529 9.18594,7.93786 15.54919,8.77181 6.36297,0.83376 12.52228,-0.92209 17.32117,-4.44991 l -1.12752,-1.42685 c -3.59814,2.63402 -7.99992,4.18653 -12.67117,4.26755 l 0.54393,-4.18725 -6.46876,-0.85813 -0.57444,4.17767 c -3.59039,-1.02239 -6.74614,-2.91143 -9.29956,-5.40118 l 11.43921,-8.77784 -1.097,-1.41726 z"
           id="path3984-8-9" />
        <path
           transform="matrix(0.73684214,0,0,0.73684208,-7.8325811,796.49813)"
           d="m 306.32838,179.19537 c 0,70.3411 -57.02273,127.36383 -127.36383,127.36383 -70.34109,0 -127.363819,-57.02273 -127.363819,-127.36383 0,-70.34109 57.022729,-127.363819 127.363819,-127.363819 70.3411,0 127.36383,57.022729 127.36383,127.363819 z"
           sodipodi:ry="127.36382"
           sodipodi:rx="127.36382"
           sodipodi:cy="179.19537"
           sodipodi:cx="178.96455"
           id="path3057"
           style="fill:none;fill-opacity:1;stroke:none"
           sodipodi:type="arc" />
        <g
           id="text3119"
           style="font-size:14.73684216px;font-style:normal;font-variant:normal;font-weight:normal;font-stretch:normal;text-align:start;line-height:125%;letter-spacing:0px;word-spacing:0px;text-anchor:start;fill:#000000;fill-opacity:1;stroke:none;font-family:Arial;-inkscape-font-specification:Arial"
           inkscape:transform-center-y="-98.708772"
           inkscape:transform-center-x="-0.9279885"
           transform="matrix(-0.86016503,-0.51001576,0.51001584,-0.86016503,-34.005888,1917.4827)">
          <path
             id="path3229"
             style="font-size:13.26315784px;font-style:normal;font-variant:normal;font-weight:500;font-stretch:normal;fill:#ffffff;stroke:#ffffff;stroke-width:0.7368421;font-family:OCRA;-inkscape-font-specification:OCRA Medium"
             d="m 470.29927,930.40469 c -0.95375,-0.0477 -0.94051,-0.047 -1.06171,-0.0132 -0.14837,0.0457 -0.27355,0.15896 -0.36031,0.3007 -0.0437,0.0775 -0.0616,0.16956 -0.0662,0.26228 -0.005,0.10598 -0.008,0.15896 0.0278,0.24043 0.0583,0.16227 0.18413,0.30136 0.33978,0.37554 0.10398,0.045 0.14372,0.047 0.4219,0.0609 l 0.23844,0.0119 -0.0305,0.60934 -0.0311,0.62259 -3.97399,-0.1987 c -4.30514,-0.21525 -4.01306,-0.21393 -4.14817,-0.16756 -0.0808,0.0225 -0.13578,0.0596 -0.23248,0.13445 -0.0835,0.0755 -0.12584,0.1265 -0.15697,0.21791 -0.0749,0.16889 -0.0696,0.32851 0.001,0.50469 0.0715,0.16293 0.21129,0.28944 0.39409,0.3517 0.0391,0.0152 0.22453,0.0245 4.0528,0.21592 l 4.00047,0.20002 -0.0311,0.62259 -0.0305,0.60934 -0.23844,-0.0119 c -0.26493,-0.0132 -0.31858,-0.003 -0.42588,0.0186 -0.14902,0.0589 -0.27354,0.15896 -0.36031,0.3007 -0.0437,0.0775 -0.0616,0.16955 -0.0669,0.27553 -0.005,0.0927 -0.007,0.14571 0.0278,0.24042 0.0583,0.16227 0.18412,0.30136 0.34043,0.3623 0.11657,0.0589 0.0901,0.0576 1.05708,0.10597 l 0.87428,0.0437 0.15631,-3.1262 0.15631,-3.1262 -0.87428,-0.0437" />
          <path
             id="path3231"
             style="font-size:13.26315784px;font-style:normal;font-variant:normal;font-weight:500;font-stretch:normal;fill:#ffffff;stroke:#ffffff;stroke-width:0.7368421;font-family:OCRA;-inkscape-font-specification:OCRA Medium"
             d="m 465.60746,940.1592 -4.85159,-0.7378 -0.42673,2.80605 c -0.36092,2.37334 -0.42673,2.80606 -0.42159,2.8605 0.007,0.30956 0.23693,0.55924 0.53851,0.6051 0.30159,0.0459 0.59574,-0.12405 0.69406,-0.41766 0.0191,-0.0373 0.0729,-0.39138 0.3521,-2.22711 l 0.33301,-2.18977 1.4817,0.22533 1.4817,0.22533 -0.14955,0.98343 c -0.1524,1.09032 -0.15155,0.99654 -0.10793,1.15074 0.0476,0.12799 0.12545,0.23373 0.2466,0.31923 0.0969,0.0684 0.14738,0.0895 0.26539,0.10744 0.11801,0.018 0.17246,0.0128 0.28533,-0.0237 0.1411,-0.0456 0.24684,-0.12345 0.33035,-0.23149 0.0875,-0.13426 0.0735,-0.0425 0.23905,-1.1308 l 0.14955,-0.98343 1.4817,0.22532 1.4817,0.22533 -0.333,2.18977 c -0.27917,1.83574 -0.33301,2.18978 -0.32588,2.23111 0.007,0.30956 0.23693,0.55924 0.53851,0.6051 0.30159,0.0459 0.59574,-0.12405 0.69405,-0.41766 0.0211,-0.0505 0.0869,-0.48317 0.44782,-2.85651 l 0.42673,-2.80605 -4.85159,-0.73781" />
          <path
             id="path3233"
             style="font-size:13.26315784px;font-style:normal;font-variant:normal;font-weight:500;font-stretch:normal;fill:#ffffff;stroke:#ffffff;stroke-width:0.7368421;font-family:OCRA;-inkscape-font-specification:OCRA Medium"
             d="m 467.91791,954.16646 c 0.0656,-0.57209 -0.12935,-1.14301 -0.52817,-1.56112 -0.0766,-0.0746 -2.29078,-2.00281 -2.41545,-2.10352 -0.21744,-0.16576 -0.44484,-0.29301 -0.7174,-0.40452 -0.15078,-0.0527 -0.48466,-0.13892 -0.64208,-0.16589 -0.29246,-0.0345 -0.56588,-0.0366 -0.82357,0.006 -0.15785,0.0277 -3.04176,0.63878 -3.13208,0.67024 -0.5676,0.18212 -1.01803,0.6 -1.22822,1.14844 -0.0493,0.13793 -0.65317,2.47509 -0.66355,2.56829 -0.0249,0.30863 0.1788,0.58045 0.47416,0.65676 0.24399,0.063 0.51163,-0.0185 0.66124,-0.22643 0.0812,-0.1023 0.0418,-0.003 0.40636,-1.36076 0.2986,-1.15574 0.31851,-1.23279 0.34462,-1.28084 0.0684,-0.10562 0.19145,-0.21081 0.30125,-0.26463 0.0452,-0.0157 0.24816,-0.0592 0.84434,-0.19282 0.97318,-0.21432 2.11705,-0.45303 2.21689,-0.46833 0.087,-0.0186 0.25106,-0.0173 0.35711,-0.004 0.12221,0.004 0.37904,0.0705 0.48797,0.12607 0.0994,0.0394 0.24356,0.11772 0.31066,0.17615 0.0799,0.0618 0.95218,0.82136 1.69976,1.48026 0.46967,0.40901 0.62622,0.54535 0.65811,0.58099 0.07,0.10027 0.1267,0.25191 0.13536,0.37744 -4.3e-4,0.0547 -0.0203,0.13173 -0.31893,1.28746 -0.35168,1.3612 -0.32514,1.25847 -0.30363,1.38731 0.0302,0.25437 0.22482,0.45535 0.46881,0.51839 0.29535,0.0763 0.60527,-0.0628 0.73294,-0.34489 0.0228,-0.0352 0.0792,-0.25351 0.3413,-1.26799 0.29528,-1.14289 0.3185,-1.23278 0.3322,-1.33883" />
          <path
             id="path3235"
             style="font-size:13.26315784px;font-style:normal;font-variant:normal;font-weight:500;font-stretch:normal;fill:#ffffff;stroke:#ffffff;stroke-width:0.7368421;font-family:OCRA;-inkscape-font-specification:OCRA Medium"
             d="m 465.68571,961.81038 c 0.0258,-0.14602 0.004,-0.23908 -0.0588,-0.37545 -0.0626,-0.13637 -0.12339,-0.20134 -0.24636,-0.28936 -0.0824,-0.0447 -8.12855,-3.02768 -8.20778,-3.04291 -0.15063,-0.0134 -0.25151,-0.008 -0.38788,0.0542 -0.10228,0.047 -0.16264,0.0953 -0.21518,0.1607 -0.12211,0.13862 -0.165,0.29246 -0.15032,0.48179 0.0207,0.13498 0.0709,0.26674 0.17677,0.36259 0.10913,0.12533 -0.0852,0.0391 1.8921,0.77219 l 1.75348,0.65007 -0.65008,1.75349 -0.64546,1.74104 -1.72861,-0.64085 c -1.8654,-0.69157 -1.77835,-0.6593 -1.90411,-0.66349 -0.0885,0.01 -0.14741,0.0161 -0.26674,0.0709 -0.10228,0.047 -0.15803,0.0829 -0.21517,0.16069 -0.12212,0.13862 -0.16501,0.29246 -0.14572,0.46936 0.0161,0.14741 0.0709,0.26674 0.17217,0.37502 0.0327,0.0263 0.0732,0.0696 0.0935,0.0912 0.0451,0.0309 0.2068,0.0908 4.14902,1.55233 3.92979,1.45691 4.10389,1.52146 4.15825,1.52746 0.0295,-0.003 0.0884,-0.01 0.13037,-0.008 0.14741,-0.0161 0.26673,-0.0709 0.37502,-0.17216 0.12994,-0.12157 0.18527,-0.2708 0.19546,-0.45091 -0.005,-0.10089 -0.0115,-0.15985 -0.0709,-0.26674 -0.0423,-0.11472 -0.0829,-0.15803 -0.14365,-0.223 -0.11053,-0.0834 -0.011,-0.0465 -1.87644,-0.7381 l -1.72861,-0.64086 0.64546,-1.74104 0.65008,-1.75348 1.75348,0.65007 c 1.97733,0.73307 1.77374,0.67174 1.9382,0.64784 0.1428,-0.004 0.26674,-0.0709 0.37041,-0.15973 0.0263,-0.0327 0.0696,-0.0732 0.0788,-0.0981 0.0479,-0.053 0.0986,-0.18976 0.10925,-0.25655" />
          <path
             id="path3237"
             style="font-size:13.26315784px;font-style:normal;font-variant:normal;font-weight:500;font-stretch:normal;fill:#ffffff;stroke:#ffffff;stroke-width:0.7368421;font-family:OCRA;-inkscape-font-specification:OCRA Medium"
             d="m 457.90851,969.05264 c -4.487,-2.20654 -4.17171,-2.06627 -4.31414,-2.07719 -0.0831,-0.0113 -0.14828,9.8e-4 -0.26671,0.0314 -0.10653,0.0363 -0.1715,0.0782 -0.23042,0.13795 -0.1356,0.12546 -0.19393,0.27414 -0.19861,0.46398 0.001,0.17794 0.0794,0.34944 0.22264,0.47899 0.0299,0.0295 0.18458,0.10555 3.18385,1.58047 l 3.14815,1.56292 -4.10589,-0.18639 -4.12365,-0.18033 -0.37459,0.76172 -0.36873,0.74982 4.16566,2.04851 c 3.98713,1.96072 4.16566,2.04851 4.21912,2.06002 0.19589,0.0224 0.37949,-0.0203 0.52114,-0.12801 0.14164,-0.1077 0.21188,-0.25053 0.24036,-0.42866 0.0113,-0.0831 0.005,-0.16019 -0.0254,-0.24896 -0.0365,-0.13619 -0.0904,-0.20701 -0.19786,-0.319 -0.0357,-0.0176 -0.26789,-0.14652 -3.18385,-1.58048 l -3.154,-1.55101 3.91,0.16395 4.12365,0.18034 0.20175,0.0105 0.38063,-0.74397 0.36873,-0.74982 -4.14186,-2.0368" />
          <path
             id="path3239"
             style="font-size:13.26315784px;font-style:normal;font-variant:normal;font-weight:500;font-stretch:normal;fill:#ffffff;stroke:#ffffff;stroke-width:0.7368421;font-family:OCRA;-inkscape-font-specification:OCRA Medium"
             d="m 455.68657,982.88367 c 0.059,-0.11949 0.0787,-0.20104 0.10123,-0.3121 0.0956,-0.37818 0.0549,-0.7634 -0.11383,-1.11909 -0.0506,-0.0942 -1.69401,-2.79498 -1.77836,-2.91026 -0.15323,-0.20527 -0.32756,-0.37679 -0.5314,-0.55113 -0.12794,-0.0956 -0.42036,-0.27838 -0.56235,-0.35149 -0.25727,-0.11389 -0.48784,-0.19544 -0.72824,-0.23622 -0.14059,-0.0253 -3.28837,-0.31925 -3.39522,-0.32347 -0.31633,0.006 -0.61578,0.0843 -0.87588,0.25022 -0.60736,0.37113 -0.90262,1.09375 -0.73113,1.79529 0.0295,0.12794 0.0843,0.24042 0.13917,0.35289 0.0197,0.0436 0.42175,0.70155 0.87442,1.45372 0.86598,1.41717 0.90815,1.47481 1.0642,1.65056 0.41894,0.48082 0.9616,0.78873 1.58722,0.91388 0.0998,0.0155 0.5244,0.0619 1.72362,0.17017 0.88571,0.0844 1.64208,0.15049 1.70112,0.15612 0.58204,0.0197 1.13597,-0.29098 1.43826,-0.7746 0.0351,-0.0562 0.0661,-0.13074 0.0872,-0.16449 m -1.22733,-0.43868 c -0.0534,0.0605 -0.11529,0.0844 -0.18839,0.10122 -0.0548,0.0127 -0.0844,0.01 -0.94054,-0.0717 l -1.59428,-0.15189 c -0.5975,-0.045 -0.70857,-0.0675 -0.80838,-0.083 -0.14481,-0.0436 -0.24884,-0.0773 -0.37959,-0.14341 -0.18698,-0.10124 -0.35287,-0.23621 -0.49767,-0.40492 -0.0576,-0.0829 -0.12653,-0.17293 -0.42877,-0.69031 l -0.83506,-1.36655 c -0.44845,-0.73389 -0.46391,-0.7592 -0.48781,-0.82106 -0.0225,-0.13918 0.007,-0.2615 0.11108,-0.35288 0.0534,-0.0604 0.10404,-0.0914 0.17714,-0.10824 0.0661,-0.006 0.0956,-0.003 1.63083,0.14345 0.85619,0.0816 1.60553,0.15893 1.6463,0.16877 0.0886,0.008 0.23337,0.052 0.33038,0.097 0.10403,0.0337 0.34022,0.18137 0.42738,0.26713 0.0829,0.0675 0.18557,0.17856 0.23196,0.25448 0.0267,0.0323 0.41331,0.665 0.87301,1.40592 0.78023,1.25408 0.81959,1.34125 0.83224,1.39608 0.0408,0.13497 -0.007,0.26149 -0.0998,0.3599" />
          <path
             id="path3241"
             style="font-size:13.26315784px;font-style:normal;font-variant:normal;font-weight:500;font-stretch:normal;fill:#ffffff;stroke:#ffffff;stroke-width:0.7368421;font-family:OCRA;-inkscape-font-specification:OCRA Medium"
             d="m 451.20795,989.58376 c 0.0685,-0.13154 0.0753,-0.22693 0.0565,-0.3758 -0.0141,-0.11166 -0.0316,-0.17562 -0.0782,-0.24536 -0.0723,-0.12321 0.19206,0.0986 -3.75867,-2.96629 l -3.64682,-2.82918 -1.73978,2.24259 c -1.4715,1.89677 -1.73978,2.24259 -1.76182,2.29264 -0.14507,0.27354 -0.0656,0.60381 0.17547,0.79079 0.24102,0.18699 0.58069,0.18192 0.80959,-0.0266 0.0349,-0.0233 0.25437,-0.30625 1.39255,-1.77337 l 1.35767,-1.75005 3.16478,2.4552 c 3.02854,2.34951 3.16477,2.4552 3.21482,2.47724 0.12918,0.0499 0.27228,0.0602 0.39206,0.0356 0.0721,-0.028 0.18953,-0.0712 0.24065,-0.11547 0.0616,-0.0361 0.15104,-0.15141 0.18121,-0.21193" />
          <path
             id="path3243"
             style="font-size:13.26315784px;font-style:normal;font-variant:normal;font-weight:500;font-stretch:normal;fill:#ffffff;stroke:#ffffff;stroke-width:0.7368421;font-family:OCRA;-inkscape-font-specification:OCRA Medium"
             d="m 442.93434,999.45141 c 0.0818,-0.10521 0.11748,-0.18115 0.1618,-0.28544 0.16956,-0.3513 0.20694,-0.73686 0.11306,-1.11917 -0.0307,-0.10244 -1.09867,-3.07806 -1.15816,-3.20793 -0.10893,-0.23184 -0.24529,-0.43486 -0.41001,-0.64656 -0.10614,-0.11933 -0.35593,-0.35707 -0.48036,-0.45719 -0.22919,-0.16319 -0.4387,-0.28935 -0.66603,-0.37755 -0.13265,-0.053 -3.15741,-0.97265 -3.26124,-0.99823 -0.31102,-0.058 -0.62018,-0.0409 -0.90828,0.0694 -0.66948,0.2417 -1.10374,0.89037 -1.07652,1.61205 0.003,0.13126 0.0344,0.25245 0.0655,0.37364 0.0105,0.0466 0.27238,0.77192 0.56491,1.59962 0.56397,1.56212 0.59372,1.62706 0.71132,1.83054 0.31393,0.55512 0.78377,0.96566 1.37154,1.21381 0.0947,0.0352 0.50132,0.16585 1.65441,0.5126 0.85076,0.26041 1.57847,0.47693 1.63519,0.49433 0.56625,0.1361 1.17126,-0.057 1.56444,-0.47024 0.0457,-0.048 0.091,-0.11482 0.11841,-0.14365 m -1.11433,-0.67605 c -0.0645,0.0485 -0.12987,0.0595 -0.20488,0.0614 -0.0563,0.001 -0.0846,-0.007 -0.90701,-0.25902 l -1.53136,-0.46874 c -0.57632,-0.16399 -0.68061,-0.20832 -0.77529,-0.24351 -0.13311,-0.0718 -0.22826,-0.12569 -0.34309,-0.21667 -0.16286,-0.13669 -0.29829,-0.30221 -0.40629,-0.49654 -0.0398,-0.0928 -0.0892,-0.19481 -0.28152,-0.76231 l -0.54383,-1.50633 c -0.29206,-0.80896 -0.30213,-0.83686 -0.31313,-0.90225 0.006,-0.14087 0.0594,-0.25477 0.17963,-0.32341 0.0645,-0.0485 0.12026,-0.0686 0.19527,-0.0705 0.0659,0.008 0.0942,0.0164 1.56886,0.46781 0.8224,0.25173 1.54098,0.47788 1.57894,0.4957 0.0851,0.026 0.21819,0.0978 0.30419,0.16135 0.0951,0.0539 0.29691,0.24595 0.36508,0.34746 0.0677,0.0828 0.14597,0.21216 0.17618,0.29585 0.0197,0.037 0.27145,0.73441 0.57312,1.55251 0.51269,1.38514 0.53376,1.47844 0.53515,1.53469 0.0129,0.1404 -0.0594,0.25477 -0.17002,0.33255" />
          <path
             id="path3245"
             style="font-size:13.26315784px;font-style:normal;font-variant:normal;font-weight:500;font-stretch:normal;fill:#ffffff;stroke:#ffffff;stroke-width:0.7368421;font-family:OCRA;-inkscape-font-specification:OCRA Medium"
             d="m 434.94134,1007.0587 c 0.28893,-0.3354 0.45122,-0.7369 0.47538,-1.1771 0.0158,-0.084 -0.0133,-0.5654 -0.0485,-1.5839 -0.0423,-0.8027 -0.0917,-1.5119 -0.096,-1.578 -0.0449,-0.3985 -0.20195,-0.8055 -0.44818,-1.1535 -0.0922,-0.1481 -2.38997,-2.82521 -2.51376,-2.92871 -0.4304,-0.39963 -1.01891,-0.57618 -1.59861,-0.49811 -0.19994,0.0318 -0.42286,0.11825 -0.60838,0.20757 -0.17688,0.0994 -0.16682,0.0907 -1.26383,1.03232 -0.96617,0.82923 -1.0165,0.87243 -1.09844,0.96023 -0.43125,0.4751 -0.59481,1.1398 -0.43471,1.754 0.0678,0.2215 0.13838,0.4056 0.25646,0.5839 0.0677,0.099 0.11088,0.1495 0.94016,1.1157 l 0.87247,1.0165 0.97624,-0.8379 c 1.04669,-0.8984 1.00643,-0.8639 1.07109,-0.9718 0.0532,-0.081 0.0675,-0.1453 0.0761,-0.2576 -9e-5,-0.1222 0.004,-0.1783 -0.0347,-0.2848 -0.0648,-0.1366 -0.15121,-0.2372 -0.27786,-0.3033 -0.0892,-0.063 -0.15398,-0.078 -0.26619,-0.086 -0.11222,-0.01 -0.17839,-0 -0.26612,0.036 -0.10643,0.039 -0.11649,0.048 -0.63984,0.4967 l -0.49315,0.4233 -0.46647,-0.5435 c -0.50966,-0.5938 -0.47511,-0.5535 -0.51117,-0.6973 -0.0461,-0.1352 -0.0347,-0.2849 0.0314,-0.4115 0.0575,-0.1367 -0.0331,-0.059 1.09408,-1.0265 1.13727,-0.97609 1.03663,-0.8897 1.18046,-0.92577 0.18267,-0.0519 0.36827,-0.019 0.52946,0.0874 0.0446,0.0316 0.0965,0.092 1.23671,1.42047 l 1.20073,1.399 0.0418,0.069 c 0.0908,0.1668 0.14408,0.3308 0.16002,0.4919 -0.003,0.037 0.0393,0.7178 0.0744,1.4918 0.0787,1.5579 0.083,1.5018 0.0155,1.6471 -0.0575,0.1367 0.013,0.076 -0.88273,0.8451 -0.86553,0.7429 -0.80515,0.691 -0.86117,0.809 -0.12069,0.226 -0.0759,0.5022 0.0882,0.6934 0.19868,0.2315 0.53248,0.2945 0.79851,0.1361 0.0388,-0.016 0.17973,-0.1368 0.83391,-0.6983 0.71457,-0.6133 0.78502,-0.6738 0.8569,-0.7529" />
          <path
             id="path3247"
             style="font-size:13.26315784px;font-style:normal;font-variant:normal;font-weight:500;font-stretch:normal;fill:#ffffff;stroke:#ffffff;stroke-width:0.7368421;font-family:OCRA;-inkscape-font-specification:OCRA Medium"
             d="m 429.09216,1011.7541 c 0.15141,-0.1539 0.22799,-0.3689 0.18718,-0.5667 -0.0332,-0.187 -0.14692,-0.3503 -0.30318,-0.4354 -0.14537,-0.093 -0.35178,-0.1106 -0.53447,-0.048 l -0.0587,0.01 -0.80542,0.5609 -0.8163,0.5685 -2.07679,-2.9822 -2.07679,-2.9823 0.81631,-0.5684 0.79784,-0.5718 0.036,-0.041 c 0.19397,-0.232 0.19904,-0.5265 0.0323,-0.7659 -0.16675,-0.2395 -0.44468,-0.3369 -0.7296,-0.2354 l -0.0587,0.01 -2.1115,1.4705 c -1.57818,1.099 -2.12239,1.478 -2.14746,1.5116 -0.30709,0.2785 -0.2453,0.785 0.116,1.0021 0.1378,0.082 0.31485,0.104 0.47247,0.075 0.1207,-0.036 0.0989,-0.02 0.94789,-0.6116 l 0.79453,-0.5533 2.07679,2.9822 2.07679,2.9823 -0.79454,0.5533 c -0.64215,0.4471 -0.79453,0.5533 -0.8196,0.5869 -0.22002,0.2178 -0.24257,0.5568 -0.0682,0.8071 0.17433,0.2504 0.50006,0.3468 0.78071,0.216 0.0511,-0.019 0.36676,-0.2393 2.15174,-1.4823 1.1537,-0.8034 2.10392,-1.4813 2.1148,-1.4889" />
          <path
             id="path3249"
             style="font-size:13.26315784px;font-style:normal;font-variant:normal;font-weight:500;font-stretch:normal;fill:#ffffff;stroke:#ffffff;stroke-width:0.7368421;font-family:OCRA;-inkscape-font-specification:OCRA Medium"
             d="m 418.1895,1018.7391 c 0.11467,-0.094 0.15848,-0.1791 0.19973,-0.3233 0.0309,-0.1082 0.04,-0.1739 0.0245,-0.2564 -0.009,-0.071 -1.95398,-8.6547 -1.9823,-8.7603 -0.0154,-0.082 -0.0798,-0.1984 -0.14166,-0.2551 -0.29881,-0.3196 -0.82442,-0.2552 -1.02159,0.1273 -0.0606,0.1095 -0.0902,0.2474 -0.067,0.371 -0.005,0.018 0.0901,0.4355 0.19951,0.9057 l 0.19179,0.8644 -1.2175,0.6761 -1.2291,0.6826 -0.61437,-0.6146 c -0.33488,-0.3299 -0.63885,-0.6314 -0.66332,-0.6481 -0.14813,-0.1302 -0.3697,-0.174 -0.55779,-0.1302 -0.4058,0.089 -0.60556,0.5486 -0.39951,0.9197 0.0193,0.035 0.0451,0.081 0.058,0.1043 0.0245,0.017 1.46961,1.4444 3.21872,3.1735 2.60562,2.5886 3.18781,3.1452 3.24319,3.1903 0.11077,0.09 0.24861,0.1198 0.38516,0.1199 0.0412,-0.01 0.10049,-0.01 0.12368,-0.023 0.0825,-0.015 0.1984,-0.08 0.24994,-0.1236 m -2.80509,-3.7673 -1.29574,-1.2679 0.45222,-0.2511 c 0.2435,-0.1352 0.64933,-0.3606 0.89283,-0.4958 l 0.45221,-0.2511 0.39775,1.7817 c 0.22655,0.9816 0.39774,1.7817 0.3913,1.7701 0,0 -0.57702,-0.5747 -1.29057,-1.2859" />
          <path
             id="path3251"
             style="font-size:13.26315784px;font-style:normal;font-variant:normal;font-weight:500;font-stretch:normal;fill:#ffffff;stroke:#ffffff;stroke-width:0.7368421;font-family:OCRA;-inkscape-font-specification:OCRA Medium"
             d="m 401.34968,1026.303 c 0.19068,-0.1013 0.32834,-0.2833 0.3489,-0.4843 0.0245,-0.1883 -0.0348,-0.3781 -0.15828,-0.5063 -0.11078,-0.1321 -0.30226,-0.2113 -0.49531,-0.2065 l -0.0585,-0.01 -0.93678,0.2928 -0.94944,0.2968 -1.08419,-3.4686 -1.08418,-3.4686 0.94943,-0.2968 0.93282,-0.3055 0.0467,-0.028 c 0.25476,-0.1631 0.34811,-0.4424 0.26106,-0.7209 -0.0871,-0.2785 -0.32285,-0.4549 -0.62509,-0.4438 l -0.0586,-0.01 -2.45588,0.7677 c -1.83557,0.5737 -2.46853,0.7715 -2.50255,0.7961 -0.37661,0.1733 -0.46994,0.6749 -0.19062,0.9906 0.10682,0.1195 0.26902,0.1938 0.42806,0.2136 0.1258,0 0.10048,0.01 1.0879,-0.2984 l 0.92412,-0.2888 1.08418,3.4686 1.08419,3.4686 -0.92412,0.2889 c -0.74689,0.2334 -0.92412,0.2888 -0.95814,0.3133 -0.27533,0.1417 -0.39874,0.4582 -0.30773,0.7493 0.091,0.2912 0.37269,0.4811 0.67968,0.4407 0.0546,-0 0.42171,-0.1179 2.49781,-0.7669 1.34187,-0.4194 2.45192,-0.7802 2.46458,-0.7842" />
          <path
             id="path3253"
             style="font-size:13.26315784px;font-style:normal;font-variant:normal;font-weight:500;font-stretch:normal;fill:#ffffff;stroke:#ffffff;stroke-width:0.7368421;font-family:OCRA;-inkscape-font-specification:OCRA Medium"
             d="m 390.8755,1024.5743 c -0.99744,-4.8997 -0.91566,-4.5645 -0.9941,-4.6838 -0.0419,-0.073 -0.0914,-0.1168 -0.18794,-0.1919 -0.0939,-0.062 -0.16678,-0.088 -0.25005,-0.098 -0.18218,-0.031 -0.3355,0.014 -0.48858,0.1266 -0.14008,0.1097 -0.22795,0.2765 -0.24289,0.469 -0.005,0.042 0.0293,0.2106 0.69606,3.4857 l 0.68812,3.4468 -2.36297,-3.363 -2.37861,-3.3733 -0.83178,0.1693 -0.81878,0.1667 0.92601,4.5488 c 0.88632,4.3539 0.926,4.5488 0.94958,4.5982 0.10203,0.1687 0.2481,0.2878 0.41993,0.3341 0.17184,0.046 0.3278,0.014 0.48617,-0.072 0.0727,-0.042 0.12973,-0.094 0.18149,-0.1723 0.0854,-0.1122 0.10856,-0.1981 0.13145,-0.3516 -0.008,-0.039 -0.0479,-0.3016 -0.69606,-3.4858 l -0.70112,-3.4441 2.26094,3.1943 2.37861,3.3733 0.11502,0.1661 0.82143,-0.1537 0.81878,-0.1667 -0.92071,-4.5228" />
          <path
             id="path3255"
             style="font-size:13.26315784px;font-style:normal;font-variant:normal;font-weight:500;font-stretch:normal;fill:#ffffff;stroke:#ffffff;stroke-width:0.7368421;font-family:OCRA;-inkscape-font-specification:OCRA Medium"
             d="m 378.46755,1031.2829 c 0.55962,-0.1357 1.02827,-0.5157 1.28316,-1.0342 0.0436,-0.098 1.08982,-2.841 1.14135,-2.9928 0.0806,-0.2612 0.1216,-0.5186 0.13227,-0.8129 -0.003,-0.1596 -0.0368,-0.5028 -0.0658,-0.6599 -0.0685,-0.2864 -0.16081,-0.5437 -0.29006,-0.7708 -0.0804,-0.1386 -1.64871,-2.6348 -1.70939,-2.7087 -0.36671,-0.47 -0.9143,-0.7486 -1.50158,-0.7568 -0.14649,0 -2.54849,0.2406 -2.63956,0.263 -0.29829,0.083 -0.48316,0.3681 -0.45291,0.6716 0.025,0.2508 0.19382,0.4739 0.44059,0.5426 0.12404,0.041 0.0171,0.038 1.41743,-0.088 1.1878,-0.1184 1.26699,-0.1263 1.32109,-0.1183 0.12273,0.028 0.26391,0.107 0.3523,0.1915 0.0303,0.037 0.14113,0.2125 0.4722,0.726 0.53682,0.8395 1.15542,1.8309 1.20422,1.9193 0.0475,0.075 0.10285,0.2297 0.12657,0.334 0.0382,0.1161 0.0645,0.3801 0.05,0.5015 -0.003,0.1069 -0.0265,0.2692 -0.0582,0.3523 -0.0304,0.096 -0.44254,1.1771 -0.80317,2.106 -0.22193,0.582 -0.2959,0.7759 -0.31835,0.8182 -0.07,0.1002 -0.19276,0.2058 -0.30759,0.2572 -0.0515,0.018 -0.13067,0.026 -1.31847,0.1447 -1.39897,0.1394 -1.29339,0.1288 -1.40691,0.1935 -0.22835,0.116 -0.34986,0.368 -0.32488,0.6188 0.0302,0.3036 0.26771,0.5465 0.57652,0.569 0.0409,0.01 0.26527,-0.013 1.3079,-0.117 1.1746,-0.117 1.26699,-0.1262 1.37125,-0.1499" />
          <path
             id="path3257"
             style="font-size:13.26315784px;font-style:normal;font-variant:normal;font-weight:500;font-stretch:normal;fill:#ffffff;stroke:#ffffff;stroke-width:0.7368421;font-family:OCRA;-inkscape-font-specification:OCRA Medium"
             d="m 368.12785,1031.8239 c 0.13264,-0.013 0.21225,-0.04 0.31839,-0.079 0.37148,-0.1191 0.67676,-0.3575 0.88929,-0.6889 0.0531,-0.093 1.47499,-2.9165 1.52817,-3.0491 0.0931,-0.2386 0.14635,-0.4773 0.1864,-0.7425 0.0134,-0.1592 0.0137,-0.504 6.3e-4,-0.6632 -0.0395,-0.2785 -0.0924,-0.5173 -0.18498,-0.7429 -0.0529,-0.1327 -1.46938,-2.9591 -1.52235,-3.052 -0.17216,-0.2654 -0.39743,-0.4778 -0.67583,-0.6107 -0.63633,-0.3189 -1.40572,-0.187 -1.91021,0.3297 -0.0929,0.093 -0.15935,0.1988 -0.22577,0.3049 -0.0266,0.04 -0.37206,0.7291 -0.77071,1.5112 -0.74415,1.4848 -0.77074,1.5511 -0.83727,1.7765 -0.18627,0.6099 -0.16034,1.2333 0.0646,1.8304 0.0397,0.093 0.22502,0.4777 0.76778,1.5525 0.39713,0.7962 0.74133,1.4729 0.76781,1.526 0.2913,0.5043 0.84807,0.8099 1.41838,0.8104 0.0663,10e-5 0.14591,-0.013 0.1857,-0.013 m -0.27731,-1.2735 c -0.0796,-0.013 -0.13258,-0.053 -0.18559,-0.1063 -0.0397,-0.04 -0.053,-0.066 -0.43688,-0.836 l -0.71484,-1.4331 c -0.27802,-0.5308 -0.31771,-0.6369 -0.35741,-0.7298 -0.0396,-0.1459 -0.0661,-0.2521 -0.0792,-0.398 -0.0131,-0.2122 0.0137,-0.4244 0.0802,-0.6365 0.0399,-0.093 0.0798,-0.1989 0.35881,-0.7292 l 0.71757,-1.4317 c 0.38537,-0.7689 0.39866,-0.7954 0.4385,-0.8484 0.10619,-0.093 0.2256,-0.1324 0.35819,-0.092 0.0796,0.013 0.13259,0.04 0.1856,0.093 0.0397,0.053 0.053,0.08 0.74134,1.4597 0.3839,0.7696 0.71483,1.4463 0.72806,1.4861 0.0397,0.08 0.0794,0.2256 0.0925,0.3317 0.0264,0.1061 0.0262,0.3847 -4.8e-4,0.504 -0.0134,0.1061 -0.0533,0.2519 -0.0932,0.3315 -0.0133,0.04 -0.34551,0.7026 -0.73089,1.4848 -0.65116,1.3257 -0.70429,1.4052 -0.74412,1.4449 -0.0929,0.1061 -0.2256,0.1325 -0.3582,0.1058" />
          <path
             id="path3259"
             style="font-size:13.26315784px;font-style:normal;font-variant:normal;font-weight:500;font-stretch:normal;fill:#ffffff;stroke:#ffffff;stroke-width:0.7368421;font-family:OCRA;-inkscape-font-specification:OCRA Medium"
             d="m 357.11247,1031.2729 c 0.44214,-0.022 0.84491,-0.1808 1.18057,-0.4667 0.0713,-0.046 0.40051,-0.3993 1.11431,-1.1266 0.55256,-0.5838 1.03245,-1.1083 1.07739,-1.1571 0.25783,-0.3071 0.44453,-0.7014 0.52701,-1.1196 0.0438,-0.1689 0.40037,-3.6788 0.39006,-3.8398 -0.007,-0.5873 -0.2846,-1.1354 -0.74065,-1.5017 -0.16082,-0.123 -0.3771,-0.225 -0.56966,-0.2978 -0.19391,-0.06 -0.18072,-0.058 -1.619,-0.2045 -1.26674,-0.1287 -1.33272,-0.1354 -1.45281,-0.1343 -0.64142,0.015 -1.23583,0.3544 -1.57057,0.8937 -0.11381,0.2017 -0.19856,0.3798 -0.24639,0.5882 -0.0253,0.1174 -0.032,0.1834 -0.16064,1.4501 l -0.13539,1.3328 1.27994,0.13 c 1.37231,0.1394 1.31953,0.134 1.44231,0.1065 0.095,-0.017 0.15185,-0.051 0.23906,-0.1224 0.0885,-0.084 0.13216,-0.1199 0.18247,-0.2214 0.0543,-0.1411 0.0677,-0.2731 0.0284,-0.4104 -0.0157,-0.1082 -0.0499,-0.165 -0.12102,-0.2522 -0.0711,-0.087 -0.11989,-0.1322 -0.20958,-0.168 -0.10154,-0.05 -0.11473,-0.052 -0.80089,-0.1213 l -0.64656,-0.066 0.0724,-0.7126 c 0.0791,-0.7785 0.0737,-0.7257 0.1531,-0.8509 0.0662,-0.1266 0.18247,-0.2215 0.31979,-0.2608 0.13865,-0.053 0.0199,-0.065 1.49776,0.085 1.49106,0.1515 1.35911,0.1381 1.48436,0.2175 0.1635,0.097 0.26751,0.2538 0.30153,0.4439 0.008,0.054 -2.1e-4,0.1333 -0.17715,1.8751 l -0.18631,1.8341 -0.0212,0.078 c -0.0583,0.1807 -0.14041,0.3324 -0.24619,0.4549 -0.0291,0.024 -0.49308,0.5232 -1.02976,1.0819 -1.07472,1.1307 -1.03111,1.0951 -1.18296,1.1464 -0.13866,0.053 -0.0463,0.062 -1.22067,-0.057 -1.13479,-0.1153 -1.05562,-0.1072 -1.17974,-0.067 -0.2469,0.068 -0.41617,0.291 -0.44164,0.5417 -0.0308,0.3035 0.15349,0.5889 0.45162,0.6725 0.0382,0.017 0.22298,0.036 1.08067,0.1231 0.93686,0.095 1.02923,0.1045 1.13613,0.1021" />
          <path
             id="path3261"
             style="font-size:13.26315784px;font-style:normal;font-variant:normal;font-weight:500;font-stretch:normal;fill:#ffffff;stroke:#ffffff;stroke-width:0.7368421;font-family:OCRA;-inkscape-font-specification:OCRA Medium"
             d="m 351.12047,1025.8673 c 1.007,-4.8977 0.95054,-4.5573 0.92529,-4.6979 -0.01,-0.083 -0.0382,-0.1433 -0.0975,-0.2502 -0.0619,-0.094 -0.11886,-0.1463 -0.19147,-0.1884 -0.15553,-0.1 -0.3141,-0.1187 -0.49902,-0.076 -0.17192,0.046 -0.31822,0.1648 -0.40758,0.336 -0.021,0.036 -0.0557,0.2052 -0.72885,3.479 l -0.72083,3.4401 -0.85235,-4.0208 -0.86266,-4.0365 -0.83145,-0.1709 -0.81846,-0.1683 -0.93488,4.547 c -0.89482,4.3521 -0.93489,4.547 -0.93258,4.6016 0.0276,0.1953 0.1151,0.3622 0.25497,0.4722 0.13987,0.11 0.29577,0.1421 0.47534,0.1248 0.0833,-0.01 0.15626,-0.035 0.23458,-0.087 0.12262,-0.07 0.17763,-0.1395 0.25897,-0.2718 0.008,-0.039 0.0744,-0.2961 0.72885,-3.479 l 0.70784,-3.4427 0.82478,3.8255 0.86266,4.0365 0.0406,0.1979 0.81578,0.1812 0.81846,0.1683 0.92955,-4.521" />
          <path
             id="path3263"
             style="font-size:13.26315784px;font-style:normal;font-variant:normal;font-weight:500;font-stretch:normal;fill:#ffffff;stroke:#ffffff;stroke-width:0.7368421;font-family:OCRA;-inkscape-font-specification:OCRA Medium"
             d="m 339.46036,1027.9133 c 0.21437,0.026 0.43131,-0.045 0.56296,-0.1982 0.12767,-0.1406 0.18739,-0.3304 0.15927,-0.5061 -0.0155,-0.1717 -0.12748,-0.346 -0.28867,-0.4524 l -0.0426,-0.041 -0.9362,-0.2946 -0.94885,-0.2987 1.09098,-3.4664 1.09097,-3.4665 0.94886,0.2986 0.94018,0.282 0.0546,0 c 0.30222,0.012 0.53836,-0.1643 0.62595,-0.4426 0.0876,-0.2784 -0.005,-0.5579 -0.25964,-0.7214 l -0.0426,-0.041 -2.45437,-0.7724 c -1.83445,-0.5774 -2.46702,-0.7765 -2.50896,-0.7758 -0.40812,-0.073 -0.77122,0.2857 -0.72222,0.7043 0.0195,0.1591 0.11014,0.3128 0.2294,0.4199 0.10191,0.074 0.0766,0.066 1.06342,0.3764 l 0.92355,0.2906 -1.09098,3.4665 -1.09097,3.4665 -0.92356,-0.2907 c -0.74643,-0.2349 -0.92355,-0.2907 -0.96548,-0.2899 -0.30691,-0.041 -0.58897,0.1483 -0.68055,0.4393 -0.0916,0.291 0.0312,0.6077 0.30627,0.7499 0.0466,0.029 0.41352,0.144 2.48834,0.797 1.34105,0.4221 2.45835,0.7598 2.471,0.7638" />
          <path
             id="path3265"
             style="font-size:13.26315784px;font-style:normal;font-variant:normal;font-weight:500;font-stretch:normal;fill:#ffffff;stroke:#ffffff;stroke-width:0.7368421;font-family:OCRA;-inkscape-font-specification:OCRA Medium"
             d="m 330.36884,1023.947 c 0.37806,-0.8769 0.37281,-0.8648 0.38353,-0.9901 0.009,-0.155 -0.0533,-0.3119 -0.15578,-0.4427 -0.0573,-0.068 -0.13733,-0.117 -0.22259,-0.1538 -0.0974,-0.042 -0.14615,-0.063 -0.23498,-0.058 -0.17241,-0 -0.34671,0.067 -0.47062,0.187 -0.0786,0.082 -0.0943,0.1183 -0.20457,0.374 l -0.0945,0.2193 -0.56026,-0.2416 -0.57243,-0.2468 1.57527,-3.6538 c 1.70654,-3.9583 1.6032,-3.6851 1.60699,-3.8279 0.007,-0.084 -0.008,-0.1481 -0.0447,-0.2649 -0.0416,-0.1045 -0.0745,-0.1621 -0.14929,-0.2232 -0.13208,-0.1292 -0.28348,-0.18 -0.47332,-0.1752 -0.17766,0.01 -0.34503,0.097 -0.46726,0.2463 -0.0279,0.031 -0.10145,0.2018 -1.61896,3.7217 l -1.58577,3.6782 -0.57244,-0.2468 -0.56025,-0.2415 0.0945,-0.2193 c 0.10502,-0.2436 0.11384,-0.2975 0.13149,-0.4055 -0.003,-0.1602 -0.0533,-0.3118 -0.15578,-0.4427 -0.0573,-0.068 -0.13733,-0.1169 -0.23477,-0.1589 -0.0852,-0.037 -0.13397,-0.058 -0.23498,-0.058 -0.17241,-0 -0.34671,0.067 -0.45844,0.1923 -0.096,0.089 -0.0855,0.064 -0.46879,0.9533 l -0.34656,0.8039 2.87435,1.2392 2.87436,1.2392 0.34656,-0.8038" />
          <path
             id="path3267"
             style="font-size:13.26315784px;font-style:normal;font-variant:normal;font-weight:500;font-stretch:normal;fill:#ffffff;stroke:#ffffff;stroke-width:0.7368421;font-family:OCRA;-inkscape-font-specification:OCRA Medium"
             d="m 317.85389,1018.9437 c 0.14033,0.048 0.23568,0.04 0.38003,-7e-4 0.10827,-0.031 0.16886,-0.058 0.2308,-0.1142 0.0555,-0.045 6.32591,-6.2213 6.40076,-6.301 0.0619,-0.057 0.12655,-0.1724 0.14216,-0.2549 0.11411,-0.4223 -0.21753,-0.8351 -0.64657,-0.8011 -0.12497,0.01 -0.25774,0.054 -0.35064,0.1385 -0.018,0.01 -0.3226,0.306 -0.66458,0.6468 l -0.63362,0.6185 -1.21618,-0.6784 -1.22777,-0.685 0.1986,-0.846 c 0.10386,-0.4584 0.19993,-0.8756 0.20127,-0.9052 0.0325,-0.1945 -0.047,-0.4059 -0.18326,-0.5427 -0.28932,-0.2981 -0.78542,-0.2256 -0.99219,0.1451 -0.0194,0.035 -0.0452,0.081 -0.0582,0.1042 -0.001,0.03 -0.45314,2.0102 -1.00101,4.4079 -0.82692,3.5785 -0.99321,4.3666 -1.00235,4.4375 -0.0183,0.1416 0.0291,0.2744 0.10108,0.3905 0.0283,0.031 0.0617,0.08 0.0849,0.093 0.0566,0.062 0.1724,0.1265 0.23677,0.1473 m 1.72364,-4.3693 0.39475,-1.7693 0.45173,0.252 c 0.24323,0.1357 0.64863,0.3619 0.89186,0.4976 l 0.45173,0.252 -1.30466,1.2769 c -0.71493,0.7098 -1.30466,1.2769 -1.2982,1.2653 0,0 0.18433,-0.7932 0.41279,-1.7745" />
        </g>
        <g
           id="text3123"
           style="font-size:14.73684216px;font-style:normal;font-variant:normal;font-weight:normal;font-stretch:normal;text-align:start;line-height:125%;letter-spacing:0px;word-spacing:0px;text-anchor:start;fill:#000000;fill-opacity:1;stroke:none;font-family:Arial;-inkscape-font-specification:Arial"
           inkscape:transform-center-y="112.07066"
           inkscape:transform-center-x="-2.4272141"
           transform="matrix(-0.89007317,-0.45581764,0.45581771,-0.89007317,426.83156,2136.5123)">
          <path
             id="path3270"
             style="font-size:13.26315784px;font-style:normal;font-variant:normal;font-weight:500;font-stretch:normal;fill:#ffffff;stroke:#ffffff;stroke-width:0.7368421;font-family:OCRA;-inkscape-font-specification:OCRA Medium"
             d="m 817.56083,843.92456 c -0.0477,-0.95375 -0.047,-0.94051 -0.0927,-1.05774 -0.0603,-0.14306 -0.18546,-0.25632 -0.33514,-0.32852 -0.0815,-0.0358 -0.17486,-0.0444 -0.26759,-0.0397 -0.10597,0.005 -0.15895,0.008 -0.23645,0.0517 -0.15564,0.0742 -0.28149,0.21327 -0.33977,0.37554 -0.0344,0.10796 -0.0325,0.1477 -0.0186,0.42588 l 0.0119,0.23844 -0.60935,0.0305 -0.62259,0.0311 -0.1987,-3.97398 c -0.21527,-4.30514 -0.18745,-4.01438 -0.24706,-4.1442 -0.0305,-0.0782 -0.0729,-0.12915 -0.15697,-0.21791 -0.0834,-0.0755 -0.13843,-0.11259 -0.23248,-0.13445 -0.17552,-0.0576 -0.33381,-0.0364 -0.50204,0.0517 -0.15499,0.0874 -0.26692,0.2391 -0.31064,0.42721 -0.0113,0.0404 -0.002,0.22586 0.18943,4.05412 l 0.20003,4.00048 -0.62259,0.0311 -0.60934,0.0305 -0.0119,-0.23844 c -0.0132,-0.26494 -0.0291,-0.31726 -0.0609,-0.42191 -0.0735,-0.1424 -0.18545,-0.25632 -0.33514,-0.32851 -0.0815,-0.0358 -0.17485,-0.0444 -0.28083,-0.0391 -0.0927,0.005 -0.14571,0.007 -0.23645,0.0517 -0.15565,0.0742 -0.28149,0.21327 -0.32653,0.37488 -0.047,0.12187 -0.0484,0.0954 0,1.06238 l 0.0437,0.87428 3.1262,-0.15632 3.1262,-0.15631 -0.0437,-0.87428" />
          <path
             id="path3272"
             style="font-size:13.26315784px;font-style:normal;font-variant:normal;font-weight:500;font-stretch:normal;fill:#ffffff;stroke:#ffffff;stroke-width:0.7368421;font-family:OCRA;-inkscape-font-specification:OCRA Medium"
             d="m 808.38912,840.46315 -0.73782,-4.85159 -2.80606,0.42674 c -2.37334,0.36094 -2.80605,0.42674 -2.8565,0.44783 -0.29361,0.0983 -0.46353,0.39247 -0.41767,0.69405 0.0459,0.30159 0.29555,0.53193 0.60511,0.53852 0.0413,0.007 0.39537,-0.0467 2.2311,-0.32589 l 2.18977,-0.33302 0.22534,1.4817 0.22533,1.4817 -0.98343,0.14956 c -1.08633,0.17863 -0.99654,0.15156 -1.13081,0.23905 -0.10804,0.0835 -0.18586,0.18926 -0.23149,0.33035 -0.0365,0.11288 -0.0416,0.16732 -0.0237,0.28533 0.018,0.11801 0.039,0.16847 0.10744,0.26539 0.0855,0.12116 0.19125,0.19898 0.31923,0.2466 0.1542,0.0436 0.0624,0.0576 1.15075,-0.10793 l 0.98343,-0.14956 0.22533,1.48171 0.22534,1.4817 -2.18977,0.33301 c -1.83574,0.27918 -2.18977,0.33302 -2.22712,0.35211 -0.29361,0.0983 -0.46352,0.39247 -0.41766,0.69406 0.0459,0.30158 0.29555,0.53192 0.60511,0.53851 0.0544,0.005 0.48715,-0.0607 2.8605,-0.42161 l 2.80605,-0.42674 -0.73782,-4.85158" />
          <path
             id="path3274"
             style="font-size:13.26315784px;font-style:normal;font-variant:normal;font-weight:500;font-stretch:normal;fill:#ffffff;stroke:#ffffff;stroke-width:0.7368421;font-family:OCRA;-inkscape-font-specification:OCRA Medium"
             d="m 797.80992,847.42928 c 0.53227,-0.21971 0.9373,-0.66683 1.1099,-1.21827 0.0281,-0.10316 0.64252,-2.97424 0.67023,-3.13208 0.0397,-0.27053 0.0409,-0.53111 0.006,-0.82358 -0.027,-0.15741 -0.11324,-0.49129 -0.16589,-0.64207 -0.11152,-0.27256 -0.24208,-0.5128 -0.40454,-0.71741 -0.1007,-0.12466 -2.03225,-2.35165 -2.10352,-2.41543 -0.43427,-0.40835 -1.01804,-0.59999 -1.59965,-0.51822 -0.14458,0.0237 -2.48172,0.6275 -2.5683,0.66357 -0.28208,0.12767 -0.42119,0.43759 -0.34488,0.73294 0.063,0.24399 0.26402,0.43864 0.51839,0.46881 0.12884,0.0215 0.0228,0.0352 1.38731,-0.30364 1.15573,-0.2986 1.23278,-0.31851 1.28746,-0.31894 0.12553,0.009 0.27717,0.0654 0.37744,0.13536 0.0356,0.0319 0.17198,0.18845 0.57768,0.64527 0.6589,0.74757 1.42183,1.63266 1.48358,1.71259 0.0584,0.0671 0.13677,0.21124 0.17615,0.31066 0.0555,0.10893 0.1219,0.36576 0.12608,0.48797 0.0137,0.10605 0.015,0.2701 -0.004,0.35711 -0.0153,0.0998 -0.25733,1.23087 -0.47164,2.20405 -0.13033,0.60902 -0.17377,0.81203 -0.1895,0.85719 -0.0538,0.10979 -0.15901,0.23286 -0.26463,0.30125 -0.048,0.0261 -0.1251,0.046 -1.28083,0.34462 -1.3612,0.35169 -1.25847,0.32514 -1.36077,0.40637 -0.20792,0.14961 -0.28946,0.41725 -0.22642,0.66124 0.0763,0.29535 0.34813,0.4991 0.65676,0.47416 0.0418,0.003 0.26014,-0.0535 1.27462,-0.31563 1.14289,-0.29528 1.23278,-0.31851 1.3322,-0.35789" />
          <path
             id="path3276"
             style="font-size:13.26315784px;font-style:normal;font-variant:normal;font-weight:500;font-stretch:normal;fill:#ffffff;stroke:#ffffff;stroke-width:0.7368421;font-family:OCRA;-inkscape-font-specification:OCRA Medium"
             d="m 792.07668,849.0622 c 0.12757,-0.0756 0.18375,-0.15299 0.24635,-0.28936 0.0626,-0.13637 0.0722,-0.22482 0.0588,-0.37545 -0.0198,-0.0917 -3.00284,-8.13777 -3.04294,-8.20777 -0.088,-0.12297 -0.1576,-0.19619 -0.29397,-0.25879 -0.10228,-0.047 -0.17829,-0.0612 -0.26213,-0.0584 -0.18472,-0.002 -0.32934,0.0655 -0.46335,0.20007 -0.0889,0.10368 -0.15608,0.22761 -0.15972,0.37042 -0.0239,0.16445 -0.0852,-0.0391 0.64783,1.93819 l 0.65009,1.75348 -1.75348,0.65009 -1.74104,0.64547 -0.64087,-1.72861 c -0.69157,-1.8654 -0.6593,-1.77835 -0.7381,-1.87644 -0.065,-0.0608 -0.10829,-0.10131 -0.22761,-0.15609 -0.10228,-0.047 -0.16586,-0.0658 -0.26213,-0.0584 -0.18472,-0.002 -0.32934,0.0655 -0.45091,0.19546 -0.10131,0.10829 -0.15609,0.22762 -0.17216,0.37503 0.001,0.0419 -0.005,0.10088 -0.008,0.13036 0.006,0.0544 0.0659,0.21603 1.52747,4.15824 1.45692,3.92978 1.52147,4.10389 1.55235,4.14902 0.0217,0.0203 0.065,0.0608 0.0912,0.0935 0.10828,0.1013 0.22761,0.15608 0.37502,0.17216 0.1769,0.0193 0.32613,-0.036 0.46935,-0.14572 0.0732,-0.0696 0.11375,-0.1129 0.15609,-0.22761 0.0594,-0.10689 0.0658,-0.16586 0.0755,-0.2543 -0.009,-0.13819 0.0281,-0.0387 -0.66348,-1.90411 l -0.64087,-1.72861 1.74105,-0.64547 1.75348,-0.65008 0.65008,1.75348 c 0.73307,1.97732 0.64686,1.78296 0.7722,1.89209 0.0958,0.10592 0.22761,0.15609 0.36258,0.17678 0.0419,-0.001 0.10089,0.005 0.12576,-0.004 0.0714,0.002 0.2082,-0.0489 0.26577,-0.0844" />
          <path
             id="path3278"
             style="font-size:13.26315784px;font-style:normal;font-variant:normal;font-weight:500;font-stretch:normal;fill:#ffffff;stroke:#ffffff;stroke-width:0.7368421;font-family:OCRA;-inkscape-font-specification:OCRA Medium"
             d="m 784.16368,852.15416 c 0.17287,-0.12935 0.28096,-0.33031 0.27043,-0.53206 -0.005,-0.18984 -0.0925,-0.36837 -0.23411,-0.47607 -0.12975,-0.11356 -0.3311,-0.16234 -0.52114,-0.12801 l -0.0593,-3.9e-4 -0.88074,0.43311 -0.89264,0.43897 -1.6037,-3.26111 -1.60369,-3.26112 0.89264,-0.43897 0.87488,-0.44502 0.0418,-0.0353 c 0.22672,-0.20017 0.27609,-0.4905 0.14733,-0.75234 -0.12876,-0.26184 -0.38884,-0.39998 -0.6858,-0.34263 l -0.0593,-3.9e-4 -2.30897,1.13546 c -1.72577,0.84867 -2.32087,1.14132 -2.35072,1.17078 -0.34554,0.22905 -0.36078,0.73906 -0.0363,1.00813 0.12389,0.10166 0.29559,0.15024 0.45577,0.14537 0.12468,-0.017 0.10087,-0.005 1.02922,-0.46179 l 0.86884,-0.42726 1.60369,3.26111 1.6037,3.26112 -0.86884,0.42726 c -0.70221,0.34532 -0.86883,0.42726 -0.89869,0.45672 -0.25033,0.18223 -0.3237,0.51391 -0.18908,0.78766 0.13461,0.27374 0.4421,0.41813 0.73926,0.33112 0.0535,-0.0115 0.39861,-0.18124 2.35052,-1.14112 1.2616,-0.62041 2.30311,-1.14737 2.31502,-1.15322" />
          <path
             id="path3280"
             style="font-size:13.26315784px;font-style:normal;font-variant:normal;font-weight:500;font-stretch:normal;fill:#ffffff;stroke:#ffffff;stroke-width:0.7368421;font-family:OCRA;-inkscape-font-specification:OCRA Medium"
             d="m 774.6254,851.84756 c -2.65025,-4.24008 -2.45623,-3.95469 -2.57151,-4.03904 -0.0647,-0.0534 -0.12654,-0.0773 -0.24323,-0.11387 -0.10966,-0.0253 -0.18698,-0.0239 -0.26852,-0.004 -0.18136,0.0352 -0.30929,0.13076 -0.41333,0.28963 -0.0928,0.15184 -0.11667,0.33882 -0.0632,0.5244 0.01,0.0408 0.10123,0.18698 1.87275,3.0212 l 1.85166,2.98746 -3.39109,-2.32242 -3.40937,-2.32664 -0.7198,0.44991 -0.70856,0.44288 2.46045,3.93641 c 2.35499,3.76771 2.46044,3.93642 2.49981,3.97438 0.15465,0.1223 0.3332,0.18275 0.51034,0.16588 0.17714,-0.0169 0.31211,-0.10124 0.4302,-0.23761 0.0534,-0.0647 0.0886,-0.13357 0.10965,-0.22495 0.0408,-0.13497 0.0323,-0.22354 -2e-5,-0.37537 -0.0211,-0.0337 -0.15044,-0.26572 -1.87274,-3.0212 l -1.86291,-2.98043 3.23644,2.20011 3.40936,2.32664 0.1659,0.11528 0.71559,-0.43164 0.70855,-0.44288 -2.44638,-3.91392" />
          <path
             id="path3282"
             style="font-size:13.26315784px;font-style:normal;font-variant:normal;font-weight:500;font-stretch:normal;fill:#ffffff;stroke:#ffffff;stroke-width:0.7368421;font-family:OCRA;-inkscape-font-specification:OCRA Medium"
             d="m 767.51371,862.19275 c 0.40184,-0.41245 0.59682,-0.98337 0.53704,-1.55809 -0.015,-0.10588 -0.58722,-2.98565 -0.62425,-3.14157 -0.0706,-0.26415 -0.17269,-0.50391 -0.32011,-0.75884 -0.0871,-0.13389 -0.29845,-0.40635 -0.40649,-0.52397 -0.21029,-0.20616 -0.42528,-0.3751 -0.65545,-0.49869 -0.14183,-0.0746 -2.79711,-1.35519 -2.88781,-1.38555 -0.56044,-0.2031 -1.17238,-0.14803 -1.67412,0.15728 -0.1234,0.0789 -2.03066,1.55857 -2.09589,1.62595 -0.20851,0.22891 -0.21358,0.56857 -0.0266,0.8096 0.15447,0.19911 0.41608,0.29831 0.66162,0.22533 0.12683,-0.0312 0.0349,0.0233 1.15381,-0.82797 0.94315,-0.73167 1.00603,-0.78045 1.05608,-0.80249 0.1187,-0.0417 0.2804,-0.0497 0.40019,-0.0251 0.0454,0.0152 0.23252,0.10499 0.78591,0.36392 0.90099,0.42571 1.95194,0.93652 2.04029,0.98549 0.0802,0.0385 0.20921,0.13985 0.28473,0.21556 0.0941,0.078 0.25672,0.28764 0.30893,0.39822 0.0545,0.092 0.12067,0.2421 0.13801,0.32937 0.0255,0.0977 0.2509,1.2322 0.43929,2.21073 0.12138,0.61086 0.16184,0.81449 0.16527,0.86218 -0.006,0.12214 -0.0539,0.27679 -0.12378,0.3814 -0.0338,0.043 -0.0967,0.0918 -1.03981,0.82345 -1.11082,0.86176 -1.02699,0.79672 -1.08878,0.9118 -0.13172,0.21969 -0.10066,0.49775 0.0538,0.69686 0.18699,0.24103 0.51725,0.32054 0.7908,0.17547 0.0396,-0.0139 0.21772,-0.15211 1.04559,-0.79436 0.93267,-0.72355 1.00603,-0.78046 1.08173,-0.85598" />
          <path
             id="path3284"
             style="font-size:13.26315784px;font-style:normal;font-variant:normal;font-weight:500;font-stretch:normal;fill:#ffffff;stroke:#ffffff;stroke-width:0.7368421;font-family:OCRA;-inkscape-font-specification:OCRA Medium"
             d="m 757.47898,863.00188 c 0.0778,-0.11066 0.10847,-0.21309 0.12132,-0.35349 0.004,-0.15001 -0.0219,-0.25384 -0.10323,-0.37781 -0.0453,-0.0668 -0.81333,-0.87382 -0.88694,-0.93193 -0.11066,-0.0778 -0.21309,-0.10846 -0.3631,-0.11217 -0.11251,-0.003 -0.17837,0.005 -0.27305,0.0401 -0.1139,0.0535 -0.12351,0.0626 -0.65238,0.58427 -0.56684,0.53948 -0.52842,0.50291 -0.58838,0.65153 -0.0499,0.12072 -0.0531,0.25198 -0.01,0.39377 0.0525,0.1514 0.016,0.11297 0.51888,0.64138 0.49376,0.51881 0.46633,0.48999 0.6058,0.54034 0.13947,0.0504 0.27073,0.0536 0.40292,0.0194 0.1514,-0.0525 0.10336,-0.007 0.68942,-0.56459 0.40351,-0.38404 0.5188,-0.49377 0.53848,-0.5308" />
          <path
             id="path3286"
             style="font-size:13.26315784px;font-style:normal;font-variant:normal;font-weight:500;font-stretch:normal;fill:#ffffff;stroke:#ffffff;stroke-width:0.7368421;font-family:OCRA;-inkscape-font-specification:OCRA Medium"
             d="m 753.67716,868.53908 c -3.7942,-3.2567 -3.5239,-3.04217 -3.65909,-3.0883 -0.0777,-0.0317 -0.14384,-0.0361 -0.26612,-0.0362 -0.11221,0.009 -0.1856,0.033 -0.25756,0.0761 -0.16262,0.0876 -0.25622,0.21705 -0.30813,0.39972 -0.0433,0.1726 -0.0103,0.3582 0.096,0.5194 0.0216,0.036 0.15239,0.14828 2.68856,2.32517 l 2.65838,2.29926 -3.9294,-1.20536 -3.94811,-1.20395 -0.55286,0.64411 -0.54423,0.63405 3.52247,3.02346 c 3.3715,2.89389 3.52247,3.02347 3.57137,3.04796 0.18409,0.0706 0.37254,0.0751 0.53659,0.006 0.16404,-0.0689 0.26771,-0.18971 0.33975,-0.3551 0.0317,-0.0777 0.0447,-0.1539 0.0376,-0.24741 -0.001,-0.14099 -0.0358,-0.22301 -0.11196,-0.35829 -0.0302,-0.0259 -0.22284,-0.20875 -2.68857,-2.32518 l -2.66701,-2.28919 3.74531,1.13475 3.94811,1.20394 0.19273,0.0605 0.55429,-0.62541 0.54422,-0.63404 -3.50234,-3.00619" />
          <path
             id="path3288"
             style="font-size:13.26315784px;font-style:normal;font-variant:normal;font-weight:500;font-stretch:normal;fill:#ffffff;stroke:#ffffff;stroke-width:0.7368421;font-family:OCRA;-inkscape-font-specification:OCRA Medium"
             d="m 751.41245,878.46689 c 0.0616,-0.13488 0.0635,-0.2305 0.0371,-0.37821 -0.0198,-0.11078 -0.0406,-0.17375 -0.0908,-0.241 -0.0785,-0.11933 0.19688,0.0886 -3.90634,-2.76893 l -3.7876,-2.63775 -1.62206,2.32916 c -1.37193,1.96998 -1.62206,2.32915 -1.6415,2.38027 -0.13079,0.28065 -0.0344,0.60638 0.21594,0.78072 0.25033,0.17433 0.58928,0.15178 0.80715,-0.0682 0.0336,-0.0251 0.23828,-0.31894 1.29944,-1.84268 l 1.26581,-1.81761 3.28694,2.28907 c 3.14544,2.19054 3.28693,2.28908 3.33805,2.30852 0.13158,0.0431 0.27501,0.0461 0.39337,0.0154 0.0705,-0.0317 0.18561,-0.0809 0.23439,-0.1277 0.0597,-0.0393 0.14304,-0.15898 0.17006,-0.22098" />
        </g>
      </g>
    </g>
    <rect
       style="fill:none;stroke:none"
       id="rect3023"
       width="357.87402"
       height="357.87402"
       x="-67.322845"
       y="749.40942" />
  </g>
</svg>
