<?xml version="1.0" encoding="UTF-8" standalone="no"?>
<!-- Created with Inkscape (http://www.inkscape.org/) -->

<svg
   xmlns:dc="http://purl.org/dc/elements/1.1/"
   xmlns:cc="http://creativecommons.org/ns#"
   xmlns:rdf="http://www.w3.org/1999/02/22-rdf-syntax-ns#"
   xmlns:svg="http://www.w3.org/2000/svg"
   xmlns="http://www.w3.org/2000/svg"
   xmlns:xlink="http://www.w3.org/1999/xlink"
   xmlns:sodipodi="http://sodipodi.sourceforge.net/DTD/sodipodi-0.dtd"
   xmlns:inkscape="http://www.inkscape.org/namespaces/inkscape"
   width="357.87402"
   height="357.87402"
   id="svg2"
   version="1.1"
   inkscape:version="0.48.4 r9939"
   sodipodi:docname="techinc_sticker-black.svg">
  <defs
     id="defs4">
    <linearGradient
       id="linearGradient3834">
      <stop
         id="stop3836"
         offset="0"
         style="stop-color:#000000;stop-opacity:1;" />
      <stop
         id="stop3838"
         offset="1"
         style="stop-color:#1a1200;stop-opacity:1;" />
    </linearGradient>
    <linearGradient
       id="linearGradient3803">
      <stop
         style="stop-color:#dfded4;stop-opacity:1;"
         offset="0"
         id="stop3805" />
      <stop
         style="stop-color:#b4aaa3;stop-opacity:1;"
         offset="1"
         id="stop3807" />
    </linearGradient>
    <clipPath
       clipPathUnits="userSpaceOnUse"
       id="clipPath4403">
      <path
         inkscape:connector-curvature="0"
         d="m 180,180 5580,0 0,7740 -5580,0 0,-7740 z"
         id="path4405" />
    </clipPath>
    <clipPath
       clipPathUnits="userSpaceOnUse"
       id="clipPath6692">
      <path
         inkscape:connector-curvature="0"
         d="m 180,180 5580,0 0,7740 -5580,0 0,-7740 z"
         id="path6694" />
    </clipPath>
    <clipPath
       clipPathUnits="userSpaceOnUse"
       id="clipPath3654">
      <path
         inkscape:connector-curvature="0"
         d="m 180,180 5580,0 0,7740 -5580,0 0,-7740 z"
         id="path3656-2" />
    </clipPath>
    <clipPath
       clipPathUnits="userSpaceOnUse"
       id="clipPath3654-7">
      <path
         inkscape:connector-curvature="0"
         d="m 180,180 5580,0 0,7740 -5580,0 0,-7740 z"
         id="path3656-7" />
    </clipPath>
    <radialGradient
       inkscape:collect="always"
       xlink:href="#linearGradient3803"
       id="radialGradient3809"
       cx="325.7341"
       cy="1205.9625"
       fx="325.7341"
       fy="1205.9625"
       r="84.539986"
       gradientTransform="matrix(1,0,0,0.99998156,0,0.02267732)"
       gradientUnits="userSpaceOnUse" />
    <radialGradient
       inkscape:collect="always"
       xlink:href="#linearGradient3803"
       id="radialGradient3821"
       gradientUnits="userSpaceOnUse"
       gradientTransform="matrix(1,0,0,0.99998156,0,-219.97732)"
       cx="325.7341"
       cy="1205.9625"
       fx="325.7341"
       fy="1205.9625"
       r="84.539986" />
    <radialGradient
       inkscape:collect="always"
       xlink:href="#linearGradient3834"
       id="radialGradient3902"
       cx="341.06003"
       cy="583.35675"
       fx="341.06003"
       fy="583.35675"
       r="84.539986"
       gradientTransform="matrix(1,0,0,1.000012,140,319.99261)"
       gradientUnits="userSpaceOnUse" />
    <radialGradient
       inkscape:collect="always"
       xlink:href="#linearGradient3834"
       id="radialGradient5590"
       gradientUnits="userSpaceOnUse"
       gradientTransform="matrix(1,0,0,0.99998156,-101.6741,-1596.2545)"
       cx="325.7341"
       cy="1205.9625"
       fx="325.7341"
       fy="1205.9625"
       r="84.539986" />
    <radialGradient
       inkscape:collect="always"
       xlink:href="#linearGradient3834"
       id="radialGradient5592"
       gradientUnits="userSpaceOnUse"
       gradientTransform="matrix(1,0,0,0.99998156,-101.6741,-1596.2545)"
       cx="325.7341"
       cy="1205.9625"
       fx="325.7341"
       fy="1205.9625"
       r="84.539986" />
    <radialGradient
       inkscape:collect="always"
       xlink:href="#linearGradient3834"
       id="radialGradient6783"
       gradientUnits="userSpaceOnUse"
       gradientTransform="matrix(1,0,0,0.99998156,-77.548734,-716.2545)"
       cx="325.7341"
       cy="1205.9625"
       fx="325.7341"
       fy="1205.9625"
       r="84.539986" />
    <radialGradient
       inkscape:collect="always"
       xlink:href="#linearGradient3834"
       id="radialGradient7069"
       gradientUnits="userSpaceOnUse"
       gradientTransform="matrix(1,0,0,0.99998156,-77.548734,-716.2545)"
       cx="325.7341"
       cy="1205.9625"
       fx="325.7341"
       fy="1205.9625"
       r="84.539986" />
    <radialGradient
       inkscape:collect="always"
       xlink:href="#linearGradient3834"
       id="radialGradient4186"
       gradientUnits="userSpaceOnUse"
       gradientTransform="matrix(2.7746509,0,0,2.7746015,-555.28812,-2853.576)"
       cx="330.28345"
       cy="1203.7321"
       fx="330.28345"
       fy="1203.7321"
       r="84.539986" />
    <radialGradient
       inkscape:collect="always"
       xlink:href="#linearGradient3834"
       id="radialGradient3047"
       gradientUnits="userSpaceOnUse"
       gradientTransform="matrix(2.7746509,0,0,2.7746015,-537.74397,-2853.576)"
       cx="330.28345"
       cy="1203.7321"
       fx="330.28345"
       fy="1203.7321"
       r="84.539986" />
    <path
       transform="matrix(-0.89638853,-0.00465642,0.00465642,-0.89638853,-801.29384,1138.0877)"
       d="m -195.16147,438.62436 a 230.51682,230.51682 0 1 1 -461.03363,0 230.51682,230.51682 0 1 1 461.03363,0 z"
       sodipodi:ry="230.51682"
       sodipodi:rx="230.51682"
       sodipodi:cy="438.62436"
       sodipodi:cx="-425.67828"
       id="path5009-5"
       style="fill:#ffffff;fill-opacity:1;stroke:#000000;stroke-width:3;stroke-linejoin:round;stroke-miterlimit:4;stroke-opacity:1;stroke-dasharray:none"
       sodipodi:type="arc" />
  </defs>
  <sodipodi:namedview
     id="base"
     pagecolor="#7f7f7f"
     bordercolor="#666666"
     borderopacity="1.0"
     inkscape:pageopacity="0.49411765"
     inkscape:pageshadow="2"
     inkscape:zoom="2.0370297"
     inkscape:cx="178.93701"
     inkscape:cy="178.93701"
     inkscape:document-units="px"
     inkscape:current-layer="g3793"
     showgrid="false"
     inkscape:window-width="1551"
     inkscape:window-height="876"
     inkscape:window-x="1415"
     inkscape:window-y="24"
     inkscape:window-maximized="1"
     showguides="true"
     inkscape:guide-bbox="true"
     units="mm"
     fit-margin-top="0"
     fit-margin-left="0"
     fit-margin-right="0"
     fit-margin-bottom="0" />
  <metadata
     id="metadata7">
    <rdf:RDF>
      <cc:Work
         rdf:about="">
        <dc:format>image/svg+xml</dc:format>
        <dc:type
           rdf:resource="http://purl.org/dc/dcmitype/StillImage" />
        <dc:title />
      </cc:Work>
    </rdf:RDF>
  </metadata>
  <g
     inkscape:groupmode="layer"
     id="layer2"
     inkscape:label="Layer"
     transform="translate(67.322845,-749.40942)" />
  <g
     inkscape:label="Layer 1"
     inkscape:groupmode="layer"
     id="layer1"
     transform="translate(67.322845,-749.40942)">
    <g
       id="g3793"
       transform="matrix(1.3571428,0,0,1.3571429,-56.692914,-331.55236)">
      <g
         id="g3039">
        <path
           style="fill:#000000;fill-opacity:1;stroke:none"
           d="m 69.89753,1039.8996 c 61.60913,29.8887 135.78269,4.1741 165.67141,-57.43493 29.88865,-61.60913 4.17415,-135.78273 -57.43496,-165.67142 -30.80457,-14.94433 -64.75027,-15.98787 -94.73088,-5.59418 -29.98063,10.39368 -55.99621,32.2246 -70.94053,63.02914 -29.88867,61.60914 -4.17415,135.78269 57.43496,165.67139 z"
           id="path5163"
           inkscape:connector-curvature="0"
           sodipodi:nodetypes="ssssss"
           inkscape:export-filename="/home/erik/techinc_sticker_2048.png"
           inkscape:export-xdpi="381.03931"
           inkscape:export-ydpi="381.03931" />
        <path
           style="font-size:28px;font-style:normal;font-variant:normal;font-weight:normal;font-stretch:normal;text-align:start;line-height:125%;letter-spacing:0px;word-spacing:0px;writing-mode:lr-tb;text-anchor:start;fill:#ffffff;fill-opacity:1;stroke:none;font-family:Mishmash BRK;-inkscape-font-specification:Mishmash BRK;stroke-width:0.65271447000000005;stroke-miterlimit:4;stroke-dasharray:none;stroke-opacity:1"
           d="m 123.68965,825.93428 -3.34989,0.0667 c -0.4623,0.009 -0.85897,0.10659 -1.17447,0.28027 -0.31551,0.17371 -0.56652,0.38162 -0.76073,0.64062 -0.19437,0.25104 -0.3319,0.53082 -0.41373,0.82745 -0.0818,0.29666 -0.12501,0.56704 -0.12011,0.81413 l 0.10677,5.01814 c 0.005,0.23913 0.091,0.44433 0.25357,0.60058 0.16257,0.15625 0.36146,0.23163 0.60058,0.22688 0.23911,-0.005 0.43097,-0.091 0.58722,-0.25358 0.15626,-0.16256 0.23162,-0.36146 0.22689,-0.60057 l -0.0534,-2.50908 5.0315,-0.10676 0.04,2.50906 c 0.005,0.23913 0.091,0.44434 0.25359,0.60059 0.16255,0.15624 0.36145,0.23163 0.60058,0.22688 0.23911,-0.005 0.44431,-0.091 0.60057,-0.25357 0.15624,-0.16257 0.23161,-0.36146 0.22688,-0.60058 l -0.10676,-5.03149 c -0.009,-0.46229 -0.0933,-0.84562 -0.26692,-1.16113 -0.17371,-0.3155 -0.39497,-0.56651 -0.65396,-0.76073 -0.25105,-0.19435 -0.51748,-0.33187 -0.81412,-0.41372 -0.29666,-0.0818 -0.56703,-0.12501 -0.81411,-0.12012 z m -8.47483,0.33367 -6.64636,0.80075 c -0.23748,0.0284 -0.43446,0.12976 -0.5739,0.30695 -0.13941,0.17724 -0.18849,0.38981 -0.16015,0.62729 0.0284,0.23748 0.12975,0.42111 0.30696,0.56054 0.17721,0.13942 0.38979,0.1885 0.62727,0.16014 l 2.49573,-0.29361 0.58723,4.99145 -2.49573,0.29362 c -0.23748,0.0283 -0.42112,0.12976 -0.56053,0.30697 -0.13944,0.17721 -0.20185,0.38979 -0.1735,0.62727 0.0283,0.23748 0.14309,0.42111 0.3203,0.56053 0.17722,0.13943 0.37644,0.20185 0.61392,0.1735 l 6.64639,-0.80077 c 0.23747,-0.0284 0.43445,-0.12974 0.57387,-0.30697 0.13942,-0.17719 0.1885,-0.37643 0.16017,-0.61391 -0.0284,-0.23747 -0.12976,-0.43446 -0.30697,-0.57389 -0.17723,-0.13941 -0.37646,-0.18848 -0.61392,-0.16015 l -2.49573,0.29362 -0.60058,-4.99147 2.49574,-0.29361 c 0.23746,-0.0283 0.42109,-0.12975 0.56054,-0.30696 0.13941,-0.1772 0.20183,-0.38978 0.17349,-0.62726 -0.0284,-0.23748 -0.12975,-0.42112 -0.30696,-0.56054 -0.17722,-0.13941 -0.3898,-0.20184 -0.62728,-0.17349 z m 23.52927,0.70734 c -0.16712,8e-5 -0.31479,0.0371 -0.45377,0.13345 -0.18532,0.12845 -0.30433,0.31187 -0.347,0.54718 -0.0426,0.23535 0.005,0.4553 0.13347,0.64063 0.12844,0.18533 0.31185,0.291 0.54719,0.33365 l 2.46903,0.45377 -0.89419,4.93808 -2.46904,-0.45378 c -0.23533,-0.0426 -0.44194,0.005 -0.62726,0.13346 -0.18533,0.12845 -0.30435,0.31188 -0.347,0.5472 -0.0426,0.23532 0.005,0.44194 0.13345,0.62727 0.12844,0.18532 0.29852,0.30433 0.53385,0.34699 l 6.59299,1.18782 c 0.23533,0.0426 0.44194,0.008 0.62727,-0.12011 0.18532,-0.12845 0.30435,-0.31187 0.34701,-0.54719 0.0426,-0.23534 -0.005,-0.44196 -0.13346,-0.62729 -0.12845,-0.18533 -0.29853,-0.30433 -0.53385,-0.34699 l -2.48239,-0.45377 0.90755,-4.93807 2.46904,0.45376 c 0.23532,0.0426 0.44193,-0.005 0.62726,-0.13345 0.18532,-0.12845 0.30433,-0.31187 0.347,-0.5472 0.0426,-0.23532 -0.005,-0.44194 -0.13346,-0.62726 -0.12846,-0.18533 -0.31187,-0.30433 -0.5472,-0.347 l -6.59299,-1.18782 c -0.0588,-0.0107 -0.11779,-0.0133 -0.1735,-0.0133 z m -15.02776,0.62726 c 0.0875,-0.002 0.18413,0.018 0.28027,0.04 0.10409,0.0218 0.18595,0.0579 0.26693,0.12011 0.089,0.062 0.16348,0.1563 0.21353,0.26693 0.0578,0.10251 0.0901,0.233 0.0935,0.40039 l 0.0133,0.8408 -5.01816,0.0935 -0.0133,-0.8408 c -0.002,-0.0876 0.005,-0.17079 0.0268,-0.26692 0.0218,-0.10409 0.0579,-0.19931 0.12011,-0.28028 0.062,-0.0889 0.15091,-0.16367 0.25358,-0.21354 0.11048,-0.058 0.24635,-0.0901 0.41373,-0.0935 l 3.34989,-0.0667 z m -18.37766,0.0267 c -0.0557,0.002 -0.11511,4.4e-4 -0.17349,0.0133 l -4.91138,1.08104 c -0.2491,0.0552 -0.50498,0.15771 -0.77408,0.30697 -0.26132,0.14754 -0.48789,0.35093 -0.694,0.60056 -0.19832,0.24794 -0.34574,0.54672 -0.44042,0.89419 -0.0947,0.3475 -0.0997,0.74967 0,1.20117 l 0.72069,3.2698 c 0.0551,0.24911 0.15771,0.50497 0.30697,0.77408 0.14754,0.26131 0.35093,0.48789 0.60057,0.69399 0.24793,0.19833 0.54669,0.34574 0.89419,0.44043 0.34749,0.0947 0.74966,0.0997 1.20116,0 l 3.26979,-0.7207 c 0.24132,-0.0533 0.49163,-0.15768 0.76075,-0.30695 0.26909,-0.14926 0.50901,-0.35266 0.70734,-0.60058 0.20609,-0.24965 0.34573,-0.5467 0.44042,-0.8942 0.0947,-0.34749 0.0997,-0.74965 0,-1.20114 l -0.36034,-1.62823 c -0.0517,-0.23353 -0.17027,-0.41256 -0.36035,-0.53385 -0.19009,-0.1213 -0.40709,-0.15838 -0.64062,-0.10677 l -3.26981,0.72069 c -0.23353,0.0517 -0.41255,0.17027 -0.53384,0.36035 -0.12129,0.19009 -0.15837,0.40709 -0.10677,0.64061 0.0517,0.23354 0.17025,0.41257 0.36034,0.53384 0.1901,0.1213 0.40709,0.15837 0.64063,0.10677 l 2.45569,-0.54719 0.1735,0.81412 c 0.0362,0.16348 0.0438,0.30606 0.0133,0.42708 -0.0243,0.11151 -0.0749,0.21242 -0.14681,0.29361 -0.0641,0.0795 -0.14419,0.14113 -0.24023,0.18685 -0.0882,0.044 -0.16795,0.0745 -0.25357,0.0935 l -3.26981,0.72068 c -0.16348,0.0362 -0.30778,0.0493 -0.42707,0.0268 -0.11325,-0.0322 -0.21416,-0.0828 -0.29363,-0.14681 -0.0813,-0.0719 -0.14285,-0.15198 -0.18684,-0.24023 -0.0457,-0.096 -0.0745,-0.1813 -0.0935,-0.26693 l -0.72069,-3.26991 c -0.0362,-0.16347 -0.0511,-0.30221 -0.0266,-0.41372 0.0304,-0.12102 0.0827,-0.2275 0.14681,-0.30696 0.0719,-0.0813 0.15197,-0.14286 0.24023,-0.18686 0.096,-0.0457 0.18129,-0.0745 0.26692,-0.0935 l 4.91138,-1.08104 c 0.23353,-0.0517 0.41255,-0.17025 0.53384,-0.36035 0.1213,-0.19007 0.15836,-0.40708 0.10678,-0.6406 -0.0516,-0.23353 -0.18363,-0.41256 -0.37369,-0.53385 -0.14257,-0.091 -0.28677,-0.1264 -0.45378,-0.12013 z m 43.22818,1.30791 c -0.17851,0.0152 -0.3356,0.0752 -0.46711,0.18685 -0.12385,0.11378 -0.20744,0.25281 -0.25357,0.41374 l -1.84178,6.44618 c -0.066,0.2299 -0.0425,0.44341 0.0666,0.64062 0.10934,0.19722 0.27726,0.32112 0.50717,0.38704 0.2299,0.066 0.4434,0.0425 0.64062,-0.0667 0.1972,-0.10932 0.32111,-0.27726 0.38703,-0.50715 l 1.29458,-4.511 3.61681,6.52626 c 0.0722,0.15338 0.18916,0.2724 0.33363,0.34699 0.15215,0.0768 0.30962,0.11079 0.48048,0.0935 0.17849,-0.0152 0.32991,-0.0864 0.45376,-0.20019 0.1315,-0.11158 0.22078,-0.25281 0.26693,-0.41374 l 1.84177,-6.43285 c 0.066,-0.22989 0.0425,-0.44338 -0.0667,-0.64061 -0.10935,-0.19721 -0.27727,-0.3211 -0.50716,-0.38703 -0.22991,-0.066 -0.44342,-0.0559 -0.64061,0.0533 -0.19722,0.10933 -0.33448,0.2906 -0.40038,0.5205 l -1.28123,4.49765 -3.61682,-6.52627 c -0.0722,-0.15337 -0.18152,-0.25685 -0.33366,-0.33365 -0.14447,-0.0746 -0.30961,-0.11077 -0.48045,-0.0935 z m -54.05189,1.45474 c -0.30762,0.008 -0.57923,0.0567 -0.81412,0.13346 l -3.17638,1.041 c -0.43949,0.14369 -0.78992,0.34236 -1.041,0.60057 -0.25108,0.25823 -0.42369,0.53641 -0.53384,0.84082 -0.11264,0.29683 -0.16846,0.59993 -0.16015,0.90753 0.008,0.30762 0.0433,0.57922 0.12011,0.81412 l 1.04099,3.17638 c 0.14368,0.43949 0.34236,0.78994 0.60058,1.04099 0.25822,0.25108 0.54398,0.43456 0.8408,0.54719 0.30442,0.11017 0.60751,0.15266 0.90755,0.14682 0.30762,-0.008 0.58498,-0.0408 0.82746,-0.12011 l 3.17638,-1.04101 c 0.43948,-0.14368 0.78992,-0.34235 1.041,-0.60057 0.25106,-0.25822 0.43454,-0.54397 0.54718,-0.84081 0.11016,-0.3044 0.15265,-0.6075 0.14683,-0.90752 -0.008,-0.30762 -0.0542,-0.58499 -0.13347,-0.82747 l -1.041,-3.1764 c -0.1437,-0.43948 -0.34237,-0.7899 -0.60058,-1.04099 -0.25822,-0.25107 -0.5364,-0.42367 -0.8408,-0.53384 -0.29685,-0.11263 -0.59994,-0.16845 -0.90754,-0.16016 z m -0.0133,1.66827 c 0.10593,-0.009 0.19802,0.004 0.29363,0.04 0.10315,0.0334 0.20011,0.0956 0.28026,0.18685 0.0852,0.0812 0.14817,0.20123 0.20019,0.36035 l 1.041,3.17637 c 0.0273,0.0833 0.0439,0.18769 0.0533,0.29362 0.007,0.0983 -0.007,0.19045 -0.04,0.29361 -0.0358,0.0956 -0.0981,0.19255 -0.18684,0.28027 -0.0837,0.0776 -0.20121,0.13483 -0.36033,0.18686 l -3.17639,1.04098 c -0.0909,0.0297 -0.18769,0.0573 -0.29362,0.0667 -0.0983,0.007 -0.19802,-0.004 -0.29361,-0.0401 -0.0955,-0.0358 -0.19503,-0.10567 -0.28027,-0.18684 -0.0802,-0.0912 -0.13483,-0.21456 -0.18685,-0.3737 l -1.041,-3.17637 c -0.0273,-0.0833 -0.0464,-0.18191 -0.0533,-0.28027 -0.009,-0.10594 0.004,-0.19803 0.04,-0.29362 0.0334,-0.10316 0.0899,-0.20259 0.1735,-0.28027 0.0888,-0.0878 0.21457,-0.14816 0.37369,-0.2002 l 3.17639,-1.04099 c 0.0833,-0.0273 0.18189,-0.0464 0.28026,-0.0533 z m 64.74217,0.28027 c -0.094,-0.004 -0.19073,0.004 -0.28027,0.0133 -0.35819,0.0377 -0.66808,0.13031 -0.94759,0.29362 -0.27656,0.15593 -0.51679,0.35894 -0.70734,0.60058 -0.19055,0.24164 -0.32235,0.47772 -0.41373,0.70734 l -1.24119,3.10965 c -0.17097,0.4296 -0.23783,0.82962 -0.2002,1.18781 0.0377,0.35818 0.12436,0.671 0.28027,0.94757 0.16333,0.27952 0.36635,0.50641 0.60058,0.69401 0.24164,0.19054 0.48366,0.33274 0.72069,0.42707 l 4.67115,1.86847 c 0.22221,0.0885 0.4335,0.0892 0.64063,0 0.20708,-0.0892 0.35197,-0.24492 0.44041,-0.46713 0.0885,-0.2222 0.0892,-0.44686 0,-0.65394 -0.0892,-0.20712 -0.2449,-0.352 -0.46712,-0.44044 l -4.67114,-1.85511 c -0.0815,-0.0324 -0.16614,-0.0862 -0.25358,-0.14681 -0.0801,-0.0576 -0.14231,-0.12184 -0.20019,-0.21354 -0.0504,-0.0888 -0.08,-0.19003 -0.0935,-0.30695 -0.003,-0.1214 0.0182,-0.27154 0.0801,-0.42709 l 1.24119,-3.10965 c 0.0324,-0.0814 0.0759,-0.16019 0.13346,-0.24023 0.0606,-0.0874 0.13815,-0.1497 0.22689,-0.20019 0.0917,-0.0579 0.19299,-0.0873 0.30696,-0.0935 0.12433,-0.0107 0.27152,0.005 0.42707,0.0667 l 4.65782,1.8551 c 0.22219,0.0885 0.43349,0.0892 0.64061,0 0.20709,-0.0892 0.36532,-0.24488 0.45377,-0.4671 0.0885,-0.22221 0.0892,-0.43351 0,-0.64061 -0.0892,-0.20711 -0.24491,-0.35199 -0.46712,-0.44043 l -4.67115,-1.85512 c -0.32221,-0.12822 -0.62551,-0.20264 -0.90754,-0.21353 z m -79.03589,3.45665 c -0.10727,0.003 -0.21078,0.0188 -0.32031,0.0667 -0.21905,0.096 -0.37169,0.2571 -0.45376,0.46711 -0.082,0.21003 -0.0693,0.42157 0.0267,0.64062 l 2.68258,6.13922 c 0.0959,0.21907 0.24375,0.35837 0.45377,0.44043 0.21002,0.082 0.43489,0.0826 0.65397,-0.0133 l 6.12587,-2.69592 c 0.21907,-0.096 0.3717,-0.24375 0.45376,-0.45377 0.082,-0.21003 0.0692,-0.42155 -0.0266,-0.64062 -0.0959,-0.21906 -0.24376,-0.37171 -0.45377,-0.45377 -0.21002,-0.082 -0.42155,-0.0692 -0.64062,0.0267 l -5.36515,2.34892 -2.34891,-5.36515 c -0.0959,-0.21907 -0.2571,-0.3717 -0.46713,-0.45376 -0.10501,-0.041 -0.21303,-0.0569 -0.32029,-0.0534 z m 88.08458,0.49381 c -0.36017,0.002 -0.6934,0.0785 -0.98762,0.21353 -0.29057,0.12796 -0.54734,0.2988 -0.76073,0.5205 -0.21341,0.22172 -0.36694,0.44781 -0.48046,0.66732 l -1.54816,2.97618 c -0.21242,0.41071 -0.30918,0.78762 -0.30696,1.14778 0.002,0.36015 0.0589,0.68371 0.18685,0.97426 0.13504,0.29421 0.31921,0.55099 0.53385,0.76073 0.2217,0.2134 0.44071,0.3766 0.6673,0.49382 l 2.97619,1.5348 c 0.4107,0.21242 0.80095,0.3225 1.16111,0.32031 0.36015,-0.002 0.68371,-0.0723 0.97428,-0.20021 0.2942,-0.13503 0.53763,-0.30586 0.74738,-0.52048 0.21339,-0.22172 0.3766,-0.44072 0.49381,-0.66731 l 1.54814,-2.9762 c 0.21242,-0.41069 0.30917,-0.80096 0.30697,-1.16111 -0.002,-0.36015 -0.0652,-0.68004 -0.2002,-0.97426 -0.12796,-0.29057 -0.29879,-0.54733 -0.52049,-0.76075 -0.22172,-0.21339 -0.44781,-0.38026 -0.66731,-0.4938 l -2.9762,-1.53481 c -0.41069,-0.2124 -0.78761,-0.3225 -1.14775,-0.3203 z m -91.72808,1.57484 c -0.15331,0.004 -0.30364,0.033 -0.45376,0.0667 -0.30023,0.0675 -0.55842,0.15961 -0.77409,0.28027 l -2.92279,1.62823 c -0.40353,0.22578 -0.69767,0.49898 -0.8942,0.80078 -0.19653,0.3018 -0.32434,0.60094 -0.3737,0.92088 -0.0532,0.313 -0.0408,0.62065 0.0268,0.92088 0.0675,0.30024 0.15959,0.55842 0.28026,0.77408 l 1.64159,2.92281 c 0.22576,0.4035 0.4856,0.711 0.78742,0.90752 0.3018,0.19656 0.60789,0.32044 0.92088,0.37371 0.31994,0.0493 0.62761,0.0369 0.92088,-0.0267 0.30023,-0.0675 0.56479,-0.1557 0.78744,-0.28027 l 2.9228,-1.64158 c 0.4035,-0.22576 0.69764,-0.4856 0.89419,-0.78743 0.19652,-0.3018 0.32042,-0.60788 0.37367,-0.92087 0.0493,-0.31994 0.0503,-0.6276 -0.0133,-0.9209 -0.0675,-0.30021 -0.16905,-0.56478 -0.29362,-0.78741 l -1.64157,-2.92281 c -0.22577,-0.4035 -0.48563,-0.69764 -0.78742,-0.8942 -0.30181,-0.19652 -0.61429,-0.32431 -0.93424,-0.37368 -0.15649,-0.0267 -0.31381,-0.0436 -0.46711,-0.04 z m 91.70138,0.12012 c 0.12478,0.002 0.26502,0.0298 0.41374,0.10675 l 2.96283,1.54817 c 0.0778,0.0404 0.15289,0.0949 0.22688,0.16016 0.0811,0.0689 0.14533,0.14696 0.18686,0.24022 0.0486,0.097 0.0756,0.19921 0.0666,0.32032 0.002,0.11768 -0.0432,0.25168 -0.12013,0.40037 l -1.53481,2.97619 c -0.0404,0.0778 -0.0912,0.15917 -0.16014,0.24023 -0.0653,0.0741 -0.1433,0.13826 -0.24022,0.18686 -0.0933,0.0415 -0.2089,0.0552 -0.33367,0.0533 -0.11403,-0.005 -0.25168,-0.0433 -0.40039,-0.12013 l -2.96284,-1.53481 c -0.0851,-0.044 -0.17251,-0.10463 -0.25357,-0.17349 -0.0739,-0.0652 -0.13199,-0.14696 -0.17351,-0.24023 -0.0415,-0.0933 -0.0648,-0.20262 -0.0666,-0.32031 0.009,-0.12111 0.0566,-0.25169 0.13346,-0.40039 l 1.53481,-2.97618 c 0.0404,-0.0778 0.0949,-0.15291 0.16015,-0.2269 0.0689,-0.0811 0.14696,-0.14533 0.24024,-0.18684 0.0969,-0.0486 0.20627,-0.0585 0.3203,-0.0533 z m -91.70138,1.54815 c 0.0506,-0.003 0.10979,0.005 0.16014,0.0133 0.10768,0.0129 0.21073,0.0595 0.30697,0.13348 0.0993,0.0632 0.18518,0.16086 0.26693,0.30695 l 1.62823,2.92281 c 0.0429,0.0765 0.0903,0.16481 0.12012,0.26692 0.0258,0.0951 0.0261,0.19929 0.0133,0.30697 -0.0167,0.10066 -0.0633,0.20377 -0.13346,0.30695 -0.067,0.0924 -0.17422,0.18519 -0.32031,0.26692 l -2.9228,1.62824 c -0.0834,0.0466 -0.16481,0.0904 -0.26693,0.1201 -0.0951,0.0258 -0.1929,0.03 -0.29362,0.0133 -0.10066,-0.0167 -0.20766,-0.0569 -0.30696,-0.12012 -0.0961,-0.074 -0.18518,-0.18753 -0.26691,-0.33364 l -1.62824,-2.92281 c -0.0429,-0.0766 -0.081,-0.1584 -0.10677,-0.25358 -0.0297,-0.1021 -0.0435,-0.20624 -0.0267,-0.30696 0.0129,-0.10766 0.053,-0.21461 0.12013,-0.30697 0.0702,-0.10318 0.18755,-0.18517 0.33366,-0.26691 l 2.9228,-1.64158 c 0.0765,-0.043 0.1584,-0.081 0.25357,-0.10676 0.0511,-0.0149 0.096,-0.0234 0.14681,-0.0267 z m 100.04272,1.60154 c -0.31578,0.0329 -0.63366,0.14375 -0.94758,0.3203 -0.31391,0.17657 -0.58935,0.45279 -0.84081,0.84081 l -1.82842,2.81604 c -0.13874,0.21409 -0.24683,0.4655 -0.33365,0.76073 -0.0825,0.28854 -0.1086,0.59841 -0.0802,0.92088 0.0329,0.31578 0.1304,0.63367 0.30696,0.94759 0.17657,0.3139 0.46612,0.58935 0.85416,0.8408 l 2.80269,1.81508 c 0.20738,0.13438 0.46549,0.24682 0.76073,0.33365 0.29522,0.0868 0.59175,0.11293 0.90753,0.0802 0.32248,-0.0285 0.64702,-0.1304 0.96092,-0.30696 0.31391,-0.17657 0.60271,-0.45279 0.85416,-0.84081 l 0.90755,-1.40135 c 0.13005,-0.20069 0.16719,-0.4201 0.12011,-0.64061 -0.0471,-0.22052 -0.173,-0.39044 -0.3737,-0.52051 l -2.80269,-1.82842 c -0.20071,-0.13007 -0.42011,-0.1672 -0.64061,-0.1201 -0.22052,0.0471 -0.39045,0.17298 -0.5205,0.37367 -0.13007,0.20072 -0.16721,0.40677 -0.12011,0.62729 0.0471,0.22051 0.15963,0.40378 0.36035,0.53384 l 2.10868,1.3613 -0.45378,0.70735 c -0.091,0.1405 -0.18608,0.24364 -0.29361,0.30696 -0.0965,0.061 -0.19868,0.0876 -0.30695,0.0935 -0.10158,0.0103 -0.20699,-0.004 -0.30696,-0.04 -0.0934,-0.0319 -0.16665,-0.0725 -0.24024,-0.1201 l -2.81603,-1.81509 c -0.1405,-0.091 -0.23932,-0.19277 -0.30697,-0.29361 -0.0567,-0.10319 -0.0966,-0.20538 -0.10677,-0.30696 -0.006,-0.10828 0.008,-0.20033 0.0401,-0.29362 0.0363,-0.0999 0.0724,-0.19333 0.12011,-0.26691 l 1.82843,-2.81605 c 0.091,-0.14049 0.18377,-0.23265 0.28027,-0.29361 0.10752,-0.0634 0.20538,-0.0966 0.30696,-0.10678 0.10827,-0.006 0.21367,0.008 0.30697,0.04 0.0999,0.0363 0.19332,0.0724 0.26692,0.12012 l 4.20402,2.73596 c 0.20071,0.13005 0.4201,0.1672 0.64062,0.12011 0.2205,-0.0472 0.39043,-0.173 0.52051,-0.37369 0.13004,-0.20071 0.16719,-0.40676 0.1201,-0.62728 -0.0471,-0.2205 -0.15965,-0.40377 -0.36034,-0.53385 l -4.21738,-2.7226 c -0.21409,-0.13872 -0.46551,-0.26018 -0.76072,-0.34699 -0.28855,-0.0825 -0.59843,-0.10861 -0.92088,-0.0802 z M 68.49002,842.3367 c -0.16164,0.003 -0.32003,0.0575 -0.46712,0.16015 -0.19609,0.13692 -0.30754,0.31186 -0.347,0.53385 -0.0395,0.22202 0.0102,0.43118 0.14682,0.62728 l 2.68257,3.84367 -7.34038,-1.29457 c -0.16454,-0.0407 -0.32494,-0.0296 -0.48046,0.04 -0.14898,0.0652 -0.27946,0.16341 -0.3737,0.30695 -0.10076,0.14814 -0.15051,0.30805 -0.1468,0.48047 0.0104,0.16787 0.0643,0.32986 0.16016,0.46711 l 3.84368,5.48527 c 0.13691,0.19611 0.31185,0.30754 0.53385,0.347 0.222,0.0395 0.43117,0.003 0.62727,-0.13346 0.19609,-0.13691 0.30754,-0.32519 0.34699,-0.54719 0.0395,-0.222 -0.0103,-0.43118 -0.14681,-0.62727 l -2.68256,-3.8437 7.35372,1.30793 c 0.16453,0.0407 0.31812,0.0252 0.46711,-0.04 0.15553,-0.0697 0.27947,-0.17673 0.3737,-0.32031 0.10076,-0.14812 0.1437,-0.29925 0.13345,-0.46712 -0.004,-0.17242 -0.0509,-0.32984 -0.1468,-0.46711 l -3.83035,-5.48527 c -0.1369,-0.19608 -0.32518,-0.32087 -0.54719,-0.36034 -0.0555,-0.0103 -0.10627,-0.0146 -0.16015,-0.0133 z m 116.28499,3.77697 c -0.0838,-5.5e-4 -0.17143,0.0138 -0.25359,0.04 -0.15806,0.0574 -0.29593,0.14945 -0.40038,0.28027 l -4.17733,5.24504 c -0.14923,0.1869 -0.21198,0.38984 -0.18686,0.61392 0.0251,0.22408 0.13341,0.41132 0.32031,0.56054 0.1869,0.14921 0.38984,0.21197 0.61393,0.18684 0.22406,-0.0252 0.4113,-0.1334 0.56053,-0.32031 l 2.93615,-3.67018 0.82747,7.42046 c 0.007,0.1693 0.0555,0.31601 0.16015,0.44041 0.11093,0.12938 0.24933,0.21729 0.41373,0.26693 0.17062,0.0545 0.33574,0.0441 0.4938,-0.0133 0.16428,-0.0525 0.30928,-0.1361 0.41373,-0.26692 l 4.17736,-5.2317 c 0.1492,-0.1869 0.21195,-0.38984 0.18683,-0.61393 -0.0252,-0.22407 -0.13342,-0.41131 -0.3203,-0.56054 -0.18692,-0.14921 -0.38985,-0.21196 -0.61391,-0.18684 -0.22411,0.0252 -0.41135,0.12006 -0.56055,0.30697 l -2.93616,3.67018 -0.82745,-7.4071 c -0.008,-0.16931 -0.0626,-0.3244 -0.17351,-0.45377 -0.10471,-0.1244 -0.236,-0.20393 -0.40038,-0.25358 -0.0853,-0.0273 -0.16985,-0.0528 -0.25357,-0.0534 z m -124.53294,2.13539 c -0.16048,0.0195 -0.30429,0.0833 -0.44041,0.2002 -0.1815,0.15577 -0.27647,0.34906 -0.29362,0.57389 -0.0172,0.22483 0.0444,0.43244 0.2002,0.61391 l 1.64157,1.89516 -3.81699,3.26981 -1.62823,-1.89516 c -0.15576,-0.18148 -0.34905,-0.2898 -0.57389,-0.30697 -0.22483,-0.0171 -0.43242,0.0579 -0.61392,0.21355 -0.18149,0.15577 -0.27646,0.34906 -0.29363,0.57389 -0.0172,0.22483 0.0445,0.41908 0.2002,0.60057 l 4.36419,5.08488 c 0.15577,0.18149 0.34906,0.27646 0.57389,0.29361 0.22482,0.0172 0.43244,-0.0444 0.61392,-0.20018 0.18149,-0.15577 0.27646,-0.34906 0.29361,-0.5739 0.0172,-0.22481 -0.0577,-0.43243 -0.21354,-0.6139 l -1.62822,-1.89516 3.80365,-3.26981 1.64158,1.89515 c 0.15574,0.18149 0.34905,0.28981 0.57388,0.30697 0.22483,0.0171 0.41909,-0.0579 0.60059,-0.21354 0.18146,-0.15577 0.28979,-0.34904 0.30695,-0.57389 0.0172,-0.22481 -0.0578,-0.41908 -0.21355,-0.60057 l -4.36418,-5.08489 c -0.15576,-0.18147 -0.33572,-0.27645 -0.56053,-0.29362 -0.0562,-0.004 -0.12001,-0.006 -0.17352,0 z m 132.30037,4.28412 c -0.22547,0.003 -0.43351,0.0825 -0.60058,0.25358 -0.16707,0.17114 -0.24294,0.37511 -0.24023,0.60058 0.003,0.22546 0.0825,0.42016 0.25358,0.58722 l 1.80174,1.74835 -3.51004,3.60347 -1.78839,-1.7617 c -0.17113,-0.16707 -0.37511,-0.24294 -0.60057,-0.24023 -0.22548,0.003 -0.42016,0.0825 -0.58724,0.25357 -0.16707,0.17113 -0.25628,0.37511 -0.25356,0.60058 0.003,0.22547 0.0957,0.42016 0.26691,0.58723 l 4.79127,4.68449 c 0.17112,0.16707 0.3751,0.24293 0.60057,0.24024 0.22546,-0.003 0.42015,-0.0825 0.58723,-0.25358 0.16707,-0.17114 0.24293,-0.37511 0.24023,-0.60057 -0.003,-0.22547 -0.0825,-0.42017 -0.25357,-0.58723 l -1.80173,-1.7617 3.51003,-3.59011 1.78839,1.76169 c 0.17112,0.16707 0.37509,0.24294 0.60058,0.24024 0.22546,-0.003 0.42015,-0.0957 0.58722,-0.26694 0.16706,-0.17113 0.25628,-0.36176 0.25358,-0.58722 -0.003,-0.22547 -0.0958,-0.42015 -0.26693,-0.58723 l -4.79126,-4.68449 c -0.17114,-0.16708 -0.36177,-0.24295 -0.58723,-0.24024 z m -139.74752,2.38897 c -0.22541,0.005 -0.42216,0.0938 -0.58722,0.26692 l -3.47,3.64349 c -0.3191,0.33463 -0.52834,0.668 -0.62727,1.01431 -0.0989,0.34631 -0.12714,0.68068 -0.0801,1.00097 0.0413,0.31479 0.14066,0.61382 0.29361,0.88083 0.15295,0.26704 0.32832,0.48342 0.50715,0.65396 l 2.41565,2.30888 c 0.33463,0.3191 0.68135,0.52836 1.02767,0.62729 0.3463,0.0989 0.67282,0.12138 0.98761,0.0801 0.32028,-0.0471 0.60597,-0.13308 0.8675,-0.28027 0.26702,-0.15294 0.49124,-0.32253 0.66731,-0.50714 l 3.46999,-3.64351 c 0.16506,-0.17308 0.24557,-0.3618 0.24023,-0.58722 -0.005,-0.22543 -0.0938,-0.42217 -0.26692,-0.58725 -0.17308,-0.16503 -0.37516,-0.24556 -0.60058,-0.24022 -0.22543,0.005 -0.42217,0.0939 -0.58723,0.26693 l -3.47,3.63013 c -0.0605,0.0634 -0.12471,0.12837 -0.21353,0.18687 -0.0833,0.0528 -0.18695,0.0873 -0.29363,0.10676 -0.10117,0.0137 -0.20677,0.004 -0.3203,-0.0267 -0.11377,-0.0424 -0.22584,-0.12469 -0.347,-0.24022 l -2.429,-2.30889 c -0.0635,-0.0605 -0.12077,-0.13022 -0.1735,-0.21354 -0.0585,-0.0888 -0.0931,-0.17909 -0.10676,-0.28026 -0.0194,-0.10667 -0.0103,-0.22565 0.0267,-0.33367 0.0367,-0.11926 0.11135,-0.23919 0.22687,-0.36034 l 3.47,-3.63015 c 0.16506,-0.17307 0.24559,-0.37514 0.24024,-0.60058 -0.005,-0.22541 -0.0939,-0.42217 -0.26692,-0.58722 -0.17308,-0.16506 -0.37517,-0.24558 -0.60059,-0.24024 z m 146.7409,4.76456 c -0.16069,0.0179 -0.3165,0.0847 -0.45376,0.2002 -0.18305,0.15394 -0.28757,0.33589 -0.30698,0.56054 -0.0194,0.22464 0.0462,0.43088 0.20021,0.61391 l 1.62822,1.92186 -4.48431,3.77695 c -0.18303,0.15393 -0.28757,0.33589 -0.30695,0.56054 -0.0194,0.22466 0.0462,0.43089 0.20019,0.61392 0.15393,0.18304 0.33589,0.28756 0.56053,0.30696 0.22466,0.0194 0.4309,-0.0462 0.61393,-0.20019 l 4.48431,-3.77696 1.61487,1.92185 c 0.15394,0.18303 0.34923,0.28756 0.57389,0.30696 0.22464,0.0194 0.43088,-0.0462 0.61393,-0.20019 0.18302,-0.15394 0.27419,-0.34924 0.29361,-0.57388 0.0193,-0.22467 -0.0463,-0.41755 -0.2002,-0.60059 l -4.31079,-5.12492 c -0.15395,-0.18303 -0.3359,-0.28755 -0.56055,-0.30696 -0.0562,-0.005 -0.10658,-0.006 -0.16015,0 z m -153.49404,2.64254 c -0.0538,-0.004 -0.1042,0.006 -0.16015,0.0133 -0.22377,0.0277 -0.41352,0.13168 -0.56054,0.32031 l -3.08296,3.9638 c -0.28425,0.36469 -0.45649,0.72661 -0.5205,1.08104 -0.0641,0.35443 -0.0653,0.68694 0.0133,1.00096 0.0724,0.30913 0.2083,0.59031 0.38704,0.84081 0.17873,0.25051 0.36562,0.44864 0.56054,0.60058 l 2.64253,2.05529 c 0.36468,0.28427 0.71326,0.45651 1.06768,0.52051 0.35444,0.0641 0.69185,0.0589 1.00097,-0.0133 0.31402,-0.0787 0.59521,-0.20124 0.84081,-0.37369 0.25049,-0.17874 0.45709,-0.37267 0.61391,-0.57389 l 3.08297,-3.9638 c 0.14703,-0.18863 0.20123,-0.39015 0.17351,-0.61392 -0.0278,-0.22376 -0.13169,-0.41351 -0.32032,-0.56054 -0.18863,-0.14701 -0.39016,-0.20122 -0.61392,-0.17349 -0.22377,0.0277 -0.41352,0.13168 -0.56054,0.3203 l -3.08296,3.9638 c -0.0539,0.0691 -0.13096,0.13316 -0.21353,0.2002 -0.0777,0.0608 -0.16272,0.11685 -0.26692,0.1468 -0.0993,0.0236 -0.20427,0.0198 -0.32032,0 -0.11744,-0.0308 -0.24166,-0.0973 -0.37369,-0.20019 l -0.66731,-0.50715 1.54816,-1.98859 c 0.14702,-0.18861 0.20123,-0.39013 0.17349,-0.61391 -0.0277,-0.22376 -0.13167,-0.4135 -0.3203,-0.56055 -0.18863,-0.14701 -0.39014,-0.20121 -0.61393,-0.17349 -0.22377,0.0277 -0.41351,0.13168 -0.56053,0.32031 l -1.54815,1.97523 -0.65397,-0.50715 c -0.0691,-0.054 -0.13943,-0.12253 -0.20019,-0.2002 -0.067,-0.0826 -0.1098,-0.1676 -0.13346,-0.26692 -0.0299,-0.10421 -0.0259,-0.22251 0,-0.33365 0.0246,-0.12233 0.0838,-0.24165 0.18684,-0.3737 l 3.08296,-3.9638 c 0.14704,-0.18861 0.21459,-0.39014 0.18685,-0.61393 -0.0277,-0.22376 -0.14502,-0.4135 -0.33364,-0.56053 -0.14148,-0.11026 -0.29255,-0.17489 -0.45378,-0.18685 z m 159.28627,5.53865 c -0.23296,0.004 -0.44768,0.0358 -0.66731,0.10677 -0.29284,0.0946 -0.5436,0.22054 -0.74738,0.36035 l -4.15065,2.84273 c -0.19723,0.1353 -0.30572,0.31217 -0.347,0.53385 -0.0412,0.22167 -0.002,0.43004 0.13346,0.62726 0.13529,0.19721 0.31217,0.31907 0.53385,0.36035 0.22166,0.0413 0.43005,-0.0115 0.62726,-0.14681 l 2.082,-1.41469 2.82939,4.1373 -2.06866,1.41469 c -0.19721,0.13529 -0.31906,0.31217 -0.36034,0.53386 -0.0413,0.22166 0.0115,0.44338 0.14681,0.64061 0.13529,0.19721 0.31216,0.30571 0.53384,0.347 0.22167,0.0412 0.43005,0.002 0.62727,-0.13346 l 4.15065,-2.84273 c 0.38127,-0.26159 0.64586,-0.54906 0.81411,-0.8675 0.16825,-0.31845 0.26023,-0.63781 0.28027,-0.96093 0.0245,-0.31654 9.5e-4,-0.62804 -0.0935,-0.92089 -0.0946,-0.29284 -0.22055,-0.54359 -0.36034,-0.74738 l -1.89516,-2.76264 c -0.26158,-0.38129 -0.54906,-0.64587 -0.86749,-0.81412 -0.31847,-0.16825 -0.63783,-0.27359 -0.96093,-0.29362 -0.079,-0.006 -0.16256,-9.4e-4 -0.24023,0 z m 0.0802,1.66828 c 0.10839,0.003 0.20888,0.0351 0.30697,0.0935 0.10914,0.0605 0.21224,0.15557 0.30696,0.2936 l 1.89514,2.76267 c 0.0495,0.0723 0.0857,0.16114 0.12012,0.25357 0.0389,0.0989 0.0609,0.19178 0.0533,0.29361 -0.003,0.1084 -0.0418,0.21772 -0.10676,0.32031 -0.054,0.10465 -0.14224,0.1989 -0.28027,0.29362 l -0.694,0.48046 -2.84272,-4.1373 0.69399,-0.48047 c 0.0723,-0.0496 0.1478,-0.0857 0.24022,-0.12011 0.0989,-0.039 0.20514,-0.0609 0.30697,-0.0533 z m -165.30539,0.54718 c -0.0539,9.4e-4 -0.11849,0.0143 -0.17349,0.0267 -0.22004,0.0492 -0.39241,0.17173 -0.52051,0.37367 l -3.59011,5.65877 c -0.12809,0.20199 -0.15602,0.40725 -0.10677,0.62728 0.0492,0.22003 0.17173,0.39242 0.37369,0.52051 0.20199,0.12809 0.40724,0.16938 0.62727,0.1201 0.22005,-0.0492 0.39241,-0.17171 0.52051,-0.37369 l 1.34796,-2.12202 4.95141,3.13632 c 0.20198,0.12811 0.40724,0.16938 0.62726,0.12013 0.22005,-0.0492 0.39242,-0.17172 0.52052,-0.37369 0.12809,-0.20197 0.16936,-0.42058 0.12011,-0.64061 -0.0492,-0.22004 -0.17172,-0.39242 -0.37369,-0.52051 l -4.95143,-3.13634 1.34797,-2.12205 c 0.1281,-0.20194 0.16938,-0.40721 0.12011,-0.62726 -0.0492,-0.22003 -0.17172,-0.39239 -0.37369,-0.5205 -0.15148,-0.096 -0.30547,-0.1505 -0.46712,-0.14681 z m 124.10576,142.97734 c -0.10685,0.01 -0.21396,0.052 -0.32031,0.1068 -0.21268,0.1093 -0.35819,0.2657 -0.42707,0.4804 -0.069,0.2147 -0.0426,0.4279 0.0667,0.6406 l 2.29554,4.471 c 0.11667,0.2269 0.28094,0.4451 0.49381,0.6673 0.20923,0.2151 0.46683,0.3981 0.76072,0.5339 0.29027,0.1286 0.61413,0.1837 0.97428,0.1868 0.36015,0 0.73655,-0.096 1.14776,-0.307 l 4.47096,-2.2955 c 0.2127,-0.1094 0.35819,-0.2791 0.42708,-0.4938 0.069,-0.2147 0.0427,-0.4279 -0.0667,-0.6406 -0.10937,-0.2127 -0.26575,-0.3449 -0.48045,-0.4138 -0.21472,-0.069 -0.42793,-0.056 -0.64062,0.053 l -4.47096,2.2956 c -0.14889,0.077 -0.27925,0.125 -0.40039,0.1334 -0.11769,0 -0.22713,-0.025 -0.3203,-0.067 -0.0968,-0.049 -0.17522,-0.1127 -0.24024,-0.1868 -0.0688,-0.081 -0.12006,-0.1622 -0.16016,-0.2402 l -2.30887,-4.4577 c -0.10937,-0.2126 -0.26575,-0.3581 -0.48046,-0.427 -0.10736,-0.034 -0.21346,-0.05 -0.32031,-0.04 z m -79.59643,0.4671 c -0.10731,-9e-4 -0.20273,0.011 -0.30695,0.053 -0.20848,0.086 -0.3619,0.2463 -0.45377,0.4671 -0.0919,0.2208 -0.0993,0.4322 -0.0133,0.6406 0.0859,0.2085 0.2463,0.3619 0.46711,0.4538 l 2.30888,0.9609 -2.24215,5.4052 c -0.0919,0.2208 -0.0993,0.4455 -0.0133,0.654 0.0859,0.2084 0.23298,0.3485 0.45379,0.4404 0.2208,0.092 0.44549,0.099 0.65395,0.013 0.20846,-0.086 0.34853,-0.233 0.44043,-0.4538 l 2.25549,-5.4185 2.32223,0.9609 c 0.22081,0.092 0.43215,0.099 0.64062,0.013 0.20844,-0.086 0.36188,-0.2329 0.45377,-0.4538 0.0918,-0.2208 0.0992,-0.4454 0.0133,-0.6539 -0.086,-0.2085 -0.24632,-0.3485 -0.46712,-0.4404 l -6.17926,-2.5758 c -0.11042,-0.046 -0.22633,-0.065 -0.33366,-0.067 z m 75.97962,1.3079 c -0.0764,-9e-4 -0.15021,0.01 -0.22688,0.013 -0.30669,0.025 -0.58385,0.084 -0.81411,0.1735 l -3.123,1.2145 c -0.43082,0.1679 -0.76463,0.3822 -1.00097,0.654 -0.23632,0.2718 -0.40074,0.5708 -0.49381,0.8808 -0.096,0.3027 -0.1188,0.6009 -0.0935,0.9076 0.0254,0.3067 0.0704,0.5838 0.16016,0.8141 l 1.82842,4.6712 c 0.0868,0.2228 0.23396,0.3764 0.44043,0.4671 0.20644,0.091 0.41777,0.1001 0.6406,0.013 0.22284,-0.087 0.3898,-0.234 0.48047,-0.4404 0.0907,-0.2065 0.0868,-0.4178 0,-0.6407 l -1.82842,-4.6845 c -0.0318,-0.082 -0.0542,-0.1691 -0.0667,-0.2669 -0.0154,-0.1052 -0.004,-0.2095 0.0267,-0.307 0.0276,-0.1048 0.081,-0.198 0.16015,-0.2802 0.0838,-0.093 0.20435,-0.1661 0.36034,-0.2269 l 3.123,-1.2145 c 0.0817,-0.032 0.16911,-0.054 0.26693,-0.067 0.10523,-0.015 0.20952,-0.017 0.30695,0.013 0.10487,0.028 0.19517,0.087 0.28027,0.1735 0.0896,0.076 0.1661,0.191 0.22689,0.347 l 1.82842,4.6845 c 0.0868,0.2228 0.23396,0.3764 0.44043,0.4671 0.20644,0.091 0.41777,0.1001 0.64061,0.013 0.22283,-0.087 0.37644,-0.234 0.46711,-0.4404 0.0907,-0.2065 0.10015,-0.4312 0.0133,-0.654 l -1.82842,-4.6711 c -0.16791,-0.4309 -0.39554,-0.7647 -0.66731,-1.001 -0.27178,-0.2363 -0.55744,-0.4008 -0.8675,-0.4938 -0.22698,-0.072 -0.4514,-0.1164 -0.68066,-0.1201 z m -65.91661,2.7093 c -0.0939,0 -0.19191,0.01 -0.28027,0.027 -0.3535,0.069 -0.65681,0.1998 -0.92089,0.387 -0.26179,0.1796 -0.47203,0.3966 -0.64061,0.654 -0.16859,0.2574 -0.2895,0.5106 -0.36035,0.7474 l -0.96092,3.203 c -0.13258,0.443 -0.16238,0.8344 -0.0935,1.1879 0.069,0.3535 0.18072,0.6724 0.36033,0.9342 0.18725,0.2641 0.41751,0.4743 0.66731,0.6406 0.25744,0.1686 0.50299,0.2872 0.74738,0.3604 l 3.20308,0.9609 c 0.44296,0.1325 0.84765,0.1623 1.20115,0.093 0.3535,-0.069 0.65908,-0.1941 0.92089,-0.3737 0.26408,-0.1873 0.47431,-0.4042 0.64061,-0.654 0.16858,-0.2574 0.30054,-0.503 0.3737,-0.7474 0.0686,-0.2291 0.0404,-0.4421 -0.0667,-0.6406 -0.10706,-0.1985 -0.27806,-0.3318 -0.50716,-0.4004 -0.22914,-0.069 -0.44216,-0.054 -0.64062,0.053 -0.19848,0.1071 -0.33181,0.2781 -0.40039,0.5072 -0.0252,0.084 -0.0541,0.1745 -0.10677,0.2669 -0.0503,0.085 -0.1273,0.1612 -0.21354,0.2269 -0.0839,0.058 -0.18404,0.085 -0.30696,0.1067 -0.11301,0.016 -0.25335,0.01 -0.41372,-0.04 l -3.20307,-0.9609 c -0.084,-0.025 -0.17451,-0.068 -0.26693,-0.1201 -0.0848,-0.05 -0.16116,-0.1139 -0.22688,-0.2002 -0.0581,-0.084 -0.0965,-0.1917 -0.12012,-0.3069 -0.0138,-0.1207 0.005,-0.2534 0.0533,-0.4138 l 0.24023,-0.8007 2.4023,0.7206 c 0.22912,0.069 0.44216,0.04 0.64063,-0.067 0.19846,-0.107 0.33179,-0.2646 0.40039,-0.4938 0.0687,-0.2291 0.0537,-0.4421 -0.0534,-0.6406 -0.10702,-0.1984 -0.27805,-0.3318 -0.50715,-0.4004 l -2.4023,-0.7207 0.24022,-0.8007 c 0.0251,-0.084 0.0565,-0.1688 0.10677,-0.2536 0.0527,-0.092 0.12958,-0.1688 0.21354,-0.2269 0.0862,-0.066 0.18061,-0.1173 0.29362,-0.1334 0.12292,-0.022 0.26669,-0.01 0.42708,0.04 l 3.20308,0.9609 c 0.084,0.025 0.16876,0.07 0.25356,0.1201 0.0925,0.053 0.1688,0.1162 0.22688,0.2002 0.0657,0.086 0.1063,0.1863 0.12012,0.3069 0.0238,0.1153 0.008,0.2534 -0.04,0.4138 -0.0687,0.2291 -0.0404,0.4421 0.0667,0.6406 0.10702,0.1985 0.26468,0.3451 0.4938,0.4137 0.22912,0.069 0.44215,0.04 0.64063,-0.067 0.19845,-0.107 0.34514,-0.278 0.41373,-0.5071 0.13257,-0.443 0.16236,-0.8343 0.0935,-1.1878 -0.069,-0.3535 -0.1998,-0.6702 -0.38704,-0.9343 -0.17962,-0.2618 -0.39653,-0.472 -0.65396,-0.6406 -0.25745,-0.1686 -0.51063,-0.2895 -0.74738,-0.3603 l -3.20308,-0.9609 c -0.33223,-0.099 -0.63899,-0.1341 -0.92088,-0.1202 z m 52.6105,1.5882 c -0.13694,0.01 -0.26672,0.038 -0.38704,0.067 l -3.25645,0.7607 c -0.4502,0.1055 -0.8221,0.2714 -1.09439,0.5072 -0.27228,0.2357 -0.46471,0.5069 -0.60057,0.8007 -0.13767,0.2861 -0.22214,0.5737 -0.24025,0.8809 -0.018,0.3072 -0.003,0.5868 0.0533,0.8274 l 0.77407,3.2565 c 0.10548,0.4502 0.2714,0.8088 0.50716,1.081 0.23574,0.2723 0.50133,0.4896 0.78741,0.6273 0.29385,0.1359 0.58141,0.207 0.88086,0.2269 0.30719,0.018 0.59241,0.01 0.8408,-0.053 l 3.25646,-0.7741 c 0.45018,-0.1055 0.80874,-0.2714 1.08103,-0.5071 0.27227,-0.2358 0.47625,-0.5014 0.61393,-0.7875 0.13584,-0.2938 0.22031,-0.5814 0.24023,-0.8808 0.0181,-0.3072 -0.008,-0.5924 -0.0667,-0.8408 -0.0545,-0.2329 -0.16875,-0.4016 -0.36035,-0.5205 -0.19162,-0.1189 -0.40776,-0.1613 -0.64061,-0.1068 -0.23286,0.055 -0.415,0.1821 -0.53385,0.3737 -0.11887,0.1916 -0.14799,0.4078 -0.0935,0.6406 0.0201,0.085 0.0265,0.1739 0.0268,0.2803 -9.6e-4,0.099 -0.0113,0.207 -0.0533,0.307 -0.0439,0.092 -0.1176,0.1737 -0.21353,0.2535 -0.09,0.07 -0.22404,0.122 -0.38704,0.1602 l -3.25646,0.7607 c -0.0854,0.02 -0.17391,0.04 -0.28026,0.04 -0.0986,-9e-4 -0.20704,-0.025 -0.30696,-0.067 -0.0923,-0.044 -0.17561,-0.112 -0.25358,-0.2002 -0.0721,-0.098 -0.12196,-0.224 -0.16016,-0.387 l -0.76072,-3.2698 c -0.0201,-0.085 -0.0416,-0.1684 -0.0401,-0.267 -3.5e-4,-0.1063 0.0229,-0.2147 0.0667,-0.3069 0.042,-0.1 0.11018,-0.1834 0.20018,-0.2536 0.0958,-0.08 0.22405,-0.1353 0.38704,-0.1735 l 3.26981,-0.7607 c 0.0854,-0.02 0.16832,-0.028 0.26692,-0.027 0.10636,-4e-4 0.21479,0.023 0.30696,0.067 0.0999,0.042 0.18154,0.1025 0.25358,0.2002 0.0779,0.088 0.1353,0.224 0.1735,0.387 0.0545,0.2329 0.18208,0.4016 0.3737,0.5205 0.1916,0.1189 0.39439,0.148 0.62726,0.093 0.23285,-0.054 0.41497,-0.1688 0.53385,-0.3604 0.11885,-0.1916 0.14798,-0.4077 0.0935,-0.6406 -0.1055,-0.4501 -0.27141,-0.8087 -0.50715,-1.081 -0.23577,-0.2723 -0.50694,-0.4781 -0.80078,-0.6139 -0.28607,-0.1377 -0.587,-0.2222 -0.89419,-0.2403 -0.15359,-0.01 -0.29012,-0.01 -0.42707,0 z m -42.92121,0.9476 c -0.19969,0 -0.38834,0.027 -0.56053,0.08 -0.34439,0.1054 -0.63772,0.2667 -0.88085,0.4804 -0.24165,0.206 -0.43305,0.4471 -0.57388,0.7207 -0.14084,0.2736 -0.23447,0.5313 -0.28027,0.7741 l -0.62727,3.2965 c -0.0857,0.4544 -0.0653,0.8434 0.04,1.1878 0.10543,0.3444 0.24785,0.6392 0.45376,0.8808 0.21377,0.2432 0.45492,0.4346 0.7207,0.5739 0.27361,0.1409 0.53674,0.233 0.78742,0.2803 l 3.2965,0.6273 c 0.45437,0.086 0.85677,0.079 1.20116,-0.027 0.34437,-0.1055 0.62584,-0.2612 0.8675,-0.4672 0.24311,-0.2137 0.43451,-0.4549 0.57388,-0.7206 0.14082,-0.2736 0.24633,-0.5368 0.29361,-0.7875 0.0443,-0.235 -0.006,-0.441 -0.13346,-0.6272 -0.12714,-0.1863 -0.29884,-0.3027 -0.53384,-0.347 -0.23502,-0.044 -0.45441,-0.01 -0.64062,0.1201 -0.18624,0.1271 -0.30269,0.3122 -0.347,0.5472 -0.0163,0.086 -0.0374,0.1695 -0.0802,0.2669 -0.0412,0.09 -0.10793,0.1792 -0.18685,0.2536 -0.0775,0.066 -0.1736,0.1126 -0.29361,0.1468 -0.11071,0.028 -0.24922,0.031 -0.41374,0 l -3.28314,-0.6273 c -0.0862,-0.016 -0.18286,-0.037 -0.28027,-0.08 -0.0896,-0.041 -0.16587,-0.1079 -0.24024,-0.1868 -0.0665,-0.077 -0.12451,-0.1681 -0.16015,-0.2803 -0.0263,-0.1185 -0.0177,-0.2625 0.0133,-0.4271 l 0.61393,-3.2965 c 0.0163,-0.086 0.0522,-0.164 0.0935,-0.2535 0.0427,-0.097 0.096,-0.1871 0.17351,-0.2536 0.0789,-0.074 0.16956,-0.119 0.28027,-0.1468 0.12,-0.034 0.26256,-0.044 0.42707,-0.013 l 3.2965,0.6272 c 0.0862,0.016 0.17733,0.039 0.26692,0.08 0.0974,0.043 0.1737,0.1094 0.24024,0.1869 0.0743,0.079 0.12047,0.1751 0.14681,0.2936 0.0356,0.1122 0.0444,0.2492 0.0133,0.4137 -0.0444,0.235 -0.007,0.4544 0.12012,0.6406 0.12711,0.1863 0.31216,0.2894 0.54718,0.3337 0.23502,0.044 0.44103,0.01 0.62727,-0.1201 0.18623,-0.1272 0.30267,-0.3122 0.347,-0.5472 0.0857,-0.4544 0.0787,-0.8434 -0.0268,-1.1878 -0.10542,-0.3444 -0.26671,-0.6377 -0.48045,-0.8809 -0.20592,-0.2416 -0.4471,-0.433 -0.7207,-0.5738 -0.27362,-0.1409 -0.53122,-0.2345 -0.77407,-0.2803 l -3.28315,-0.6273 c -0.22719,-0.043 -0.44093,-0.058 -0.64061,-0.053 z m 33.37872,1.0009 c -0.1372,0 -0.26446,0 -0.38703,0.013 l -3.3232,0.4271 c -0.45869,0.058 -0.83924,0.1807 -1.13443,0.3871 -0.29518,0.2063 -0.5285,0.4558 -0.69399,0.734 -0.1665,0.2703 -0.27057,0.5505 -0.32031,0.8542 -0.0498,0.3036 -0.0579,0.5823 -0.0267,0.8274 l 0.64062,4.9781 c 0.0302,0.2373 0.12865,0.4225 0.30696,0.5606 0.1783,0.138 0.39003,0.2037 0.62728,0.1735 0.23723,-0.03 0.42249,-0.142 0.56053,-0.3204 0.13802,-0.1782 0.19035,-0.39 0.16015,-0.6272 l -0.64062,-4.9781 c -0.0111,-0.087 0.002,-0.1824 0.0133,-0.2803 0.0107,-0.1058 0.0403,-0.1931 0.0935,-0.2803 0.0523,-0.095 0.11677,-0.1796 0.21354,-0.2402 0.10366,-0.069 0.24765,-0.1123 0.41372,-0.1334 l 3.3232,-0.4271 c 0.0869,-0.011 0.169,-0.012 0.26693,0 0.10581,0.01 0.20646,0.053 0.29361,0.1067 0.0951,0.052 0.17868,0.1222 0.24024,0.2269 0.0684,0.096 0.1123,0.2343 0.13345,0.4004 l 0.62727,4.9781 c 0.0302,0.2373 0.142,0.4225 0.3203,0.5606 0.17831,0.138 0.37667,0.1903 0.61393,0.1601 0.23725,-0.03 0.43586,-0.1286 0.57389,-0.307 0.138,-0.1783 0.19035,-0.39 0.16014,-0.6272 l -0.64061,-4.9781 c -0.0584,-0.4587 -0.19404,-0.8393 -0.40037,-1.1345 -0.20636,-0.2951 -0.44247,-0.5285 -0.7207,-0.694 -0.27034,-0.1664 -0.56383,-0.2705 -0.86751,-0.3203 -0.15183,-0.025 -0.28985,-0.036 -0.42707,-0.04 z m -24.97064,0.3871 c -0.16631,0.016 -0.32483,0.077 -0.45377,0.1868 -0.17193,0.1459 -0.26074,0.3489 -0.28027,0.5872 l -0.5472,6.6731 c -0.0195,0.2384 0.0409,0.442 0.18685,0.6139 0.14589,0.172 0.33552,0.2608 0.57389,0.2803 0.23837,0.02 0.44199,-0.041 0.61393,-0.1868 0.17191,-0.1459 0.27408,-0.3356 0.29361,-0.5739 l 0.20019,-2.5091 5.00481,0.4137 -0.20021,2.5091 c -0.0195,0.2384 0.0409,0.442 0.18686,0.6139 0.14588,0.172 0.33551,0.2608 0.57389,0.2803 0.23835,0.02 0.45532,-0.041 0.62726,-0.1868 0.17192,-0.1459 0.26074,-0.3356 0.28026,-0.5739 l 0.5472,-6.6731 c 0.0195,-0.2384 -0.0409,-0.442 -0.18685,-0.6139 -0.14589,-0.1719 -0.33552,-0.2741 -0.57388,-0.2936 -0.23838,-0.019 -0.45536,0.041 -0.62727,0.1868 -0.17193,0.1459 -0.26074,0.3489 -0.28027,0.5872 l -0.20019,2.4958 -5.0048,-0.4138 0.2002,-2.4957 c 0.0195,-0.2383 -0.0409,-0.442 -0.18687,-0.6139 -0.14588,-0.1719 -0.3355,-0.2741 -0.57388,-0.2936 -0.0596,0 -0.11805,0 -0.17349,0 z m 16.56258,0.4804 -6.68644,0.1602 c -0.2391,0 -0.44478,0.091 -0.60057,0.2536 -0.15578,0.163 -0.21895,0.3614 -0.21354,0.6005 0.005,0.2391 0.0906,0.4315 0.25358,0.5873 0.16301,0.1558 0.36146,0.2323 0.60057,0.2269 l 2.50908,-0.053 0.10677,5.0181 -2.50908,0.053 c -0.23909,0 -0.43144,0.091 -0.58722,0.2536 -0.15579,0.163 -0.23231,0.3748 -0.2269,0.6139 0.005,0.2391 0.0906,0.4314 0.25359,0.5872 0.16301,0.1558 0.36147,0.2323 0.60056,0.2269 l 6.69978,-0.1601 c 0.2391,0 0.43144,-0.077 0.58724,-0.2403 0.15576,-0.163 0.23228,-0.3748 0.22688,-0.6139 -0.005,-0.2391 -0.0906,-0.4314 -0.25359,-0.5872 -0.16302,-0.1558 -0.36147,-0.2323 -0.60057,-0.2269 l -2.50907,0.053 -0.12013,-5.0182 2.50909,-0.053 c 0.23909,0 0.44477,-0.091 0.60057,-0.2535 0.15578,-0.163 0.23231,-0.3615 0.22688,-0.6006 -0.005,-0.2391 -0.0906,-0.4448 -0.25357,-0.6006 -0.16302,-0.1558 -0.37483,-0.2323 -0.61391,-0.2269 z m 24.51686,2.2422 c -0.0553,0.01 -0.1164,0.022 -0.17351,0.04 -0.22841,0.071 -0.40212,0.2008 -0.50714,0.4004 -0.10502,0.1995 -0.11093,0.4122 -0.0401,0.6406 0.0708,0.2284 0.20085,0.4021 0.40038,0.5071 0.19953,0.1051 0.41221,0.111 0.64062,0.04 0.22842,-0.071 0.40212,-0.2008 0.50715,-0.4003 0.10502,-0.1996 0.11093,-0.4122 0.04,-0.6407 -0.0708,-0.2284 -0.20085,-0.4021 -0.40039,-0.5071 -0.14966,-0.079 -0.30122,-0.1003 -0.46711,-0.08 z"
           id="text4915"
           inkscape:connector-curvature="0" />
        <g
           id="g3024">
          <path
             id="path3187-5"
             d="m 136.36301,841.72687 c -0.29054,-0.0987 -0.5891,-0.17535 -0.90407,-0.21687 -0.15758,-0.0205 -0.29083,-0.0683 -0.44637,-0.0731 -2.33533,-0.0679 -4.43291,1.64561 -4.74505,4.00774 -0.12201,0.92448 0.0574,1.76496 0.25422,2.39296 0.14271,0.54054 0.36109,1.12887 0.51296,1.56908 0.3019,1.05117 0.57361,2.57662 0.11554,6.03702 -0.47658,3.60508 -0.98928,4.83136 -2.13894,9.58651 -0.10806,0.44698 -0.25187,0.82593 -0.36243,1.26065 2.21399,0.14142 4.50204,0.50058 6.3868,0.79886 -6.7e-4,0.0159 -0.01,0.0166 -0.01,0.0305 -0.0142,1.26364 9e-4,2.64157 -0.034,3.84454 -0.004,0.0115 0.0173,0.0346 0.0209,0.04 13.39522,2.54291 24.93932,9.47087 33.3113,19.14372 1.11348,-0.60625 2.37038,-1.29507 3.33586,-1.86896 1.26821,1.47296 2.59389,3.16023 3.59012,4.58038 -0.95544,0.93244 -1.96173,1.88115 -2.76466,2.71881 6.83947,10.05516 10.61214,22.27145 10.12217,35.12678 -0.66455,-0.18616 -1.36901,-0.40707 -1.96248,-0.58283 -0.45306,-0.13155 -4.62935,-1.35329 -5.03307,-1.48008 -0.19828,0.204 -0.39406,0.37326 -0.56565,0.62694 -0.17163,0.25377 -0.25276,0.36436 -0.53336,0.73764 -0.28139,0.37388 -0.88902,1.16511 -1.26014,1.98444 -2.26879,-0.31021 -3.4063,-0.50749 -6.20296,-1.27751 -3.1879,-0.87776 -7.22564,-1.94437 -10.41999,-2.36716 -1.37258,-0.18142 -2.92317,-0.31152 -4.50803,-0.37648 0.006,0.30981 0.0108,0.63053 0.006,0.94065 l -0.10105,0.002 -0.88865,6.45918 0.10106,-0.002 c -0.0771,0.30728 -0.10859,0.63991 -0.19598,0.94416 1.53779,0.35077 3.0707,0.64223 4.4349,0.82284 3.19454,0.42275 7.3223,0.43951 10.62877,0.42132 2.90075,-0.0159 4.08183,0.065 6.35881,0.35426 0.14428,0.85267 0.40988,1.66357 0.76943,2.35362 l 0.40728,0.73133 0.77672,-0.12483 c 0.21279,-0.0362 0.50082,-0.0757 0.83775,-0.10568 0.38283,-1.77802 0.79143,-3.98434 0.9691,-5.32763 0.19698,-1.48334 0.32696,-2.95972 0.41834,-4.42784 l 2.74628,0.86245 c 0.0104,0.004 0.0295,-0.0242 0.04,-0.0209 l 0.6408,0.20124 c 0.14088,0.0442 0.31244,0.10131 0.45771,0.14374 l 1.06801,0.3354 c 1.6e-4,-0.0107 0.009,-0.0199 0.01,-0.0305 0.28484,0.0787 0.60264,0.16424 0.89448,0.24744 0.0369,0.0104 0.0551,0.0173 0.0915,0.0287 0.40284,0.11362 0.81325,0.24103 1.23014,0.35285 0.13998,0.044 0.32403,0.0736 0.46728,0.11328 0.61833,0.17057 1.22969,0.35881 1.88054,0.52351 -0.0308,0.39572 -0.0312,0.78737 -0.0704,1.18476 -0.0594,0.59991 -0.14405,1.18581 -0.2219,1.77411 -0.0756,0.56948 -0.16181,1.10401 -0.25419,1.66341 -0.062,0.3755 -0.1225,0.77006 -0.19241,1.14642 -0.25287,-0.004 -0.51137,-0.0344 -0.75932,-0.0373 l -1.20392,-0.009 c -0.015,-0.005 -0.0135,-0.015 -0.0305,-0.01 -0.35413,-0.001 -0.66446,0.0176 -1.01126,0.0177 -0.27604,0.002 -0.56663,0.005 -0.83952,0.005 -2.53834,13.40367 -9.50563,24.95562 -19.18381,33.33223 0.13115,0.23471 0.27388,0.49258 0.40728,0.73133 0.47617,0.85251 0.90999,1.72546 1.45209,2.63505 0.005,0.0122 0.0245,1.9e-4 0.0305,0.01 -0.75707,0.64062 -1.53891,1.24895 -2.32461,1.8513 -0.75193,0.57637 -1.49747,1.15635 -2.2767,1.69873 -0.01,-0.003 -0.0233,-0.002 -0.0305,-0.01 -0.18171,-0.18344 -0.34979,-0.38683 -0.5258,-0.56741 l -0.81355,-0.82539 c -0.016,-0.0157 -0.0356,-0.034 -0.0515,-0.0496 -0.10393,-0.10451 -0.20666,-0.1976 -0.30867,-0.29808 -0.0154,-0.0156 -0.006,-0.0247 -0.0209,-0.04 -0.11755,-0.12167 -0.2568,-0.26366 -0.38105,-0.38786 -0.19935,-0.19348 -0.40338,-0.36338 -0.59642,-0.55606 -10.58855,7.19571 -23.55096,10.95305 -37.15283,9.95524 -0.16008,0.57021 -0.32396,1.16857 -0.48518,1.75848 13.52882,1.07185 26.43932,-2.42234 37.17477,-9.27788 0.11375,0.11404 0.2418,0.22822 0.36012,0.34776 l 0.82313,0.79488 c 0.48848,0.4999 0.9639,1.04693 1.4536,1.56277 0.0448,0.0462 0.0899,0.0631 0.1334,0.10894 0.41836,-0.27487 0.8247,-0.5673 1.23947,-0.85113 2.9592,3.09188 4.13747,4.11928 6.22949,6.85076 2.12326,2.77047 2.67201,4.21809 2.9347,5.27969 0.12873,0.52037 0.14584,0.95506 0.28019,1.56303 l 0.0209,0.04 c 0.14273,0.64224 0.42162,1.44782 0.98907,2.18794 1.54508,2.01797 4.46126,2.37379 6.47835,0.82761 0.12659,-0.097 0.2456,-0.18248 0.3591,-0.28951 1.69915,-1.60322 1.98867,-4.30919 0.53912,-6.20018 -0.56744,-0.74011 -1.28421,-1.22063 -1.86768,-1.52519 l -0.0305,-0.01 c -0.54648,-0.28533 -0.95283,-0.45531 -1.41853,-0.71366 -0.95755,-0.52921 -2.25955,-1.42147 -4.38248,-4.19227 -2.10839,-2.75109 -2.66935,-4.08524 -4.92117,-7.81436 0.3706,-0.32269 0.7424,-0.63552 1.10607,-0.96007 -0.0334,-0.0534 -0.0502,-0.10565 -0.0837,-0.16038 -0.68738,-1.12578 -1.31083,-2.18616 -1.92822,-3.25391 8.92436,-8.1601 15.45691,-18.9953 18.20436,-31.49431 0.16009,-0.001 0.30864,-0.0196 0.47511,-0.0184 l 1.14289,-0.01 c 0.69875,0.009 1.40485,0.0761 2.11582,0.0945 0.065,0.001 0.11827,-0.0452 0.18131,-0.0436 0.0691,-0.33306 0.14913,-0.66891 0.21515,-1.00519 l 0.0635,-0.41585 c 4.3071,0.0946 5.81093,-0.0688 9.23218,0.38501 3.46119,0.45703 4.89963,1.13372 5.83604,1.69866 0.45897,0.27694 0.80566,0.55231 1.33052,0.88717 l 0.0209,0.04 c 0.55506,0.35347 1.33522,0.6882 2.25983,0.8102 2.51947,0.33422 4.81651,-1.49521 5.14955,-4.0148 0.0208,-0.15748 0.0591,-0.2601 0.0636,-0.41585 0.034,-1.16765 -0.39693,-2.31017 -1.11745,-3.16691 -0.7203,-0.85687 -1.70955,-1.42178 -2.89028,-1.57814 -0.92541,-0.12144 -1.76512,0.0573 -2.39297,0.25422 l -0.061,-0.0192 c -0.58829,0.18556 -0.98657,0.35458 -1.49847,0.5016 -1.05151,0.30206 -2.57692,0.57385 -6.03701,0.11555 -3.41571,-0.45101 -4.88796,-0.97649 -9.05819,-2.00655 l 0.0524,-0.48646 0.0529,-1.02261 c -0.0602,-0.0189 -0.0915,-0.0279 -0.15257,-0.0479 -1.22751,-0.29752 -2.45038,-0.59031 -3.60673,-0.89799 0.57747,-12.79149 -2.92445,-24.95264 -9.44481,-35.14873 0.94205,-0.95843 1.91478,-1.93388 2.78383,-2.77984 -0.26872,-0.40858 -0.54307,-0.82359 -0.82061,-1.22989 3.11323,-2.9809 4.08027,-4.14055 6.82025,-6.23907 2.77146,-2.12403 4.24857,-2.66249 5.3102,-2.92512 0.52032,-0.12871 0.95537,-0.14597 1.56303,-0.28019 0.8407,-0.29188 1.64809,-0.57498 2.22803,-1.01001 2.01675,-1.54425 2.37363,-4.46104 0.82761,-6.47834 -0.0894,-0.13106 -0.2106,-0.25634 -0.28951,-0.35911 -1.60354,-1.69916 -4.30952,-1.98843 -6.20018,-0.53912 -0.74112,0.56818 -1.19003,1.29399 -1.49468,1.87727 -0.27354,0.49177 -0.52546,1.05744 -0.73283,1.47956 -0.5298,0.95669 -1.40234,2.19848 -4.1731,4.32145 -2.73948,2.09942 -4.14134,2.75232 -7.83353,4.9822 -0.32727,-0.37912 -0.67977,-0.78435 -1.01151,-1.15575 -1.15142,0.66375 -2.37483,1.43737 -3.38378,2.02153 -8.16138,-8.9149 -18.99811,-15.45954 -31.49431,-18.20436 0.0157,-1.33998 0.0274,-2.69684 0.0532,-3.90556 -0.53046,-0.10222 -0.99868,-0.19396 -1.48208,-0.29782 0.0922,-4.28556 -0.037,-5.80885 0.41552,-9.22259 0.45766,-3.46042 1.1038,-4.90965 1.66814,-5.84563 0.35155,-0.49378 0.6554,-0.9586 0.92727,-1.35146 0.35357,-0.55503 0.73991,-1.2858 0.86169,-2.21014 0.16817,-1.26045 -0.20312,-2.5057 -0.93008,-3.4433 -0.54816,-0.70091 -1.32999,-1.23314 -2.20157,-1.52947 z"
             style="font-size:medium;font-style:normal;font-variant:normal;font-weight:normal;font-stretch:normal;text-indent:0;text-align:start;text-decoration:none;line-height:normal;letter-spacing:normal;word-spacing:normal;text-transform:none;direction:ltr;block-progression:tb;writing-mode:lr-tb;text-anchor:start;baseline-shift:baseline;color:#000000;fill:#0084ae;fill-opacity:1;stroke:none;stroke-width:7.92560863;marker:none;visibility:visible;display:inline;overflow:visible;enable-background:accumulate;font-family:Sans;-inkscape-font-specification:Sans"
             inkscape:connector-curvature="0" />
          <path
             id="path3185-2"
             d="m 128.73393,868.26191 c -13.53359,-1.06594 -26.45881,2.47393 -37.193934,9.3389 -0.114674,-0.11325 -0.241565,-0.22835 -0.360121,-0.34776 l -0.823132,-0.79487 c -0.487817,-0.50045 -0.973396,-1.0165 -1.46318,-1.53225 -0.04391,-0.0471 -0.08983,-0.0631 -0.133408,-0.10895 -0.408738,0.26846 -0.823671,0.54301 -1.229892,0.82062 -2.959326,-3.08913 -4.146826,-4.08871 -6.239068,-6.82025 -2.122459,-2.77107 -2.662435,-4.2486 -2.925119,-5.3102 -0.127924,-0.52087 -0.176267,-0.96462 -0.310701,-1.57261 l 0.0096,-0.0305 c -0.142394,-0.64246 -0.421668,-1.44773 -0.989082,-2.18794 -1.544293,-2.01847 -4.461261,-2.37379 -6.478345,-0.82761 -0.126011,0.0966 -0.276344,0.17304 -0.389618,0.27993 -1.699377,1.60336 -1.958478,4.31899 -0.508604,6.20977 0.56656,0.74079 1.294036,1.18997 1.877262,1.49467 l 0.02089,0.04 c 0.548038,0.2841 0.992581,0.4347 1.458635,0.69273 0.956551,0.52997 2.219372,1.44249 4.342375,4.21319 2.092798,2.73247 2.747387,4.12515 4.961269,7.79343 -0.377937,0.32812 -0.784214,0.68 -1.155749,1.01152 0.03254,0.0542 0.05977,0.0751 0.09332,0.12983 0.688208,1.12518 1.310477,2.18647 1.928219,3.2539 -8.903275,8.1546 -15.455463,19.01775 -18.204351,31.49431 -0.145241,5.2e-4 -0.283454,-0.002 -0.435017,-0.003 l -1.173408,2.7e-4 c -0.698747,-0.009 -1.423986,-0.0151 -2.134985,-0.0335 -0.0645,-9.5e-4 -0.09876,-0.0168 -0.162136,-0.0174 -0.0691,0.33306 -0.118537,0.67841 -0.184592,1.01479 -0.02775,0.16153 -0.01623,0.29763 -0.04266,0.45593 -4.332341,-0.0937 -5.864223,0.0505 -9.293208,-0.40417 -3.460369,-0.45764 -4.909226,-1.10321 -5.845625,-1.66815 -0.459728,-0.27632 -0.786451,-0.61343 -1.31136,-0.9482 l -0.04002,0.0209 c -0.555762,-0.35294 -1.28556,-0.73955 -2.21014,-0.8617 -2.519432,-0.33432 -4.856906,1.51627 -5.189647,4.03573 -0.02165,0.15809 -0.06837,0.29049 -0.07313,0.44637 -0.06729,2.33485 1.716112,4.42161 4.078348,4.7337 0.924094,0.12253 1.694513,-0.0459 2.322352,-0.24287 l 0.04002,-0.0209 c 0.588163,-0.1855 1.026444,-0.37537 1.538568,-0.52254 1.050374,-0.30124 2.576266,-0.57329 6.037013,-0.11555 3.438634,0.45532 4.799848,1.02102 9.039022,2.06758 -0.01686,0.15455 -0.02565,0.30133 -0.04266,0.45594 l -0.05295,1.0226 c 0.06054,0.019 0.08864,0.0375 0.15257,0.0479 1.251133,0.3028 2.49209,0.60353 3.667761,0.91716 -0.570825,12.77631 2.875484,24.9438 9.383772,35.12956 -0.113745,0.11318 -0.218587,0.2113 -0.338174,0.32961 l -0.804457,0.85365 c -0.500405,0.48779 -1.047004,0.96387 -1.562767,1.4536 -0.04635,0.0444 -0.06326,0.09 -0.108944,0.1334 0.273466,0.41822 0.567323,0.82466 0.85113,1.23947 -3.088791,2.95908 -4.079128,4.11651 -6.810665,6.20856 -2.770319,2.1231 -4.258068,2.69292 -5.319781,2.95563 -0.519557,0.1281 -0.95512,0.14573 -1.563031,0.28019 l -0.04002,0.0209 c -0.643296,0.14308 -1.407731,0.40072 -2.147837,0.96814 -2.018286,1.54538 -2.413875,4.48225 -0.867713,6.49929 0.0967,0.12585 0.182596,0.24584 0.289511,0.35911 1.60331,1.69929 4.31846,1.95835 6.209768,0.50859 0.740094,-0.56754 1.180375,-1.2635 1.485093,-1.84675 l 0.0096,-0.0305 c 0.284813,-0.54724 0.465233,-0.98308 0.723247,-1.44905 0.529877,-0.95678 1.442456,-2.21951 4.213192,-4.34238 2.731882,-2.09366 4.12533,-2.74721 7.793433,-4.96126 0.3284,0.37829 0.649167,0.77484 0.981004,1.14616 0.05325,-0.0316 0.105549,-0.0505 0.160386,-0.0837 1.125742,-0.68736 2.186181,-1.31081 3.253907,-1.92822 8.160406,8.92425 19.00274,15.42714 31.503895,18.17384 0.001,0.15989 0.01,0.33916 0.009,0.50563 l 0.01,1.14302 c -0.008,0.69823 -0.0763,1.40495 -0.0945,2.11582 -0.002,0.0649 0.0553,0.0871 0.0532,0.15079 0.33358,0.0683 0.63849,0.13926 0.97468,0.20557 l 0.45593,0.0427 c -0.097,4.37288 0.0523,5.85033 -0.40417,9.29321 -0.45723,3.46 -1.09353,4.8786 -1.65857,5.8151 -0.27653,0.4587 -0.58267,0.7959 -0.91768,1.3209 l -0.01,0.03 c -0.35354,0.555 -0.72829,1.3562 -0.85033,2.2808 -0.33429,2.5194 1.49529,4.8165 4.01479,5.1495 0.15812,0.021 0.25993,0.06 0.41585,0.064 2.3353,0.068 4.47301,-1.6666 4.78515,-4.0287 0.12205,-0.9246 -0.0877,-1.7747 -0.28473,-2.4026 l 0.01,-0.03 c -0.18473,-0.5889 -0.38481,-0.9962 -0.53212,-1.508 -0.30107,-1.0518 -0.54284,-2.5673 -0.085,-6.0274 0.47674,-3.60529 0.98941,-4.83147 2.13894,-9.58655 0.10893,-0.44757 0.21163,-0.80473 0.32228,-1.23974 -0.18933,-0.0133 -0.35945,-0.0556 -0.54747,-0.0714 -0.98647,-0.081 -1.96086,-0.19226 -2.94929,-0.32277 -0.63266,-0.084 -1.29474,-0.1677 -1.92668,-0.26982 -0.1269,-0.0216 -0.24949,-0.0618 -0.37574,-0.0845 -0.16976,-0.0372 -0.36767,-0.0699 -0.5379,-0.10188 0.002,-0.26825 0.0127,-0.53658 0.0164,-0.79942 l 0.0303,-1.16383 c 7.1e-4,-0.0159 0.0102,-0.0153 0.01,-0.0305 0.001,-0.35151 -0.0147,-0.67982 -0.0177,-1.01125 -0.003,-0.27863 -0.005,-0.56443 -0.005,-0.83952 -13.404584,-2.53941 -24.955205,-9.50605 -33.332228,-19.18382 -0.225775,0.12606 -0.4921,0.2485 -0.721745,0.37677 -0.0099,0.008 -2.89e-4,0.0248 -0.0096,0.0305 -0.852831,0.47645 -1.695055,0.91955 -2.60454,1.46167 -0.0099,0.008 -0.03044,0.0142 -0.04002,0.0209 -0.640758,-0.75766 -1.249048,-1.53881 -1.851299,-2.32461 -0.576472,-0.75174 -1.15598,-1.49736 -1.698725,-2.2767 0.0079,-0.008 0.0019,-0.0232 0.0096,-0.0305 0.183311,-0.1808 0.396399,-0.38025 0.576992,-0.55632 l 0.815806,-0.78304 c 0.01559,-0.0155 0.03425,-0.0359 0.04963,-0.0515 0.10393,-0.10242 0.199613,-0.2128 0.298077,-0.30868 0.01559,-0.0155 0.02494,-0.005 0.04002,-0.0209 0.12389,-0.12361 0.266642,-0.25981 0.387853,-0.38105 0.193097,-0.19908 0.394216,-0.39397 0.586573,-0.58684 -6.83474,-10.04981 -10.58052,-22.26849 -10.091649,-35.11719 0.64883,0.18122 1.35164,0.40161 1.931963,0.57325 0.453341,0.13164 4.639248,1.32174 5.042667,1.44951 0.198244,-0.2039 0.394033,-0.37316 0.565643,-0.62694 0.171597,-0.25366 0.242938,-0.33371 0.523781,-0.70712 0.280364,-0.37313 0.88911,-1.1652 1.260142,-1.98444 2.269375,0.30975 3.446393,0.48655 6.243061,1.25658 3.18787,0.87786 7.185458,1.96537 10.379884,2.38809 1.379418,0.18259 2.924183,0.28109 4.517612,0.34596 -0.0058,-0.31078 0.01986,-0.62058 0.0242,-0.93106 l 0.0915,0.0287 0.827611,-6.47834 -0.07059,0.0113 c 0.07907,-0.31566 0.145883,-0.65207 0.236038,-0.96511 -1.537883,-0.35069 -3.070714,-0.64223 -4.434904,-0.82284 -3.194542,-0.42275 -7.322308,-0.4395 -10.628772,-0.42131 -2.900739,0.0159 -4.121524,-0.0443 -6.398903,-0.33333 -0.144025,-0.85291 -0.369966,-1.68434 -0.729334,-2.37456 l -0.40728,-0.73133 -0.816822,0.14577 c -0.212396,0.0363 -0.491245,0.0452 -0.828167,0.0752 -0.382825,1.77802 -0.800677,4.01464 -0.978682,5.35815 -0.19643,1.48297 -0.286849,2.93879 -0.378239,4.4069 l -2.786362,-0.84156 c -0.0096,-0.004 -0.02011,-0.006 -0.03046,-0.01 l -0.640797,-0.20124 c -0.140278,-0.044 -0.322056,-0.0709 -0.46728,-0.11328 l -1.058435,-0.36585 c -0.0014,0.0146 -0.0092,0.0156 -0.0096,0.0305 -0.266405,-0.0729 -0.598706,-0.13063 -0.873564,-0.20729 -0.570784,-0.15887 -1.157185,-0.32318 -1.758476,-0.48518 -0.656156,-0.17495 -1.263488,-0.36943 -1.941566,-0.54269 -0.01485,-0.004 -0.01561,-0.005 -0.03046,-0.01 0.02684,-0.3222 0.05963,-0.61973 0.09481,-0.94241 0.0034,-0.0451 0.01334,-0.11666 0.01746,-0.16214 0.05461,-0.625 0.128932,-1.22692 0.210557,-1.84472 0.07571,-0.57107 0.173114,-1.12937 0.263768,-1.69392 0.05841,-0.36399 0.117409,-0.74973 0.182825,-1.11591 0.01376,0.004 0.01392,0.0151 0.03046,0.01 0.253266,1.5e-4 0.521215,0.004 0.768908,0.007 l 1.133311,0.0207 c 0.01514,0.005 0.05291,-0.006 0.0706,-0.0113 0.353633,0.002 0.654659,0.0131 1.001671,0.0129 0.276498,-0.002 0.566037,-0.003 0.839516,-0.005 2.539093,-13.40537 9.504628,-24.95487 19.183817,-33.33223 -0.127793,-0.22847 -0.23221,-0.51153 -0.367184,-0.75226 -0.0086,0.007 -0.02271,-0.0179 -0.03046,-0.01 -0.472944,-0.82928 -0.978993,-1.74896 -1.49219,-2.61413 0.75518,-0.64679 1.536776,-1.24769 2.324608,-1.85129 0.752869,-0.57576 1.525688,-1.15157 2.307213,-1.68914 0.180865,0.18327 0.350009,0.38668 0.525805,0.5674 l 0.813553,0.82539 c 0.01657,0.0159 0.03565,0.034 0.05146,0.0496 0.103302,0.10324 0.212469,0.19953 0.308675,0.29808 0.139449,0.13926 0.234484,0.28502 0.37147,0.41837 0.199833,0.19309 0.434199,0.37273 0.626929,0.56564 10.588984,-7.20426 23.556384,-10.98058 37.162404,-9.98575 0.1609,-0.57114 0.33295,-1.19788 0.49477,-1.789 z"
             style="font-size:medium;font-style:normal;font-variant:normal;font-weight:normal;font-stretch:normal;text-indent:0;text-align:start;text-decoration:none;line-height:normal;letter-spacing:normal;word-spacing:normal;text-transform:none;direction:ltr;block-progression:tb;writing-mode:lr-tb;text-anchor:start;baseline-shift:baseline;color:#000000;fill:#620074;fill-opacity:1;stroke:none;stroke-width:0.52217158;marker:none;visibility:visible;display:inline;overflow:visible;enable-background:accumulate;font-family:Sans;-inkscape-font-specification:Sans;stroke-miterlimit:4;stroke-dasharray:none"
             inkscape:connector-curvature="0" />
          <path
             id="path3183-8"
             d="m 141.0733,873.37735 c -2.34247,-0.72231 -4.75907,-1.30806 -7.23263,-1.73496 -0.74476,-0.12876 -1.48544,-0.23494 -2.24141,-0.33514 -0.007,-0.001 -0.0129,-0.0398 -0.0209,-0.04 -0.7766,-0.10304 -1.53684,-0.15153 -2.31026,-0.22266 -0.7701,-0.0709 -1.52323,-0.1427 -2.28932,-0.18257 -12.5208,-0.65263 -24.46087,2.80351 -34.383348,9.24936 -0.625417,0.40626 -1.260594,0.82679 -1.869677,1.25664 -0.6234,0.43994 -1.222202,0.87275 -1.827814,1.33684 -0.61372,0.47023 -1.212158,0.98082 -1.805117,1.47806 -0.568719,0.47321 -1.134624,0.92069 -1.684823,1.41527 -0.0244,0.0213 -0.03504,0.0607 -0.05919,0.0819 -9.831078,8.86528 -16.706078,21.12152 -18.583604,35.26395 -0.002,0.0101 -0.0082,0.0223 -0.0096,0.0305 -0.111766,0.84273 -0.205859,1.65492 -0.280156,2.49333 0.02335,0.007 0.02811,0.0434 0.05146,0.0496 -0.01137,0.14275 -0.0226,0.28238 -0.03308,0.42542 l 4.067964,1.24404 c 0.07625,-1.21681 0.178219,-2.41867 0.340921,-3.64759 0.155673,-1.17491 0.336724,-2.3661 0.565871,-3.50988 l -2.396497,0.052 c 2.313024,-12.25342 8.521173,-22.88375 17.14443,-30.78794 0.893539,1.66855 1.63824,3.13737 1.887373,3.81099 l 0.275642,0.72351 0.778487,-0.0237 c 0.798395,-0.0337 1.647131,-0.24236 2.488794,-0.55937 1.385627,1.82372 2.058487,2.79872 3.491773,5.32054 1.633423,2.87495 3.720929,6.4674 5.680759,9.02509 0.84709,1.10599 1.89099,2.27727 2.97352,3.44808 0.95873,-0.99374 1.99915,-1.93935 3.1273,-2.80607 1.12788,-0.86649 2.29324,-1.61624 3.50054,-2.28658 -0.84291,-1.34111 -1.70221,-2.65068 -2.54381,-3.74893 -1.9599,-2.55782 -4.87705,-5.50959 -7.22788,-7.83478 -2.062395,-2.03989 -2.834488,-2.93642 -4.240505,-4.7511 0.502011,-0.70548 0.890954,-1.45216 1.124972,-2.1945 l 0.249151,-0.79337 -0.695779,-0.45317 c -0.591877,-0.42059 -1.764148,-1.49128 -3.144242,-2.7977 9.420693,-6.01984 20.681023,-9.25814 32.510893,-8.7311 -0.54463,1.81313 -1.06603,3.37755 -1.366,4.02966 l -0.33106,0.73413 0.61558,0.49503 c 0.58827,0.54078 1.28892,1.02869 2.10827,1.3996 -0.30984,2.26941 -0.50739,3.40623 -1.27751,6.20296 -0.87775,3.18785 -1.94462,7.22584 -2.36716,10.41998 -0.18178,1.37236 -0.31685,2.92728 -0.37647,4.50803 0.32471,-0.006 0.64608,-0.002 0.97115,0.003 l 0.002,0.10106 6.43824,0.84854 0.0287,-0.0915 c 0.30096,0.0752 0.60638,0.13089 0.90408,0.21687 0.35066,-1.53784 0.642,-3.0705 0.82284,-4.4349 0.42182,-3.19382 0.47005,-7.31281 0.45182,-10.61919 -0.0156,-2.90103 0.0746,-4.11182 0.36385,-6.38932 0.8519,-0.14322 1.62308,-0.38882 2.31352,-0.74849 l 0.75227,-0.36719 -0.14577,-0.81682 c -0.12197,-0.72036 -0.194,-2.32025 -0.24592,-4.23416 11.5608,2.54772 21.59446,8.58297 29.1437,16.82922 -1.6679,0.89332 -3.13783,1.63834 -3.81098,1.88737 l -0.72351,0.27564 0.0237,0.77849 c 0.0341,0.798 0.20229,1.66805 0.51927,2.50973 -1.82428,1.38606 -2.75841,2.03786 -5.28044,3.47084 -2.87435,1.63312 -6.46721,3.72083 -9.02509,5.68075 -1.10569,0.84685 -2.27725,1.89106 -3.44808,2.97352 0.99361,0.9588 1.93946,1.99931 2.80607,3.1273 0.87321,1.13662 1.61265,2.28363 2.28658,3.50054 1.34092,-0.84292 2.64104,-1.67173 3.73935,-2.51329 2.55782,-1.95984 5.51919,-4.90753 7.84436,-7.2584 2.03989,-2.06241 2.93635,-2.83449 4.7511,-4.2405 0.70444,0.50164 1.45229,0.89124 2.1945,1.12497 l 0.79337,0.24915 0.45317,-0.69577 c 0.41998,-0.59147 1.49155,-1.76411 2.7977,-3.14425 5.66392,8.86319 8.87171,19.33044 8.79514,30.38549 0.26261,0.0825 0.5072,0.16467 0.82388,0.25874 0.28846,0.0906 0.62648,0.17711 0.95551,0.2666 0.18261,-11.75112 -3.22642,-22.89299 -9.31339,-32.25795 -0.40896,-0.6293 -0.82376,-1.25689 -1.25665,-1.86968 -0.43192,-0.61623 -0.87935,-1.23079 -1.33684,-1.82781 -0.47162,-0.6154 -0.9821,-1.20889 -1.47806,-1.80512 -0.47308,-0.56876 -0.92056,-1.13426 -1.41526,-1.68482 -0.0213,-0.0238 -0.0604,-0.0353 -0.0819,-0.0592 -6.81742,-7.5623 -15.64878,-13.35308 -25.79949,-16.483 z"
             style="font-size:medium;font-style:normal;font-variant:normal;font-weight:normal;font-stretch:normal;text-indent:0;text-align:start;text-decoration:none;line-height:normal;letter-spacing:normal;word-spacing:normal;text-transform:none;direction:ltr;block-progression:tb;writing-mode:lr-tb;text-anchor:start;baseline-shift:baseline;color:#000000;fill:#f69600;fill-opacity:1;stroke:none;stroke-width:7.92560863;marker:none;visibility:visible;display:inline;overflow:visible;enable-background:accumulate;font-family:Sans;-inkscape-font-specification:Sans"
             inkscape:connector-curvature="0" />
          <path
             id="path3167-0"
             d="m 181.54744,933.12151 -4.03745,-1.23446 c -0.0756,1.21626 -0.20899,2.40933 -0.37144,3.638 -0.1561,1.17532 -0.33663,2.36602 -0.56587,3.5099 l 2.40608,-0.0825 c -2.31601,12.26826 -8.51077,22.91014 -17.15401,30.81845 -0.89745,-1.67481 -1.6374,-3.13559 -1.88737,-3.81098 l -0.27564,-0.72351 -0.7785,0.0237 c -0.79836,0.0336 -1.67772,0.23286 -2.5193,0.54978 -1.38624,-1.82326 -2.0283,-2.78891 -3.46126,-5.31095 -1.63352,-2.87488 -3.72085,-6.46748 -5.68075,-9.02509 -0.84134,-1.0986 -1.8685,-2.27546 -2.94301,-3.43849 -0.95178,0.98411 -1.99956,1.91652 -3.11772,2.77555 -1.13673,0.87326 -2.32379,1.63374 -3.54064,2.30751 0.84292,1.34111 1.67161,2.64118 2.51329,3.73935 1.95909,2.55842 4.90765,5.51909 7.25841,7.84436 2.0627,2.03967 2.83458,2.93634 4.2405,4.7511 -0.50128,0.70496 -0.8912,1.4523 -1.12498,2.1945 l -0.24915,0.79337 0.66527,0.44359 c 0.59248,0.42003 1.79458,1.50095 3.17476,2.80728 -9.42087,6.00895 -20.69049,9.25871 -32.5109,8.7311 0.54825,-1.8135 1.06575,-3.37667 1.366,-4.02966 l 0.33104,-0.73408 -0.57549,-0.51596 c -0.58827,-0.54079 -1.32913,-1.00758 -2.14836,-1.37867 0.30909,-2.26879 0.54752,-3.42726 1.31761,-6.22389 0.87773,-3.18786 1.90421,-7.20469 2.32707,-10.39905 0.18165,-1.3724 0.31156,-2.92326 0.37647,-4.50804 -0.31455,0.006 -0.62663,0.0119 -0.94064,0.006 l -0.002,-0.10106 -6.43825,-0.84855 -0.0192,0.061 c -0.31569,-0.0798 -0.61188,-0.16726 -0.925,-0.25702 -0.35512,1.55318 -0.65965,3.11839 -0.842,4.49593 -0.42276,3.1945 -0.43932,7.32225 -0.42131,10.62877 0.0166,2.90027 -0.0654,4.08154 -0.35427,6.35881 -0.85349,0.14444 -1.66348,0.40988 -2.35362,0.76943 l -0.75226,0.36718 0.14577,0.81683 c 0.12133,0.71629 0.2335,2.3119 0.28601,4.21322 -11.56968,-2.54064 -21.633371,-8.56145 -29.183796,-16.80828 1.674846,-0.89747 3.135675,-1.63741 3.810977,-1.88738 l 0.723514,-0.27564 -0.02371,-0.77849 c -0.0336,-0.79827 -0.242346,-1.64721 -0.559364,-2.48879 1.823711,-1.3856 2.798496,-2.05879 5.320536,-3.49177 2.87485,-1.6335 6.467376,-3.72099 9.025086,-5.68076 1.10603,-0.84717 2.27725,-1.89106 3.44808,-2.97352 -0.99357,-0.95867 -1.91863,-1.95935 -2.78513,-3.0872 -0.87312,-1.13658 -1.63364,-2.32385 -2.307509,-3.54064 -1.341061,0.84299 -2.650463,1.70209 -3.748939,2.5438 -2.557364,1.95956 -5.509459,4.87697 -7.83477,7.22789 -2.039397,2.06204 -2.936444,2.83458 -4.751099,4.2405 -0.704941,-0.50126 -1.452315,-0.89114 -2.194507,-1.12497 l -0.793371,-0.24915 -0.45317,0.69578 c -0.420507,0.59195 -1.491399,1.76404 -2.797693,3.14424 -5.649107,-8.85574 -8.839213,-19.32817 -8.764625,-30.37591 -0.271144,-0.0851 -0.5267,-0.17613 -0.854399,-0.26831 -0.294176,-0.0924 -0.612229,-0.20084 -0.945942,-0.29707 -0.193707,11.77081 3.172602,22.90672 9.273293,32.27888 0.02814,0.0453 0.09476,0.0949 0.123837,0.13941 0.297414,0.45524 0.603541,0.91354 0.913924,1.35977 0.315038,0.45294 0.626213,0.89518 0.954021,1.33883 0.209561,0.28616 0.386193,0.57784 0.601717,0.85944 0.23241,0.30245 0.515429,0.60984 0.754287,0.90735 0.232428,0.28904 0.46451,0.57331 0.702842,0.85766 0.01302,0.017 0.007,0.0241 0.02089,0.04 0.43444,0.51887 0.870711,1.05022 1.321959,1.55495 0.06457,0.0718 0.140674,0.12699 0.205785,0.19872 8.39974,9.30235 19.824535,15.95067 33.032125,18.21796 0.74106,0.13081 1.48621,0.26698 2.23182,0.36565 0.77686,0.10279 1.56737,0.161 2.34077,0.23224 0.77077,0.0703 1.52313,0.14276 2.28932,0.18256 12.5141,0.65299 24.45294,-2.78461 34.37377,-9.21884 0.39957,-0.25964 0.80485,-0.56157 1.19938,-0.8302 0.22997,-0.15745 0.45227,-0.29629 0.67988,-0.45696 0.49315,-0.34557 0.98757,-0.68554 1.46871,-1.04733 0.11948,-0.0905 0.23046,-0.16787 0.34952,-0.25899 0.0925,-0.0707 0.17731,-0.14562 0.26933,-0.21713 1.12693,-0.87355 2.22922,-1.83411 3.28946,-2.78867 9.84084,-8.86051 16.67458,-21.12412 18.55309,-35.27354 0.002,-0.01 0.029,0.0177 0.0305,0.01 0.11146,-0.8423 0.21582,-1.68596 0.28973,-2.52385 -0.0148,-0.004 -0.0463,-0.0145 -0.061,-0.0192 0.013,-0.1577 0.0308,-0.29951 0.0427,-0.45593 z"
             style="font-size:medium;font-style:normal;font-variant:normal;font-weight:normal;font-stretch:normal;text-indent:0;text-align:start;text-decoration:none;line-height:normal;letter-spacing:normal;word-spacing:normal;text-transform:none;direction:ltr;block-progression:tb;writing-mode:lr-tb;text-anchor:start;baseline-shift:baseline;color:#000000;fill:#2aa600;fill-opacity:1;stroke:none;stroke-width:7.92560863;marker:none;visibility:visible;display:inline;overflow:visible;enable-background:accumulate;font-family:Sans;-inkscape-font-specification:Sans"
             inkscape:connector-curvature="0" />
          <path
             id="path3157-8"
             d="m 131.49385,902.92045 c -1.28667,-0.3734 -2.62154,-0.67145 -3.9903,-0.85084 -14.59956,-1.91444 -28.032076,8.37902 -29.945574,22.97969 -1.912839,14.60131 8.410714,28.04084 23.010204,29.95516 14.59966,1.91243 28.03226,-8.38025 29.94557,-22.97969 0.95649,-7.30085 -1.1417,-14.31987 -5.3013,-19.73406 -3.37961,-4.3991 -8.14309,-7.75213 -13.7186,-9.37026 z m -0.4756,1.72796 c 5.20484,1.5059 9.60091,4.62789 12.74642,8.72972 3.87179,5.04822 5.81631,11.56021 4.92352,18.37505 -1.78593,13.62731 -14.23039,23.24159 -27.85801,21.45623 -13.6275,-1.78683 -23.232111,-14.25914 -21.446646,-27.88852 1.786166,-13.62863 14.261146,-23.23366 27.888526,-21.44665 1.27765,0.16745 2.54507,0.42665 3.74619,0.77417 z"
             style="font-size:medium;font-style:normal;font-variant:normal;font-weight:normal;font-stretch:normal;text-indent:0;text-align:start;text-decoration:none;line-height:normal;letter-spacing:normal;word-spacing:normal;text-transform:none;direction:ltr;block-progression:tb;writing-mode:lr-tb;text-anchor:start;baseline-shift:baseline;color:#000000;fill:#acacac;fill-opacity:1;stroke:none;stroke-width:7.92560863;marker:none;visibility:visible;display:inline;overflow:visible;enable-background:accumulate;font-family:Sans;-inkscape-font-specification:Sans"
             inkscape:connector-curvature="0" />
          <path
             id="path4019-4"
             d="m 130.63922,905.53509 c -1.12553,-0.31924 -2.29943,-0.57165 -3.49249,-0.72803 -6.36342,-0.834 -12.48228,0.90124 -17.28108,4.42899 l 1.11794,1.45736 c 3.59806,-2.63426 8.00943,-4.21717 12.68076,-4.29807 l -0.58403,4.20819 6.50886,0.8372 0.54393,-4.18726 c 3.60402,1.02443 6.75113,2.96492 9.3109,5.4718 l -11.42963,8.74732 1.09701,1.41726 11.56908,-8.87114 c 0.18282,0.2106 0.39271,0.43045 0.56768,0.6476 l 1.49745,-1.13887 c -3.02884,-3.77425 -7.22908,-6.60897 -12.10638,-7.99235 z"
             style="font-size:medium;font-style:normal;font-variant:normal;font-weight:normal;font-stretch:normal;text-indent:0;text-align:start;text-decoration:none;line-height:normal;letter-spacing:normal;word-spacing:normal;text-transform:none;direction:ltr;block-progression:tb;writing-mode:lr-tb;text-anchor:start;baseline-shift:baseline;color:#000000;fill:#f69600;fill-opacity:1;stroke:none;stroke-width:7.92560863;marker:none;visibility:visible;display:inline;overflow:visible;enable-background:accumulate;font-family:Sans;-inkscape-font-specification:Sans"
             inkscape:connector-curvature="0" />
          <path
             id="path4017-9"
             d="m 143.32638,914.34678 -1.49745,1.13887 c 0.18249,0.24933 0.35702,0.51311 0.52934,0.76966 l -11.52899,8.85021 1.08742,1.44777 11.42005,-8.7168 c 1.72869,3.09249 2.76113,6.60769 2.83034,10.30898 l -4.17767,-0.57444 -0.86771,6.49927 4.21777,0.55351 c -1.28202,4.49281 -3.94056,8.31727 -7.41284,11.11504 l 1.08742,1.44777 c 4.64542,-3.72771 7.93783,-9.18597 8.77182,-15.54918 0.83395,-6.36324 -0.93173,-12.49166 -4.4595,-17.29066 z"
             style="font-size:medium;font-style:normal;font-variant:normal;font-weight:normal;font-stretch:normal;text-indent:0;text-align:start;text-decoration:none;line-height:normal;letter-spacing:normal;word-spacing:normal;text-transform:none;direction:ltr;block-progression:tb;writing-mode:lr-tb;text-anchor:start;baseline-shift:baseline;color:#000000;fill:#0084ae;fill-opacity:1;stroke:none;stroke-width:7.92560863;marker:none;visibility:visible;display:inline;overflow:visible;enable-background:accumulate;font-family:Sans;-inkscape-font-specification:Sans"
             inkscape:connector-curvature="0" />
          <path
             id="path4015-2"
             d="m 118.37305,908.08602 -4.59173,3.51951 3.97471,5.17048 1.10783,-0.85894 7.50271,0.98169 -1.15751,0.91039 1.09701,1.41726 6.30883,-4.82407 -1.0665,-1.40767 -3.41504,2.54808 -7.53323,-0.99127 1.71711,-1.30456 -3.94419,-5.1609 z"
             style="font-size:medium;font-style:normal;font-variant:normal;font-weight:normal;font-stretch:normal;text-indent:0;text-align:start;text-decoration:none;line-height:normal;letter-spacing:normal;word-spacing:normal;text-transform:none;direction:ltr;block-progression:tb;writing-mode:lr-tb;text-anchor:start;baseline-shift:baseline;color:#000000;fill:#ffff00;fill-opacity:1;stroke:none;stroke-width:7.92560863000000015;marker:none;visibility:visible;display:inline;overflow:visible;enable-background:accumulate;font-family:Sans;-inkscape-font-specification:Sans"
             inkscape:connector-curvature="0" />
          <path
             id="path4013-0"
             d="m 109.09776,909.86651 c -4.64541,3.72782 -7.93781,9.18576 -8.77182,15.54919 -0.83391,6.36324 0.94125,12.46123 4.46908,17.26014 l 1.40768,-1.06649 c -0.17496,-0.23946 -0.33342,-0.51375 -0.49882,-0.76007 l 11.57867,-8.90166 -1.12752,-1.42685 -11.40871,8.78742 c -1.72685,-3.09803 -2.70776,-6.67927 -2.77107,-10.39094 l 4.11665,0.55528 0.85812,-6.46876 -4.12623,-0.52476 c 1.282,-4.49271 3.91959,-8.35749 7.39191,-11.15514 l -1.11794,-1.45736 z"
             style="font-size:medium;font-style:normal;font-variant:normal;font-weight:normal;font-stretch:normal;text-indent:0;text-align:start;text-decoration:none;line-height:normal;letter-spacing:normal;word-spacing:normal;text-transform:none;direction:ltr;block-progression:tb;writing-mode:lr-tb;text-anchor:start;baseline-shift:baseline;color:#000000;fill:#620074;fill-opacity:1;stroke:none;stroke-width:7.92560863;marker:none;visibility:visible;display:inline;overflow:visible;enable-background:accumulate;font-family:Sans;-inkscape-font-specification:Sans"
             inkscape:connector-curvature="0" />
          <path
             id="path4011-8"
             d="m 110.32795,914.27567 -4.62224,3.50993 3.99563,5.21058 1.33707,-1.05515 14.37712,18.6955 -3.67986,-0.45164 1.18803,-0.9008 -1.14846,-1.46695 -6.32799,4.8851 1.09701,1.41726 3.45514,-2.56902 6.74162,0.84325 0.31044,0.3992 -1.33707,1.05515 3.95378,5.13038 1.35799,-1.01505 1.41726,-1.09701 1.84698,-1.39786 -3.9747,-5.17048 -1.10783,0.85894 -1.28765,-0.16971 -15.46455,-20.14327 1.8374,-1.36735 -3.96512,-5.201 z"
             style="font-size:medium;font-style:normal;font-variant:normal;font-weight:normal;font-stretch:normal;text-indent:0;text-align:start;text-decoration:none;line-height:normal;letter-spacing:normal;word-spacing:normal;text-transform:none;direction:ltr;block-progression:tb;writing-mode:lr-tb;text-anchor:start;baseline-shift:baseline;color:#000000;fill:#ef0000;fill-opacity:1;stroke:none;stroke-width:7.92560863;marker:none;visibility:visible;display:inline;overflow:visible;enable-background:accumulate;font-family:Sans;-inkscape-font-specification:Sans"
             inkscape:connector-curvature="0" />
          <path
             id="path4009-8"
             d="m 139.92249,923.9048 -6.30883,4.82407 1.08743,1.44777 1.14793,-0.87988 -0.98169,7.50272 -1.10783,0.85894 4.0148,5.14955 4.56121,-3.52908 -3.93461,-5.19142 -1.72669,1.33508 0.98169,-7.50272 3.38453,-2.55767 -1.11794,-1.45736 z"
             style="font-size:medium;font-style:normal;font-variant:normal;font-weight:normal;font-stretch:normal;text-indent:0;text-align:start;text-decoration:none;line-height:normal;letter-spacing:normal;word-spacing:normal;text-transform:none;direction:ltr;block-progression:tb;writing-mode:lr-tb;text-anchor:start;baseline-shift:baseline;color:#000000;fill:#ffff00;fill-opacity:1;stroke:none;stroke-width:7.92560863000000015;marker:none;visibility:visible;display:inline;overflow:visible;enable-background:accumulate;font-family:Sans;-inkscape-font-specification:Sans"
             inkscape:connector-curvature="0" />
          <path
             id="path4007-6"
             d="m 113.38022,926.86691 -6.31841,4.85458 1.08743,1.44777 6.31841,-4.85458 -1.08743,-1.44777 z"
             style="font-size:medium;font-style:normal;font-variant:normal;font-weight:normal;font-stretch:normal;text-indent:0;text-align:start;text-decoration:none;line-height:normal;letter-spacing:normal;word-spacing:normal;text-transform:none;direction:ltr;block-progression:tb;writing-mode:lr-tb;text-anchor:start;baseline-shift:baseline;color:#000000;fill:#acacac;fill-opacity:1;stroke:none;stroke-width:7.92560863;marker:none;visibility:visible;display:inline;overflow:visible;enable-background:accumulate;font-family:Sans;-inkscape-font-specification:Sans"
             inkscape:connector-curvature="0" />
          <path
             id="path3984-8-9"
             d="m 118.99086,934.1938 -11.56909,8.87114 c -0.19002,-0.21844 -0.41679,-0.43158 -0.59819,-0.65718 l -1.44777,1.08743 c 3.72768,4.64529 9.18594,7.93786 15.54919,8.77181 6.36297,0.83376 12.52228,-0.92209 17.32117,-4.44991 l -1.12752,-1.42685 c -3.59814,2.63402 -7.99992,4.18653 -12.67117,4.26755 l 0.54393,-4.18725 -6.46876,-0.85813 -0.57444,4.17767 c -3.59039,-1.02239 -6.74614,-2.91143 -9.29956,-5.40118 l 11.43921,-8.77784 -1.097,-1.41726 z"
             style="font-size:medium;font-style:normal;font-variant:normal;font-weight:normal;font-stretch:normal;text-indent:0;text-align:start;text-decoration:none;line-height:normal;letter-spacing:normal;word-spacing:normal;text-transform:none;direction:ltr;block-progression:tb;writing-mode:lr-tb;text-anchor:start;baseline-shift:baseline;color:#000000;fill:#2aa600;fill-opacity:1;stroke:none;stroke-width:7.92560863;marker:none;visibility:visible;display:inline;overflow:visible;enable-background:accumulate;font-family:Sans;-inkscape-font-specification:Sans"
             inkscape:connector-curvature="0" />
        </g>
      </g>
    </g>
    <rect
       style="fill:none;stroke:none"
       id="rect3023"
       width="357.87402"
       height="357.87402"
       x="-67.322845"
       y="749.40942" />
  </g>
</svg>
