<?xml version="1.0" encoding="UTF-8" standalone="no"?>
<!-- Created with Inkscape (http://www.inkscape.org/) -->

<svg
   xmlns:dc="http://purl.org/dc/elements/1.1/"
   xmlns:cc="http://creativecommons.org/ns#"
   xmlns:rdf="http://www.w3.org/1999/02/22-rdf-syntax-ns#"
   xmlns:svg="http://www.w3.org/2000/svg"
   xmlns="http://www.w3.org/2000/svg"
   xmlns:xlink="http://www.w3.org/1999/xlink"
   xmlns:sodipodi="http://sodipodi.sourceforge.net/DTD/sodipodi-0.dtd"
   xmlns:inkscape="http://www.inkscape.org/namespaces/inkscape"
   height="679"
   id="svg1"
   inkscape:version="0.48.3.1 r9886"
   sodipodi:docname="knuffelhacker-3.svg"
   sodipodi:version="0.32"
   width="718.60498"
   version="1.1">
  <metadata
     id="metadata3">
    <rdf:RDF>
      <cc:Work
         rdf:about="">
        <dc:title />
        <dc:description />
        <dc:subject>
          <rdf:Bag>
            <rdf:li />
            <rdf:li>symbol</rdf:li>
            <rdf:li>warning</rdf:li>
            <rdf:li>signs_and_symbols</rdf:li>
            <rdf:li>biohazard</rdf:li>
            <rdf:li>sign</rdf:li>
          </rdf:Bag>
        </dc:subject>
        <dc:publisher>
          <cc:Agent
             rdf:about="http://www.openclipart.org">
            <dc:title>Public Domain</dc:title>
          </cc:Agent>
        </dc:publisher>
        <dc:creator>
          <cc:Agent>
            <dc:title>Justin Warwick</dc:title>
          </cc:Agent>
        </dc:creator>
        <dc:rights>
          <cc:Agent>
            <dc:title>Public Domain</dc:title>
          </cc:Agent>
        </dc:rights>
        <dc:date />
        <dc:format>image/svg+xml</dc:format>
        <dc:type
           rdf:resource="http://purl.org/dc/dcmitype/StillImage" />
        <cc:license
           rdf:resource="http://web.resource.org/cc/PublicDomain" />
        <dc:language>en</dc:language>
      </cc:Work>
      <cc:License
         rdf:about="http://web.resource.org/cc/PublicDomain">
        <cc:permits
           rdf:resource="http://web.resource.org/cc/Reproduction" />
        <cc:permits
           rdf:resource="http://web.resource.org/cc/Distribution" />
        <cc:permits
           rdf:resource="http://web.resource.org/cc/DerivativeWorks" />
      </cc:License>
    </rdf:RDF>
  </metadata>
  <defs
     id="defs3" />
  <sodipodi:namedview
     bordercolor="#666666"
     borderopacity="1.0"
     id="base"
     inkscape:cx="401.84556"
     inkscape:cy="423.87635"
     inkscape:pageopacity="0.0"
     inkscape:pageshadow="2"
     inkscape:window-height="715"
     inkscape:window-width="1280"
     inkscape:window-x="0"
     inkscape:window-y="0"
     inkscape:zoom="0.43415837"
     pagecolor="#ffffff"
     showgrid="true"
     showguides="true"
     inkscape:guide-bbox="true"
     inkscape:snap-global="false"
     inkscape:window-maximized="0"
     inkscape:current-layer="svg1"
     fit-margin-top="0"
     fit-margin-left="0"
     fit-margin-right="0"
     fit-margin-bottom="0">
    <inkscape:grid
       type="xygrid"
       id="grid2994"
       empspacing="5"
       visible="true"
       enabled="true"
       snapvisiblegridlinesonly="true"
       originx="329.5px"
       originy="129.5px" />
  </sodipodi:namedview>
  <g
     inkscape:groupmode="layer"
     id="layer1"
     inkscape:label="Background"
     transform="translate(329.5,274.5)" />
  <g
     id="g3525">
    <rect
       y="9.5"
       x="9.5"
       height="660"
       width="640"
       id="rect5356"
       style="fill:#fffc07;fill-opacity:1;stroke:#fffc07;stroke-width:19.0205555;stroke-linecap:butt;stroke-linejoin:miter;stroke-miterlimit:4;stroke-opacity:1;stroke-dasharray:none" />
    <path
       sodipodi:nodetypes="cccc"
       inkscape:connector-curvature="0"
       id="path3000"
       d="m 329.5,29.5 c -220,300 -300,420 -300,420 l 600,0 c -300,-420 0,0 -300,-420 z"
       style="fill:#fffc07;fill-opacity:1;fill-rule:nonzero;stroke:#000000;stroke-width:10;stroke-linecap:butt;stroke-linejoin:round;stroke-miterlimit:4;stroke-opacity:1;stroke-dasharray:none" />
    <path
       transform="matrix(1.8720847,0,0,1.8720847,-273.83616,-514.44995)"
       style="fill:#000000;fill-opacity:1;fill-rule:evenodd;stroke:#000000;stroke-width:10;stroke-linecap:butt;stroke-linejoin:miter;stroke-miterlimit:4;stroke-opacity:1"
       sodipodi:type="arc"
       sodipodi:ry="63.111507"
       sodipodi:rx="63.111507"
       sodipodi:cy="464.50903"
       sodipodi:cx="259.06256"
       id="path2163"
       d="m 322.17407,464.50903 a 63.111507,63.111507 0 1 1 -126.22302,0 63.111507,63.111507 0 1 1 126.22302,0 z" />
    <use
       y="0"
       xlink:href="#path2163"
       x="0"
       width="744.09448"
       transform="translate(238.20574,0)"
       id="use2164"
       height="1052.3622" />
    <use
       y="0"
       xlink:href="#path2163"
       x="0"
       width="744.09448"
       transform="translate(119.10291,-205.80969)"
       id="use2165"
       height="1052.3622" />
    <path
       transform="matrix(1.842781,0,0,1.842781,-101.18371,-528.72815)"
       style="fill:#fffc07;fill-opacity:1;fill-rule:evenodd;stroke:none"
       sodipodi:type="arc"
       sodipodi:ry="61.075649"
       sodipodi:rx="61.075649"
       sodipodi:cy="358.13562"
       sodipodi:cx="234.12332"
       id="path2166"
       d="m 295.19897,358.13562 a 61.075649,61.075649 0 1 1 -122.1513,0 61.075649,61.075649 0 1 1 122.1513,0 z" />
    <use
       y="0"
       xlink:href="#path2166"
       x="0"
       width="744.09448"
       transform="translate(-129.58377,238.20743)"
       id="use2788"
       height="1052.3622" />
    <use
       y="0"
       xlink:href="#path2166"
       x="0"
       width="744.09448"
       transform="translate(132.44222,237.25454)"
       id="use2789"
       height="1052.3622" />
    <path
       transform="matrix(1.8720847,0,0,1.8720847,-108.04471,-523.97811)"
       style="fill:none;stroke:#000000;stroke-width:10;stroke-linecap:butt;stroke-linejoin:miter;stroke-miterlimit:4;stroke-opacity:1"
       sodipodi:type="arc"
       sodipodi:ry="48.860519"
       sodipodi:rx="48.860519"
       sodipodi:cy="432.95328"
       sodipodi:cx="234.63229"
       id="path2791"
       d="m 283.49281,432.95328 a 48.860519,48.860519 0 1 1 -97.72104,0 48.860519,48.860519 0 1 1 97.72104,0 z" />
    <path
       transform="matrix(1.752187,0,0,1.752187,-81.75746,-471.11512)"
       style="fill:#fffc07;fill-opacity:1;fill-rule:evenodd;stroke:#fffc07;stroke-width:1pt;stroke-linecap:butt;stroke-linejoin:miter;stroke-opacity:1"
       sodipodi:type="arc"
       sodipodi:ry="15.268912"
       sodipodi:rx="15.268912"
       sodipodi:cy="432.95328"
       sodipodi:cx="235.14125"
       id="path2790"
       d="m 250.41016,432.95328 a 15.268912,15.268912 0 1 1 -30.53782,0 15.268912,15.268912 0 1 1 30.53782,0 z" />
    <path
       transform="matrix(1.7520073,0,0,1.7520073,-79.93162,-496.21903)"
       style="fill:none;stroke:#fffc07;stroke-width:6.01052094;stroke-linecap:butt;stroke-linejoin:miter;stroke-miterlimit:4;stroke-opacity:1"
       sodipodi:type="arc"
       sodipodi:ry="61.075649"
       sodipodi:rx="61.075649"
       sodipodi:cy="358.13562"
       sodipodi:cx="234.12332"
       id="path2797"
       d="m 295.19897,358.13562 a 61.075649,61.075649 0 1 1 -122.1513,0 61.075649,61.075649 0 1 1 122.1513,0 z" />
    <use
       y="0"
       xlink:href="#path2797"
       x="0"
       width="744.09448"
       transform="translate(-128.63116,238.20574)"
       id="use3424"
       height="1052.3622" />
    <use
       y="0"
       xlink:href="#path2797"
       x="0"
       width="744.09448"
       transform="translate(131.48963,236.30015)"
       id="use3425"
       height="1052.3622" />
    <g
       id="text5228"
       style="font-size:121.2428894px;font-style:normal;font-weight:bold;line-height:125%;letter-spacing:0px;word-spacing:0px;fill:#000000;fill-opacity:1;stroke:none;font-family:Sans;-inkscape-font-specification:Sans Bold"
       transform="scale(1.0103574,0.98974877)">
      <path
         id="path3450"
         style=""
         d="m 103.98007,559.16709 c -4.183591,2.1707 -8.5447,3.80858 -13.083342,4.91366 -4.538778,1.10507 -9.274824,1.65761 -14.208151,1.65761 -14.721262,0 -26.383775,-4.10457 -34.987572,-12.31373 -8.603835,-8.2486 -12.905743,-19.41777 -12.905737,-33.50755 -6e-6,-14.12916 4.301902,-25.29834 12.905737,-33.50756 8.603797,-8.24854 20.26631,-12.37284 34.987572,-12.37293 4.933327,9e-5 9.669373,0.55263 14.208151,1.65762 4.538642,1.10516 8.899751,2.74304 13.083342,4.91365 l 0,18.29299 c -4.223058,-2.88103 -8.386831,-4.99251 -12.491336,-6.33446 -4.104641,-1.34181 -8.426283,-2.01275 -12.964937,-2.01283 -8.130268,8e-5 -14.523929,2.6049 -19.181004,7.81449 -4.657149,5.20971 -6.985704,12.39272 -6.985675,21.54903 -2.9e-5,9.11693 2.328526,16.2802 6.985675,21.48982 4.657075,5.20968 11.050736,7.8145 19.181004,7.81449 4.538654,10e-6 8.860296,-0.67093 12.964937,-2.01282 4.104505,-1.34187 8.268278,-3.45335 12.491336,-6.33447 l 0,18.29299" />
      <path
         id="path3452"
         style=""
         d="m 176.56004,547.91897 -35.63878,0 -5.62406,16.10258 -22.91064,0 32.73795,-88.38654 27.17309,0 32.73795,88.38654 -22.91065,0 -5.56486,-16.10258 m -29.95552,-16.39857 24.21306,0 -12.07693,-35.16517 -12.13613,35.16517" />
      <path
         id="path3454"
         style=""
         d="m 212.90923,475.63501 22.79224,0 0,52.98456 c -3e-5,7.30144 1.18398,12.53082 3.55204,15.68817 2.40745,3.11791 6.31469,4.67686 11.72172,4.67685 5.44641,10e-6 9.35364,-1.55894 11.72173,-4.67685 2.40743,-3.15735 3.61117,-8.38673 3.61123,-15.68817 l 0,-52.98456 22.79225,0 0,52.98456 c -9e-5,12.51109 -3.13772,21.82531 -9.4129,27.9427 -6.27534,6.1174 -15.8461,9.17609 -28.71231,9.17609 -12.82684,0 -22.37786,-3.05869 -28.6531,-9.17609 -6.27528,-6.11739 -9.41291,-15.43161 -9.4129,-27.9427 l 0,-52.98456" />
      <path
         id="path3456"
         style=""
         d="m 300.88137,475.63501 81.46007,0 0,17.22738 -29.30431,0 0,71.15916 -22.79225,0 0,-71.15916 -29.36351,0 0,-17.22738" />
      <path
         id="path3458"
         style=""
         d="m 394.06316,475.63501 22.79224,0 0,88.38654 -22.79224,0 0,-88.38654" />
      <path
         id="path3460"
         style=""
         d="m 479.66727,490.55356 c -6.94626,8e-5 -12.33351,2.56544 -16.16178,7.69609 -3.82834,5.13078 -5.74249,12.35325 -5.74246,21.66743 -3e-5,9.2748 1.91412,16.47753 5.74246,21.60823 3.82827,5.13073 9.21552,7.69609 16.16178,7.69608 6.98561,10e-6 12.3926,-2.56535 16.22097,-7.69608 3.82823,-5.1307 5.74239,-12.33343 5.74246,-21.60823 -7e-5,-9.31418 -1.91423,-16.53665 -5.74246,-21.66743 -3.82837,-5.13065 -9.23536,-7.69601 -16.22097,-7.69609 m 0,-16.51697 c 14.20808,9e-5 25.33779,4.06519 33.38915,12.19533 8.05119,8.13029 12.07683,19.35866 12.07693,33.68516 -10e-5,14.28711 -4.02574,25.49575 -12.07693,33.62595 -8.05136,8.13023 -19.18107,12.19533 -33.38915,12.19533 -14.16873,0 -25.29843,-4.0651 -33.38916,-12.19533 -8.0513,-8.1302 -12.07693,-19.33884 -12.07693,-33.62595 0,-14.3265 4.02563,-25.55487 12.07693,-33.68516 8.09073,-8.13014 19.22043,-12.19524 33.38916,-12.19533" />
      <path
         id="path3462"
         style=""
         d="m 542.30153,475.63501 25.45627,0 32.14594,60.62144 0,-60.62144 21.60823,0 0,88.38654 -25.45627,0 -32.14594,-60.62145 0,60.62145 -21.60823,0 0,-88.38654" />
    </g>
    <g
       id="text5232"
       style="font-size:80.42653656px;font-style:normal;font-weight:bold;line-height:125%;letter-spacing:-5.42309093px;word-spacing:0px;fill:#000000;fill-opacity:1;stroke:none;font-family:Sans;-inkscape-font-specification:Sans Bold"
       transform="scale(0.79931101,1.2510775)">
      <path
         id="path3421"
         style=""
         d="m 40.194501,457.19943 15.119246,0 0,21.40257 21.795277,-21.40257 17.554034,0 -28.235683,27.76443 31.14172,30.86683 -18.928511,0 -23.326837,-23.09121 0,23.09121 -15.119246,0 0,-58.63126" />
      <path
         id="path3423"
         style=""
         d="m 97.133393,457.19943 16.886427,0 21.32403,40.21327 0,-40.21327 14.33383,0 0,58.63126 -16.88643,0 -21.32403,-40.21327 0,40.21327 -14.333827,0 0,-58.63126" />
      <path
         id="path3425"
         style=""
         d="m 159.09894,457.19943 15.11925,0 0,35.14734 c -2e-5,4.84341 0.78539,8.31233 2.35625,10.40675 1.59698,2.06827 4.18885,3.1024 7.77561,3.10239 3.61287,1e-5 6.20474,-1.03412 7.77561,-3.10239 1.59697,-2.09442 2.39547,-5.56334 2.39552,-10.40675 l 0,-35.14734 15.11924,0 0,35.14734 c -5e-5,8.29924 -2.0814,14.47783 -6.24405,18.5358 -4.16275,4.05798 -10.51152,6.08697 -19.04632,6.08697 -8.50869,0 -14.84437,-2.02899 -19.00706,-6.08697 -4.16271,-4.05797 -6.24405,-10.23656 -6.24405,-18.5358 l 0,-35.14734" />
      <path
         id="path3427"
         style=""
         d="m 219.02241,457.19943 40.80233,0 0,11.42779 -25.68308,0 0,10.91728 24.15152,0 0,11.42779 -24.15152,0 0,24.8584 -15.11925,0 0,-58.63126" />
      <path
         id="path3429"
         style=""
         d="m 268.5784,457.19943 40.80233,0 0,11.42779 -25.68309,0 0,10.91728 24.15153,0 0,11.42779 -24.15153,0 0,24.8584 -15.11924,0 0,-58.63126" />
      <path
         id="path3431"
         style=""
         d="m 318.13438,457.19943 40.80233,0 0,11.42779 -25.68308,0 0,10.91728 24.15152,0 0,11.42779 -24.15152,0 0,13.4306 26.54704,0 0,11.4278 -41.66629,0 0,-58.63126" />
      <path
         id="path3433"
         style=""
         d="m 367.69038,457.19943 15.11925,0 0,47.20346 26.54704,0 0,11.4278 -41.66629,0 0,-58.63126" />
      <path
         id="path3435"
         style=""
         d="m 413.47636,457.19943 15.11925,0 0,22.34507 22.30579,0 0,-22.34507 15.11925,0 0,58.63126 -15.11925,0 0,-24.8584 -22.30579,0 0,24.8584 -15.11925,0 0,-58.63126" />
      <path
         id="path3437"
         style=""
         d="m 511.02122,505.14904 -23.641,0 -3.73072,10.68165 -15.19779,0 21.71674,-58.63126 18.02528,0 21.71673,58.63126 -15.19778,0 -3.69146,-10.68165 m -19.87101,-10.878 16.06175,0 -8.01124,-23.32684 -8.05051,23.32684" />
      <path
         id="path3439"
         style=""
         d="m 578.7203,512.61049 c -2.77519,1.43993 -5.66813,2.52642 -8.67884,3.25947 -3.0108,0.73305 -6.15246,1.09958 -9.42499,1.09958 -9.76535,0 -17.50169,-2.72277 -23.20902,-8.16832 -5.70736,-5.47171 -8.56103,-12.88079 -8.56103,-22.22726 0,-9.37258 2.85367,-16.78166 8.56103,-22.22725 5.70733,-5.47167 13.44367,-8.20753 23.20902,-8.20759 3.27253,6e-5 6.41419,0.36658 9.42499,1.09958 3.01071,0.73311 5.90365,1.8196 8.67884,3.25947 l 0,12.13467 c -2.80137,-1.91113 -5.56341,-3.31179 -8.28614,-4.20197 -2.72281,-0.89009 -5.58957,-1.33516 -8.60029,-1.33521 -5.39322,5e-5 -9.63446,1.72796 -12.72373,5.18374 -3.08932,3.45587 -4.63397,8.22072 -4.63395,14.29456 -2e-5,6.04773 1.54463,10.79949 4.63395,14.25529 3.08927,3.45584 7.33051,5.18376 12.72373,5.18375 3.01072,1e-5 5.87748,-0.44506 8.60029,-1.33521 2.72273,-0.89013 5.48477,-2.29078 8.28614,-4.20197 l 0,12.13467" />
      <path
         id="path3441"
         style=""
         d="m 585.86387,457.19943 15.11925,0 0,21.40257 21.79528,-21.40257 17.55403,0 -28.23568,27.76443 31.14172,30.86683 -18.92851,0 -23.32684,-23.09121 0,23.09121 -15.11925,0 0,-58.63126" />
      <path
         id="path3443"
         style=""
         d="m 642.80278,457.19943 40.80233,0 0,11.42779 -25.68309,0 0,10.91728 24.15153,0 0,11.42779 -24.15153,0 0,13.4306 26.54704,0 0,11.4278 -41.66628,0 0,-58.63126" />
      <path
         id="path3445"
         style=""
         d="m 713.83986,483.19668 c 3.16781,3e-5 5.43242,-0.58903 6.79384,-1.76719 1.38753,-1.17808 2.08131,-3.11544 2.08135,-5.81207 -4e-5,-2.67037 -0.69382,-4.58154 -2.08135,-5.73353 -1.36142,-1.1519 -3.62603,-1.72787 -6.79384,-1.72792 l -6.36187,0 0,15.04071 6.36187,0 m -6.36187,10.44602 0,22.18799 -15.11924,0 0,-58.63126 23.09121,0 c 7.72321,6e-5 13.3782,1.29599 16.96497,3.88781 3.61286,2.59192 5.41931,6.68916 5.41937,12.29175 -6e-5,3.87475 -0.94255,7.05568 -2.8275,9.54279 -1.85886,2.48718 -4.67326,4.31982 -8.44321,5.49791 2.06821,0.47128 3.91394,1.54468 5.53718,3.2202 1.64932,1.6494 3.31178,4.16273 4.98738,7.53999 l 8.20759,16.65081 -16.10101,0 -7.14728,-14.56946 c -1.43997,-2.9322 -2.90607,-4.935 -4.39833,-6.00842 -1.46614,-1.07338 -3.42967,-1.61008 -5.89061,-1.61011 l -4.28052,0" />
      <path
         id="path3447"
         style=""
         d="m 789.62873,459.04516 0,12.40956 c -3.22025,-1.43988 -6.36191,-2.52637 -9.42499,-3.25948 -3.06315,-0.733 -5.9561,-1.09953 -8.67884,-1.09958 -3.61293,5e-5 -6.28334,0.49748 -8.01123,1.49229 -1.72794,0.99491 -2.59189,2.53956 -2.59188,4.63395 -10e-6,1.57088 0.57596,2.80136 1.72792,3.69146 1.1781,0.86399 3.29872,1.61013 6.36186,2.23843 l 6.44041,1.29593 c 6.51891,1.30906 11.15285,3.29878 13.90185,5.96916 2.74891,2.67044 4.12338,6.46661 4.12343,11.38853 -5e-5,6.46659 -1.92431,11.2838 -5.7728,14.45164 -3.8224,3.14166 -9.67374,4.71249 -17.55403,4.71249 -3.71766,0 -7.44838,-0.35344 -11.19217,-1.06031 -3.74383,-0.70687 -7.48764,-1.75409 -11.23144,-3.14166 l 0,-12.763 c 3.7438,1.98973 7.35671,3.49511 10.83873,4.51614 3.50817,0.99487 6.88545,1.4923 10.13186,1.49229 3.29871,1e-5 5.82513,-0.54978 7.57926,-1.64938 1.75405,-1.09957 2.6311,-2.67039 2.63114,-4.71249 -4e-5,-1.83262 -0.60219,-3.24636 -1.80646,-4.24124 -1.17816,-0.99484 -3.54749,-1.88498 -7.10801,-2.67041 l -5.85134,-1.29594 c -5.86445,-1.25664 -10.15805,-3.25945 -12.88081,-6.00843 -2.6966,-2.74892 -4.0449,-6.45346 -4.04489,-11.11363 -1e-5,-5.8382 1.88499,-10.32816 5.65499,-13.46987 3.76998,-3.1416 9.18934,-4.71243 16.2581,-4.71249 3.22017,6e-5 6.532,0.24877 9.9355,0.74614 3.40343,0.47131 6.9247,1.19127 10.56384,2.1599" />
    </g>
    <path
       inkscape:connector-curvature="0"
       id="path5309"
       d="m 29.5,449.5 300,-420 300,420 z"
       style="fill:none;stroke:#000000;stroke-width:18.72100067;stroke-linecap:butt;stroke-linejoin:round;stroke-miterlimit:4;stroke-opacity:1;stroke-dasharray:none" />
    <path
       sodipodi:open="true"
       sodipodi:end="5.4105207"
       sodipodi:start="4.1887902"
       sodipodi:type="arc"
       style="fill:none;stroke:none"
       id="path5450"
       sodipodi:cx="1.628684"
       sodipodi:cy="4.6384578"
       sodipodi:rx="112.3792"
       sodipodi:ry="109.12183"
       d="M -54.560918,-89.863822 A 112.3792,109.12183 0 0 1 73.864645,-78.953715"
       transform="matrix(1.0576124,0,0,1.1041083,640.48481,353.82261)" />
    <path
       sodipodi:open="true"
       sodipodi:end="5.3232542"
       sodipodi:start="4.1015237"
       sodipodi:type="arc"
       style="fill:none;stroke:none"
       id="path5465"
       sodipodi:cx="1.628684"
       sodipodi:cy="4.6384578"
       sodipodi:rx="112.3792"
       sodipodi:ry="109.12183"
       d="m -62.829383,-84.748913 a 112.3792,109.12183 0 0 1 128.916129,-4e-6"
       transform="matrix(1.0576124,0,0,1.1041083,327.77748,285.41788)" />
    <path
       sodipodi:open="true"
       sodipodi:end="7.4176493"
       sodipodi:start="6.1959188"
       sodipodi:type="arc"
       style="fill:none;stroke:none"
       id="path5467"
       sodipodi:cx="1.628684"
       sodipodi:cy="4.6384578"
       sodipodi:rx="112.3792"
       sodipodi:ry="109.12183"
       d="M 113.58025,-4.8721415 A 112.3792,109.12183 0 0 1 49.12219,103.53642"
       transform="matrix(1.0576124,0,0,1.1041083,326.1488,283.7892)" />
    <path
       sodipodi:open="true"
       sodipodi:end="3.2288591"
       sodipodi:start="1.9198622"
       sodipodi:type="arc"
       style="fill:none;stroke:none"
       id="path5469"
       sodipodi:cx="1.628684"
       sodipodi:cy="4.6384578"
       sodipodi:rx="112.3792"
       sodipodi:ry="109.12183"
       d="M -36.80727,107.17944 A 112.3792,109.12183 0 0 1 -110.32288,-4.8721349"
       transform="matrix(1.0576124,0,0,1.1041083,327.77748,283.7892)" />
    <g
       id="text5471"
       style="font-size:26px;font-style:normal;font-weight:bold;text-align:center;line-height:125%;letter-spacing:-2px;word-spacing:0px;text-anchor:middle;fill:#000000;fill-opacity:1;stroke:none;font-family:Sans;-inkscape-font-specification:Sans Bold"
       transform="translate(2.1271,-1.89684)">
      <path
         id="path3465"
         style="font-size:26px;letter-spacing:-2px;word-spacing:0px"
         d="m 248.0914,177.81228 14.55439,-9.66059 2.04305,3.078 -5.23578,3.47528 8.43898,12.71394 -4.07227,2.703 -8.43897,-12.71394 -5.24635,3.48231 -2.04305,-3.078" />
      <path
         id="path3467"
         style="font-size:26px;letter-spacing:-2px;word-spacing:0px"
         d="m 279.9819,172.9224 0.58451,1.1555 -9.48189,4.79638 c 0.57954,0.90193 1.28418,1.44179 2.11394,1.6196 0.82975,0.17781 1.77329,-7e-4 2.83061,-0.53555 0.8534,-0.43168 1.66266,-0.99754 2.42776,-1.69757 0.76883,-0.71138 1.49537,-1.56262 2.17963,-2.55372 l 1.5816,3.12664 c -0.77577,0.84769 -1.59738,1.60475 -2.46482,2.27118 -0.86364,0.67399 -1.77503,1.25357 -2.73416,1.73874 -2.2959,1.16137 -4.37617,1.48335 -6.24083,0.96592 -1.86093,-0.52879 -3.32432,-1.84673 -4.39018,-3.95382 -1.04676,-2.06931 -1.24697,-4.012 -0.60063,-5.82807 0.65389,-1.81986 2.07592,-3.28374 4.26608,-4.39164 1.9938,-1.00854 3.89104,-1.21421 5.69173,-0.61703 1.80823,0.59341 3.22045,1.89455 4.23665,3.90344 m -4.85078,0.76072 c -0.38967,-0.77032 -0.9295,-1.27499 -1.61949,-1.51403 -0.68627,-0.25038 -1.39191,-0.19221 -2.11692,0.17452 -0.78544,0.39733 -1.31091,0.94294 -1.57641,1.63683 -0.26932,0.68636 -0.25429,1.47547 0.0451,2.36734 l 5.26771,-2.66466" />
      <path
         id="path3469"
         style="font-size:26px;letter-spacing:-2px;word-spacing:0px"
         d="m 290.73859,161.99571 1.25332,3.48874 c -0.72454,-0.18936 -1.41585,-0.27375 -2.07394,-0.25318 -0.65013,0.0177 -1.28982,0.13962 -1.91906,0.36566 -1.19478,0.42924 -2.0008,1.11449 -2.41806,2.05578 -0.41216,0.93048 -0.39362,2.02098 0.0556,3.27149 0.44924,1.25054 1.13033,2.10752 2.04325,2.57094 0.91801,0.45261 1.9744,0.46431 3.16918,0.0351 0.66907,-0.24035 1.26653,-0.56741 1.79239,-0.98115 0.5338,-0.41659 0.98549,-0.9116 1.35505,-1.48504 l 1.25762,3.50068 c -0.58038,0.48729 -1.19559,0.91514 -1.84562,1.28356 -0.63923,0.37354 -1.30533,0.68477 -1.99828,0.93372 -2.41345,0.86702 -4.52295,0.92789 -6.32851,0.1826 -1.80843,-0.75325 -3.10896,-2.23305 -3.90158,-4.4394 -0.79263,-2.20634 -0.72968,-4.17146 0.18883,-5.89538 0.91565,-1.73186 2.5802,-3.0313 4.99364,-3.89834 0.70093,-0.25179 1.4128,-0.43559 2.13563,-0.55139 0.72792,-0.12659 1.47475,-0.18805 2.2405,-0.18437" />
      <path
         id="path3471"
         style="font-size:26px;letter-spacing:-2px;word-spacing:0px"
         d="m 309.35576,162.80866 1.8663,8.45467 -4.46287,0.98514 -0.30376,-1.37605 -1.11923,-5.07032 c -0.26819,-1.21489 -0.48137,-2.04322 -0.63956,-2.48502 -0.14993,-0.44359 -0.31473,-0.75824 -0.49439,-0.94394 -0.23741,-0.25093 -0.52221,-0.42208 -0.85439,-0.51345 -0.33402,-0.0996 -0.69111,-0.10745 -1.07127,-0.0235 -0.92564,0.20434 -1.57357,0.72439 -1.94378,1.56015 -0.37204,0.82753 -0.4185,1.87352 -0.13937,3.13799 l 1.50782,6.83068 -4.43808,0.97967 -4.25802,-19.28953 4.43808,-0.97967 1.64191,7.43812 c 0.49064,-0.95769 1.07005,-1.70963 1.73821,-2.25583 0.66632,-0.55444 1.45404,-0.932 2.36315,-1.13269 1.60332,-0.35391 2.92676,-0.13035 3.97033,0.67069 1.0518,0.79924 1.78478,2.13688 2.19892,4.01293" />
      <path
         id="path3473"
         style="font-size:26px;letter-spacing:-2px;word-spacing:0px"
         d="m 327.0528,161.21646 0.66141,8.6329 -4.55696,0.34913 -0.10765,-1.40506 -0.39859,-5.20253 c -0.0938,-1.22362 -0.18795,-2.06523 -0.28257,-2.52485 -0.0862,-0.46025 -0.20521,-0.79491 -0.35703,-1.00398 -0.19986,-0.28177 -0.45782,-0.49119 -0.77389,-0.62827 -0.31674,-0.14548 -0.66919,-0.20336 -1.05737,-0.17364 -0.94515,0.0724 -1.65964,0.49641 -2.14347,1.27195 -0.48449,0.76713 -0.67727,1.79626 -0.57834,3.08739 l 0.53436,6.97467 -4.53164,0.34719 -1.08618,-14.1772 4.53164,-0.34719 0.15905,2.07595 c 0.62017,-0.87936 1.29936,-1.54256 2.03756,-1.98959 0.73753,-0.45545 1.57044,-0.71873 2.49872,-0.78987 1.63711,-0.12541 2.91609,0.28166 3.83692,1.22121 0.92924,0.93893 1.46725,2.36619 1.61403,4.28179" />
      <path
         id="path3475"
         style="font-size:26px;letter-spacing:-2px;word-spacing:0px"
         d="m 337.42353,158.98931 c -1.00527,-0.0618 -1.79635,0.25411 -2.37324,0.94784 -0.56794,0.68582 -0.89375,1.70876 -0.97743,3.06881 -0.0837,1.36006 0.11399,2.41945 0.59305,3.17816 0.488,0.7508 1.23464,1.15712 2.23991,1.21897 0.98835,0.0608 1.7665,-0.25168 2.33444,-0.9375 0.56844,-0.69426 0.89451,-1.72142 0.97821,-3.08149 0.0837,-1.36005 -0.11427,-2.41521 -0.59383,-3.16549 -0.47905,-0.7587 -1.21276,-1.16847 -2.20111,-1.2293 m 0.19959,-3.24386 c 2.44134,0.15023 4.30572,0.92635 5.59315,2.32836 1.29585,1.40256 1.87205,3.26959 1.72861,5.60111 -0.14348,2.33154 -0.94423,4.11385 -2.40225,5.34694 -1.44961,1.23361 -3.39507,1.77531 -5.83641,1.62509 -2.4498,-0.15073 -4.32685,-0.92763 -5.63116,-2.3307 -1.29587,-1.40254 -1.87207,-3.26958 -1.72861,-5.60111 0.14346,-2.33152 0.94421,-4.11383 2.40225,-5.34693 1.46648,-1.23257 3.42462,-1.77348 5.87442,-1.62276" />
      <path
         id="path3477"
         style="font-size:26px;letter-spacing:-2px;word-spacing:0px"
         d="m 348.91148,151.66339 4.48792,0.71759 -3.11893,19.50613 -4.48791,-0.71759 3.11892,-19.50613" />
      <path
         id="path3479"
         style="font-size:26px;letter-spacing:-2px;word-spacing:0px"
         d="m 362.08041,162.93454 c -0.97442,-0.25473 -1.81161,-0.0974 -2.51156,0.4719 -0.68964,0.5633 -1.20678,1.5041 -1.55142,2.82242 -0.34465,1.31833 -0.35519,2.39595 -0.0316,3.23287 0.3339,0.83087 0.98807,1.37368 1.96249,1.62841 0.95803,0.25046 1.78186,0.094 2.47151,-0.46925 0.69176,-0.57147 1.20997,-1.51637 1.55463,-2.8347 0.34463,-1.31832 0.35409,-2.39185 0.0284,-3.22058 -0.32359,-0.83691 -0.9644,-1.3806 -1.92243,-1.63107 m 0.82201,-3.14432 c 2.36642,0.61866 4.04592,1.74006 5.03851,3.36422 1.00074,1.62632 1.20571,3.56947 0.61491,5.82945 -0.59084,2.25998 -1.72057,3.8542 -3.3892,4.78266 -1.66047,0.93059 -3.67391,1.08657 -6.04033,0.46792 -2.37463,-0.62079 -4.06642,-1.74541 -5.07536,-3.37386 -1.00076,-1.62631 -1.20573,-3.56946 -0.61491,-5.82944 0.59082,-2.25998 1.72055,-3.8542 3.3892,-4.78267 1.67683,-0.9263 3.70255,-1.07906 6.07718,-0.45828" />
      <path
         id="path3481"
         style="font-size:26px;letter-spacing:-2px;word-spacing:0px"
         d="m 377.87074,177.80813 c -0.89677,0.52538 -1.76765,0.8232 -2.61264,0.89347 -0.84501,0.0703 -1.72468,-0.0847 -2.63901,-0.46492 -1.60204,-0.66617 -2.66506,-1.84608 -3.18905,-3.53971 -0.52075,-1.70145 -0.37491,-3.52903 0.4375,-5.48274 0.81565,-1.96151 2.00704,-3.34973 3.57417,-4.16466 1.57037,-0.82273 3.15658,-0.90101 4.75863,-0.23484 0.91432,0.38021 1.6445,0.89467 2.19055,1.54336 0.54602,0.6487 0.94733,1.48012 1.20393,2.49425 l 0.80916,-1.94589 4.22,1.7548 -4.90857,11.80429 c -0.87741,2.11 -2.215,3.442 -4.01277,3.99603 -1.79323,0.56507 -3.95583,0.32117 -6.48783,-0.7317 -0.82056,-0.34122 -1.58777,-0.73357 -2.30162,-1.17706 -0.71386,-0.44351 -1.404,-0.95506 -2.07043,-1.53466 l 1.35997,-3.2705 c 0.55911,0.72746 1.14809,1.33902 1.76693,1.83467 0.61559,0.50347 1.27896,0.90306 1.99012,1.19878 1.3754,0.57193 2.50862,0.69026 3.39967,0.35499 0.89102,-0.33527 1.60301,-1.14372 2.13596,-2.42535 l 0.37533,-0.90261 m 0.63104,-9.32077 c -0.86745,-0.3607 -1.67667,-0.32138 -2.42765,0.11795 -0.75099,0.43934 -1.37021,1.24512 -1.85765,2.41734 -0.50045,1.20349 -0.64621,2.21531 -0.43728,3.03547 0.21216,0.81235 0.76759,1.40538 1.66631,1.77908 0.87525,0.36396 1.68837,0.32627 2.43937,-0.11307 0.75098,-0.43933 1.36857,-1.24121 1.85278,-2.40562 0.48743,-1.17222 0.62212,-2.17947 0.40409,-3.02177 -0.21806,-0.84229 -0.76472,-1.44541 -1.63997,-1.80938" />
      <path
         id="path3483"
         style="font-size:26px;letter-spacing:-2px;word-spacing:0px"
         d="m 389.97037,170.5214 4.00132,2.15539 -6.74313,12.51811 -4.00133,-2.15539 6.74314,-12.51811 m 2.62501,-4.87312 4.00132,2.15539 -1.75803,3.26365 -4.00133,-2.15539 1.75804,-3.26365" />
      <path
         id="path3485"
         style="font-size:26px;letter-spacing:-2px;word-spacing:0px"
         d="m 398.24299,184.47502 c -0.78824,-0.52652 -1.47226,-0.79005 -2.05205,-0.79059 -0.57276,0.004 -1.03309,0.26666 -1.38097,0.78746 -0.31968,0.47857 -0.41284,0.96087 -0.27948,1.44689 0.14509,0.48369 0.50266,0.91593 1.07273,1.29673 0.71081,0.47481 1.47827,0.62105 2.30237,0.43871 0.82878,-0.18938 1.49939,-0.66763 2.01183,-1.43475 l 0.28912,-0.43282 -1.96355,-1.31163 m 6.7265,2.43215 -4.50606,6.74573 -3.81097,-2.54568 1.17059,-1.75241 c -0.98625,0.37937 -1.90655,0.52289 -2.7609,0.43057 -0.84966,-0.0994 -1.72842,-0.45228 -2.63629,-1.05873 -1.22458,-0.818 -1.98302,-1.83862 -2.27532,-3.06187 -0.28057,-1.22558 -0.0401,-2.40843 0.72154,-3.54855 0.92612,-1.38644 2.08049,-2.08608 3.4631,-2.0989 1.38964,-0.008 3.10495,0.66949 5.14592,2.03282 l 2.22746,1.48792 0.19745,-0.29559 c 0.39958,-0.59821 0.45529,-1.19204 0.16712,-1.78149 -0.2835,-0.59649 -0.92493,-1.22852 -1.92428,-1.89609 -0.80936,-0.54062 -1.61647,-0.96271 -2.42133,-1.26626 -0.80487,-0.30354 -1.61454,-0.49325 -2.429,-0.56911 l 1.92513,-2.88198 c 0.94097,0.34358 1.85255,0.73877 2.73477,1.18557 0.88689,0.43978 1.73853,0.93233 2.55493,1.47765 2.13243,1.42446 3.38812,2.87393 3.76706,4.34842 0.39065,1.47216 -0.0463,3.15482 -1.31092,5.04798" />
    </g>
    <g
       id="text5475"
       style="font-size:26px;font-style:normal;font-weight:bold;text-align:center;line-height:125%;letter-spacing:-2px;word-spacing:0px;text-anchor:middle;fill:#000000;fill-opacity:1;stroke:none;font-family:Sans;-inkscape-font-specification:Sans Bold"
       transform="translate(2.1271,-1.89684)">
      <path
         id="path3507"
         style="font-size:26px;letter-spacing:-2px"
         d="m 465.55344,295.44848 -0.31041,4.87783 -18.91584,-1.20376 0.31042,-4.87783 18.91583,1.20376" />
      <path
         id="path3509"
         style="font-size:26px;letter-spacing:-2px"
         d="m 452.48436,317.25815 -8.54331,-1.4058 0.74207,-4.50966 1.39048,0.2288 5.14853,0.84719 c 1.21093,0.19925 2.05086,0.30744 2.5198,0.32457 0.46756,0.0255 0.8209,-0.0107 1.06003,-0.10862 0.32114,-0.1273 0.58579,-0.3282 0.79394,-0.60273 0.21649,-0.27317 0.35634,-0.60183 0.41956,-0.98597 0.1539,-0.93535 -0.0885,-1.73004 -0.72705,-2.38406 -0.63026,-0.65267 -1.58426,-1.08412 -2.86199,-1.29437 l -6.9023,-1.13577 0.73795,-4.48461 14.03007,2.30864 -0.73794,4.48462 -2.05441,-0.33805 c 0.7071,0.81111 1.19021,1.62825 1.44933,2.45144 0.26744,0.82454 0.32559,1.69613 0.17444,2.61478 -0.2666,1.62012 -0.96551,2.76599 -2.09671,3.4376 -1.1326,0.67993 -2.64676,0.86393 -4.54249,0.552" />
      <path
         id="path3511"
         style="font-size:26px;letter-spacing:-2px"
         d="m 453.30719,332.93932 -3.55614,-1.0469 c 0.58043,-0.4732 1.05651,-0.98151 1.42825,-1.52494 0.36933,-0.53534 0.64841,-1.1237 0.83724,-1.76509 0.35852,-1.21786 0.28094,-2.27296 -0.23276,-3.16528 -0.50797,-0.88183 -1.3993,-1.51037 -2.67398,-1.88562 -1.27469,-0.37527 -2.36846,-0.33113 -3.28132,0.13242 -0.90713,0.47405 -1.53996,1.32 -1.89849,2.53786 -0.20077,0.68199 -0.2893,1.35733 -0.26559,2.02602 0.0213,0.67679 0.15441,1.33356 0.39927,1.97031 l -3.56831,-1.05049 c -0.0509,-0.7561 -0.0333,-1.50525 0.0529,-2.24745 0.0756,-0.73649 0.21745,-1.4579 0.42539,-2.16425 0.72423,-2.46007 1.91993,-4.19904 3.5871,-5.21691 1.67528,-1.01549 3.63741,-1.19219 5.88638,-0.53011 2.24896,0.66208 3.79831,1.87253 4.64805,3.63137 0.85784,1.76121 0.92465,3.87185 0.20044,6.33192 -0.21035,0.71447 -0.48205,1.39764 -0.81511,2.04953 -0.32735,0.66237 -0.71845,1.30157 -1.17329,1.91761" />
      <path
         id="path3513"
         style="font-size:26px;letter-spacing:-2px"
         d="m 447.18269,341.6021 c 0.39856,-0.92495 0.36912,-1.77628 -0.0883,-2.55399 -0.45302,-0.7666 -1.30522,-1.41952 -2.55661,-1.95875 -1.25139,-0.53925 -2.31514,-0.71194 -3.19124,-0.51807 -0.87168,0.20497 -1.5068,0.76994 -1.90537,1.69489 -0.39187,0.90938 -0.3613,1.74738 0.0917,2.51398 0.46079,0.76993 1.31688,1.42453 2.56827,1.96378 1.25139,0.53922 2.31125,0.71024 3.17959,0.51304 0.87609,-0.19387 1.51008,-0.7455 1.90196,-1.65488 m 2.98468,1.28614 c -0.96796,2.24627 -2.3295,3.73774 -4.08461,4.47443 -1.75847,0.74443 -3.71032,0.65444 -5.85556,-0.26995 -2.14524,-0.92443 -3.55116,-2.28135 -4.21775,-4.07077 -0.66993,-1.78167 -0.52093,-3.79564 0.44702,-6.04191 0.97131,-2.25407 2.33787,-3.7572 4.09968,-4.50941 1.75847,-0.74445 3.71032,-0.65447 5.85557,0.26995 2.14523,0.92441 3.55115,2.28133 4.21775,4.07076 0.66322,1.7972 0.50919,3.82283 -0.4621,6.0769" />
      <path
         id="path3515"
         style="font-size:26px;letter-spacing:-2px"
         d="m 430.14841,354.98696 c -0.38855,-0.96398 -0.55578,-1.86905 -0.50169,-2.71524 0.0541,-0.84619 0.33607,-1.69373 0.84593,-2.54261 0.89335,-1.48737 2.21606,-2.36636 3.96813,-2.63698 1.75932,-0.26626 3.5459,0.14533 5.35976,1.23478 1.82111,1.0938 3.02012,2.47544 3.59706,4.14492 0.58416,1.67382 0.42958,3.25442 -0.46376,4.74179 -0.50987,0.84887 -1.12559,1.49595 -1.84718,1.94124 -0.7216,0.44526 -1.60278,0.72063 -2.64353,0.82613 l 1.8066,1.08509 -2.35321,3.91793 -10.95932,-6.58245 c -1.95896,-1.17662 -3.08098,-2.69466 -3.36608,-4.55413 -0.29669,-1.8566 0.26092,-3.96026 1.67284,-6.31102 0.45758,-0.76182 0.95793,-1.46338 1.50108,-2.10469 0.54315,-0.6413 1.15015,-1.2492 1.821,-1.82368 l 3.03639,1.82374 c -0.80142,0.44669 -1.49255,0.93987 -2.0734,1.47956 -0.58809,0.53533 -1.08042,1.13311 -1.47698,1.79336 -0.76697,1.27695 -1.04979,2.38067 -0.84847,3.31117 0.20134,0.93049 0.89694,1.75308 2.08683,2.46776 l 0.838,0.50333 m 9.1282,1.98765 c 0.48371,-0.80536 0.56319,-1.61163 0.23843,-2.41879 -0.32476,-0.80718 -1.0313,-1.53761 -2.11961,-2.19127 -1.11734,-0.6711 -2.09695,-0.9633 -2.93885,-0.87659 -0.83465,0.091 -1.50254,0.55377 -2.00369,1.38815 -0.48807,0.81259 -0.56973,1.62249 -0.24497,2.42967 0.32476,0.80716 1.02767,1.53541 2.10873,2.18473 1.08831,0.65366 2.06503,0.93424 2.93016,0.84176 0.86513,-0.0925 1.54173,-0.54506 2.0298,-1.35766" />
      <path
         id="path3517"
         style="font-size:26px;letter-spacing:-2px"
         d="m 422.11748,376.20484 -6.74142,-5.43303 2.86788,-3.55852 1.09721,0.88427 4.06264,3.27415 c 0.95553,0.77006 1.6331,1.27809 2.03272,1.52407 0.3943,0.25254 0.71961,0.39515 0.97592,0.42781 0.34217,0.0475 0.67146,0.003 0.98786,-0.13325 0.32299,-0.13104 0.60663,-0.34811 0.85093,-0.65123 0.59482,-0.73808 0.77552,-1.549 0.5421,-2.43279 -0.22683,-0.8785 -0.84437,-1.72402 -1.85262,-2.53657 l -5.44651,-4.38944 2.85194,-3.53875 11.07095,8.92227 -2.85194,3.53875 -1.6211,-1.30648 c 0.21562,1.05423 0.23335,2.00334 0.0532,2.84733 -0.17357,0.84928 -0.55246,1.63636 -1.13665,2.36126 -1.03031,1.27841 -2.2031,1.93112 -3.51838,1.95813 -1.32059,0.0336 -2.72883,-0.55243 -4.22473,-1.75798" />
      <path
         id="path3519"
         style="font-size:26px;letter-spacing:-2px"
         d="m 423.84922,382.25204 -3.18406,3.24316 -10.1462,-9.9613 3.18406,-3.24316 10.1462,9.9613 m 3.94977,3.87779 -3.18406,3.24316 -2.64526,-2.59705 3.18406,-3.24316 2.64526,2.59705" />
      <path
         id="path3521"
         style="font-size:26px;letter-spacing:-2px"
         d="m 417.15983,394.2115 -2.66723,-3.03053 -3.51656,3.09499 -2.14721,-2.43967 3.51657,-3.095 -3.98408,-4.52674 c -0.43614,-0.49557 -0.83098,-0.74562 -1.1845,-0.75016 -0.34793,0.002 -0.81414,0.25991 -1.39865,0.77435 l -1.75352,1.54331 -2.1472,-2.43968 2.9257,-2.57497 c 1.34691,-1.18544 2.54912,-1.74744 3.60663,-1.686 1.05675,0.0734 2.17784,0.78351 3.36328,2.13042 l 3.98407,4.52674 1.69633,-1.49298 2.14721,2.43968 -1.69634,1.49298 2.66723,3.03053 -3.41173,3.00273" />
      <path
         id="path3523"
         style="font-size:26px;letter-spacing:-2px"
         d="m 399.44511,393.04215 c 0.77576,-0.54475 1.26863,-1.08734 1.47862,-1.62777 0.20306,-0.53558 0.12463,-1.05964 -0.23529,-1.57219 -0.33073,-0.47101 -0.74679,-0.73214 -1.24817,-0.78339 -0.50343,-0.0395 -1.03567,0.13776 -1.59672,0.53173 -0.69956,0.49123 -1.11321,1.154 -1.24095,1.98831 -0.12287,0.84122 0.0808,1.63932 0.61091,2.39432 l 0.29912,0.42597 1.93248,-1.35698 m -4.69824,5.3933 -4.66189,-6.63899 3.75066,-2.63372 1.21107,1.72469 c 0.003,-1.0567 0.20131,-1.96668 0.59608,-2.72995 0.39966,-0.75636 1.04624,-1.44825 1.93974,-2.07566 1.20521,-0.8463 2.43092,-1.18473 3.67713,-1.01531 1.24416,0.18121 2.2602,0.83286 3.04813,1.95495 0.95815,1.3645 1.19343,2.69367 0.70582,3.98752 -0.49453,1.29869 -1.74613,2.65328 -3.7548,4.06378 l -2.19222,1.53937 0.20428,0.29091 c 0.41342,0.58873 0.94701,0.85524 1.60076,0.79951 0.65863,-0.0488 1.47971,-0.41856 2.46327,-1.10919 0.79654,-0.55935 1.48173,-1.15942 2.05559,-1.80023 0.57384,-0.64083 1.04328,-1.32725 1.4083,-2.05927 l 1.9917,2.83637 c -0.66036,0.75326 -1.35823,1.46048 -2.0936,2.12165 -0.73051,0.66808 -1.4975,1.28422 -2.30097,1.84843 -2.09871,1.4737 -3.90396,2.12083 -5.41575,1.94142 -1.51385,-0.16766 -2.92495,-1.18308 -4.2333,-3.04628" />
    </g>
    <g
       id="text5479"
       style="font-size:26px;font-style:normal;font-weight:bold;text-align:center;line-height:125%;letter-spacing:-2px;word-spacing:0px;text-anchor:middle;fill:#000000;fill-opacity:1;stroke:none;font-family:Sans;-inkscape-font-specification:Sans Bold"
       transform="translate(2.1271,-1.89684)">
      <path
         id="path3488"
         style="font-size:26px;letter-spacing:-2px"
         d="m 271.88454,398.3093 6.83529,3.41874 2.62334,-2.54887 4.39412,2.19776 -14.75763,13.81151 -5.21163,-2.60664 2.19976,-20.09245 4.39412,2.19776 -0.47737,3.62219 m 4.17221,6.0187 -4.64392,-2.3227 -1.05702,7.90297 5.70094,-5.58027" />
      <path
         id="path3490"
         style="font-size:26px;letter-spacing:-2px"
         d="m 249.93562,393.9385 c -0.98957,0.35595 -1.93616,0.47928 -2.83977,0.36998 -0.91542,-0.10764 -1.75147,-0.44694 -2.50815,-1.01792 -1.30386,-0.98391 -1.99365,-2.13529 -2.06935,-3.45414 -0.0757,-1.31884 0.46512,-2.74506 1.62234,-4.27865 l 5.21525,-6.91127 3.64818,2.75292 -4.46585,5.91815 c -0.073,0.0827 -0.14521,0.17139 -0.2166,0.26597 -0.0781,0.0895 -0.18344,0.22206 -0.31601,0.39771 -0.60664,0.80395 -0.92684,1.47417 -0.9606,2.01066 -0.0388,0.54325 0.20524,1.01369 0.73218,1.41134 0.68912,0.51999 1.43695,0.63899 2.24349,0.35698 0.79983,-0.2871 1.61178,-0.96265 2.43585,-2.02664 l 4.20585,-5.5736 3.64818,2.75291 -4.46585,5.91816 c -0.94821,1.25659 -1.44933,2.14549 -1.50335,2.66669 -0.0591,0.52795 0.18835,1.00094 0.74232,1.41898 0.69587,0.52509 1.44962,0.64326 2.26127,0.3545 0.80657,-0.28201 1.61005,-0.95335 2.41042,-2.01402 l 4.2135,-5.58374 3.64817,2.75292 -8.56463,11.34988 -3.64818,-2.75292 1.25411,-1.66194 c -0.93019,0.30533 -1.80476,0.40348 -2.62373,0.29444 -0.82569,-0.11415 -1.58648,-0.43377 -2.28235,-0.95886 -0.78366,-0.59137 -1.3334,-1.30308 -1.6492,-2.13513 -0.31577,-0.83205 -0.3716,-1.7065 -0.16749,-2.62336" />
      <path
         id="path3492"
         style="font-size:26px;letter-spacing:-2px"
         d="m 230.32534,378.23341 2.49757,-2.38458 c 0.37831,0.98451 0.80668,1.8744 1.28512,2.66967 0.47846,0.79527 0.9953,1.48367 1.55052,2.06522 0.59616,0.62439 1.11993,1.01364 1.5713,1.16776 0.43943,0.15384 0.82136,0.0759 1.14579,-0.23388 0.26323,-0.25132 0.35712,-0.55744 0.28166,-0.91836 -0.0813,-0.36704 -0.37173,-0.8796 -0.87133,-1.53767 l -0.46967,-0.65738 c -1.39299,-1.88797 -2.12224,-3.35651 -2.18777,-4.40562 -0.0655,-1.0491 0.42513,-2.07336 1.47189,-3.07279 1.09576,-1.04616 2.30484,-1.42824 3.62725,-1.14622 1.32242,0.28204 2.74927,1.22497 4.28053,2.82879 0.64875,0.67949 1.26578,1.43606 1.85109,2.26972 0.5856,0.8217 1.13655,1.71741 1.65287,2.68716 l -2.49757,2.38458 c -0.30705,-0.95892 -0.70829,-1.85716 -1.20372,-2.69473 -0.50127,-0.84368 -1.0909,-1.62057 -1.76887,-2.33067 -0.61367,-0.64275 -1.16415,-1.0416 -1.65145,-1.19655 -0.48727,-0.15495 -0.90538,-0.0659 -1.25431,0.26728 -0.29382,0.28055 -0.40301,0.60128 -0.32757,0.96219 0.0635,0.36065 0.37398,0.91258 0.93145,1.6558 l 0.47885,0.64862 c 1.21321,1.63837 1.85243,2.98809 1.91766,4.04917 0.0652,1.06107 -0.40716,2.07378 -1.41721,3.03813 -1.08962,1.04033 -2.25417,1.4384 -3.49367,1.19421 -1.23947,-0.24419 -2.59563,-1.1376 -4.06847,-2.68021 -0.57859,-0.60603 -1.14051,-1.2865 -1.68577,-2.04141 -0.54521,-0.75491 -1.09394,-1.61765 -1.64617,-2.58823" />
      <path
         id="path3494"
         style="font-size:26px;letter-spacing:-2px"
         d="m 221.33938,374.18295 3.18274,-2.48364 -2.88196,-3.69318 2.5622,-1.9994 2.88196,3.69317 4.75408,-3.70984 c 0.52045,-0.40613 0.79338,-0.78551 0.81879,-1.13815 0.0187,-0.34742 -0.21139,-0.82807 -0.69042,-1.44193 l -1.43707,-1.84158 2.5622,-1.99941 2.39772,3.07264 c 1.10385,1.41455 1.59388,2.64784 1.47011,3.69988 -0.13564,1.05058 -0.91073,2.12778 -2.32529,3.23162 l -4.75408,3.70984 1.39022,1.78153 -2.5622,1.99941 -1.39022,-1.78153 -3.18273,2.48364 -2.79605,-3.58307" />
      <path
         id="path3496"
         style="font-size:26px;letter-spacing:-2px"
         d="m 218.79361,350.3301 1.10069,-0.68212 5.59744,9.03217 c 0.8485,-0.65527 1.32549,-1.40391 1.43096,-2.24593 0.10548,-0.84201 -0.15386,-1.7666 -0.77804,-2.77377 -0.50378,-0.81293 -1.13742,-1.57028 -1.90091,-2.27207 -0.77513,-0.7045 -1.68595,-1.3548 -2.73245,-1.95091 l 2.97835,-1.84575 c 0.91153,0.69966 1.73673,1.45281 2.47559,2.25945 0.74606,0.8022 1.4022,1.66012 1.9684,2.57376 1.35533,2.18701 1.85578,4.2317 1.50135,6.13407 -0.36608,1.89965 -1.55269,3.47141 -3.55985,4.71529 -1.97117,1.22157 -3.8893,1.58883 -5.75441,1.10177 -1.86954,-0.49426 -3.45077,-1.78453 -4.7437,-3.87082 -1.17698,-1.89923 -1.54576,-3.77162 -1.10634,-5.61716 0.435,-1.85273 1.60931,-3.37205 3.52292,-4.55798 m 1.17685,4.76695 c -0.73378,0.45475 -1.18994,1.03616 -1.36849,1.74422 -0.19017,0.70533 -0.0713,1.4033 0.35672,2.09393 0.46368,0.74819 1.05263,1.22457 1.76686,1.42914 0.70706,0.20903 1.49193,0.12589 2.3546,-0.24942 l -3.10969,-5.01787" />
      <path
         id="path3498"
         style="font-size:26px;letter-spacing:-2px"
         d="m 210.44958,340.14434 c 0.003,0.4392 0.0528,0.8565 0.14783,1.25191 0.0838,0.39143 0.21146,0.76662 0.38291,1.12554 0.50347,1.0539 1.23184,1.70488 2.18513,1.95296 0.94202,0.24409 2.04307,0.0652 3.30315,-0.5368 l 5.91096,-2.8237 1.95908,4.10101 -12.82998,6.12897 -1.95909,-4.10101 2.10779,-1.0069 c -1.09177,-0.12565 -1.99093,-0.4371 -2.69748,-0.93438 -0.7178,-0.50126 -1.30473,-1.2292 -1.76077,-2.18381 -0.0656,-0.13746 -0.12915,-0.29003 -0.19051,-0.4577 -0.069,-0.16402 -0.15731,-0.40789 -0.26508,-0.73161 l 3.70606,-1.78448" />
      <path
         id="path3500"
         style="font-size:26px;letter-spacing:-2px"
         d="m 205,330.24263 -7.19993,2.48647 -1.49188,-4.31996 18.67182,-6.44825 1.49188,4.31996 -1.94398,0.67134 c 0.99644,0.3185 1.8016,0.77019 2.41547,1.35509 0.61389,0.58491 1.08245,1.34536 1.40569,2.28134 0.57189,1.65599 0.38556,3.24252 -0.55898,4.7596 -0.95254,1.51984 -2.4648,2.63754 -4.53679,3.35309 -2.07197,0.71555 -3.94767,0.76788 -5.62711,0.15698 -1.68742,-0.60814 -2.81708,-1.7402 -3.38899,-3.39618 -0.32046,-0.92799 -0.41564,-1.8129 -0.28555,-2.65475 0.11937,-0.84707 0.46882,-1.70199 1.04835,-2.56473 m 9.67793,-0.17252 c -0.31771,-0.91998 -0.89545,-1.50394 -1.73321,-1.75187 -0.84051,-0.25592 -1.90077,-0.16286 -3.18076,0.27917 -1.27998,0.44205 -2.17171,1.0231 -2.67519,1.74316 -0.50621,0.71207 -0.60047,1.5281 -0.28276,2.44808 0.31496,0.912 0.8927,1.49596 1.73321,1.75188 0.83777,0.24792 1.89664,0.15087 3.17662,-0.29117 1.27999,-0.44204 2.1731,-1.01909 2.67932,-1.73116 0.50347,-0.72006 0.59773,-1.53609 0.28277,-2.44809" />
      <path
         id="path3502"
         style="font-size:26px;letter-spacing:-2px"
         d="m 206.84121,314.651 c 0.1883,0.92903 0.48797,1.59801 0.899,2.00692 0.40936,0.40063 0.92095,0.53874 1.53476,0.41433 0.56406,-0.11432 0.97,-0.3909 1.21785,-0.82975 0.23787,-0.44544 0.28871,-1.00411 0.15253,-1.676 -0.1698,-0.83777 -0.61132,-1.48231 -1.32456,-1.93362 -0.72153,-0.44961 -1.53436,-0.58279 -2.43851,-0.39954 l -0.51014,0.10339 0.46907,2.31427 m -3.05916,-6.4655 7.95064,-1.61146 0.91038,4.49168 -2.06542,0.41863 c 0.96713,0.42575 1.72127,0.97239 2.26244,1.6399 0.53288,0.66921 0.90775,1.53883 1.12463,2.60886 0.29254,1.44331 0.11154,2.70194 -0.54299,3.77588 -0.6645,1.06734 -1.66864,1.73718 -3.01241,2.00954 -1.63409,0.3312 -2.94618,0.0142 -3.93628,-0.9509 -0.99177,-0.97343 -1.73143,-2.6629 -2.219,-5.06842 l -0.53211,-2.62533 -0.34838,0.0706 c -0.70506,0.14291 -1.16302,0.52502 -1.37389,1.14634 -0.21914,0.62301 -0.20935,1.52345 0.0294,2.70132 0.19335,0.95391 0.46863,1.82213 0.82584,2.60465 0.35724,0.78253 0.79808,1.48765 1.32254,2.11538 l -3.39675,0.68846 c -0.42558,-0.90683 -0.79396,-1.82958 -1.10512,-2.76825 -0.31943,-0.93699 -0.57667,-1.88658 -0.77171,-2.84879 -0.50939,-2.51334 -0.37905,-4.42665 0.39104,-5.73992 0.76013,-1.31986 2.25586,-2.20592 4.48717,-2.65819" />
      <path
         id="path3504"
         style="font-size:26px;letter-spacing:-2px"
         d="m 198.79836,291.5616 c -0.89865,-0.54624 -1.58931,-1.2052 -2.072,-1.97686 -0.4914,-0.77982 -0.75269,-1.64344 -0.78388,-2.59086 -0.0537,-1.63256 0.40868,-2.89259 1.38716,-3.78009 0.97852,-0.88746 2.42786,-1.36279 4.34803,-1.426 l 8.65352,-0.28477 0.15032,4.56784 -7.41005,0.24385 c -0.11024,-0.005 -0.22457,-0.005 -0.34301,-0.001 -0.11869,-0.005 -0.28801,-0.003 -0.50795,0.004 -1.00661,0.0332 -1.72921,0.20512 -2.1678,0.51592 -0.44703,0.31111 -0.65969,0.79656 -0.63799,1.45634 0.0284,0.86283 0.40567,1.5194 1.1318,1.9697 0.72587,0.44188 1.76157,0.64914 3.10709,0.62178 l 6.97865,-0.22966 0.15031,4.56784 -7.41005,0.24385 c -1.57335,0.0518 -2.57975,0.2204 -3.01917,0.50583 -0.44787,0.28573 -0.66039,0.7754 -0.63758,1.46903 0.0287,0.87128 0.41032,1.53194 1.14491,1.98197 0.72615,0.45033 1.75325,0.65363 3.0813,0.60992 l 6.99133,-0.23007 0.15032,4.56784 -14.21106,0.46766 -0.15032,-4.56784 2.08091,-0.0685 c -0.82196,-0.53184 -1.44779,-1.15059 -1.8775,-1.85624 -0.42996,-0.7141 -0.65928,-1.5068 -0.68796,-2.37808 -0.0323,-0.98123 0.17604,-1.85606 0.62495,-2.62451 0.44894,-0.76842 1.09418,-1.36126 1.93572,-1.7785" />
    </g>
  </g>
</svg>
