<?xml version="1.0" encoding="UTF-8" standalone="no"?>
<!-- Created with Inkscape (http://www.inkscape.org/) -->

<svg
   xmlns:dc="http://purl.org/dc/elements/1.1/"
   xmlns:cc="http://creativecommons.org/ns#"
   xmlns:rdf="http://www.w3.org/1999/02/22-rdf-syntax-ns#"
   xmlns:svg="http://www.w3.org/2000/svg"
   xmlns="http://www.w3.org/2000/svg"
   xmlns:xlink="http://www.w3.org/1999/xlink"
   xmlns:sodipodi="http://sodipodi.sourceforge.net/DTD/sodipodi-0.dtd"
   xmlns:inkscape="http://www.inkscape.org/namespaces/inkscape"
   height="759.65625"
   id="svg1"
   inkscape:version="0.48.3.1 r9886"
   sodipodi:docname="knuffelhacker-5.svg"
   sodipodi:version="0.32"
   width="820.25"
   version="1.1">
  <metadata
     id="metadata3">
    <rdf:RDF>
      <cc:Work
         rdf:about="">
        <dc:title />
        <dc:description />
        <dc:subject>
          <rdf:Bag>
            <rdf:li />
            <rdf:li>symbol</rdf:li>
            <rdf:li>warning</rdf:li>
            <rdf:li>signs_and_symbols</rdf:li>
            <rdf:li>biohazard</rdf:li>
            <rdf:li>sign</rdf:li>
          </rdf:Bag>
        </dc:subject>
        <dc:publisher>
          <cc:Agent
             rdf:about="http://www.openclipart.org">
            <dc:title>Public Domain</dc:title>
          </cc:Agent>
        </dc:publisher>
        <dc:creator>
          <cc:Agent>
            <dc:title>Justin Warwick</dc:title>
          </cc:Agent>
        </dc:creator>
        <dc:rights>
          <cc:Agent>
            <dc:title>Public Domain</dc:title>
          </cc:Agent>
        </dc:rights>
        <dc:date />
        <dc:format>image/svg+xml</dc:format>
        <dc:type
           rdf:resource="http://purl.org/dc/dcmitype/StillImage" />
        <cc:license
           rdf:resource="http://web.resource.org/cc/PublicDomain" />
        <dc:language>en</dc:language>
      </cc:Work>
      <cc:License
         rdf:about="http://web.resource.org/cc/PublicDomain">
        <cc:permits
           rdf:resource="http://web.resource.org/cc/Reproduction" />
        <cc:permits
           rdf:resource="http://web.resource.org/cc/Distribution" />
        <cc:permits
           rdf:resource="http://web.resource.org/cc/DerivativeWorks" />
      </cc:License>
    </rdf:RDF>
  </metadata>
  <defs
     id="defs3" />
  <sodipodi:namedview
     bordercolor="#666666"
     borderopacity="1.0"
     id="base"
     inkscape:cx="566.27778"
     inkscape:cy="332.77521"
     inkscape:pageopacity="0.0"
     inkscape:pageshadow="2"
     inkscape:window-height="715"
     inkscape:window-width="1280"
     inkscape:window-x="0"
     inkscape:window-y="0"
     inkscape:zoom="0.43415837"
     pagecolor="#ffffff"
     showgrid="true"
     showguides="true"
     inkscape:guide-bbox="true"
     inkscape:snap-global="false"
     inkscape:window-maximized="0"
     inkscape:current-layer="svg1"
     fit-margin-top="0"
     fit-margin-left="0"
     fit-margin-right="0"
     fit-margin-bottom="0">
    <inkscape:grid
       type="xygrid"
       id="grid2994"
       empspacing="5"
       visible="true"
       enabled="true"
       snapvisiblegridlinesonly="true"
       originx="419.34375px"
       originy="120.3125px" />
  </sodipodi:namedview>
  <g
     inkscape:groupmode="layer"
     id="layer1"
     inkscape:label="Background"
     transform="translate(419.34375,364.34375)" />
  <flowRoot
     xml:space="preserve"
     id="flowRoot5652"
     style="font-size:20px;font-style:normal;font-weight:normal;line-height:125%;letter-spacing:0px;word-spacing:0px;fill:#000000;fill-opacity:1;stroke:none;font-family:Sans"
     transform="translate(89.84375,89.84375)"><flowRegion
       id="flowRegion5654"><rect
         id="rect5656"
         width="387.6268"
         height="76.548149"
         x="-563.52466"
         y="-57.165165" /></flowRegion><flowPara
       id="flowPara5658" /></flowRoot>  <g
     id="g5668"
     transform="translate(89.84375,89.84375)">
    <flowRoot
       style="font-size:20px;font-style:normal;font-weight:normal;line-height:125%;letter-spacing:0px;word-spacing:0px;fill:#000000;fill-opacity:1;stroke:none;font-family:Sans"
       id="flowRoot5660"
       xml:space="preserve"><flowRegion
         id="flowRegion5662"><rect
           y="-66.937271"
           x="-543.98047"
           height="96.092354"
           width="376.22601"
           id="rect5664" /></flowRegion><flowPara
         id="flowPara5666" /></flowRoot>  </g>
  <path
     inkscape:connector-curvature="0"
     id="path5678"
     d="m -608.50608,629.03711 300,-420 c -300.05428,421.31993 -2.23329,0.79813 -300,420 z"
     style="fill:none;stroke:none"
     sodipodi:nodetypes="ccc" />
  <path
     style="fill:none;stroke:none"
     d="m 1361.3915,197.52058 300,420 c -296.8573,-420.35481 1.107,0.0787 -300,-420 z"
     id="path5680"
     inkscape:connector-curvature="0"
     sodipodi:nodetypes="ccc" />
  <g
     id="g3170">
    <rect
       y="11.226513"
       x="11.22654"
       height="737.1922"
       width="797.80792"
       id="rect5356"
       style="fill:#fffc07;fill-opacity:1;stroke:#fffc07;stroke-width:22.44403076;stroke-linecap:butt;stroke-linejoin:miter;stroke-miterlimit:4;stroke-opacity:1;stroke-dasharray:none" />
    <path
       sodipodi:nodetypes="cccc"
       inkscape:connector-curvature="0"
       id="path3000"
       d="m 419.34375,119.34375 c -220,300 -300,420 -300,420 l 600,0 c -300,-420 0,0 -300,-420 z"
       style="fill:#fffc07;fill-opacity:1;fill-rule:nonzero;stroke:#000000;stroke-width:10;stroke-linecap:butt;stroke-linejoin:round;stroke-miterlimit:4;stroke-opacity:1;stroke-dasharray:none" />
    <path
       transform="matrix(1.8720847,0,0,1.8720847,-183.99241,-424.6062)"
       style="fill:#000000;fill-opacity:1;fill-rule:evenodd;stroke:#000000;stroke-width:10;stroke-linecap:butt;stroke-linejoin:miter;stroke-miterlimit:4;stroke-opacity:1"
       sodipodi:type="arc"
       sodipodi:ry="63.111507"
       sodipodi:rx="63.111507"
       sodipodi:cy="464.50903"
       sodipodi:cx="259.06256"
       id="path2163"
       d="m 322.17407,464.50903 a 63.111507,63.111507 0 1 1 -126.22302,0 63.111507,63.111507 0 1 1 126.22302,0 z" />
    <use
       y="0"
       xlink:href="#path2163"
       x="0"
       width="744.09448"
       transform="translate(238.20574,0)"
       id="use2164"
       height="1052.3622" />
    <use
       y="0"
       xlink:href="#path2163"
       x="0"
       width="744.09448"
       transform="translate(119.10291,-205.80969)"
       id="use2165"
       height="1052.3622" />
    <path
       transform="matrix(1.842781,0,0,1.842781,-11.33996,-438.8844)"
       style="fill:#fffc07;fill-opacity:1;fill-rule:evenodd;stroke:none"
       sodipodi:type="arc"
       sodipodi:ry="61.075649"
       sodipodi:rx="61.075649"
       sodipodi:cy="358.13562"
       sodipodi:cx="234.12332"
       id="path2166"
       d="m 295.19897,358.13562 a 61.075649,61.075649 0 1 1 -122.1513,0 61.075649,61.075649 0 1 1 122.1513,0 z" />
    <use
       y="0"
       xlink:href="#path2166"
       x="0"
       width="744.09448"
       transform="translate(-129.58377,238.20743)"
       id="use2788"
       height="1052.3622" />
    <use
       y="0"
       xlink:href="#path2166"
       x="0"
       width="744.09448"
       transform="translate(132.44222,237.25454)"
       id="use2789"
       height="1052.3622" />
    <path
       transform="matrix(1.8720847,0,0,1.8720847,-18.20096,-434.13436)"
       style="fill:none;stroke:#000000;stroke-width:10;stroke-linecap:butt;stroke-linejoin:miter;stroke-miterlimit:4;stroke-opacity:1"
       sodipodi:type="arc"
       sodipodi:ry="48.860519"
       sodipodi:rx="48.860519"
       sodipodi:cy="432.95328"
       sodipodi:cx="234.63229"
       id="path2791"
       d="m 283.49281,432.95328 a 48.860519,48.860519 0 1 1 -97.72104,0 48.860519,48.860519 0 1 1 97.72104,0 z" />
    <path
       transform="matrix(1.752187,0,0,1.752187,8.08629,-381.27137)"
       style="fill:#fffc07;fill-opacity:1;fill-rule:evenodd;stroke:#fffc07;stroke-width:1pt;stroke-linecap:butt;stroke-linejoin:miter;stroke-opacity:1"
       sodipodi:type="arc"
       sodipodi:ry="15.268912"
       sodipodi:rx="15.268912"
       sodipodi:cy="432.95328"
       sodipodi:cx="235.14125"
       id="path2790"
       d="m 250.41016,432.95328 a 15.268912,15.268912 0 1 1 -30.53782,0 15.268912,15.268912 0 1 1 30.53782,0 z" />
    <path
       transform="matrix(1.7520073,0,0,1.7520073,9.91213,-406.37528)"
       style="fill:none;stroke:#fffc07;stroke-width:6.01052094;stroke-linecap:butt;stroke-linejoin:miter;stroke-miterlimit:4;stroke-opacity:1"
       sodipodi:type="arc"
       sodipodi:ry="61.075649"
       sodipodi:rx="61.075649"
       sodipodi:cy="358.13562"
       sodipodi:cx="234.12332"
       id="path2797"
       d="m 295.19897,358.13562 a 61.075649,61.075649 0 1 1 -122.1513,0 61.075649,61.075649 0 1 1 122.1513,0 z" />
    <use
       y="0"
       xlink:href="#path2797"
       x="0"
       width="744.09448"
       transform="translate(-128.63116,238.20574)"
       id="use3424"
       height="1052.3622" />
    <use
       y="0"
       xlink:href="#path2797"
       x="0"
       width="744.09448"
       transform="translate(131.48963,236.30015)"
       id="use3425"
       height="1052.3622" />
    <g
       id="text5228"
       style="font-size:121.2428894px;font-style:normal;font-weight:bold;line-height:125%;letter-spacing:0px;word-spacing:0px;fill:#000000;fill-opacity:1;stroke:none;font-family:Sans;-inkscape-font-specification:Sans Bold"
       transform="scale(1.0103574,0.98974877)">
      <path
         id="path3115"
         style=""
         d="m 192.90281,649.94139 c -4.18358,2.17069 -8.54469,3.80857 -13.08334,4.91365 -4.53877,1.10508 -9.27482,1.65761 -14.20815,1.65762 -14.72126,-10e-6 -26.38377,-4.10458 -34.98757,-12.31374 -8.60383,-8.2486 -12.90574,-19.41777 -12.90574,-33.50755 0,-14.12916 4.30191,-25.29833 12.90574,-33.50756 8.6038,-8.24853 20.26631,-12.37284 34.98757,-12.37293 4.93333,9e-5 9.66938,0.55263 14.20815,1.65762 4.53865,1.10516 8.89976,2.74305 13.08334,4.91365 l 0,18.29299 c -4.22305,-2.88102 -8.38682,-4.99251 -12.49133,-6.33446 -4.10464,-1.34181 -8.42628,-2.01275 -12.96494,-2.01282 -8.13026,7e-5 -14.52393,2.60489 -19.181,7.81448 -4.65715,5.20972 -6.9857,12.39272 -6.98568,21.54903 -2e-5,9.11693 2.32853,16.2802 6.98568,21.48983 4.65707,5.20967 11.05074,7.81449 19.181,7.81448 4.53866,10e-6 8.8603,-0.67092 12.96494,-2.01282 4.10451,-1.34186 8.26828,-3.45335 12.49133,-6.33447 l 0,18.293" />
      <path
         id="path3117"
         style=""
         d="m 265.48279,638.69327 -35.63878,0 -5.62406,16.10257 -22.91064,0 32.73794,-88.38654 27.17309,0 32.73795,88.38654 -22.91064,0 -5.56486,-16.10257 m -29.95552,-16.39858 24.21306,0 -12.07693,-35.16517 -12.13613,35.16517" />
      <path
         id="path3119"
         style=""
         d="m 301.83197,566.4093 22.79225,0 0,52.98456 c -4e-5,7.30144 1.18397,12.53082 3.55203,15.68817 2.40746,3.11791 6.31469,4.67686 11.72173,4.67685 5.4464,10e-6 9.35364,-1.55894 11.72172,-4.67685 2.40743,-3.15735 3.61118,-8.38673 3.61124,-15.68817 l 0,-52.98456 22.79224,0 0,52.98456 c -8e-5,12.51109 -3.13771,21.82531 -9.4129,27.9427 -6.27533,6.1174 -15.84609,9.17609 -28.7123,9.1761 -12.82684,-10e-6 -22.37787,-3.0587 -28.65311,-9.1761 -6.27528,-6.11739 -9.41291,-15.43161 -9.4129,-27.9427 l 0,-52.98456" />
      <path
         id="path3121"
         style=""
         d="m 389.80412,566.4093 81.46007,0 0,17.22738 -29.30432,0 0,71.15916 -22.79224,0 0,-71.15916 -29.36351,0 0,-17.22738" />
      <path
         id="path3123"
         style=""
         d="m 482.9859,566.4093 22.79225,0 0,88.38654 -22.79225,0 0,-88.38654" />
      <path
         id="path3125"
         style=""
         d="m 568.59001,581.32786 c -6.94625,7e-5 -12.3335,2.56543 -16.16177,7.69608 -3.82834,5.13078 -5.74249,12.35325 -5.74246,21.66743 -3e-5,9.2748 1.91412,16.47753 5.74246,21.60823 3.82827,5.13074 9.21552,7.69609 16.16177,7.69608 6.98562,10e-6 12.3926,-2.56534 16.22097,-7.69608 3.82824,-5.1307 5.74239,-12.33343 5.74247,-21.60823 -8e-5,-9.31418 -1.91423,-16.53665 -5.74247,-21.66743 -3.82837,-5.13065 -9.23535,-7.69601 -16.22097,-7.69608 m 0,-16.51698 c 14.20809,9e-5 25.33779,4.0652 33.38916,12.19533 8.05119,8.13029 12.07683,19.35866 12.07693,33.68516 -10e-5,14.28711 -4.02574,25.49575 -12.07693,33.62596 -8.05137,8.13022 -19.18107,12.19532 -33.38916,12.19533 -14.16872,-10e-6 -25.29843,-4.06511 -33.38915,-12.19533 -8.0513,-8.13021 -12.07694,-19.33885 -12.07693,-33.62596 -10e-6,-14.3265 4.02563,-25.55487 12.07693,-33.68516 8.09072,-8.13013 19.22043,-12.19524 33.38915,-12.19533" />
      <path
         id="path3127"
         style=""
         d="m 631.22428,566.4093 25.45627,0 32.14594,60.62144 0,-60.62144 21.60823,0 0,88.38654 -25.45627,0 -32.14594,-60.62145 0,60.62145 -21.60823,0 0,-88.38654" />
    </g>
    <g
       id="text5232"
       style="font-size:80.42653656px;font-style:normal;font-weight:bold;line-height:125%;letter-spacing:-5.42309093px;word-spacing:0px;fill:#000000;fill-opacity:1;stroke:none;font-family:Sans;-inkscape-font-specification:Sans Bold"
       transform="scale(0.799311,1.2510775)">
      <path
         id="path3050"
         style=""
         d="m 152.59599,529.01254 15.11925,0 0,21.40257 21.79528,-21.40257 17.55403,0 -28.23568,27.76443 31.14172,30.86683 -18.92851,0 -23.32684,-23.09121 0,23.09121 -15.11925,0 0,-58.63126" />
      <path
         id="path3052"
         style=""
         d="m 209.53489,529.01254 16.88643,0 21.32403,40.21327 0,-40.21327 14.33383,0 0,58.63126 -16.88643,0 -21.32403,-40.21327 0,40.21327 -14.33383,0 0,-58.63126" />
      <path
         id="path3054"
         style=""
         d="m 271.50044,529.01254 15.11924,0 0,35.14734 c -2e-5,4.84341 0.78539,8.31233 2.35625,10.40675 1.59698,2.06827 4.18885,3.1024 7.77561,3.10239 3.61288,10e-6 6.20474,-1.03412 7.77561,-3.10239 1.59697,-2.09442 2.39548,-5.56334 2.39552,-10.40675 l 0,-35.14734 15.11925,0 0,35.14734 c -6e-5,8.29924 -2.08141,14.47783 -6.24406,18.5358 -4.16275,4.05798 -10.51151,6.08697 -19.04632,6.08697 -8.50869,0 -14.84437,-2.02899 -19.00705,-6.08697 -4.16271,-4.05797 -6.24406,-10.23656 -6.24405,-18.5358 l 0,-35.14734" />
      <path
         id="path3056"
         style=""
         d="m 331.42391,529.01254 40.80232,0 0,11.42779 -25.68308,0 0,10.91728 24.15152,0 0,11.42779 -24.15152,0 0,24.8584 -15.11924,0 0,-58.63126" />
      <path
         id="path3058"
         style=""
         d="m 380.97989,529.01254 40.80233,0 0,11.42779 -25.68308,0 0,10.91728 24.15152,0 0,11.42779 -24.15152,0 0,24.8584 -15.11925,0 0,-58.63126" />
      <path
         id="path3060"
         style=""
         d="m 430.53587,529.01254 40.80233,0 0,11.42779 -25.68308,0 0,10.91728 24.15152,0 0,11.42779 -24.15152,0 0,13.4306 26.54704,0 0,11.4278 -41.66629,0 0,-58.63126" />
      <path
         id="path3062"
         style=""
         d="m 480.09187,529.01254 15.11925,0 0,47.20346 26.54704,0 0,11.4278 -41.66629,0 0,-58.63126" />
      <path
         id="path3064"
         style=""
         d="m 525.87785,529.01254 15.11925,0 0,22.34507 22.3058,0 0,-22.34507 15.11924,0 0,58.63126 -15.11924,0 0,-24.8584 -22.3058,0 0,24.8584 -15.11925,0 0,-58.63126" />
      <path
         id="path3066"
         style=""
         d="m 623.42272,576.96215 -23.64101,0 -3.73072,10.68165 -15.19779,0 21.71674,-58.63126 18.02528,0 21.71674,58.63126 -15.19779,0 -3.69145,-10.68165 m -19.87101,-10.878 16.06174,0 -8.01123,-23.32684 -8.05051,23.32684" />
      <path
         id="path3068"
         style=""
         d="m 691.12179,584.4236 c -2.77519,1.43993 -5.66813,2.52642 -8.67884,3.25947 -3.0108,0.73305 -6.15246,1.09958 -9.42498,1.09958 -9.76536,0 -17.5017,-2.72277 -23.20903,-8.16832 -5.70736,-5.47171 -8.56103,-12.88079 -8.56103,-22.22725 0,-9.37259 2.85367,-16.78167 8.56103,-22.22726 5.70733,-5.47167 13.44367,-8.20753 23.20903,-8.20759 3.27252,6e-5 6.41418,0.36659 9.42498,1.09958 3.01071,0.73311 5.90365,1.8196 8.67884,3.25947 l 0,12.13467 c -2.80137,-1.91113 -5.56341,-3.31179 -8.28613,-4.20197 -2.72282,-0.89009 -5.58958,-1.33516 -8.6003,-1.33521 -5.39322,5e-5 -9.63446,1.72796 -12.72373,5.18375 -3.08932,3.45586 -4.63397,8.22071 -4.63395,14.29456 -2e-5,6.04772 1.54463,10.79948 4.63395,14.25528 3.08927,3.45584 7.33051,5.18376 12.72373,5.18375 3.01072,10e-6 5.87748,-0.44506 8.6003,-1.33521 2.72272,-0.89013 5.48476,-2.29078 8.28613,-4.20197 l 0,12.13467" />
      <path
         id="path3070"
         style=""
         d="m 698.26537,529.01254 15.11924,0 0,21.40257 21.79528,-21.40257 17.55403,0 -28.23568,27.76443 31.14172,30.86683 -18.92851,0 -23.32684,-23.09121 0,23.09121 -15.11924,0 0,-58.63126" />
      <path
         id="path3072"
         style=""
         d="m 755.20427,529.01254 40.80233,0 0,11.42779 -25.68308,0 0,10.91728 24.15152,0 0,11.42779 -24.15152,0 0,13.4306 26.54704,0 0,11.4278 -41.66629,0 0,-58.63126" />
      <path
         id="path3074"
         style=""
         d="m 826.24135,555.00979 c 3.16781,3e-5 5.43242,-0.58903 6.79384,-1.76719 1.38753,-1.17808 2.08132,-3.11544 2.08135,-5.81207 -3e-5,-2.67037 -0.69382,-4.58154 -2.08135,-5.73353 -1.36142,-1.1519 -3.62603,-1.72787 -6.79384,-1.72792 l -6.36186,0 0,15.04071 6.36186,0 m -6.36186,10.44602 0,22.18799 -15.11925,0 0,-58.63126 23.09121,0 c 7.72322,6e-5 13.3782,1.29599 16.96497,3.88781 3.61286,2.59192 5.41932,6.68916 5.41937,12.29175 -5e-5,3.87475 -0.94255,7.05568 -2.82749,9.54279 -1.85887,2.48718 -4.67327,4.31982 -8.44322,5.49791 2.06822,0.47128 3.91394,1.54468 5.53718,3.2202 1.64932,1.6494 3.31178,4.16273 4.98739,7.53999 l 8.20759,16.65081 -16.10102,0 -7.14728,-14.56946 c -1.43996,-2.9322 -2.90607,-4.935 -4.39832,-6.00842 -1.46614,-1.07338 -3.42968,-1.61008 -5.89062,-1.61011 l -4.28051,0" />
      <path
         id="path3076"
         style=""
         d="m 902.03022,530.85827 0,12.40956 c -3.22025,-1.43988 -6.36191,-2.52637 -9.42498,-3.25947 -3.06316,-0.73301 -5.9561,-1.09954 -8.67884,-1.09959 -3.61294,5e-5 -6.28335,0.49748 -8.01124,1.49229 -1.72794,0.99491 -2.59189,2.53956 -2.59187,4.63395 -2e-5,1.57088 0.57595,2.80136 1.72791,3.69146 1.1781,0.86399 3.29872,1.61013 6.36187,2.23843 l 6.4404,1.29594 c 6.51891,1.30905 11.15286,3.29877 13.90186,5.96915 2.7489,2.67044 4.12337,6.46661 4.12343,11.38853 -6e-5,6.46659 -1.92432,11.2838 -5.77281,14.45164 -3.82239,3.14166 -9.67373,4.71249 -17.55403,4.71249 -3.71766,0 -7.44838,-0.35344 -11.19217,-1.06031 -3.74383,-0.70687 -7.48764,-1.75409 -11.23144,-3.14166 l 0,-12.763 c 3.7438,1.98973 7.35671,3.49511 10.83873,4.51614 3.50817,0.99487 6.88545,1.4923 10.13186,1.49229 3.29871,10e-6 5.82513,-0.54978 7.57926,-1.64938 1.75406,-1.09956 2.6311,-2.67039 2.63114,-4.71249 -4e-5,-1.83262 -0.60219,-3.24636 -1.80646,-4.24124 -1.17815,-0.99484 -3.54749,-1.88498 -7.108,-2.67041 l -5.85135,-1.29594 c -5.86445,-1.25664 -10.15805,-3.25945 -12.88081,-6.00843 -2.6966,-2.74892 -4.0449,-6.45346 -4.04489,-11.11362 -10e-6,-5.83821 1.88499,-10.32817 5.65499,-13.46988 3.76998,-3.1416 9.18934,-4.71243 16.2581,-4.71249 3.22017,6e-5 6.532,0.24877 9.9355,0.74614 3.40343,0.47131 6.9247,1.19127 10.56384,2.1599" />
    </g>
    <path
       inkscape:connector-curvature="0"
       id="path5309"
       d="m 119.34375,539.34375 300,-420 300,420 z"
       style="fill:none;stroke:#000000;stroke-width:18.72100067;stroke-linecap:butt;stroke-linejoin:round;stroke-miterlimit:4;stroke-opacity:1;stroke-dasharray:none" />
    <path
       sodipodi:open="true"
       sodipodi:end="5.4105207"
       sodipodi:start="4.1887902"
       sodipodi:type="arc"
       style="fill:none;stroke:none"
       id="path5450"
       sodipodi:cx="1.628684"
       sodipodi:cy="4.6384578"
       sodipodi:rx="112.3792"
       sodipodi:ry="109.12183"
       d="M -54.560918,-89.863822 A 112.3792,109.12183 0 0 1 73.864645,-78.953715"
       transform="matrix(1.0576124,0,0,1.1041083,730.32856,443.66636)" />
    <path
       sodipodi:open="true"
       sodipodi:end="5.3232542"
       sodipodi:start="4.1015237"
       sodipodi:type="arc"
       style="fill:none;stroke:none"
       id="path5465"
       sodipodi:cx="1.628684"
       sodipodi:cy="4.6384578"
       sodipodi:rx="112.3792"
       sodipodi:ry="109.12183"
       d="m -62.829383,-84.748913 a 112.3792,109.12183 0 0 1 128.916129,-4e-6"
       transform="matrix(1.0576124,0,0,1.1041083,417.62123,375.26163)" />
    <path
       sodipodi:open="true"
       sodipodi:end="7.4176493"
       sodipodi:start="6.1959188"
       sodipodi:type="arc"
       style="fill:none;stroke:none"
       id="path5467"
       sodipodi:cx="1.628684"
       sodipodi:cy="4.6384578"
       sodipodi:rx="112.3792"
       sodipodi:ry="109.12183"
       d="M 113.58025,-4.8721415 A 112.3792,109.12183 0 0 1 49.12219,103.53642"
       transform="matrix(1.0576124,0,0,1.1041083,415.99255,373.63295)" />
    <path
       sodipodi:open="true"
       sodipodi:end="3.2288591"
       sodipodi:start="1.9198622"
       sodipodi:type="arc"
       style="fill:none;stroke:none"
       id="path5469"
       sodipodi:cx="1.628684"
       sodipodi:cy="4.6384578"
       sodipodi:rx="112.3792"
       sodipodi:ry="109.12183"
       d="M -36.80727,107.17944 A 112.3792,109.12183 0 0 1 -110.32288,-4.8721349"
       transform="matrix(1.0576124,0,0,1.1041083,417.62123,373.63295)" />
    <path
       transform="translate(829.18126,62.200333)"
       sodipodi:open="true"
       sodipodi:end="6.2831853"
       sodipodi:start="3.1415927"
       d="m -743.96817,345.03893 a 331.67621,331.67621 0 0 1 663.352417,1e-5"
       sodipodi:ry="331.67621"
       sodipodi:rx="331.67621"
       sodipodi:cy="345.03894"
       sodipodi:cx="-412.29196"
       id="path5835"
       style="fill:none;stroke:none"
       sodipodi:type="arc" />
    <g
       transform="translate(11.507279,4.6176582)"
       id="g5848">
      <g
         id="text5841"
         style="font-size:80px;font-style:normal;font-weight:bold;text-align:center;line-height:125%;letter-spacing:-2px;word-spacing:0px;text-anchor:middle;fill:#000000;fill-opacity:1;stroke:none;font-family:Sans;-inkscape-font-specification:Sans Bold">
        <path
           inkscape:connector-curvature="0"
           id="path3130"
           style="font-size:80px;letter-spacing:-2px"
           d="m 31.018963,346.36011 11.251866,-52.55909 11.115331,2.37957 -4.047728,18.90753 45.91281,9.82902 -3.148233,14.70585 -45.91281,-9.82902 -4.055905,18.94572 -11.115331,-2.37958" />
        <path
           inkscape:connector-curvature="0"
           id="path3132"
           style="font-size:80px;letter-spacing:-2px"
           d="m 93.096838,262.86436 3.737598,1.38043 -11.327711,30.67029 c 3.195322,0.81928 5.914357,0.5604 8.157116,-0.77665 2.242764,-1.337 3.995716,-3.71553 5.258864,-7.13558 1.019535,-2.76041 1.658555,-5.7308 1.917065,-8.91117 0.24309,-3.21374 0.098,-6.65419 -0.43538,-10.32136 l 10.1135,3.73531 c 0.0267,3.53557 -0.2397,6.96282 -0.79925,10.28177 -0.53515,3.32805 -1.37565,6.54328 -2.52149,9.6457 -2.74284,7.42635 -6.75766,12.50902 -12.044478,15.248 -5.302224,2.70555 -11.361142,2.79969 -18.176774,0.28241 -6.693449,-2.47214 -11.213485,-6.43185 -13.56012,-11.87914 -2.337548,-5.47167 -2.198081,-11.74968 0.4184,-18.83405 2.381962,-6.44914 6.227784,-10.88631 11.537478,-13.31153 5.318758,-2.44954 11.227147,-2.47435 17.725182,-0.0744 m -9.340933,11.87415 c -2.491717,-0.92025 -4.765546,-0.92723 -6.821493,-0.0209 -2.071315,0.87292 -3.540061,2.48194 -4.406241,4.82706 -0.938312,2.54063 -0.980062,4.87101 -0.125252,6.99117 0.83043,2.11121 2.517032,3.85846 5.059813,5.24176 l 6.293173,-17.03905" />
        <path
           inkscape:connector-curvature="0"
           id="path3134"
           style="font-size:80px;letter-spacing:-2px"
           d="m 97.573465,211.4607 9.999855,5.48684 c -2.056,1.04034 -3.82147,2.2549 -5.29642,3.64367 -1.4624,1.36604 -2.688419,2.95085 -3.678069,4.75443 -1.879038,3.42465 -2.340148,6.64703 -1.383334,9.66716 0.946546,2.98483 3.212023,5.4606 6.796433,7.42731 3.58443,1.96677 6.90106,2.55386 9.9499,1.76126 3.03854,-0.8279 5.49734,-2.95417 7.3764,-6.3788 1.05226,-1.91775 1.76278,-3.88938 2.13154,-5.91489 0.38128,-2.04827 0.41344,-4.10992 0.0965,-6.18495 l 10.0341,5.50563 c -0.34453,2.30615 -0.89049,4.5463 -1.63786,6.72044 -0.71205,2.16391 -1.61299,4.23898 -2.70283,6.22522 -3.7957,6.91773 -8.53398,11.35776 -14.21486,13.32011 -5.70371,1.94985 -11.71762,1.18977 -18.04174,-2.28023 -6.324086,-3.46997 -10.184456,-8.12783 -11.581123,-13.97359 -1.419439,-5.85824 -0.23133,-12.24622 3.564332,-19.16397 1.102403,-2.00906 2.368636,-3.8837 3.798702,-5.62393 1.419806,-1.77548 3.015973,-3.43938 4.788504,-4.99171" />
        <path
           inkscape:connector-curvature="0"
           id="path3136"
           style="font-size:80px;letter-spacing:-2px"
           d="m 145.66682,172.02939 21.15635,16.19048 -8.54629,11.16757 -3.44334,-2.63511 -12.68761,-9.70953 c -3.04006,-2.32645 -5.1842,-3.85254 -6.43243,-4.57828 -1.23239,-0.74632 -2.24405,-1.15981 -3.03498,-1.24045 -1.05617,-0.11958 -2.0656,0.0425 -3.0283,0.48626 -0.98335,0.42802 -1.83905,1.11766 -2.56707,2.06893 -1.77256,2.31628 -2.26567,4.82463 -1.47936,7.52506 0.76566,2.68467 2.73055,5.23771 5.89469,7.65913 l 17.0926,13.08058 -8.49882,11.10553 -48.268746,-36.93898 8.498816,-11.10553 18.61263,14.24382 c -0.74475,-3.22609 -0.87268,-6.14413 -0.38381,-8.75414 0.46824,-2.62573 1.5728,-5.07606 3.3137,-7.35099 3.07034,-4.012 6.62733,-6.11038 10.67097,-6.29517 4.05948,-0.20533 8.43647,1.48827 13.131,5.08082" />
        <path
           inkscape:connector-curvature="0"
           id="path3138"
           style="font-size:80px;letter-spacing:-2px"
           d="m 188.21796,130.47885 18.20914,19.44608 -10.2648,9.61187 -2.96366,-3.16498 -10.97354,-11.71897 c -2.58097,-2.75625 -4.42748,-4.59484 -5.53952,-5.51577 -1.09304,-0.93864 -2.02303,-1.51271 -2.78996,-1.72219 -1.02218,-0.29147 -2.04452,-0.29741 -3.06704,-0.0178 -1.04031,0.26066 -1.99767,0.80036 -2.87208,1.6191 -2.12899,1.99362 -3.02748,4.38688 -2.69548,7.1798 0.31422,2.77398 1.833,5.61513 4.55636,8.52345 l 14.71149,15.71084 -10.20777,9.55847 -29.90357,-31.93492 10.20777,-9.55846 4.37873,4.67618 c -0.20464,-3.3046 0.14854,-6.20402 1.05955,-8.69825 0.89323,-2.51314 2.38532,-4.74872 4.47629,-6.70675 3.68773,-3.45309 7.54111,-4.93862 11.56017,-4.4566 4.03806,0.46434 8.07736,2.85399 12.11792,7.16894" />
        <path
           inkscape:connector-curvature="0"
           id="path3140"
           style="font-size:80px;letter-spacing:-2px"
           d="m 213.12876,102.58322 c -2.57438,1.72518 -3.91966,3.97464 -4.03583,6.74839 -0.10903,2.73769 1.00345,5.84801 3.33746,9.33096 2.334,3.48302 4.79501,5.70534 7.38303,6.66699 2.59513,0.92556 5.1799,0.52576 7.7543,-1.1994 2.53109,-1.69612 3.85117,-3.91301 3.96022,-6.65069 0.0945,-2.75926 -1.02521,-5.8804 -3.3592,-9.36342 -2.33402,-3.48295 -4.78778,-5.69446 -7.36128,-6.63454 -2.58803,-0.96162 -5.14759,-0.59438 -7.6787,1.10171 m -5.56682,-8.30725 c 6.25207,-4.189559 12.26117,-5.771206 18.02733,-4.744947 5.78775,1.011877 10.68222,4.503203 14.6834,10.473987 4.00112,5.97088 5.36933,11.82521 4.10463,17.56299 -1.24313,5.72335 -4.99072,10.67982 -11.24276,14.86942 -6.27372,4.20412 -12.31528,5.80751 -18.12468,4.81018 -5.78778,-1.01181 -10.68224,-4.50314 -14.6834,-10.47399 -4.00114,-5.97081 -5.36935,-11.82514 -4.10463,-17.56299 1.28638,-5.75228 5.06641,-10.730489 11.34011,-14.93465" />
        <path
           inkscape:connector-curvature="0"
           id="path3142"
           style="font-size:80px;letter-spacing:-2px"
           d="m 232.39426,60.705647 12.45538,-6.358165 27.63493,54.135668 -12.45538,6.35817 -27.63493,-54.135673" />
        <path
           inkscape:connector-curvature="0"
           id="path3144"
           style="font-size:80px;letter-spacing:-2px"
           d="m 290.2326,63.244476 c -2.90791,1.071319 -4.7445,2.941285 -5.50977,5.609903 -0.74985,2.635253 -0.40009,5.919971 1.0493,9.854164 1.44936,3.934246 3.31867,6.673037 5.60792,8.216383 2.30466,1.509944 4.91095,1.729269 7.81888,0.657974 2.859,-1.053255 4.66344,-2.897499 5.41331,-5.532739 0.74081,-2.659629 0.38655,-5.956565 -1.0628,-9.890818 -1.4494,-3.934186 -3.31421,-6.660759 -5.59443,-8.179729 -2.28926,-1.543322 -4.86339,-1.788368 -7.72241,-0.735138 m -3.4569,-9.383489 c 7.06204,-2.601621 13.27457,-2.725627 18.63762,-0.372017 5.38742,2.344711 9.32347,6.889229 11.80816,13.633566 2.4846,6.744415 2.43755,12.756311 -0.14113,18.035709 -2.55434,5.270436 -7.36251,9.20648 -14.42453,11.808144 -7.0865,2.610683 -13.33569,2.748192 -18.74757,0.412527 -5.38747,-2.344651 -9.32351,-6.889169 -11.80816,-13.633566 -2.48464,-6.744355 -2.4376,-12.756251 0.14113,-18.035709 2.60317,-5.28838 7.44799,-9.237928 14.53448,-11.848654" />
        <path
           inkscape:connector-curvature="0"
           id="path3146"
           style="font-size:80px;letter-spacing:-2px"
           d="m 360.65064,72.692184 c -1.41455,2.868096 -3.14784,5.107709 -5.19988,6.718847 -2.0521,1.611153 -4.57456,2.7023 -7.5674,3.273447 -5.24392,1.000738 -9.9727,-0.231016 -14.18636,-3.695267 -4.21855,-3.489815 -6.93803,-8.432227 -8.15844,-14.827251 -1.22528,-6.420559 -0.5146,-12.00432 2.13206,-16.751299 2.64178,-4.77248 6.58462,-7.659106 11.82854,-8.659888 2.99284,-0.571103 5.73986,-0.485571 8.24106,0.256597 2.50115,0.742263 4.93984,2.198961 7.31607,4.370097 l -1.21553,-6.369428 13.81322,-2.636082 7.37371,38.638639 c 1.31799,6.906615 0.13652,12.593476 -3.54443,17.060599 -3.65057,4.487814 -9.6198,7.522547 -17.90769,9.104207 -2.68593,0.512559 -5.32135,0.803405 -7.90628,0.872538 -2.58497,0.0691 -5.2242,-0.07676 -7.9177,-0.43761 l -2.04296,-10.705244 c 2.66812,0.922445 5.21674,1.496536 7.64588,1.722273 2.43399,0.25131 4.81488,0.154853 7.14269,-0.289372 4.50205,-0.85917 7.61393,-2.473731 9.33564,-4.843686 1.72164,-2.369953 2.18219,-5.652491 1.38163,-9.847623 l -0.56383,-2.954494 M 346.49156,47.676359 c -2.8394,0.5419 -4.85192,2.012941 -6.03757,4.413128 -1.18568,2.400256 -1.4124,5.518868 -0.68014,9.355843 0.75176,3.939347 2.09031,6.785759 4.01566,8.539245 1.92043,1.727939 4.35151,2.311207 7.29323,1.749804 2.86494,-0.546727 4.89025,-2.020209 6.07595,-4.42045 1.18563,-2.400202 1.41479,-5.506023 0.68746,-9.317473 -0.73228,-3.836972 -2.09153,-6.652923 -4.07776,-8.44786 -1.98628,-1.794862 -4.41189,-2.41894 -7.27683,-1.872237" />
        <path
           inkscape:connector-curvature="0"
           id="path3148"
           style="font-size:80px;letter-spacing:-2px"
           d="m 384.50131,33.12786 13.95319,-0.933335 2.91993,43.652451 -13.95319,0.933335 -2.91993,-43.652451 m -1.13669,-16.993276 13.95319,-0.933335 0.76127,11.380818 -13.95319,0.933335 -0.76127,-11.380818" />
        <path
           inkscape:connector-curvature="0"
           id="path3150"
           style="font-size:80px;letter-spacing:-2px"
           d="m 433.44902,56.258481 c -2.91326,-0.141538 -5.1352,0.245871 -6.66583,1.162228 -1.50466,0.917655 -2.30375,2.33888 -2.39726,4.263677 -0.086,1.768758 0.43167,3.188781 1.55289,4.260075 1.14846,1.046564 2.77614,1.621029 4.88305,1.723398 2.62708,0.12766 4.88351,-0.701303 6.7693,-2.486892 1.88699,-1.811581 2.89938,-4.134974 3.03718,-6.970184 l 0.0777,-1.599675 -7.25706,-0.352627 m 21.59794,-4.230196 -1.21144,24.931522 -14.08495,-0.6844 0.31471,-6.476733 c -2.00174,2.562121 -4.20278,4.397562 -6.60315,5.506327 -2.39915,1.082752 -5.27642,1.542608 -8.63181,1.379567 -4.52593,-0.21992 -8.14265,-1.712314 -10.85018,-4.477187 -2.68027,-2.789615 -3.91803,-6.291311 -3.71328,-10.505098 0.24899,-5.124145 2.18736,-8.797414 5.81513,-11.01982 3.65375,-2.221094 9.25223,-3.148388 16.79543,-2.781886 l 8.23247,0.400024 0.0531,-1.092462 c 0.10739,-2.210903 -0.68561,-3.865922 -2.37902,-4.965063 -1.69221,-1.125087 -4.38508,-1.777383 -8.07861,-1.95689 -2.99128,-0.145314 -5.78899,0.01858 -8.39313,0.491668 -2.60417,0.47316 -5.04078,1.25426 -7.30984,2.343301 l 0.51756,-10.651495 c 3.02664,-0.582917 6.05745,-0.983167 9.09243,-1.200752 3.03621,-0.243509 6.06296,-0.29198 9.08026,-0.145411 7.88129,0.383003 13.48885,2.219821 16.8227,5.51046 3.36103,3.265967 4.87157,8.397404 4.53163,15.394328" />
        <path
           inkscape:connector-curvature="0"
           id="path3152"
           style="font-size:80px;letter-spacing:-2px"
           d="m 505.03698,27.183211 14.58371,3.672695 -14.24242,56.554507 -14.58372,-3.672695 14.24243,-56.554507" />
        <path
           inkscape:connector-curvature="0"
           id="path3154"
           style="font-size:80px;letter-spacing:-2px"
           d="m 567.9467,81.47034 -9.69727,24.81302 -13.09778,-5.1188 1.5783,-4.038478 5.84395,-14.9533 c 1.37445,-3.516987 2.23748,-5.975677 2.5891,-7.376077 0.37578,-1.390894 0.49289,-2.477498 0.35131,-3.259815 -0.17763,-1.047977 -0.61296,-1.973024 -1.306,-2.775143 -0.68364,-0.826336 -1.58331,-1.457536 -2.699,-1.893602 -2.71662,-1.061654 -5.26342,-0.840729 -7.64041,0.662776 -2.36757,1.479289 -4.2765,4.074441 -5.7268,7.785463 l -7.8346,20.046881 -13.02501,-5.090356 15.92513,-40.748651 13.02502,5.090356 -2.3319,5.966767 c 2.8936,-1.609157 5.66205,-2.540312 8.30535,-2.793467 2.6527,-0.27735 5.3131,0.105318 7.98121,1.148005 4.70545,1.839001 7.70694,4.675629 9.00448,8.509893 1.32168,3.843783 0.90665,8.518621 -1.24508,14.024528" />
        <path
           inkscape:connector-curvature="0"
           id="path3156"
           style="font-size:80px;letter-spacing:-2px"
           d="m 619.91782,92.492412 -5.71452,9.871518 c -0.99296,-2.0793 -2.16675,-3.872134 -3.52137,-5.378515 -1.33217,-1.493312 -2.88847,-2.755323 -4.66891,-3.786037 -3.38069,-1.957009 -6.59166,-2.491829 -9.63292,-1.604462 -3.00573,0.877908 -5.53276,3.086063 -7.58108,6.62447 -2.04838,3.538424 -2.7113,6.840734 -1.98877,9.906944 0.75806,3.05671 2.82744,5.56358 6.20812,7.52061 1.89314,1.09592 3.84797,1.85143 5.8645,2.2665 2.039,0.42811 4.09937,0.50749 6.18112,0.23816 l -5.73409,9.90532 c -2.29765,-0.39729 -4.5247,-0.99442 -6.68115,-1.79141 -2.14702,-0.76145 -4.20091,-1.70969 -6.16166,-2.84475 -6.82894,-3.95321 -11.15925,-8.79197 -12.99092,-14.51632 -1.81865,-5.74689 -0.92099,-11.741803 2.693,-17.98476 3.61395,-6.242923 8.35904,-9.99556 14.23527,-11.257922 5.88922,-1.284844 12.24831,0.04931 19.07727,4.002478 1.98327,1.148145 3.82841,2.456997 5.53541,3.926559 1.74249,1.460113 3.36939,3.093984 4.8807,4.901617" />
        <path
           inkscape:connector-curvature="0"
           id="path3158"
           style="font-size:80px;letter-spacing:-2px"
           d="m 645.19233,120.54221 c -2.42339,-1.93154 -4.9745,-2.53294 -7.65333,-1.80421 -2.6423,0.72463 -5.27007,2.72626 -7.88331,6.00491 -2.6133,3.27866 -3.9866,6.29683 -4.11989,9.05452 -0.0968,2.75355 1.06656,5.0961 3.48994,7.02766 2.3826,1.89907 4.89504,2.48631 7.53734,1.76171 2.65847,-0.74499 5.29435,-2.75681 7.90767,-6.03546 2.61322,-3.27866 3.97841,-6.28665 4.09554,-9.02397 0.13328,-2.75768 -0.99137,-5.08606 -3.37396,-6.98516 m 6.23291,-7.81991 c 5.88523,4.69093 9.21133,9.93955 9.9783,15.74588 0.7872,5.82257 -1.05911,11.54413 -5.53895,17.1647 -4.47995,5.62053 -9.64564,8.69636 -15.4971,9.22748 -5.83117,0.54731 -11.68939,-1.52448 -17.57465,-6.21537 -5.90567,-4.70715 -9.26232,-9.98012 -10.06994,-15.81891 -0.78728,-5.82258 1.05903,-11.54414 5.53894,-17.1647 4.47988,-5.62054 9.64558,-8.69636 15.49711,-9.22749 5.87183,-0.51484 11.76059,1.5813 17.66629,6.28841" />
        <path
           inkscape:connector-curvature="0"
           id="path3160"
           style="font-size:80px;letter-spacing:-2px"
           d="m 673.65257,185.59889 c -3.18539,0.28319 -5.99971,-0.0327 -8.44296,-0.94766 -2.44329,-0.915 -4.68702,-2.50217 -6.73117,-4.76153 -3.58169,-3.95876 -4.98859,-8.63842 -4.22072,-14.039 0.78717,-5.41806 3.59462,-10.31103 8.42237,-14.67894 4.84702,-4.38535 9.98601,-6.68193 15.41698,-6.88974 5.45021,-0.22524 9.96617,1.6415 13.54789,5.60022 2.04412,2.25939 3.39954,4.65026 4.06626,7.17262 0.66662,2.52237 0.69051,5.3629 0.0717,8.52159 l 4.80842,-4.35042 9.43466,10.4279 -29.16916,26.39083 c -5.21398,4.71729 -10.68585,6.66535 -16.41562,5.84419 -5.73165,-0.78446 -11.42785,-4.30504 -17.08864,-10.56174 -1.83452,-2.02768 -3.45339,-4.12751 -4.85664,-6.2995 -1.40323,-2.17204 -2.65107,-4.50222 -3.7435,-6.99054 l 8.08163,-7.31186 c 0.59953,2.75868 1.43448,5.23415 2.50484,7.42641 1.05105,2.20969 2.37153,4.1932 3.96145,5.95051 3.07498,3.3987 6.07229,5.21715 8.99192,5.45537 2.91959,0.23815 5.96288,-1.07543 9.1299,-3.94074 l 2.23041,-2.01797 m 14.00464,-25.10261 c -1.93939,-2.14351 -4.24243,-3.09757 -6.90912,-2.86218 -2.66677,0.2354 -5.44846,1.66346 -8.34506,4.28419 -2.97391,2.69063 -4.70914,5.31413 -5.2057,7.87051 -0.47729,2.53891 0.28869,4.91874 2.29795,7.13951 1.95679,2.16281 4.26856,3.12652 6.93533,2.89114 2.6667,-0.2354 5.43873,-1.65473 8.31609,-4.25798 2.8966,-2.62075 4.59505,-5.24609 5.09535,-7.87603 0.50021,-2.62995 -0.22807,-5.02634 -2.18484,-7.18916" />
        <path
           inkscape:connector-curvature="0"
           id="path3162"
           style="font-size:80px;letter-spacing:-2px"
           d="m 730.78432,232.89579 -22.43377,14.36832 -7.58445,-11.84188 3.65124,-2.33853 13.51948,-8.65892 c 3.17972,-2.03658 5.3235,-3.51786 6.43134,-4.44384 1.1218,-0.90408 1.85545,-1.71414 2.20093,-2.43017 0.47253,-0.95211 0.66434,-1.95632 0.57541,-3.01263 -0.0671,-1.07037 -0.42365,-2.10993 -1.06969,-3.11867 -1.57311,-2.4561 -3.76302,-3.77492 -6.56973,-3.95646 -2.78487,-0.19559 -5.85488,0.78108 -9.21004,2.93001 l -18.12465,11.60842 -7.54231,-11.77609 36.84139,-23.59606 7.54231,11.77609 -5.39463,3.45514 c 3.2867,0.39984 6.07351,1.27451 8.36043,2.624 2.30875,1.33545 4.23564,3.20929 5.78067,5.62152 2.72473,4.2543 3.48458,8.31361 2.27957,12.17795 -1.19108,3.88624 -4.27558,7.4235 -9.2535,10.6118" />
        <path
           inkscape:connector-curvature="0"
           id="path3164"
           style="font-size:80px;letter-spacing:-2px"
           d="m 752.37675,238.42961 6.05852,12.60385 -39.43103,18.95405 -6.05853,-12.60384 39.43104,-18.95406 m 15.34993,-7.37854 6.05853,12.60385 -10.28023,4.94159 -6.05853,-12.60384 10.28023,-4.9416" />
        <path
           inkscape:connector-curvature="0"
           id="path3166"
           style="font-size:80px;letter-spacing:-2px"
           d="m 781.72383,275.32962 -11.65001,4.31047 5.00177,13.51841 -9.37862,3.47007 -5.00178,-13.51841 -17.40175,6.4386 c -1.90505,0.70484 -3.05943,1.56235 -3.46313,2.57252 -0.37932,1.0011 -0.15328,2.62514 0.6781,4.87212 l 2.49411,6.74089 -9.37862,3.47006 -4.16137,-11.24702 c -1.91577,-5.1778 -2.20115,-9.25115 -0.85614,-12.22005 1.37846,-2.95354 4.65658,-5.38818 9.83438,-7.30394 l 17.40175,-6.4386 -2.41278,-6.52108 9.37862,-3.47007 2.41278,6.52108 11.65002,-4.31047 4.85267,13.11542" />
        <path
           inkscape:connector-curvature="0"
           id="path3168"
           style="font-size:80px;letter-spacing:-2px"
           d="m 759.61777,329.48996 c -0.63723,-2.84623 -1.60082,-4.88549 -2.89077,-6.1178 -1.2843,-1.20692 -2.8667,-1.59987 -4.74722,-1.17885 -1.72807,0.38686 -2.95963,1.26303 -3.69469,2.62849 -0.70398,1.38516 -0.82555,3.10695 -0.3647,5.16539 0.57461,2.56665 1.97306,4.5219 4.19534,5.86577 2.24767,1.33811 4.75649,1.69712 7.52649,1.07701 l 1.56287,-0.34989 -1.58732,-7.09012 m 9.81415,19.69895 -24.35797,5.45322 -3.08078,-13.76092 6.32774,-1.41664 c -3.00173,-1.24943 -5.3558,-2.88399 -7.06223,-4.90369 -1.68102,-2.02545 -2.88849,-4.67727 -3.62241,-7.95548 -0.98995,-4.4218 -0.51165,-8.30499 1.43488,-11.64958 1.97763,-3.32487 5.02487,-5.44814 9.14172,-6.36981 5.00626,-1.1208 9.06241,-0.22756 12.16845,2.67972 3.11168,2.93269 5.49248,8.08386 7.14242,15.45352 l 1.80068,8.04309 1.06732,-0.23896 c 2.16004,-0.48362 3.54502,-1.68768 4.15497,-3.61218 0.63528,-1.93024 0.54899,-4.69964 -0.25885,-8.30821 -0.65431,-2.92246 -1.55532,-5.57617 -2.70301,-7.96116 -1.14777,-2.38499 -2.54792,-4.52667 -4.20046,-6.42503 l 10.40645,-2.32978 c 1.36579,2.76315 2.55657,5.57882 3.57235,8.44704 1.04111,2.86251 1.89166,5.7677 2.55167,8.71557 1.72382,7.69999 1.44218,13.594 -0.84491,17.68203 -2.25608,4.1077 -6.80209,6.92678 -13.63803,8.45725" />
      </g>
    </g>
  </g>
</svg>
