<?xml version="1.0" encoding="UTF-8" standalone="no"?>
<!-- Created with Inkscape (http://www.inkscape.org/) -->

<svg
   xmlns:dc="http://purl.org/dc/elements/1.1/"
   xmlns:cc="http://creativecommons.org/ns#"
   xmlns:rdf="http://www.w3.org/1999/02/22-rdf-syntax-ns#"
   xmlns:svg="http://www.w3.org/2000/svg"
   xmlns="http://www.w3.org/2000/svg"
   xmlns:xlink="http://www.w3.org/1999/xlink"
   xmlns:sodipodi="http://sodipodi.sourceforge.net/DTD/sodipodi-0.dtd"
   xmlns:inkscape="http://www.inkscape.org/namespaces/inkscape"
   width="177.16534"
   height="177.16534"
   id="svg2"
   version="1.1"
   inkscape:version="0.48.1 r9760"
   sodipodi:docname="techinc_studysmd19.svg">
  <defs
     id="defs4">
    <linearGradient
       id="linearGradient3834">
      <stop
         id="stop3836"
         offset="0"
         style="stop-color:#000000;stop-opacity:1;" />
      <stop
         id="stop3838"
         offset="1"
         style="stop-color:#1a1200;stop-opacity:1;" />
    </linearGradient>
    <linearGradient
       id="linearGradient3803">
      <stop
         style="stop-color:#dfded4;stop-opacity:1;"
         offset="0"
         id="stop3805" />
      <stop
         style="stop-color:#b4aaa3;stop-opacity:1;"
         offset="1"
         id="stop3807" />
    </linearGradient>
    <clipPath
       clipPathUnits="userSpaceOnUse"
       id="clipPath4403">
      <path
         inkscape:connector-curvature="0"
         d="m 180,180 5580,0 0,7740 -5580,0 0,-7740 z"
         id="path4405" />
    </clipPath>
    <clipPath
       clipPathUnits="userSpaceOnUse"
       id="clipPath6692">
      <path
         inkscape:connector-curvature="0"
         d="m 180,180 5580,0 0,7740 -5580,0 0,-7740 z"
         id="path6694" />
    </clipPath>
    <clipPath
       clipPathUnits="userSpaceOnUse"
       id="clipPath3654">
      <path
         inkscape:connector-curvature="0"
         d="m 180,180 5580,0 0,7740 -5580,0 0,-7740 z"
         id="path3656-2" />
    </clipPath>
    <clipPath
       clipPathUnits="userSpaceOnUse"
       id="clipPath3654-7">
      <path
         inkscape:connector-curvature="0"
         d="m 180,180 5580,0 0,7740 -5580,0 0,-7740 z"
         id="path3656-7" />
    </clipPath>
    <radialGradient
       inkscape:collect="always"
       xlink:href="#linearGradient3803"
       id="radialGradient3809"
       cx="325.7341"
       cy="1205.9625"
       fx="325.7341"
       fy="1205.9625"
       r="84.539986"
       gradientTransform="matrix(1,0,0,0.99998156,0,0.02267732)"
       gradientUnits="userSpaceOnUse" />
    <radialGradient
       inkscape:collect="always"
       xlink:href="#linearGradient3803"
       id="radialGradient3821"
       gradientUnits="userSpaceOnUse"
       gradientTransform="matrix(1,0,0,0.99998156,0,-219.97732)"
       cx="325.7341"
       cy="1205.9625"
       fx="325.7341"
       fy="1205.9625"
       r="84.539986" />
    <radialGradient
       inkscape:collect="always"
       xlink:href="#linearGradient3834"
       id="radialGradient3902"
       cx="341.06003"
       cy="583.35675"
       fx="341.06003"
       fy="583.35675"
       r="84.539986"
       gradientTransform="matrix(1,0,0,1.000012,140,319.99261)"
       gradientUnits="userSpaceOnUse" />
    <radialGradient
       inkscape:collect="always"
       xlink:href="#linearGradient3834"
       id="radialGradient5590"
       gradientUnits="userSpaceOnUse"
       gradientTransform="matrix(1,0,0,0.99998156,-101.6741,-1596.2545)"
       cx="325.7341"
       cy="1205.9625"
       fx="325.7341"
       fy="1205.9625"
       r="84.539986" />
    <radialGradient
       inkscape:collect="always"
       xlink:href="#linearGradient3834"
       id="radialGradient5592"
       gradientUnits="userSpaceOnUse"
       gradientTransform="matrix(1,0,0,0.99998156,-101.6741,-1596.2545)"
       cx="325.7341"
       cy="1205.9625"
       fx="325.7341"
       fy="1205.9625"
       r="84.539986" />
    <radialGradient
       inkscape:collect="always"
       xlink:href="#linearGradient3834"
       id="radialGradient6783"
       gradientUnits="userSpaceOnUse"
       gradientTransform="matrix(1,0,0,0.99998156,-77.548734,-716.2545)"
       cx="325.7341"
       cy="1205.9625"
       fx="325.7341"
       fy="1205.9625"
       r="84.539986" />
    <radialGradient
       inkscape:collect="always"
       xlink:href="#linearGradient3834"
       id="radialGradient7069"
       gradientUnits="userSpaceOnUse"
       gradientTransform="matrix(1,0,0,0.99998156,-77.548734,-716.2545)"
       cx="325.7341"
       cy="1205.9625"
       fx="325.7341"
       fy="1205.9625"
       r="84.539986" />
    <radialGradient
       inkscape:collect="always"
       xlink:href="#linearGradient3834"
       id="radialGradient4186"
       gradientUnits="userSpaceOnUse"
       gradientTransform="matrix(2.7746509,0,0,2.7746015,-555.28812,-2853.576)"
       cx="330.28345"
       cy="1203.7321"
       fx="330.28345"
       fy="1203.7321"
       r="84.539986" />
    <radialGradient
       inkscape:collect="always"
       xlink:href="#linearGradient3834"
       id="radialGradient3047"
       gradientUnits="userSpaceOnUse"
       gradientTransform="matrix(2.7746509,0,0,2.7746015,-537.74397,-2853.576)"
       cx="330.28345"
       cy="1203.7321"
       fx="330.28345"
       fy="1203.7321"
       r="84.539986" />
  </defs>
  <sodipodi:namedview
     id="base"
     pagecolor="#ffffff"
     bordercolor="#666666"
     borderopacity="1.0"
     inkscape:pageopacity="0.0"
     inkscape:pageshadow="2"
     inkscape:zoom="2"
     inkscape:cx="130.36976"
     inkscape:cy="73.230615"
     inkscape:document-units="px"
     inkscape:current-layer="g7652"
     showgrid="false"
     inkscape:window-width="1280"
     inkscape:window-height="742"
     inkscape:window-x="0"
     inkscape:window-y="26"
     inkscape:window-maximized="1"
     showguides="true"
     inkscape:guide-bbox="true"
     units="mm" />
  <metadata
     id="metadata7">
    <rdf:RDF>
      <cc:Work
         rdf:about="">
        <dc:format>image/svg+xml</dc:format>
        <dc:type
           rdf:resource="http://purl.org/dc/dcmitype/StillImage" />
        <dc:title></dc:title>
      </cc:Work>
    </rdf:RDF>
  </metadata>
  <g
     inkscape:groupmode="layer"
     id="layer2"
     inkscape:label="Layer"
     transform="translate(0,-875.19682)" />
  <g
     inkscape:label="Layer 1"
     inkscape:groupmode="layer"
     id="layer1"
     transform="translate(0,-875.19682)">
    <g
       id="g7656"
       transform="matrix(0.96984659,0,0,0.96984659,7.9063718,-17.837351)">
      <g
         transform="matrix(0.24017312,0,0,0.24017312,120.54554,1013.4162)"
         id="g7652">
        <g
           id="g44110"
           transform="translate(-291.93185,-686.89847)">
          <path
             inkscape:connector-curvature="0"
             d="m 89.420228,318.6589 c -0.0607,0.0271 -0.11937,0.0546 -0.17578,0.0879 -0.0304,-7e-4 -0.0584,-7e-4 -0.0877,0 -0.12023,0.0124 -0.23841,0.0446 -0.35161,0.0878 -0.0303,0.027 -0.0598,0.0575 -0.0879,0.088 -0.0606,0.027 -0.11937,0.0544 -0.17556,0.0878 -0.0984,0.0762 -0.18737,0.16528 -0.26362,0.26371 l -0.0876,0.088 c -0.0334,0.0565 -0.0624,0.11558 -0.0879,0.17585 l -0.0878,0.0878 -9.757374,9.76135 c -0.129179,0.0698 -0.248504,0.15904 -0.351605,0.26371 l -0.0879,0.0878 c -0.0627,0.0535 -0.122435,0.11245 -0.175752,0.17586 -7.2e-4,0.0304 -7.2e-4,0.0585 0,0.0879 -0.06322,0.0536 -0.122421,0.11245 -0.175569,0.17586 -7.39e-4,0.0305 -7.39e-4,0.0584 0,0.0877 -0.04386,0.11326 -0.07333,0.2318 -0.08781,0.35181 -0.0016,0.0588 -0.0016,0.11749 0,0.1756 -0.01244,0.0878 -0.01244,0.17586 0,0.26369 l 0,4.74878 c -0.03038,0.17408 -0.03038,0.35366 0,0.52765 l 0,15.56542 c 0,0.78276 0.711898,1.49499 1.494402,1.49499 0.782442,0 1.49435,-0.71223 1.49435,-1.49499 l 0,-14.33426 18.108369,0 0,14.33426 c 0,0.78276 0.71194,1.49499 1.49433,1.49499 0.782461,0 1.494401,-0.71223 1.494401,-1.49499 l 0,-15.38954 c 0.0876,-0.28419 0.0876,-0.59516 0,-0.87941 l 0,-4.48493 c 0.0124,-0.11676 0.0124,-0.23514 0,-0.35178 1.8e-4,-0.39118 -0.16197,-0.77997 -0.43952,-1.0553 l -0.35161,-0.26399 c -0.0269,-0.0303 -0.0576,-0.0598 -0.0877,-0.0878 l -9.757392,-9.76131 -0.0876,-0.17585 c -0.027,-0.0304 -0.0574,-0.06 -0.0878,-0.0879 l -0.0892,-0.17443 c -0.0304,-7.5e-4 -0.0584,-7.5e-4 -0.0877,0 -0.0269,-0.0607 -0.0545,-0.11944 -0.0876,-0.17607 -0.0848,-0.0371 -0.17319,-0.0667 -0.26361,-0.0878 -0.0564,-0.0334 -0.11557,-0.0624 -0.17618,-0.0879 -0.027,-0.0304 -0.0576,-0.0598 -0.0877,-0.0881 -0.0584,-0.002 -0.11717,-0.002 -0.17596,0 -0.0303,-7.2e-4 -0.0582,-7.2e-4 -0.0877,0 -0.0304,-7.2e-4 -0.0586,-7.2e-4 -0.0877,0 -0.0268,-0.0304 -0.0573,-0.0598 -0.0878,-0.0878 z m 0,3.60557 9.054151,9.14573 0,3.16585 -18.10832,0 0,-3.16585 z"
             style="font-size:medium;font-style:normal;font-variant:normal;font-weight:normal;font-stretch:normal;text-indent:0;text-align:start;text-decoration:none;line-height:normal;letter-spacing:normal;word-spacing:normal;text-transform:none;direction:ltr;block-progression:tb;writing-mode:lr-tb;text-anchor:start;baseline-shift:baseline;color:#000000;fill:#040300;fill-opacity:1;fill-rule:nonzero;stroke:#000000;stroke-width:2.56817627;stroke-miterlimit:4;stroke-opacity:1;stroke-dasharray:none;marker:none;visibility:visible;display:inline;overflow:visible;enable-background:accumulate;font-family:Sans;-inkscape-font-specification:Sans"
             id="path44093" />
          <path
             inkscape:connector-curvature="0"
             id="path44091"
             d="m 62.87305,318.6589 c -0.06058,0.0271 -0.119359,0.0546 -0.175782,0.0879 l -0.263615,0 -4.834726,0 c -0.862125,-0.18604 -1.796489,0.56874 -1.796489,1.45104 0,0.88229 0.934364,1.63696 1.796489,1.45102 l 3.779904,0 0,28.75643 -3.779904,0 c -0.782466,0 -1.494392,0.71224 -1.494392,1.49498 0,0.78275 0.711926,1.49499 1.494392,1.49499 l 5.010518,0 0.61537,0 4.922663,0 c 0.782454,0 1.494362,-0.71224 1.494362,-1.49499 0,-0.78274 -0.711908,-1.49498 -1.494362,-1.49498 l -3.779916,0 0,-28.75643 3.779916,0 c 0.862106,0.18623 1.796468,-0.56873 1.796468,-1.45102 0,-0.8823 -0.934362,-1.63701 -1.796468,-1.45104 l -4.834777,0 -0.175791,0 c -0.08467,-0.0371 -0.173159,-0.0667 -0.263899,-0.0879 z"
             style="font-size:medium;font-style:normal;font-variant:normal;font-weight:normal;font-stretch:normal;text-indent:0;text-align:start;text-decoration:none;line-height:normal;letter-spacing:normal;word-spacing:normal;text-transform:none;direction:ltr;block-progression:tb;writing-mode:lr-tb;text-anchor:start;baseline-shift:baseline;color:#000000;fill:#040300;fill-opacity:1;fill-rule:nonzero;stroke:#000000;stroke-width:2.56817627;stroke-miterlimit:4;stroke-opacity:1;stroke-dasharray:none;marker:none;visibility:visible;display:inline;overflow:visible;enable-background:accumulate;font-family:Sans;-inkscape-font-specification:Sans" />
          <path
             inkscape:connector-curvature="0"
             id="path44089"
             d="m 30.963715,318.6589 c -0.03019,0.0271 -0.05997,0.0573 -0.0879,0.0879 -0.08709,-0.0123 -0.17578,-0.0123 -0.263587,0 -0.03028,-7e-4 -0.05804,-7e-4 -0.08772,0 -0.124155,0.0428 -0.243116,0.10177 -0.351622,0.17589 -0.136007,0.0963 -0.25521,0.21572 -0.351595,0.35169 l -0.08763,0.0878 c -0.0016,0.0588 -0.0016,0.11751 0,0.17602 l -0.08791,0.0878 -4.395195,4.39701 -0.439592,0.35179 c -0.03038,0.027 -0.05984,0.0573 -0.08763,0.0879 -0.03039,-7.2e-4 -0.05843,-7.2e-4 -0.08772,0 -0.03331,0.0564 -0.0625,0.11523 -0.08791,0.17624 -0.03353,0.0564 -0.06238,0.11522 -0.08763,0.17582 -0.03039,0.027 -0.05997,0.0575 -0.08763,0.0879 -0.03342,0.0565 -0.06248,0.11524 -0.08781,0.17563 -0.0235,0.14541 -0.0235,0.29425 0,0.43973 l 0,0.26372 c -0.0016,0.0581 -0.0016,0.11726 0,0.17582 l 0,20.22622 c -0.01244,0.11689 -0.01244,0.23482 0,0.35177 l 0,0.0879 c -0.0016,0.17945 0.02673,0.35903 0.08781,0.52765 0.04246,0.12428 0.101826,0.24289 0.175801,0.35183 0.02673,0.0304 0.05754,0.0598 0.08762,0.0879 0.02695,0.0304 0.05754,0.0601 0.08791,0.0878 l 0.439499,0.35176 4.483182,4.48498 0.08772,0.0879 c 0.02696,0.0608 0.0544,0.11954 0.08762,0.17564 l 0.174942,0.17743 c 0.122434,0.14385 0.272661,0.26405 0.439529,0.35174 0.03039,7.4e-4 0.05843,7.4e-4 0.08772,0 0.113237,0.0433 0.231691,0.0727 0.351636,0.0878 0.03038,7.4e-4 0.05864,7.4e-4 0.0879,0 0.03039,7.4e-4 0.05844,7.4e-4 0.08763,0 l 0.263587,0 10.021148,0 0.263604,0 c 0.05864,0.002 0.117294,0.002 0.175571,0 0.03038,-0.027 0.05985,-0.0575 0.08781,-0.0878 0.03039,7.4e-4 0.05864,7.4e-4 0.08763,0 0.03039,7.4e-4 0.05864,7.4e-4 0.08781,0 0.06037,-0.027 0.119484,-0.0547 0.176156,-0.0879 0.06026,-0.027 0.11936,-0.0548 0.17575,-0.0878 0.03039,7.3e-4 0.05824,7.3e-4 0.08781,0 0.09835,-0.0762 0.187358,-0.16526 0.263616,-0.26369 l 0.08763,-0.17585 c 0.03039,-0.027 0.05985,-0.0575 0.08781,-0.0881 l 4.57103,-4.57284 c 0.460718,-0.19924 0.804866,-0.64675 0.879089,-1.14326 0.0016,-0.0579 0.0016,-0.11724 0,-0.17582 7.28e-4,-0.0304 7.28e-4,-0.0581 0,-0.0881 0.01244,-0.11679 0.01244,-0.23513 0,-0.35177 l 0,-9.93724 c 0.01244,-0.0871 0.01244,-0.17584 0,-0.26372 0.0016,-0.0585 0.0016,-0.11725 0,-0.17581 -0.02696,-0.0607 -0.05439,-0.11956 -0.08762,-0.17587 7.4e-4,-0.0304 7.4e-4,-0.0581 0,-0.0879 -0.02673,-0.0608 -0.05439,-0.11942 -0.08772,-0.17583 -0.05134,-0.19121 -0.141585,-0.37164 -0.263597,-0.52762 -0.02696,-0.0304 -0.05753,-0.0598 -0.08772,-0.0879 -0.03038,-7.2e-4 -0.05864,-7.2e-4 -0.0879,0 -0.02696,-0.0304 -0.05754,-0.0598 -0.08762,-0.0878 -0.0304,-7.3e-4 -0.05864,-7.3e-4 -0.08763,0 -0.08124,-0.0682 -0.169967,-0.12683 -0.263597,-0.17584 -0.03038,-7e-4 -0.05864,-7e-4 -0.08763,0 -0.08762,-0.0124 -0.175752,-0.0124 -0.263576,0 -0.03038,-7e-4 -0.05864,-7e-4 -0.08763,0 l -0.439581,0 -10.108982,0 c -0.782452,0 -1.49439,0.71225 -1.49439,1.49498 0,0.78279 0.711938,1.49496 1.49439,1.49496 l 9.054141,0 0,8.44233 -4.395186,4.39697 -9.317921,0 -4.395227,-4.39697 0,-19.87451 4.395227,-4.48501 9.317921,0 4.834746,4.92469 c 1.104572,1.1053 3.214539,-1.00553 2.109693,-2.11056 l -4.922662,-4.83672 -0.08772,-0.17566 c -0.02673,-0.0304 -0.05742,-0.06 -0.08781,-0.0878 l -0.175771,-0.17743 c 7.28e-4,-0.0303 7.28e-4,-0.0581 0,-0.0881 -0.02664,-0.0305 -0.05754,-0.0598 -0.08781,-0.0878 -0.03039,-7.4e-4 -0.05864,-7.4e-4 -0.08771,0 -0.05641,-0.0335 -0.115209,-0.0624 -0.17574,-0.0879 -0.05652,-0.0335 -0.115569,-0.0624 -0.175783,-0.0879 -0.05642,-0.0336 -0.115209,-0.0625 -0.175569,-0.088 -0.03038,-7.4e-4 -0.05864,-7.4e-4 -0.08781,0 -0.05845,-0.002 -0.117279,-0.002 -0.175762,0 -0.03039,-7.4e-4 -0.05804,-7.4e-4 -0.08763,0 -0.05844,-0.002 -0.117173,-0.002 -0.175782,0 l -0.263556,0 -9.757408,0 -0.263597,0 c -0.03039,-7.4e-4 -0.05864,-7.4e-4 -0.08763,0 -0.02673,-0.0304 -0.05752,-0.06 -0.08762,-0.0877 z"
             style="font-size:medium;font-style:normal;font-variant:normal;font-weight:normal;font-stretch:normal;text-indent:0;text-align:start;text-decoration:none;line-height:normal;letter-spacing:normal;word-spacing:normal;text-transform:none;direction:ltr;block-progression:tb;writing-mode:lr-tb;text-anchor:start;baseline-shift:baseline;color:#000000;fill:#040300;fill-opacity:1;fill-rule:nonzero;stroke:#000000;stroke-width:2.56817627;stroke-miterlimit:4;stroke-opacity:1;stroke-dasharray:none;marker:none;visibility:visible;display:inline;overflow:visible;enable-background:accumulate;font-family:Sans;-inkscape-font-specification:Sans" />
          <path
             inkscape:connector-curvature="0"
             d="m -0.85773741,318.6589 c -0.06037,0.0271 -0.119482,0.0546 -0.17576999,0.0879 -0.03038,-7e-4 -0.05843,-7e-4 -0.08781,0 -0.05803,-0.002 -0.11717,-0.002 -0.175973,0 -0.03039,0.027 -0.05997,0.0573 -0.08771,0.0878 -0.03039,-6.9e-4 -0.05824,-6.9e-4 -0.08781,0 -0.06056,0.027 -0.119481,0.0545 -0.175579,0.088 -0.06321,0.0536 -0.122421,0.11243 -0.175749,0.17583 -0.0304,0.0271 -0.05985,0.0575 -0.08762,0.0878 -0.03039,0.027 -0.05945,0.0575 -0.08781,0.0879 l -0.08762,0.0879 c -0.03333,0.0566 -0.06249,0.11558 -0.08761,0.17584 l -0.08771,0.0879 -4.484267,4.48593 c -0.206957,0.1029 -0.389038,0.25465 -0.527446,0.43974 -0.03038,0.027 -0.05986,0.0576 -0.08771,0.0878 -0.06796,0.0813 -0.126982,0.17005 -0.175579,0.26368 -0.03717,0.0848 -0.06685,0.17325 -0.08782,0.26374 -7.29e-4,0.0304 -7.29e-4,0.0584 0,0.0878 -0.03038,0.17407 -0.03038,0.35372 0,0.5277 l 0,20.57796 c -0.0235,0.14543 -0.0235,0.29429 0,0.43974 0.02694,0.0304 0.05753,0.06 0.08782,0.0881 -0.002,0.0584 -0.002,0.11748 0,0.17584 -7.19e-4,0.0304 -7.19e-4,0.0583 0,0.0879 0.02694,0.0605 0.05439,0.11942 0.08761,0.17561 0.02674,0.0304 0.05753,0.06 0.08761,0.0881 0.02694,0.0605 0.05439,0.11929 0.08771,0.17582 0.122435,0.14363 0.272298,0.26402 0.439531,0.35173 l 4.57104,4.57289 0.08761,0.0878 c 0.02694,0.0605 0.05438,0.1194 0.08761,0.17602 l 0.175762,0.17586 c 0.209803,0.22371 0.490538,0.37961 0.7911328,0.43968 0.08781,0.0123 0.17577299,0.0123 0.26358699,0 0.05864,0.002 0.117293,0.002 0.17557,0 l 0.175761,0 9.93320871,0 0.263577,0 c 0.03038,7.5e-4 0.05843,7.5e-4 0.08763,0 0.09025,-0.02 0.178544,-0.0505 0.2635549,-0.0877 0.03038,7.3e-4 0.05843,7.3e-4 0.0879,0 0.06047,-0.027 0.119368,-0.0547 0.175974,-0.088 0.09026,-0.0199 0.178749,-0.0501 0.263586,-0.0878 0.063,-0.0537 0.122434,-0.11256 0.175772,-0.17582 l 0.263574,-0.2637 c 7.41e-4,-0.0304 7.41e-4,-0.0587 0,-0.0879 l 4.571061,-4.57286 c 0.06057,-0.0271 0.119261,-0.0546 0.175569,-0.0878 l 0.263596,-0.26375 c 0.0635,-0.0536 0.122435,-0.11243 0.175983,-0.17581 7.1e-4,-0.0304 7.1e-4,-0.0583 0,-0.0879 0.0304,-0.027 0.05984,-0.0573 0.08781,-0.0878 0.08144,-0.13604 0.141173,-0.28525 0.175752,-0.4397 0.05621,-0.22978 0.05621,-0.47353 0,-0.70352 l 0,-20.31421 c 0.01244,-0.11678 0.01244,-0.23481 0,-0.35175 7.41e-4,-0.0303 7.41e-4,-0.0588 0,-0.0879 7.41e-4,-0.0306 7.41e-4,-0.0585 0,-0.0879 -0.01397,-0.1203 -0.04446,-0.2385 -0.08791,-0.35173 -0.01995,-0.0904 -0.05024,-0.17885 -0.08763,-0.26371 -0.02682,-0.0304 -0.05732,-0.0598 -0.0879,-0.0878 -0.05347,-0.0637 -0.112507,-0.12238 -0.17575,-0.17605 l -0.439529,-0.35171 -4.395238,-4.39706 c -0.02673,-0.0304 -0.05732,-0.0598 -0.08771,-0.0879 l -0.08763,-0.17583 c -0.02673,-0.0304 -0.05754,-0.06 -0.08763,-0.0878 l -0.174586,-0.1768 c 7.4e-4,-0.0304 7.4e-4,-0.0585 0,-0.0878 -0.108289,-0.0739 -0.227367,-0.13306 -0.351575,-0.17584 -0.05652,-0.0336 -0.115196,-0.0625 -0.175781,-0.0881 -0.113249,-0.0435 -0.2313569,-0.0726 -0.3516019,-0.0878 -0.05834,-0.002 -0.117173,-0.002 -0.176157,0 -0.05824,-0.002 -0.117172,-0.002 -0.175791,0 l -0.263606,0 -9.66948371,0 -0.351623,0 c -0.03018,-7.3e-4 -0.05824,-7.3e-4 -0.08772,0 7.29e-4,-0.0304 7.29e-4,-0.0583 0,-0.0879 z m 0.615343,2.98995 9.31784871,0 4.3952447,4.48494 0,19.87449 -4.3952447,4.39703 -9.31784871,0 -4.39521689,-4.39703 0,-19.87449 z"
             style="font-size:medium;font-style:normal;font-variant:normal;font-weight:normal;font-stretch:normal;text-indent:0;text-align:start;text-decoration:none;line-height:normal;letter-spacing:normal;word-spacing:normal;text-transform:none;direction:ltr;block-progression:tb;writing-mode:lr-tb;text-anchor:start;baseline-shift:baseline;color:#000000;fill:#040300;fill-opacity:1;fill-rule:nonzero;stroke:#000000;stroke-width:2.56817627;stroke-miterlimit:4;stroke-opacity:1;stroke-dasharray:none;marker:none;visibility:visible;display:inline;overflow:visible;enable-background:accumulate;font-family:Sans;-inkscape-font-specification:Sans"
             id="path44087" />
          <path
             inkscape:connector-curvature="0"
             id="path44085"
             d="m -36.572098,318.6589 c -0.723282,0.12262 -1.289682,0.85138 -1.230694,1.58288 l 0,31.21882 c -0.0016,0.0584 -0.0016,0.11726 0,0.17563 -0.0235,0.14543 -0.0235,0.29425 0,0.43968 -7.19e-4,0.0305 -7.19e-4,0.0583 0,0.0878 0.01995,0.0904 0.05015,0.17864 0.08791,0.26368 -7.17e-4,0.0304 -7.17e-4,0.0588 0,0.0881 0.02696,0.0304 0.05754,0.0599 0.08763,0.0879 -0.0016,0.0585 -0.0016,0.11751 0,0.17584 0.02696,0.0305 0.05753,0.0598 0.08771,0.0879 0.209785,0.22373 0.49054,0.37965 0.791154,0.4397 0.02695,0.0304 0.05753,0.0598 0.08781,0.0879 0.03039,7.5e-4 0.05813,7.5e-4 0.08762,0 0.03039,7.5e-4 0.05804,7.5e-4 0.08763,0 0.03039,7.5e-4 0.05843,7.5e-4 0.08771,0 0.03038,7.5e-4 0.05844,7.5e-4 0.08781,0 l 0.263587,0 20.833368,0 c 0.782464,0 1.494351,-0.71225 1.494351,-1.49497 0,-0.78275 -0.711887,-1.49501 -1.494351,-1.49501 l -19.690612,0 0,-30.16349 c 0.0541,-0.8129 -0.680002,-1.59049 -1.494381,-1.58291 -0.05804,-0.002 -0.117292,-0.002 -0.175759,0 z"
             style="font-size:medium;font-style:normal;font-variant:normal;font-weight:normal;font-stretch:normal;text-indent:0;text-align:start;text-decoration:none;line-height:normal;letter-spacing:normal;word-spacing:normal;text-transform:none;direction:ltr;block-progression:tb;writing-mode:lr-tb;text-anchor:start;baseline-shift:baseline;color:#000000;fill:#040300;fill-opacity:1;fill-rule:nonzero;stroke:#000000;stroke-width:2.56817627;stroke-miterlimit:4;stroke-opacity:1;stroke-dasharray:none;marker:none;visibility:visible;display:inline;overflow:visible;enable-background:accumulate;font-family:Sans;-inkscape-font-specification:Sans" />
          <path
             inkscape:connector-curvature="0"
             d="m -62.943451,318.6589 c -0.06077,0.0271 -0.119481,0.0546 -0.17577,0.0879 -0.03039,-7e-4 -0.05824,-7e-4 -0.08762,0 -0.03039,-7e-4 -0.05804,-7e-4 -0.08781,0 -0.09034,0.0199 -0.178777,0.0505 -0.263607,0.0878 -0.03039,0.027 -0.05985,0.0575 -0.08771,0.088 -0.06046,0.027 -0.119481,0.0544 -0.17578,0.0878 -0.0634,0.0536 -0.122436,0.11243 -0.175964,0.17585 l -0.175741,0.17564 c -0.03342,0.0564 -0.0625,0.11558 -0.08763,0.17583 l -0.08781,0.0879 -4.483162,4.48493 c -0.129171,0.0699 -0.248475,0.15883 -0.351594,0.26371 l -0.08781,0.0878 c -0.06037,0.027 -0.119368,0.0544 -0.175963,0.0879 -0.07362,0.10883 -0.13297,0.22741 -0.17555,0.35175 -0.0016,0.0581 -0.0016,0.11751 0,0.17588 -0.03039,0.027 -0.05985,0.0574 -0.08763,0.0879 -7.51e-4,0.0304 -7.51e-4,0.0581 0,0.0878 -0.03039,0.17402 -0.03039,0.35366 0,0.5276 l 0,20.4022 c -0.04274,0.20223 -0.04274,0.41336 0,0.61557 -7.51e-4,0.0301 -7.51e-4,0.0583 0,0.0877 -7.51e-4,0.0304 -7.51e-4,0.0581 0,0.0879 0.02696,0.0604 0.05439,0.11943 0.08763,0.17563 0.02685,0.0603 0.05439,0.11942 0.08763,0.17624 0.02696,0.0304 0.05753,0.0598 0.08781,0.0878 -7.51e-4,0.0304 -7.51e-4,0.0583 0,0.0879 0.02682,0.0304 0.05732,0.06 0.08771,0.0878 0.02655,0.0304 0.05752,0.0598 0.08763,0.0879 0.103406,0.10471 0.222293,0.1938 0.351635,0.26369 l 4.571029,4.57286 0.351604,0.43975 c 0.103289,0.10459 0.22228,0.19383 0.351634,0.26369 0.08468,0.0371 0.173148,0.0667 0.263595,0.0879 0.05642,0.0335 0.115196,0.0625 0.175773,0.0878 0.05835,0.002 0.117291,0.002 0.175557,0 0.03038,7.6e-4 0.05814,7.6e-4 0.08791,0 l 0.263565,0 10.021116,0 0.263606,0 c 0.09035,-0.02 0.178548,-0.0502 0.263589,-0.0878 0.03039,7.1e-4 0.05824,7.1e-4 0.0879,0 0.03038,7.1e-4 0.05844,7.1e-4 0.08771,0 0.06056,-0.027 0.119367,-0.0548 0.175791,-0.0879 0.198551,-0.0772 0.379579,-0.19865 0.527415,-0.35174 l 0.08781,-0.17625 c 0.03019,-0.0269 0.05984,-0.0575 0.08762,-0.0878 l 4.571041,-4.57287 c 0.460677,-0.19924 0.804847,-0.64666 0.878997,-1.14322 0.0016,-0.0588 0.0016,-0.11749 0,-0.17582 7.4e-4,-0.0304 7.4e-4,-0.0588 0,-0.0878 0.01244,-0.11678 0.01244,-0.23479 0,-0.35178 l 0,-20.40212 c 0.01244,-0.11677 0.01244,-0.23513 0,-0.35177 7.4e-4,-0.0304 7.4e-4,-0.0583 0,-0.0881 7.4e-4,-0.0304 7.4e-4,-0.0583 0,-0.0879 -0.01244,-0.12029 -0.04445,-0.23851 -0.08771,-0.35177 -0.01995,-0.0903 -0.05044,-0.17864 -0.08762,-0.26366 -0.02684,-0.0301 -0.05754,-0.0598 -0.08763,-0.0879 -0.05348,-0.063 -0.112518,-0.12248 -0.175773,-0.17584 l -0.263596,-0.26367 c -0.02696,-0.0303 -0.05754,-0.0598 -0.08781,-0.0881 l -4.571008,-4.48492 -0.08763,-0.17584 c -0.02696,-0.0304 -0.05754,-0.06 -0.08781,-0.0878 l -0.08772,-0.17443 c -0.03038,-7.5e-4 -0.05864,-7.5e-4 -0.08763,0 7.39e-4,-0.0304 7.39e-4,-0.0583 0,-0.0878 -0.02673,-0.0303 -0.05753,-0.0598 -0.08763,-0.0879 -0.05642,-0.0336 -0.115208,-0.0624 -0.175772,-0.0877 -0.03019,-7.4e-4 -0.05824,-7.4e-4 -0.08772,0 -0.05652,-0.0336 -0.11521,-0.0625 -0.175743,-0.0879 -0.02696,-0.0304 -0.05732,-0.06 -0.0879,-0.0878 -0.05864,-0.002 -0.117292,-0.002 -0.175955,0 -0.03018,-7.3e-4 -0.05803,-7.3e-4 -0.08763,0 -0.05804,-0.002 -0.117171,-0.002 -0.175791,0 -0.05843,-0.002 -0.117172,-0.002 -0.175762,0 l -0.263606,0 -9.669493,0 -0.351595,0 c -0.03038,-7.3e-4 -0.05824,-7.3e-4 -0.08763,0 7.38e-4,-0.0303 7.38e-4,-0.0588 0,-0.0879 z m 0.615343,2.98995 9.31788,0 4.395217,4.48494 0,19.87449 -4.395217,4.39703 -9.31788,0 -4.395227,-4.39703 0,-19.87449 z"
             style="font-size:medium;font-style:normal;font-variant:normal;font-weight:normal;font-stretch:normal;text-indent:0;text-align:start;text-decoration:none;line-height:normal;letter-spacing:normal;word-spacing:normal;text-transform:none;direction:ltr;block-progression:tb;writing-mode:lr-tb;text-anchor:start;baseline-shift:baseline;color:#000000;fill:#040300;fill-opacity:1;fill-rule:nonzero;stroke:#000000;stroke-width:2.56817627;stroke-miterlimit:4;stroke-opacity:1;stroke-dasharray:none;marker:none;visibility:visible;display:inline;overflow:visible;enable-background:accumulate;font-family:Sans;-inkscape-font-specification:Sans"
             id="path44083" />
          <path
             inkscape:connector-curvature="0"
             id="path44081"
             d="m -132.21224,318.6589 c -0.72324,0.12262 -1.28971,0.85138 -1.23067,1.58288 l 0,15.38954 c -0.0877,0.28418 -0.0877,0.59519 0,0.87944 l 0,15.38953 c 0,0.78275 0.71197,1.49495 1.49441,1.49495 0.78244,0 1.49435,-0.7122 1.49435,-1.49495 l 0,-14.3343 18.10835,0 0,14.3343 c 0,0.78275 0.71191,1.49495 1.49437,1.49495 0.78248,0 1.49437,-0.7122 1.49437,-1.49495 l 0,-15.56541 c 0.0427,-0.20226 0.0427,-0.4134 0,-0.6156 l 0,-15.4775 c 0,-0.78273 -0.71189,-1.49498 -1.49437,-1.49498 -0.78246,0 -1.49437,0.71225 -1.49437,1.49498 l 0,14.33427 -18.10835,0 0,-14.33427 c 0.0581,-0.84331 -0.73929,-1.641 -1.58226,-1.58288 -0.0583,-0.002 -0.11725,-0.002 -0.17595,0 z"
             style="font-size:medium;font-style:normal;font-variant:normal;font-weight:normal;font-stretch:normal;text-indent:0;text-align:start;text-decoration:none;line-height:normal;letter-spacing:normal;word-spacing:normal;text-transform:none;direction:ltr;block-progression:tb;writing-mode:lr-tb;text-anchor:start;baseline-shift:baseline;color:#000000;fill:#040300;fill-opacity:1;fill-rule:nonzero;stroke:#000000;stroke-width:2.56817627;stroke-miterlimit:4;stroke-opacity:1;stroke-dasharray:none;marker:none;visibility:visible;display:inline;overflow:visible;enable-background:accumulate;font-family:Sans;-inkscape-font-specification:Sans" />
          <path
             inkscape:connector-curvature="0"
             id="path44079"
             d="m -158.58358,318.6589 c -0.0607,0.0271 -0.11939,0.0546 -0.17595,0.0879 -0.0302,-7e-4 -0.058,-7e-4 -0.0876,0 -0.0303,-7e-4 -0.0587,-7e-4 -0.0879,0 -0.0604,0.027 -0.11928,0.0548 -0.17577,0.0878 -0.0303,-6.9e-4 -0.058,-6.9e-4 -0.0877,0 -0.0304,0.027 -0.0598,0.0575 -0.0878,0.088 -0.0603,0.027 -0.11955,0.0544 -0.1762,0.0878 -0.0301,-7.3e-4 -0.058,-7.3e-4 -0.088,0 -0.0682,0.0813 -0.12698,0.17005 -0.17577,0.26371 l -0.088,0.088 c -0.0335,0.0565 -0.0624,0.11558 -0.0876,0.17585 l -0.0879,0.0878 -4.48311,4.48495 c -0.12919,0.0698 -0.24849,0.15903 -0.35166,0.26369 l -0.0876,0.0877 c -0.0304,0.027 -0.0599,0.0573 -0.0879,0.088 -0.0303,0.027 -0.06,0.0573 -0.0879,0.0878 -0.0336,0.0564 -0.0624,0.11523 -0.0876,0.17581 -0.0372,0.0848 -0.0667,0.17326 -0.0881,0.26371 -0.0304,0.027 -0.06,0.0575 -0.0876,0.0878 -0.002,0.0588 -0.002,0.11751 0,0.17567 -0.0236,0.14542 -0.0236,0.29429 0,0.4397 l 0,20.57804 c -0.0236,0.14543 -0.0236,0.29427 0,0.43968 -7.2e-4,0.0304 -7.2e-4,0.0584 0,0.0877 0.027,0.0605 0.0545,0.11953 0.0876,0.17583 -7e-4,0.0304 -7e-4,0.0588 0,0.0879 0.0269,0.0606 0.0544,0.11941 0.0881,0.17583 0.0269,0.0304 0.0575,0.0598 0.0876,0.0879 0.0489,0.0937 0.10818,0.18242 0.17578,0.26371 0.10312,0.10493 0.22231,0.19384 0.35162,0.26373 l 4.57106,4.57286 0.0877,0.0879 c 0.027,0.0607 0.0546,0.11941 0.0877,0.17584 l 0.17434,0.17823 c 0.10313,0.10472 0.22235,0.19387 0.35164,0.2637 0.11325,0.0434 0.23136,0.0726 0.35162,0.0877 0.027,0.0304 0.0574,0.06 0.0876,0.0881 0.0581,0.002 0.11724,0.002 0.17574,0 0.0871,0.0124 0.17558,0.0124 0.2636,0 l 0.17615,0 9.93317,0 0.26363,0 c 0.0301,7.3e-4 0.0582,7.3e-4 0.0879,0 0.0904,-0.0199 0.17877,-0.0503 0.26359,-0.0881 0.0303,7.6e-4 0.0587,7.6e-4 0.0881,0 0.0607,-0.027 0.11954,-0.0548 0.17577,-0.0877 0.16059,-0.0612 0.31031,-0.15081 0.4405,-0.26334 l 0.26358,-0.26372 c 7.2e-4,-0.0303 7.2e-4,-0.0581 0,-0.0879 l 5.01059,-4.92468 c 1.10488,-1.105 -1.0051,-3.21583 -2.10974,-2.11053 l -4.83472,4.83667 -9.31785,0 -4.39527,-4.39697 0,-19.87445 4.39527,-4.48498 9.31785,0 4.83472,4.92463 c 1.10464,1.1053 3.21462,-1.0055 2.10974,-2.11057 l -4.92267,-4.83667 -0.0876,-0.17584 c -0.027,-0.0304 -0.0575,-0.06 -0.088,-0.0878 l -0.0883,-0.17642 c -0.0303,-7.1e-4 -0.058,-7.1e-4 -0.0879,0 7.4e-4,-0.0304 7.4e-4,-0.0587 0,-0.088 -0.10851,-0.0738 -0.22735,-0.13299 -0.35159,-0.1758 -0.0564,-0.0333 -0.11559,-0.0624 -0.17579,-0.0879 -0.0268,-0.0303 -0.0574,-0.06 -0.0877,-0.0879 -0.058,-0.002 -0.11725,-0.002 -0.17579,0 -0.0304,-7.3e-4 -0.0582,-7.3e-4 -0.088,0 -0.0582,-0.002 -0.11751,-0.002 -0.17555,0 -0.0584,-0.002 -0.11725,-0.002 -0.1758,0 l -0.2636,0 -9.6695,0 -0.35165,0 c -0.0304,-7.3e-4 -0.058,-7.3e-4 -0.088,0 7.5e-4,-0.0304 7.5e-4,-0.0585 0,-0.0878 z"
             style="font-size:medium;font-style:normal;font-variant:normal;font-weight:normal;font-stretch:normal;text-indent:0;text-align:start;text-decoration:none;line-height:normal;letter-spacing:normal;word-spacing:normal;text-transform:none;direction:ltr;block-progression:tb;writing-mode:lr-tb;text-anchor:start;baseline-shift:baseline;color:#000000;fill:#040300;fill-opacity:1;fill-rule:nonzero;stroke:#000000;stroke-width:2.56817627;stroke-miterlimit:4;stroke-opacity:1;stroke-dasharray:none;marker:none;visibility:visible;display:inline;overflow:visible;enable-background:accumulate;font-family:Sans;-inkscape-font-specification:Sans" />
          <path
             inkscape:connector-curvature="0"
             id="path44077"
             d="m -195.76718,318.6589 c -7.5e-4,0.0304 -7.5e-4,0.0581 0,0.0879 -0.0304,-7e-4 -0.0584,-7e-4 -0.0877,0 -0.21456,0.0124 -0.42617,0.0738 -0.61536,0.17589 -0.20672,0.10301 -0.38898,0.25461 -0.52741,0.43966 -0.0334,0.0567 -0.0625,0.11524 -0.0875,0.17581 -7.3e-4,0.0306 -7.3e-4,0.0587 0,0.088 -0.0334,0.0564 -0.0624,0.11558 -0.0876,0.17585 -0.002,0.0582 -0.002,0.11749 0,0.17585 -7.4e-4,0.0304 -7.4e-4,0.0588 0,0.0878 -0.0235,0.14543 -0.0235,0.29427 0,0.43969 -0.002,0.0583 -0.002,0.11749 0,0.17582 l 0,14.94984 c -0.002,0.0588 -0.002,0.11749 0,0.17623 -0.0304,0.17405 -0.0304,0.35361 0,0.52765 -0.002,0.0588 -0.002,0.1175 0,0.17582 l 0,14.94985 c -0.002,0.0583 -0.002,0.11724 0,0.17583 -0.0235,0.14542 -0.0235,0.29429 0,0.43967 -7.4e-4,0.0304 -7.4e-4,0.0585 0,0.0881 -0.002,0.0588 -0.002,0.11749 0,0.17561 0.0515,0.1913 0.14176,0.37176 0.26361,0.52766 0.10323,0.10482 0.22227,0.19385 0.35165,0.26371 0.0812,0.0682 0.16997,0.12707 0.26358,0.17565 0.0846,0.0371 0.17316,0.0667 0.26357,0.088 0.0304,7.2e-4 0.0584,7.2e-4 0.0876,0 0.087,0.0124 0.17596,0.0124 0.26358,0 l 0.26359,0 20.83334,0 c 0.78246,0 1.4944,-0.71225 1.4944,-1.49502 0,-0.78276 -0.71194,-1.49501 -1.4944,-1.49501 l -19.69057,0 0,-12.83923 9.14201,0 c 0.78248,0 1.49442,-0.71224 1.49442,-1.49499 0,-0.78277 -0.71194,-1.49501 -1.49442,-1.49501 l -9.14201,0 0,-12.92718 19.69057,0 c 0.86215,0.18625 1.79653,-0.56871 1.79653,-1.45097 0,-0.88234 -0.93438,-1.63701 -1.79653,-1.45106 l -20.7454,0 -0.0879,0 c -0.11326,-0.0435 -0.23135,-0.0728 -0.3516,-0.088 z"
             style="font-size:medium;font-style:normal;font-variant:normal;font-weight:normal;font-stretch:normal;text-indent:0;text-align:start;text-decoration:none;line-height:normal;letter-spacing:normal;word-spacing:normal;text-transform:none;direction:ltr;block-progression:tb;writing-mode:lr-tb;text-anchor:start;baseline-shift:baseline;color:#000000;fill:#040300;fill-opacity:1;fill-rule:nonzero;stroke:#000000;stroke-width:2.56817627;stroke-miterlimit:4;stroke-opacity:1;stroke-dasharray:none;marker:none;visibility:visible;display:inline;overflow:visible;enable-background:accumulate;font-family:Sans;-inkscape-font-specification:Sans" />
          <path
             inkscape:connector-curvature="0"
             id="path44075"
             d="m -217.0401,318.6589 c -0.0605,0.0271 -0.11956,0.0546 -0.17598,0.0879 l -0.26356,0 -10.10904,0 c -0.86212,-0.18604 -1.79647,0.56874 -1.79647,1.45104 0,0.88229 0.93435,1.63696 1.79647,1.45102 l 9.05416,0 0,30.25141 c 0,0.78275 0.71193,1.49499 1.4944,1.49499 0.78243,0 1.35123,-0.72541 1.49434,-1.49499 l 0,-30.25141 9.05418,0 c 0.86208,0.18623 1.79652,-0.56873 1.79652,-1.45102 0,-0.8823 -0.93444,-1.63701 -1.79652,-1.45104 l -10.10901,0 -0.17558,0 c -0.0846,-0.0371 -0.17315,-0.0667 -0.26357,-0.0879 z"
             style="font-size:medium;font-style:normal;font-variant:normal;font-weight:normal;font-stretch:normal;text-indent:0;text-align:start;text-decoration:none;line-height:normal;letter-spacing:normal;word-spacing:normal;text-transform:none;direction:ltr;block-progression:tb;writing-mode:lr-tb;text-anchor:start;baseline-shift:baseline;color:#000000;fill:#040300;fill-opacity:1;fill-rule:nonzero;stroke:#000000;stroke-width:2.56817627;stroke-miterlimit:4;stroke-opacity:1;stroke-dasharray:none;marker:none;visibility:visible;display:inline;overflow:visible;enable-background:accumulate;font-family:Sans;-inkscape-font-specification:Sans" />
          <path
             inkscape:connector-curvature="0"
             id="path3841"
             d="m -79.469507,318.48327 c -0.695925,0.23512 -1.141277,1.04498 -0.966935,1.75875 l 0,26.82178 -18.284167,-27.43733 -0.0879,-0.17586 c -0.027,-0.0304 -0.0573,-0.06 -0.0876,-0.0877 -0.0699,-0.12925 -0.15876,-0.24858 -0.26357,-0.35172 -0.0811,-0.0682 -0.16998,-0.12703 -0.26361,-0.17606 -0.0304,-7.4e-4 -0.0582,-7.4e-4 -0.0877,0 -0.0564,-0.0336 -0.11521,-0.0624 -0.17575,-0.0879 -0.058,-0.002 -0.11717,-0.002 -0.17576,0 -0.0304,-7.3e-4 -0.0584,-7.3e-4 -0.0877,0 -0.0565,-0.0336 -0.115201,-0.0625 -0.175771,-0.0878 -0.0608,0.027 -0.1195,0.0545 -0.17576,0.0878 -0.12023,0.0124 -0.23842,0.0441 -0.35162,0.0879 -0.0304,-7.4e-4 -0.058,-7.4e-4 -0.0879,0 -0.0302,0.027 -0.0598,0.0573 -0.0876,0.0878 -0.20678,0.1029 -0.38907,0.25461 -0.52742,0.43972 -0.0335,0.0564 -0.0625,0.11558 -0.0879,0.17582 -0.0433,0.11326 -0.0733,0.23145 -0.0876,0.35177 -7.1e-4,0.0304 -7.1e-4,0.0588 0,0.0879 -0.0304,0.027 -0.0598,0.0575 -0.0879,0.088 -0.002,0.0587 -0.002,0.1175 0,0.17583 -0.002,0.0587 -0.002,0.11749 0,0.17587 l 0,31.48257 c 0,0.78277 0.71192,1.49498 1.49438,1.49498 0.782461,0 1.494391,-0.71221 1.494391,-1.49498 l 0,-26.73381 18.196249,27.17352 0.175751,0.26368 0,0.0879 c 0.02655,0.0604 0.05459,0.11943 0.08772,0.17567 0.103067,0.10481 0.222313,0.19386 0.351634,0.26371 0.08113,0.0682 0.169968,0.12684 0.263616,0.17563 0.05864,0.002 0.117292,0.002 0.175539,0 0.02695,0.0305 0.05732,0.06 0.08781,0.0877 0.116791,0.0124 0.235022,0.0124 0.351583,0 0.149773,-0.007 0.298529,-0.0366 0.439551,-0.0877 0.03039,7.4e-4 0.05813,7.4e-4 0.0879,0 0.09359,-0.049 0.182368,-0.10819 0.263577,-0.17563 0.175195,-0.11372 0.326059,-0.26471 0.43954,-0.43974 0.03716,-0.0848 0.06675,-0.17322 0.08791,-0.26369 0.03716,-0.0848 0.06675,-0.17325 0.08791,-0.2637 0.0016,-0.0588 0.0016,-0.11749 0,-0.17586 7.28e-4,-0.0304 7.28e-4,-0.0588 0,-0.0879 0.02349,-0.14543 0.02349,-0.29425 0,-0.43966 l 0,-31.21875 c 0.257871,-1.03452 -0.929036,-2.11397 -1.933883,-1.75886 z"
             style="font-size:medium;font-style:normal;font-variant:normal;font-weight:normal;font-stretch:normal;text-indent:0;text-align:start;text-decoration:none;line-height:normal;letter-spacing:normal;word-spacing:normal;text-transform:none;direction:ltr;block-progression:tb;writing-mode:lr-tb;text-anchor:start;baseline-shift:baseline;color:#000000;fill:#040300;fill-opacity:1;fill-rule:nonzero;stroke:#000000;stroke-width:2.56817627;stroke-miterlimit:4;stroke-opacity:1;stroke-dasharray:none;marker:none;visibility:visible;display:inline;overflow:visible;enable-background:accumulate;font-family:Sans;-inkscape-font-specification:Sans" />
        </g>
        <path
           inkscape:connector-curvature="0"
           d="m 188.76643,323.09823 9.14203,9.14574 0,3.16584 -18.19617,0 0,-3.16584 z m -148.458208,-0.61564 9.31788,0 4.39524,4.485 0,19.87448 -4.39524,4.39701 -9.31788,0 -4.39521,-4.39701 0,-19.87448 z m 148.194448,-2.98993 c -0.19117,0.0513 -0.37146,0.14162 -0.52736,0.26368 -0.0626,0.0536 -0.12237,0.11244 -0.17574,0.17566 -0.0626,0.0535 -0.12239,0.11244 -0.1756,0.17584 l -0.0875,0.0878 c -0.0336,0.0566 -0.0626,0.11524 -0.088,0.17584 l -0.0876,0.0878 -9.75743,9.76134 c -0.20675,0.1029 -0.38903,0.25463 -0.52744,0.43969 -0.0307,0.027 -0.0599,0.0576 -0.0876,0.0879 -7.2e-4,0.0304 -7.2e-4,0.0588 0,0.0878 -0.0335,0.0566 -0.0626,0.11558 -0.0881,0.17584 -0.0306,0.0269 -0.0599,0.0575 -0.0876,0.0878 -7.4e-4,0.0302 -7.4e-4,0.0588 0,0.0879 0,0.0582 0,0.11725 0,0.17583 -0.0308,0.027 -0.06,0.0575 -0.0876,0.0879 0,0.0581 0,0.11713 0,0.17587 0,0.0583 0,0.11712 0,0.17581 l 0,4.83674 c 0,0.1474 0,0.29225 0,0.43966 l 0,15.65338 c 0,0.78276 0.71191,1.49495 1.49444,1.49495 0.78244,0 1.49432,-0.71219 1.49432,-1.49495 l 0,-14.33428 18.19627,0 0,14.33428 c -0.18615,0.86246 0.5685,1.79719 1.45034,1.79719 0.882,0 1.63639,-0.93473 1.45049,-1.79719 l 0,-15.38956 c 0,-0.0582 0,-0.11726 0,-0.17562 0.043,-0.20227 0.043,-0.4134 0,-0.6156 6.8e-4,-0.0302 6.8e-4,-0.0583 0,-0.0881 l 0,-4.48492 c 6.8e-4,-0.0303 6.8e-4,-0.0581 0,-0.0881 0.0234,-0.14542 0.0234,-0.29427 0,-0.43966 0,-0.0581 0,-0.11715 0,-0.17606 -0.0198,-0.0905 -0.0503,-0.17862 -0.0876,-0.26367 -0.027,-0.0302 -0.0576,-0.0598 -0.0876,-0.0881 0,-0.0301 0,-0.0587 0,-0.0877 0,-0.0301 0,-0.0588 0,-0.0878 -0.0306,-7.4e-4 -0.0581,-7.4e-4 -0.0875,0 0,-0.0303 0,-0.0581 0,-0.0879 -0.0306,-7.3e-4 -0.0581,-7.3e-4 -0.0878,0 -0.027,-0.0303 -0.0575,-0.0598 -0.0876,-0.0878 l -0.35158,-0.26371 c -0.027,-0.0302 -0.0575,-0.0598 -0.0878,-0.0879 l -9.66946,-9.67345 c -0.027,-0.0304 -0.0575,-0.0598 -0.0877,-0.0878 l -0.0879,-0.17584 c -0.027,-0.0305 -0.0575,-0.0598 -0.0875,-0.088 l -0.0904,-0.17649 c -0.0306,-7.4e-4 -0.0582,-7.4e-4 -0.0875,0 -0.0489,-0.0936 -0.10818,-0.18243 -0.17558,-0.26367 -0.0559,-0.0335 -0.11558,-0.0625 -0.17578,-0.0881 -0.0847,-0.037 -0.17319,-0.0667 -0.26354,-0.0877 -0.0306,-7.5e-4 -0.0581,-7.5e-4 -0.0878,0 -0.0306,-7.5e-4 -0.0583,-7.5e-4 -0.0875,0 -0.0306,-7.5e-4 -0.0582,-7.5e-4 -0.0876,0 -0.056,-0.0336 -0.11524,-0.0624 -0.17618,-0.0878 -0.0879,-0.0124 -0.17556,-0.0124 -0.2636,0 z m -28.26756,0 c -0.0605,0.027 -0.11945,0.0547 -0.17556,0.0878 l -0.26363,0 -10.10902,0 c -0.8621,-0.18602 -1.79643,0.56874 -1.79643,1.45106 0,0.88221 0.91453,1.45101 1.79643,1.45101 l 9.05416,0 0,30.25141 c 0,0.78273 0.71199,1.49496 1.49446,1.49496 0.78241,0 1.45187,-0.71338 1.49436,-1.49496 l 0,-30.25141 9.05415,0 c 0.86212,0.18603 1.79648,-0.5688 1.79648,-1.45101 0,-0.88232 -0.93436,-1.63701 -1.79648,-1.45106 l -10.10902,0 -0.17574,0 c -0.0847,-0.0371 -0.17319,-0.0667 -0.26361,-0.0878 z m -24.90211,0 c -0.0607,0.027 -0.11942,0.0547 -0.17615,0.0878 l -0.2636,0 -4.83474,0 c -0.86212,-0.18602 -1.79649,0.56874 -1.79649,1.45106 0,0.88221 0.93437,1.63691 1.79649,1.45101 l 3.7799,0 0,28.75639 -3.7799,0 c -0.78242,0 -1.49438,0.71225 -1.49438,1.49502 0,0.78273 2.27684,1.49496 1.49438,1.49496 l 5.01056,0 0.61536,0 4.92264,0 c 0.78242,0 1.49438,-0.71223 1.49438,-1.49496 0,-0.78277 -0.71196,-1.49502 -1.49438,-1.49502 l -3.77988,0 0,-28.75639 3.77988,0 c 0.8621,0.18603 1.79651,-0.5688 1.79651,-1.45101 0,-0.88232 -0.93441,-1.63701 -1.79651,-1.45106 l -4.83476,0 -0.17579,0 c -0.0847,-0.0371 -0.17315,-0.0667 -0.26361,-0.0878 z m -63.818638,0 c -0.0304,0.027 -0.0598,0.0573 -0.0877,0.0878 -0.0871,-0.0124 -0.17579,-0.0124 -0.26361,0 -0.0304,-7.3e-4 -0.0587,-7.3e-4 -0.0878,0 -0.12415,0.0426 -0.2431,0.10166 -0.35163,0.17584 -0.13599,0.0962 -0.25515,0.21579 -0.35161,0.35175 l -0.0881,0.0879 c -0.002,0.0588 -0.002,0.11748 0,0.17604 l -0.0876,0.0877 -4.48314,4.485 -0.35161,0.26369 c -0.0303,0.0269 -0.0598,0.0573 -0.0879,0.0878 -0.0304,-7.4e-4 -0.0587,-7.4e-4 -0.0879,0 -0.0334,0.0566 -0.0624,0.11526 -0.0876,0.17563 -0.0333,0.0564 -0.0625,0.11569 -0.0875,0.17585 -0.0681,0.0812 -0.12681,0.17002 -0.17578,0.26373 -7.4e-4,0.0305 -7.4e-4,0.0588 0,0.0878 -7.4e-4,0.0305 -7.4e-4,0.0588 0,0.0878 -0.0562,0.2301 -0.0562,0.47351 0,0.70356 l 0,20.2262 c -0.0124,0.11678 -0.0124,0.23518 0,0.35175 l 0,0.0879 c -0.002,0.0583 -0.002,0.11725 0,0.17584 -7.4e-4,0.0304 -7.4e-4,0.0586 0,0.0878 0.0396,0.22171 0.13056,0.43397 0.26361,0.6156 0.027,0.0304 0.0575,0.0598 0.0879,0.0878 0.0269,0.0305 0.0574,0.06 0.0876,0.0879 l 0.43958,0.35182 4.48309,4.48488 0.0877,0.0877 c 0.0266,0.0605 0.0544,0.11944 0.0876,0.17607 l 0.17556,0.17563 c 0.12251,0.14379 0.27266,0.26406 0.43951,0.35179 0.0304,6.9e-4 0.0587,6.9e-4 0.0877,0 0.11325,0.0433 0.23133,0.0725 0.3516,0.0879 0.0304,7.3e-4 0.0587,7.3e-4 0.0878,0 0.0304,7.3e-4 0.0583,7.3e-4 0.0875,0 l 0.26361,0 10.02111,0 0.26359,0 c 0.0585,0.002 0.11738,0.002 0.17579,0 0.0304,-0.027 0.0598,-0.0575 0.0876,-0.0879 0.0304,6.9e-4 0.0585,6.9e-4 0.0875,0 0.0304,6.9e-4 0.0587,6.9e-4 0.0878,0 0.0608,-0.027 0.11942,-0.0545 0.17618,-0.0878 0.0606,-0.027 0.11942,-0.0547 0.17555,-0.0878 0.0304,7e-4 0.0587,7e-4 0.0877,0 0.0984,-0.076 0.18737,-0.16523 0.26364,-0.26369 l 0.0879,-0.17585 c 0.0304,-0.027 0.0604,-0.0565 0.0891,-0.0865 l 4.57101,-4.5729 c 0.46072,-0.19927 0.80487,-0.64669 0.87904,-1.14321 0.0426,-0.20186 0.0426,-0.4134 0,-0.6156 l 0,-9.93729 c 0.0124,-0.0872 0.0124,-0.17582 0,-0.26369 0.002,-0.0588 0.002,-0.11722 0,-0.17582 -0.0199,-0.0902 -0.0506,-0.17881 -0.0876,-0.26369 -0.0344,-0.15485 -0.0948,-0.30367 -0.17577,-0.43973 -0.0272,-0.0303 -0.0575,-0.06 -0.0875,-0.0877 -0.0489,-0.094 -0.10817,-0.18245 -0.17578,-0.2637 -0.0564,-0.0335 -0.11522,-0.0624 -0.17557,-0.0878 -0.0304,-7.3e-4 -0.0587,-7.3e-4 -0.0877,0 -0.0813,-0.0682 -0.16994,-0.12681 -0.26356,-0.17606 -0.0304,-7.2e-4 -0.0585,-7.2e-4 -0.0878,0 -0.0304,-7.2e-4 -0.0587,-7.2e-4 -0.0875,0 -0.0587,-0.002 -0.11738,-0.002 -0.17556,0 -0.0304,-7.2e-4 -0.11725,0 -0.0876,0 l -0.43948,0 -10.10903,0 c -0.78246,0 -1.49442,0.71227 -1.49442,1.49503 0,0.78273 0.71196,1.49497 1.49442,1.49497 l 9.05417,0 0,8.44224 -4.39523,4.39699 -9.3179,0 -4.39524,-4.39699 0,-19.87448 4.39524,-4.48499 9.3179,0 4.8347,4.92468 c 1.10462,1.10535 3.2146,-1.00553 2.10974,-2.11054 l -4.92265,-4.83676 -0.0878,-0.17583 c -0.027,-0.0305 -0.0576,-0.0598 -0.0875,-0.0878 l -0.17736,-0.17684 c 7.3e-4,-0.0303 7.3e-4,-0.0588 0,-0.0878 -0.027,-0.0304 -0.0573,-0.06 -0.0876,-0.0881 -0.0304,-7.1e-4 -0.0587,-7.1e-4 -0.0878,0 -0.0566,-0.0336 -0.11523,-0.0625 -0.17597,-0.0878 -0.0565,-0.0334 -0.11525,-0.0625 -0.17554,-0.0878 -0.0847,-0.0369 -0.17319,-0.0667 -0.26362,-0.0878 -0.0874,-0.0124 -0.17558,-0.0124 -0.26359,0 -0.0587,-0.002 -0.11748,-0.002 -0.17578,0 l -0.26356,0 -9.75738,0 -0.26361,0 c -0.0303,-7.1e-4 -0.0587,-7.1e-4 -0.0878,0 -0.027,-0.0302 -0.0573,-0.06 -0.0876,-0.0877 z m -31.82146,0 c -7.4e-4,0.0301 -7.4e-4,0.0583 0,0.0878 -0.0583,-0.002 -0.1175,-0.002 -0.17576,0 -0.0303,-7.3e-4 -0.0581,-7.3e-4 -0.088,0 -0.0903,0.02 -0.17877,0.0502 -0.26362,0.0878 -0.0301,-7.5e-4 -0.0581,-7.5e-4 -0.0876,0 -0.0607,0.027 -0.11942,0.0546 -0.17556,0.088 -0.13599,0.0962 -0.25523,0.21599 -0.35167,0.35179 l -0.0879,0.0877 c -0.0681,0.0812 -0.12677,0.17004 -0.17615,0.2637 l -4.48313,4.48495 c -0.12918,0.0699 -0.24848,0.159 -0.3516,0.26369 l -0.0876,0.0878 c -0.10482,0.10323 -0.19376,0.22243 -0.26362,0.35179 -0.0372,0.0848 -0.0667,0.17323 -0.0876,0.26369 -0.0304,0.027 -0.0593,0.0573 -0.0879,0.0877 -7.2e-4,0.0303 -7.2e-4,0.0588 0,0.0878 -7.2e-4,0.0304 -7.2e-4,0.0581 0,0.0877 -0.002,0.0588 -0.002,0.11749 0,0.17564 -0.0124,0.0879 -0.0124,0.17583 0,0.26371 l 0,20.578 c -0.002,0.0582 -0.002,0.11725 0,0.17585 l 0,0.0878 c 0.007,0.14983 0.0365,0.29868 0.0879,0.4397 -7.1e-4,0.0302 -7.1e-4,0.0582 0,0.0878 0.027,0.0305 0.0573,0.0598 0.0876,0.0879 -7.4e-4,0.0304 -7.4e-4,0.0585 0,0.0879 0.0489,0.0939 0.10818,0.18242 0.17582,0.26373 0.12248,0.14381 0.27265,0.26404 0.4395,0.35173 l 4.65892,4.66087 c 0.027,0.0606 0.0544,0.11941 0.0876,0.17583 l 0.17513,0.178 c 0.0813,0.0682 0.16998,0.12686 0.26362,0.17585 0.15578,0.12201 0.33637,0.2123 0.5274,0.26373 0.058,0.002 0.11738,0.002 0.17577,0 0.0305,7.3e-4 0.0587,7.3e-4 0.088,0 l 0.35166,0 9.93317,0 0.26362,0 c 0.0304,7.3e-4 0.0585,7.3e-4 0.0879,0 0.0303,7.3e-4 0.0587,7.3e-4 0.0875,0 0.0607,-0.027 0.11942,-0.0544 0.17559,-0.0878 0.0303,7.2e-4 0.0587,7.2e-4 0.0879,0 0.0606,-0.027 0.11943,-0.0544 0.17575,-0.0878 0.16056,-0.0613 0.31024,-0.15166 0.44036,-0.26405 l 0.26358,-0.26369 c 7.3e-4,-0.0305 7.3e-4,-0.0583 0,-0.0881 l 4.57109,-4.57295 c 0.0603,-0.027 0.11928,-0.0544 0.17557,-0.0878 l 0.26361,-0.26373 c 0.063,-0.0535 0.12249,-0.11242 0.17578,-0.17563 7.2e-4,-0.0305 7.2e-4,-0.0588 0,-0.0879 0.0303,-0.027 0.0598,-0.0573 0.0876,-0.0877 0.0333,-0.0565 0.0625,-0.11523 0.0879,-0.17601 0.0371,-0.0848 0.0668,-0.17328 0.0875,-0.26372 0.002,-0.0588 0.002,-0.11749 0,-0.17564 7.2e-4,-0.0304 7.2e-4,-0.0582 0,-0.0877 0.0234,-0.14544 0.0234,-0.29428 0,-0.4397 l 0,-20.3142 c 0.0124,-0.11676 0.0124,-0.23515 0,-0.35176 7.2e-4,-0.0304 7.2e-4,-0.0583 0,-0.0879 7.2e-4,-0.0302 7.2e-4,-0.0579 0,-0.0878 0.002,-0.0588 0.002,-0.11726 0,-0.17584 7.2e-4,-0.0303 7.2e-4,-0.0588 0,-0.0878 7.2e-4,-0.0303 7.2e-4,-0.0581 0,-0.0881 -0.027,-0.0304 -0.0573,-0.0598 -0.0875,-0.0878 -0.0268,-0.0606 -0.0549,-0.11928 -0.0879,-0.17605 -0.0271,-0.0304 -0.0573,-0.06 -0.0876,-0.0879 -0.0269,-0.0304 -0.0573,-0.06 -0.0879,-0.0877 -0.0271,-0.0303 -0.0574,-0.06 -0.0877,-0.0878 l -0.43951,-0.35174 -4.39524,-4.39704 c -0.0699,-0.12921 -0.15902,-0.24859 -0.26361,-0.35175 l -0.0879,-0.17803 c -0.0304,-7.2e-4 -0.0587,-7.2e-4 -0.0879,0 7.2e-4,-0.0303 7.2e-4,-0.0581 0,-0.0877 -0.10841,-0.0738 -0.22734,-0.13307 -0.35161,-0.17585 -0.0565,-0.0335 -0.11558,-0.0624 -0.17576,-0.0878 -0.11338,-0.0433 -0.23135,-0.0725 -0.35159,-0.0879 -0.0587,-0.002 -0.11749,-0.002 -0.17578,0 -0.0587,-0.002 -0.11749,-0.002 -0.17577,0 l -0.26359,0 -9.66952,0 -0.26358,0 c -0.0564,-0.0335 -0.11558,-0.0624 -0.17579,-0.0877 z m -31.9093397,0 c -0.0304,0.027 -0.0598,0.0573 -0.0877,0.0878 -0.058,-0.002 -0.11726,-0.002 -0.17578,0 -0.0304,-7.3e-4 -0.0585,-7.3e-4 -0.0881,0 -0.0304,-7.3e-4 -0.0587,-7.3e-4 -0.0879,0 -0.12417,0.0426 -0.24312,0.10166 -0.35161,0.17584 -0.0983,0.076 -0.18739,0.16525 -0.26361,0.2637 l -0.17556,0.17587 c -0.0334,0.0564 -0.0625,0.11522 -0.0877,0.17585 l 0,0.0879 -4.39524,4.39699 c -0.23809,0.0904 -0.45253,0.24356 -0.61533,0.43971 -0.063,0.0536 -0.12237,0.11243 -0.17575,0.17583 -0.0334,0.0565 -0.0624,0.11524 -0.0877,0.17584 -0.0433,0.11325 -0.0726,0.23183 -0.0875,0.35181 -7.3e-4,0.0303 -7.3e-4,0.0581 0,0.0878 -7.3e-4,0.0304 -7.3e-4,0.0588 0,0.0878 -0.002,0.0588 -0.002,0.11749 0,0.17623 -0.0235,0.14543 -0.0235,0.29428 0,0.43966 l 0,20.22626 c -0.0235,0.14545 -0.0235,0.29427 0,0.4397 -0.002,0.0581 -0.002,0.11724 0,0.17584 -7.3e-4,0.0301 -7.3e-4,0.0581 0,0.0877 -0.002,0.0581 -0.002,0.11727 0,0.17584 0.0269,0.0303 0.0573,0.0601 0.0875,0.0881 0.027,0.0606 0.0545,0.11942 0.0877,0.17583 -7.4e-4,0.0303 -7.4e-4,0.0588 0,0.0878 0.027,0.0303 0.0575,0.0598 0.0879,0.0877 -7.4e-4,0.0302 -7.4e-4,0.0582 0,0.0878 0.0566,0.0336 0.11557,0.0625 0.17594,0.0879 0.12249,0.14384 0.27266,0.26403 0.43952,0.35177 l 4.48255,4.48652 0.35164,0.43968 c 0.0535,0.0628 0.11243,0.12237 0.17599,0.17562 0.0813,0.0682 0.16997,0.12703 0.2636,0.17586 0.0847,0.0371 0.17317,0.0668 0.26356,0.0878 0.0304,7.2e-4 0.0587,7.2e-4 0.0879,0 0.11692,0.0124 0.23508,0.0124 0.35161,0 l 0.17561,0 10.0211297,0 0.26358,0 c 0.14977,-0.007 0.29852,-0.0365 0.43956,-0.0878 0.0607,-0.027 0.1194,-0.0546 0.17574,-0.0877 0.19854,-0.0772 0.37955,-0.19846 0.5274,-0.35176 l 0.0879,-0.17584 c 0.0301,-0.027 0.0598,-0.0573 0.0879,-0.0881 l 5.01059,-4.92463 c 1.10484,-1.1051 -1.00511,-3.21589 -2.10971,-2.11058 l -4.83475,4.83669 -9.3178597,0 -4.48314,-4.39702 0,-19.87446 4.48314,-4.48496 9.3178597,0 4.83475,4.92465 c 1.1046,1.10529 3.21455,-1.00554 2.10971,-2.11052 l -5.01059,-5.01264 c -0.027,-0.0304 -0.0575,-0.0599 -0.0879,-0.0878 l -0.0874,-0.17647 c -0.0304,-7e-4 -0.0587,-7e-4 -0.0875,0 7.5e-4,-0.0303 7.5e-4,-0.058 0,-0.0878 -0.0566,-0.0336 -0.11557,-0.0625 -0.17576,-0.088 -0.0267,-0.0305 -0.0575,-0.0598 -0.0879,-0.0881 -0.0304,-7.2e-4 -0.0581,-7.2e-4 -0.0879,0 -0.0566,-0.0334 -0.11556,-0.0624 -0.17577,-0.0879 -0.0848,-0.0371 -0.17316,-0.0668 -0.26357,-0.0878 -0.088,-0.0124 -0.17617,-0.0124 -0.26361,0 -0.0585,-0.002 -0.1175,-0.002 -0.17578,0 l -0.26358,0 -9.7573897,0 -0.26364,0 c -0.0304,-7.3e-4 -0.0582,-7.3e-4 -0.0876,0 -0.0269,-0.0304 -0.0576,-0.0598 -0.0879,-0.0877 z m -37.0957203,0 c -0.0608,0.027 -0.11943,0.0547 -0.17577,0.0878 -0.0583,-0.002 -0.11749,-0.002 -0.17578,0 -0.0904,0.02 -0.17854,0.0502 -0.26359,0.0878 -0.16715,0.088 -0.3173,0.20789 -0.43952,0.35172 -0.0303,0.0271 -0.0598,0.0575 -0.0875,0.0878 -0.10492,0.10312 -0.19376,0.2224 -0.26356,0.3518 -0.044,0.11325 -0.0734,0.23146 -0.0877,0.35173 -7.2e-4,0.0301 -7.2e-4,0.0588 0,0.0881 -0.002,0.0581 -0.002,0.11714 0,0.17581 -0.0124,0.0872 0,0.17505 0,0.26374 l 0,31.39462 c 0,0.7828 0.71192,1.495 1.49438,1.495 0.78242,0 1.65556,-0.729 1.49438,-1.495 l 0,-26.7338 18.1962303,27.17355 0.0879,0.26365 c 0.0271,0.0304 0.0573,0.0598 0.0879,0.0878 0.0268,0.0606 0.0545,0.11942 0.0875,0.17584 0.18639,0.20902 0.43366,0.36347 0.70325,0.43969 0.0566,0.0334 0.11525,0.0624 0.17558,0.0877 0.0584,0.002 0.11726,0.002 0.17594,0 0.14541,0.0235 0.2942,0.0235 0.43955,0 0.03,-0.027 0.0599,-0.0575 0.0879,-0.0877 0.22937,-0.0657 0.44249,-0.1874 0.61533,-0.35178 0.0984,-0.076 0.18738,-0.16521 0.26362,-0.26373 7.6e-4,-0.0303 7.6e-4,-0.0582 0,-0.0879 0.0334,-0.0564 0.0625,-0.11558 0.0879,-0.17584 0.0372,-0.0848 0.0668,-0.17323 0.0876,-0.26369 0.002,-0.0588 0.002,-0.11728 0,-0.17583 7.8e-4,-0.0305 7.8e-4,-0.0588 0,-0.0878 0.0124,-0.11678 0,-0.23449 0,-0.35178 l 0,-31.3067 c 0,-0.78275 -0.71192,-1.49494 -1.49436,-1.49494 -0.78243,0 -1.49436,0.71211 -1.49436,1.49494 l 0,26.73384 -18.1962703,-27.34942 -0.0879,-0.17585 c -0.0269,-0.0305 -0.0573,-0.06 -0.0877,-0.0879 -0.11338,-0.17524 -0.26428,-0.32616 -0.43952,-0.4397 -0.027,-0.0306 -0.0573,-0.0599 -0.0877,-0.0878 -0.0586,-0.002 -0.11727,-0.002 -0.17576,0 -0.027,-0.0303 -0.0575,-0.0598 -0.0879,-0.0879 -0.0587,-0.002 -0.11748,-0.002 -0.17574,0 -0.0566,-0.0333 -0.11525,-0.0625 -0.17557,-0.0878 -0.0304,-7.1e-4 -0.0582,-7.1e-4 -0.0877,0 z m -15.99861,0 c -0.0605,0.027 -0.11955,0.0547 -0.17577,0.0878 l -0.26361,0 -4.83473,0 c -0.86211,-0.18602 -1.79649,0.56874 -1.79649,1.45106 0,0.88221 0.93438,1.63691 1.79649,1.45101 l 3.7799,0 0,28.75639 -3.7799,0 c -0.78245,0 -1.49437,0.71225 -1.49437,1.49502 0,0.78273 0.71192,1.49496 1.49437,1.49496 l 5.01055,0 0.61535,0 4.92258,0 c 0.78252,0 1.49442,-0.71223 1.49442,-1.49496 0,-0.78277 -0.7119,-1.49502 -1.49442,-1.49502 l -3.77985,0 0,-28.75639 3.77985,0 c 0.86217,0.18603 1.79653,-0.5688 1.79653,-1.45101 0,-0.88232 -0.93436,-1.63701 -1.79653,-1.45106 l -4.83472,0 -0.17578,0 c -0.0847,-0.0371 -0.17314,-0.0667 -0.26359,-0.0878 z M 118.80696,319.317 c -0.69594,0.23519 -1.14132,1.04503 -0.967,1.7588 l 0,26.82178 -18.196157,-27.26148 c -0.027,-0.0606 -0.0548,-0.11954 -0.0876,-0.17604 l -0.0876,-0.17583 c -0.027,-0.0303 -0.0575,-0.0599 -0.0879,-0.0878 -0.0536,-0.063 -0.11245,-0.1225 -0.17577,-0.17565 7.2e-4,-0.0304 7.2e-4,-0.0586 0,-0.0878 -0.027,-0.0305 -0.0575,-0.0598 -0.0876,-0.0879 -0.0812,-0.0682 -0.16998,-0.12684 -0.2636,-0.17564 -0.0848,-0.0372 -0.17314,-0.0667 -0.26364,-0.0878 -0.0304,-7.4e-4 -0.0583,-7.4e-4 -0.0876,0 -0.0304,-7.4e-4 -0.0587,-7.4e-4 -0.0879,0 -0.0303,-7.4e-4 -0.0586,-7.4e-4 -0.0876,0 -0.0564,-0.0333 -0.11524,-0.0624 -0.17574,-0.088 -0.0607,0.0271 -0.11944,0.0547 -0.17578,0.088 -0.41725,0.0439 -0.81155,0.27343 -1.05485,0.61559 -0.0369,0.0848 -0.0668,0.17323 -0.0876,0.26368 -0.0336,0.0564 -0.0625,0.11524 -0.0878,0.17606 -7.2e-4,0.0302 -7.2e-4,0.058 0,0.0878 -0.0333,0.0565 -0.0624,0.11559 -0.0876,0.17585 -0.0124,0.11677 -0.0124,0.23479 0,0.35174 l 0,31.48258 c 0,0.78282 0.7119,1.49499 1.49436,1.49499 0.78241,0 1.41065,-0.71667 1.49439,-1.49499 l 0,-26.82171 18.196197,27.26144 c 0.0271,0.0301 0.0575,0.06 0.0879,0.0878 l 0.0876,0.17584 c 0.049,0.0937 0.10818,0.18246 0.17579,0.26372 0.18634,0.20902 0.43362,0.36351 0.70318,0.43964 0.19578,0.072 0.40714,0.10208 0.61534,0.0881 0.0304,7.4e-4 0.0587,7.4e-4 0.0878,0 0.0607,-0.0269 0.11943,-0.0548 0.17557,-0.0881 0.12416,-0.0427 0.24275,-0.10186 0.35164,-0.1758 0.17518,-0.11326 0.32606,-0.26439 0.43952,-0.43972 0.0304,-0.027 0.0598,-0.0573 0.0879,-0.0879 0.051,-0.14125 0.0812,-0.28993 0.0877,-0.43972 0.0235,-0.14546 0.0235,-0.29425 0,-0.43972 0.0123,-0.0872 0.0123,-0.17583 0,-0.26373 l 0,-31.21876 c 0.25791,-1.03444 -0.92906,-2.1139 -1.9339,-1.7588 z"
           style="font-size:medium;font-style:normal;font-variant:normal;font-weight:normal;font-stretch:normal;text-indent:0;text-align:start;text-decoration:none;line-height:normal;letter-spacing:normal;word-spacing:normal;text-transform:none;direction:ltr;block-progression:tb;writing-mode:lr-tb;text-anchor:start;baseline-shift:baseline;color:#000000;fill:#040300;fill-opacity:1;fill-rule:nonzero;stroke:#000000;stroke-width:2.56817627;stroke-miterlimit:4;stroke-opacity:1;stroke-dasharray:none;marker:none;visibility:visible;display:inline;overflow:visible;enable-background:accumulate;font-family:Sans;-inkscape-font-specification:Sans"
           id="path3119"
           sodipodi:nodetypes="cccccccccccccccccccccccccccccccssssssscccscscccccccccsccccccccccccccccccccccccccsscsssccscccccccccscccsscccssscccscccccccccccccccccccccccccccccccccccccccccccccccccccccccccccccccccccccccccsssccccccccccccccccccccccccccccccccccccccccccccccccccccccccccccccccccccccccccccccccccccccccccccccccccccccccccccccccccccccccccccccccccccccccccccccccccccccccccccccccccccccccccccccccccccccccccccccccccccccsssccccccccccccccccccssssccccccccccccccccscccsssccssscccsccccccccccccccccccccccccccccssccccccccccccccccccc" />
      </g>
      <g
         transform="matrix(0.37433328,0.11755588,-0.11755588,0.37433328,35.476566,663.32126)"
         id="g7632">
        <path
           id="path3187"
           d="m 345.41058,584.38131 c -0.80619,-0.0188 -1.61506,0.0242 -2.43747,0.1681 -0.41124,0.0726 -0.78292,0.0578 -1.17671,0.1681 -5.90859,1.66864 -9.81852,7.61621 -8.74127,13.78432 0.422,2.41393 1.53368,4.37991 2.52152,5.79949 0.78341,1.24288 1.79414,2.546 2.52152,3.53013 1.58459,2.3978 3.46692,6.00849 5.04304,15.04508 1.64363,9.41394 1.3237,12.89216 2.18532,25.71951 0.081,1.20576 0.0188,2.2691 0.0839,3.44608 5.66227,-1.38865 11.6817,-2.28968 16.64203,-3.02583 0.0108,0.0403 -0.0108,0.0492 0,0.0839 0.95931,3.1794 2.08212,6.62225 2.94178,9.66583 -0.002,0.0323 0.0705,0.0732 0.0839,0.0839 35.5868,-4.17134 69.9851,4.10907 98.59147,21.76913 2.31439,-2.39673 4.92335,-5.11338 6.89215,-7.31242 4.33941,2.69447 8.99168,5.881 12.60761,8.65723 -1.66133,3.0901 -3.43731,6.26103 -4.79089,8.99342 25.06505,19.82521 44.14262,47.48353 53.03599,80.10031 -1.81273,0.0565 -3.75289,0.0573 -5.37925,0.0839 -1.23948,0.0269 -12.67226,0.25201 -13.78431,0.25201 -0.3365,0.66757 -0.69409,1.24611 -0.92456,2.01722 -0.2305,0.77139 -0.34683,1.11256 -0.75646,2.26937 -0.41113,1.15896 -1.31159,3.62117 -1.59696,5.9676 -5.93258,1.00861 -8.93987,1.40963 -16.55798,1.68101 -8.68383,0.30931 -19.6471,0.81429 -27.98889,2.26937 -3.58419,0.62588 -7.57427,1.52058 -11.59899,2.60557 0.25847,0.77219 0.52353,1.57236 0.75645,2.35342 l -0.25201,0.0839 2.85772,16.89419 0.25202,-0.0839 c 0.0487,0.8311 0.23157,1.68989 0.25202,2.52152 4.13174,-0.33136 8.20455,-0.80756 11.76709,-1.42886 8.34224,-1.45535 18.7046,-4.6634 26.98028,-7.31241 7.26025,-2.32383 10.28516,-3.05097 16.22178,-4.11848 1.03311,2.02421 2.3375,3.84817 3.78228,5.29519 l 1.59696,1.51291 1.84912,-0.92455 c 0.50503,-0.25821 1.19607,-0.58406 2.01722,-0.92456 -0.44013,-4.75929 -1.15286,-10.61271 -1.76507,-14.12052 -0.67405,-3.87413 -1.51063,-7.67806 -2.43747,-11.43089 l 7.56456,0 c 0.029,8e-4 0.0549,-0.0839 0.0839,-0.0839 l 1.76506,0 c 0.38806,0 0.86313,0.008 1.26076,0 l 2.94178,0 c -0.008,-0.0269 0.008,-0.0573 0,-0.0839 0.77612,-0.0269 1.64026,-0.0627 2.43747,-0.0839 0.10059,-0.003 0.15169,0 0.25202,0 1.09946,-0.0323 2.22875,-0.036 3.36202,-0.0839 0.38559,0 0.87034,-0.0707 1.26076,-0.0839 1.6846,-0.0592 3.36561,-0.0686 5.1271,-0.16811 0.23426,1.01641 0.54174,1.99866 0.75645,3.02583 0.32346,1.55084 0.57249,3.08648 0.84051,4.62279 0.25874,1.48736 0.46356,2.89538 0.67241,4.37063 0.14012,0.99032 0.29919,2.02717 0.42025,3.02583 -0.63741,0.18827 -1.30923,0.3163 -1.93317,0.5043 l -3.02582,0.92456 c -0.0412,0 -0.0455,-0.0269 -0.0839,0 -0.88886,0.27569 -1.6521,0.56724 -2.52152,0.84051 -0.69026,0.22324 -1.41643,0.45965 -2.10127,0.6724 4.18944,35.60441 -4.18341,70.05336 -21.85318,98.67552 0.51364,0.4852 1.07453,1.01936 1.59697,1.51291 1.86509,1.76251 3.6401,3.60961 5.71544,5.46329 0.0215,0.0269 0.0616,-0.0188 0.0839,0 -1.39374,2.20227 -2.87499,4.34307 -4.37064,6.47191 -1.43144,2.03712 -2.844,4.07827 -4.37063,6.05165 -0.0269,0 -0.06,0.0135 -0.0839,0 -0.60003,-0.31684 -1.18158,-0.69446 -1.76506,-1.00861 l -2.68962,-1.42886 c -0.0524,-0.0269 -0.1162,-0.0573 -0.16811,-0.0839 -0.34287,-0.1802 -0.67372,-0.3327 -1.0086,-0.5043 -0.0508,-0.0269 -0.0339,-0.0573 -0.0839,-0.0839 -0.39051,-0.21248 -0.85145,-0.45885 -1.26076,-0.6724 -0.65213,-0.32814 -1.29745,-0.59347 -1.93317,-0.92456 -20.88204,26.3782 -50.4231,46.00478 -85.31145,54.2127 0.0476,1.55567 0.10785,3.18491 0.1681,4.79088 34.7635,-7.96477 64.38162,-26.8907 85.89981,-52.53168 0.37499,0.19634 0.78593,0.38179 1.17671,0.58836 l 2.68962,1.34481 c 1.61832,0.86875 3.24102,1.86592 4.87494,2.77367 0.14874,0.0807 0.27515,0.0874 0.42025,0.1681 0.8325,-1.01856 1.62101,-2.07168 2.43747,-3.10987 9.85376,5.42201 13.61686,7.07021 21.01268,12.2714 7.50482,5.27435 10.02045,8.47177 11.51494,10.92659 0.73247,1.20333 1.11762,2.27972 1.93317,3.69823 l 0.0839,0.0839 c 0.86353,1.49785 2.19707,3.29802 4.20253,4.70684 5.4627,3.84294 13.05435,2.43895 16.89419,-3.02582 0.24099,-0.34293 0.47211,-0.65089 0.6724,-1.00861 2.9978,-5.35746 1.59309,-12.36984 -3.53012,-15.96963 -2.00544,-1.40883 -4.18086,-2.04923 -5.88355,-2.35342 l -0.0839,0 c -1.59481,-0.2851 -2.74745,-0.39134 -4.11848,-0.67241 -2.81744,-0.57289 -6.78436,-1.78483 -14.28862,-7.06026 -7.4523,-5.2375 -9.90921,-8.14081 -18.49115,-15.71747 0.67509,-1.10087 1.36095,-2.17793 2.01721,-3.27798 -0.12587,-0.10759 -0.20898,-0.22539 -0.3362,-0.3362 -2.60982,-2.28134 -5.00783,-4.44904 -7.39646,-6.64001 15.95024,-27.48579 23.79743,-59.79541 20.84457,-93.29627 0.40043,-0.1291 0.75837,-0.29223 1.17671,-0.42025 l 2.85772,-0.92456 c 1.75896,-0.5277 3.58215,-0.91541 5.37925,-1.42886 0.1638,-0.0484 0.26089,-0.20656 0.42025,-0.25202 -0.089,-0.88946 -0.15277,-1.79452 -0.25202,-2.68962 l -0.1681,-1.09266 c 10.87329,-3.15412 14.51503,-4.74786 23.45015,-6.3038 9.03777,-1.57935 13.17705,-1.01534 15.96963,-0.33621 1.3688,0.33298 2.45484,0.75041 4.03443,1.17671 l 0.0839,0.0839 c 1.66996,0.44917 3.88954,0.67415 6.3038,0.25202 6.57997,-1.14578 10.8987,-7.54116 9.74988,-14.12052 -0.0718,-0.41124 -0.0567,-0.69863 -0.1681,-1.09266 -0.83421,-2.95428 -2.81413,-5.47956 -5.29519,-7.06026 -2.48062,-1.58122 -5.40566,-2.21867 -8.48912,-1.68101 -2.41582,0.42415 -4.38043,1.53335 -5.7995,2.52152 l -0.1681,0 c -1.32887,0.92846 -2.19436,1.66582 -3.36203,2.43747 -2.39853,1.58526 -6.00905,3.46773 -15.04508,5.04304 -8.919,1.55864 -13.02398,1.40035 -24.29065,2.10127 l -0.25174,-1.26089 -0.67241,-2.60558 c -0.16595,0 -0.25148,0.002 -0.42025,0 -3.31187,0.22055 -6.60841,0.44931 -9.74988,0.58836 -8.62374,-32.5256 -26.97904,-60.25883 -51.35498,-80.68867 1.60729,-3.1447 3.27809,-6.35625 4.79089,-9.16152 -0.99543,-0.81281 -2.01006,-1.63731 -3.02582,-2.43747 5.45845,-9.92498 6.96996,-13.59389 12.18735,-21.01268 5.27626,-7.50754 8.55571,-10.02059 11.01064,-11.51494 1.20323,-0.73238 2.28039,-1.11821 3.69823,-1.93317 1.878,-1.39376 3.6794,-2.73924 4.79089,-4.28658 3.84054,-5.45967 2.43873,-13.05368 -3.02583,-16.89419 -0.32732,-0.25821 -0.72985,-0.47687 -1.00861,-0.67241 -5.35826,-2.99758 -12.37048,-1.59225 -15.96963,3.53013 -1.41076,2.00807 -1.96479,4.18129 -2.26937,5.88355 -0.29862,1.44836 -0.48485,3.06496 -0.6724,4.28659 -0.57504,2.81576 -1.78494,6.6162 -7.06026,14.12051 -5.21545,7.42067 -8.21612,10.1614 -15.71748,18.65926 -1.11904,-0.69285 -2.3219,-1.43129 -3.44608,-2.10127 -2.36423,2.57074 -4.82246,5.47365 -6.89215,7.73266 -27.48157,-15.92552 -59.80453,-23.80181 -93.29627,-20.84457 -1.01566,-3.37198 -2.05479,-6.78309 -2.94178,-9.83393 -1.41044,0.16138 -2.65662,0.30003 -3.95038,0.42025 -3.14317,-10.81739 -4.66652,-14.53485 -6.21975,-23.45014 -1.57717,-9.03632 -1.09823,-13.17861 -0.42026,-15.96963 0.49261,-1.5148 0.88844,-2.91945 1.26077,-4.11849 0.44946,-1.66998 0.84271,-3.80635 0.42025,-6.21975 -0.57082,-3.29263 -2.48217,-6.12238 -5.04304,-7.90076 -1.92623,-1.32572 -4.3055,-2.04455 -6.72406,-2.10127 z"
           style="font-size:medium;font-style:normal;font-variant:normal;font-weight:normal;font-stretch:normal;text-indent:0;text-align:start;text-decoration:none;line-height:normal;letter-spacing:normal;word-spacing:normal;text-transform:none;direction:ltr;block-progression:tb;writing-mode:lr-tb;text-anchor:start;baseline-shift:baseline;color:#000000;fill:#0084ae;fill-opacity:1;stroke:none;stroke-width:7.92560863;marker:none;visibility:visible;display:inline;overflow:visible;enable-background:accumulate;font-family:Sans;-inkscape-font-specification:Sans"
           inkscape:connector-curvature="0" />
        <path
           id="path3185"
           d="m 347.17565,656.91706 c -34.77082,7.98334 -64.38986,27.03541 -85.89981,52.69978 -0.37668,-0.19365 -0.78545,-0.38233 -1.17671,-0.58835 l -2.68962,-1.34481 c -1.61709,-0.87063 -3.24086,-1.78215 -4.87494,-2.68962 -0.14713,-0.0834 -0.27488,-0.0874 -0.42026,-0.16811 -0.81342,0.9949 -1.63757,2.00996 -2.43747,3.02583 -9.85192,-5.41502 -13.61626,-6.98616 -21.01267,-12.18735 -7.50329,-5.2765 -10.02048,-8.55582 -11.51495,-11.01064 -0.73085,-1.20522 -1.20145,-2.27973 -2.01721,-3.69823 l 0,-0.0839 c -0.86286,-1.49866 -2.1971,-3.29775 -4.20254,-4.70684 -5.46114,-3.84481 -13.05435,-2.43895 -16.89419,3.02583 -0.23991,0.34131 -0.55661,0.65142 -0.75645,1.00861 -2.99826,5.35799 -1.50969,12.37064 3.61418,15.96963 2.00376,1.41124 4.18136,1.96463 5.88354,2.26937 l 0.0839,0.0839 c 1.59774,0.2808 2.83088,0.30837 4.20254,0.58836 2.81555,0.57558 6.70019,1.86915 14.20456,7.14431 7.39853,5.20307 10.13627,8.17941 18.57521,15.63342 -0.68922,1.12023 -1.43078,2.32236 -2.10127,3.44608 0.12426,0.11028 0.20898,0.14121 0.3362,0.25202 2.61141,2.27919 5.00719,4.45011 7.39646,6.64001 -15.90172,27.45539 -23.77615,59.85054 -20.84457,93.29626 -0.36374,0.11566 -0.71235,0.21786 -1.09266,0.33621 l -2.94177,0.92456 c -1.75896,0.5277 -3.58215,1.08324 -5.37925,1.59696 -0.16245,0.0484 -0.26089,0.0355 -0.42025,0.0839 0.089,0.88946 0.23696,1.79425 0.3362,2.68963 0.0576,0.42684 0.19366,0.75901 0.25202,1.17671 -10.93587,3.17617 -14.66309,4.74382 -23.61824,6.3038 -9.03619,1.57719 -13.17708,1.09938 -15.96964,0.42025 -1.3702,-0.33082 -2.45479,-0.91877 -4.03443,-1.34481 l -0.0839,0.0839 c -1.6713,-0.44729 -3.80546,-0.84199 -6.21975,-0.42026 -6.57997,1.14551 -10.98342,7.62575 -9.83393,14.20457 0.0702,0.4134 0.0573,0.78214 0.1681,1.17671 1.66967,5.90695 7.78407,9.73468 13.95242,8.65722 2.41337,-0.42039 4.21235,-1.4493 5.63139,-2.43747 l 0.0839,-0.0839 c 1.32859,-0.92819 2.27795,-1.74933 3.44608,-2.52153 2.39632,-1.5823 6.00784,-3.46584 15.04507,-5.04304 8.97987,-1.56589 12.83813,-1.21934 24.29065,-1.93316 0.0794,0.40075 0.17295,0.77568 0.25202,1.17671 l 0.67241,2.60557 c 0.16675,0 0.25175,0.0242 0.42025,0 3.37526,-0.22593 6.72338,-0.44903 9.91798,-0.58836 8.62844,32.4823 26.84932,60.27524 51.18687,80.68867 -0.19607,0.37332 -0.38168,0.70186 -0.58835,1.09266 l -1.34481,2.77367 c -0.87055,1.617 -1.86614,3.241 -2.77367,4.87494 -0.0812,0.14793 -0.0877,0.27555 -0.16811,0.42025 1.01493,0.83325 2.07171,1.62091 3.10988,2.43747 -5.41437,9.85102 -6.98603,13.5327 -12.18735,20.92863 -5.27411,7.50431 -8.55555,10.10437 -11.01064,11.59899 -1.20178,0.73024 -2.27994,1.11741 -3.69823,1.93317 l -0.0839,0.0839 c -1.50022,0.86525 -3.21396,2.1131 -4.62279,4.11848 -3.84349,5.4637 -2.52292,13.13853 2.94178,16.97828 0.34153,0.2394 0.65137,0.4726 1.00861,0.6724 5.3578,2.9981 12.36922,1.5098 15.96963,-3.61421 1.40871,-2.00566 1.96461,-4.09724 2.26937,-5.7995 l 0,-0.0839 c 0.28321,-1.59629 0.39239,-2.8311 0.6724,-4.20253 0.57518,-2.81604 1.86897,-6.70052 7.14431,-14.20457 5.20092,-7.40023 8.18,-10.13598 15.63343,-18.5752 1.12122,0.68988 2.23768,1.43155 3.36203,2.10126 0.10866,-0.12103 0.22485,-0.20979 0.3362,-0.3362 2.28126,-2.60974 4.44912,-5.00781 6.64001,-7.39646 27.48648,15.94973 59.79062,23.71695 93.29626,20.76052 0.12884,0.39995 0.29105,0.84279 0.42026,1.26076 l 0.92482,2.85799 c 0.52903,1.75713 0.91491,3.58258 1.42887,5.37925 0.0468,0.16407 0.2071,0.17482 0.25201,0.3362 0.89011,-0.0915 1.71047,-0.15358 2.60558,-0.25202 l 1.17671,-0.25201 c 3.19987,11.04009 4.73747,14.62683 6.3038,23.61822 1.57794,9.035 1.09954,13.0927 0.42025,15.8856 -0.33217,1.3677 -0.83421,2.4543 -1.26076,4.0344 l 0,0.084 c -0.44946,1.6697 -0.75818,3.9736 -0.3362,6.3878 1.14556,6.5799 7.54135,10.8986 14.12051,9.7499 0.41262,-0.073 0.69869,-0.055 1.09266,-0.1681 5.90857,-1.6684 9.90257,-7.7003 8.82533,-13.8684 -0.42198,-2.4142 -1.61735,-4.3804 -2.60558,-5.7995 l 0,-0.084 c -0.92687,-1.3311 -1.74919,-2.1947 -2.52152,-3.362 -1.583,-2.4 -3.38241,-6.0093 -4.95899,-15.0451 -1.64336,-9.41448 -1.32345,-12.89243 -2.18532,-25.71951 -0.0793,-1.20791 -0.10301,-2.18424 -0.1681,-3.36203 -0.4852,0.11566 -0.945,0.14363 -1.42886,0.25202 -2.53704,0.5737 -5.06765,1.06186 -7.64861,1.51291 -1.65237,0.28752 -3.37822,0.59898 -5.04304,0.84051 -0.33518,0.0457 -0.67421,0.0414 -1.00861,0.0839 -0.45495,0.0403 -0.97685,0.1143 -1.42886,0.1681 -0.20657,-0.67402 -0.39072,-1.3553 -0.58836,-2.01722 l -0.84051,-2.94177 c -0.0107,-0.0403 0.0135,-0.0463 0,-0.0839 -0.27391,-0.8822 -0.57219,-1.69285 -0.8405,-2.52152 -0.22566,-0.69661 -0.45807,-1.41084 -0.67241,-2.10127 -35.60753,4.18747 -70.05263,-4.18478 -98.67551,-21.85318 -0.46681,0.49382 -1.03814,1.01049 -1.51291,1.51291 -0.0188,0.0269 0.0188,0.0624 0,0.0839 -1.76308,1.86606 -3.52583,3.64014 -5.37925,5.71545 -0.0188,0.0269 -0.0651,0.0597 -0.0839,0.0839 -2.20307,-1.3951 -4.34323,-2.87466 -6.47191,-4.37063 -2.03723,-1.43088 -4.07725,-2.84401 -6.05165,-4.37064 0.0134,-0.0269 -0.0135,-0.0597 0,-0.0839 0.31724,-0.59764 0.69446,-1.26547 1.00861,-1.84912 l 1.42886,-2.60557 c 0.0269,-0.0511 0.0576,-0.117 0.0839,-0.1681 0.17993,-0.33863 0.33292,-0.6907 0.5043,-1.00861 0.0269,-0.0511 0.0584,-0.0328 0.0839,-0.0839 0.21329,-0.40747 0.46396,-0.86135 0.6724,-1.26076 0.32739,-0.65116 0.67819,-1.29814 1.00861,-1.93316 -25.04899,-19.81553 -44.06101,-47.50102 -52.95193,-80.10031 1.76944,-0.0565 3.70506,-0.0573 5.29519,-0.0839 1.24027,-0.0269 12.67226,-0.33889 13.78431,-0.3362 0.3365,-0.6673 0.69411,-1.24584 0.92456,-2.01722 0.2305,-0.77111 0.34634,-1.02797 0.75646,-2.18532 0.40914,-1.15627 1.31175,-3.62144 1.59696,-5.9676 5.93368,-1.01022 9.02392,-1.49368 16.64204,-1.76506 8.68385,-0.30904 19.56291,-0.72997 27.90483,-2.18532 3.60226,-0.6283 7.55286,-1.59764 11.59899,-2.68962 -0.25928,-0.77461 -0.43884,-1.57155 -0.6724,-2.35342 l 0.25202,0 -3.02583,-16.89419 -0.1681,0.0839 c -0.0503,-0.85369 -0.14766,-1.74974 -0.1681,-2.60558 -4.13191,0.33163 -8.20459,0.80756 -11.7671,1.42887 -8.34224,1.45535 -18.7046,4.6634 -26.98027,7.31241 -7.26023,2.32383 -10.36844,3.13394 -16.30584,4.20253 -1.03265,-2.02502 -2.25377,-3.93169 -3.69823,-5.37924 l -1.59696,-1.51292 -1.93317,1.00861 c -0.50395,0.25821 -1.1961,0.5 -2.01721,0.84051 0.44013,4.75929 1.15352,10.69595 1.76506,14.20457 0.67515,3.87278 1.59471,7.59401 2.52152,11.34684 l -7.64861,0.0839 c -0.0274,-0.003 -0.0554,0 -0.0839,0 l -1.76506,0 c -0.38639,0 -0.86329,0.0758 -1.26076,0.0839 l -2.94178,-0.0839 c 0.008,0.0376 -0.0108,0.0463 0,0.0839 -0.72536,0.0269 -1.60393,0.1439 -2.35342,0.1681 -1.55616,0.0511 -3.15576,0.10086 -4.79088,0.16811 -1.78287,0.078 -3.4587,0.0686 -5.2952,0.1681 -0.0406,10e-4 -0.043,0 -0.0839,0 -0.1864,-0.82895 -0.33844,-1.60073 -0.50431,-2.43747 -0.0269,-0.11566 -0.0584,-0.30299 -0.0839,-0.42026 -0.35517,-1.61 -0.64277,-3.17765 -0.92456,-4.79089 -0.25982,-1.49139 -0.45519,-2.96786 -0.67241,-4.45468 -0.14013,-0.95858 -0.29594,-1.97217 -0.42025,-2.94178 0.0379,0 0.0468,0.0269 0.0839,0 0.63511,-0.19903 1.30961,-0.40142 1.93317,-0.58835 l 2.85772,-0.84051 c 0.0417,0 0.12776,-0.0573 0.16811,-0.0839 0.88792,-0.27434 1.65167,-0.48265 2.52152,-0.75645 0.6915,-0.22324 1.41681,-0.4532 2.10126,-0.67241 -4.18889,-35.60925 4.18148,-70.05067 21.85318,-98.67551 -0.50029,-0.47219 -0.98496,-1.09968 -1.51291,-1.59696 -0.0161,0.0242 -0.071,-0.0269 -0.0839,0 -1.83871,-1.70678 -3.83161,-3.61418 -5.7995,-5.37925 1.38413,-2.21625 2.87063,-4.33822 4.37063,-6.4719 1.43427,-2.03632 2.91851,-4.0885 4.45469,-6.05165 0.59777,0.3171 1.18201,0.69392 1.76506,1.00861 l 2.68963,1.42886 c 0.0541,0.0269 0.11619,0.0573 0.1681,0.0839 0.34029,0.17752 0.68981,0.33298 1.00861,0.50431 0.45928,0.23937 0.81232,0.52999 1.26076,0.75645 0.65306,0.32679 1.38211,0.59266 2.01721,0.92456 20.87639,-26.39998 50.41504,-46.07807 85.31146,-54.29675 -0.0463,-1.55863 -0.10839,-3.26547 -0.1681,-4.87494 z"
           style="font-size:medium;font-style:normal;font-variant:normal;font-weight:normal;font-stretch:normal;text-indent:0;text-align:start;text-decoration:none;line-height:normal;letter-spacing:normal;word-spacing:normal;text-transform:none;direction:ltr;block-progression:tb;writing-mode:lr-tb;text-anchor:start;baseline-shift:baseline;color:#000000;fill:#620074;fill-opacity:1;stroke:none;stroke-width:7.92560863;marker:none;visibility:visible;display:inline;overflow:visible;enable-background:accumulate;font-family:Sans;-inkscape-font-specification:Sans"
           inkscape:connector-curvature="0" />
        <path
           id="path3183"
           d="m 382.14073,660.02693 c -6.44178,0.0334 -12.9619,0.46757 -19.49976,1.34482 -1.96864,0.26358 -3.90928,0.58055 -5.88354,0.92455 -0.0188,0.003 -0.0638,-0.0896 -0.0839,-0.0839 -2.02822,0.35314 -3.97249,0.83015 -5.9676,1.26076 -1.98661,0.42872 -3.93142,0.84158 -5.88355,1.34481 -31.90613,8.22217 -59.12112,26.28863 -78.9236,50.26231 -1.24817,1.51103 -2.50958,3.0655 -3.69823,4.62279 -1.2166,1.59387 -2.37714,3.15049 -3.53013,4.79089 -1.16848,1.66219 -2.26687,3.41353 -3.36203,5.12709 -1.05331,1.63422 -2.11982,3.20173 -3.10987,4.87494 -0.0444,0.0726 -0.0401,0.17967 -0.0839,0.25202 -17.66834,29.96777 -25.25526,66.10984 -18.82735,103.04615 0.003,0.0269 -0.003,0.0624 0,0.0839 0.38332,2.20091 0.7869,4.31133 1.26076,6.4719 0.0637,-0.002 0.10462,0.0866 0.1681,0.0839 0.0839,0.36686 0.16568,0.72579 0.25201,1.09266 l 11.17875,-0.0839 c -0.76689,-3.11082 -1.45754,-6.20442 -2.01722,-9.41368 -0.53478,-3.06832 -1.01875,-6.19743 -1.34481,-9.24557 l -5.9676,2.01721 c -3.84869,-32.54308 3.34648,-64.08361 18.7433,-90.6907 3.55404,3.47984 6.57766,6.57613 7.73267,8.06887 l 1.26076,1.59696 1.93316,-0.6724 c 1.97524,-0.71302 3.93888,-1.90452 5.7995,-3.36203 4.90999,3.48145 7.36467,5.39619 12.94381,10.59039 6.35897,5.92201 14.42135,13.28539 21.34888,18.15495 2.99465,2.10597 6.53416,4.22069 10.17013,6.3038 1.6213,-3.24637 3.48532,-6.4364 5.6314,-9.49773 2.14559,-3.06052 4.47706,-5.85786 6.9762,-8.48912 -3.16929,-2.69877 -6.35485,-5.30555 -9.32962,-7.39646 -6.92782,-4.86983 -16.56584,-9.97366 -24.29065,-13.95242 -6.77699,-3.49059 -9.41868,-5.13045 -14.37267,-8.57317 0.70317,-2.16407 1.09042,-4.34239 1.09266,-6.38785 l 0,-2.18532 -2.10127,-0.58835 c -1.81512,-0.58849 -5.59727,-2.34992 -10.08608,-4.53874 18.87983,-22.51052 44.56209,-39.49562 74.63701,-47.48864 0.0621,4.97472 -0.0134,9.30757 -0.25202,11.17874 l -0.25201,2.10127 1.93316,0.75646 c 1.9007,0.89268 4.04154,1.56428 6.38786,1.84911 1.01003,5.93385 1.40981,8.93963 1.68101,16.55799 0.30931,8.68371 0.8138,19.64782 2.26937,27.98888 0.6248,3.58392 1.51044,7.58877 2.60557,11.59899 0.80936,-0.27084 1.61832,-0.51358 2.43747,-0.75645 l 0.0839,0.25202 16.81013,-2.94178 0,-0.25202 c 0.81378,-0.0484 1.62338,-0.14927 2.43747,-0.1681 -0.33165,-4.1318 -0.80796,-8.20388 -1.42886,-11.7671 -1.4571,-8.33971 -4.57932,-18.70484 -7.22836,-26.98027 -2.32337,-7.26117 -3.05041,-10.36795 -4.11848,-16.30583 2.02311,-1.02986 3.76326,-2.25283 5.21114,-3.69823 l 1.59697,-1.51292 -1.00861,-1.93316 c -0.87297,-1.71006 -2.31327,-5.66461 -3.95039,-10.42229 30.99131,-2.7149 60.89972,4.51655 86.32007,19.24761 -3.47841,3.55299 -6.57723,6.57828 -8.06887,7.73267 l -1.59696,1.26076 0.6724,1.93316 c 0.71372,1.97392 1.82053,4.02287 3.27798,5.88355 -3.48252,4.91152 -5.31136,7.28121 -10.50634,12.85976 -5.92074,6.35773 -13.28498,14.42094 -18.15495,21.34887 -2.10541,2.99382 -4.22058,6.53431 -6.3038,10.17014 3.24611,1.62157 6.4368,3.48561 9.49773,5.63139 3.08424,2.16219 5.84129,4.45577 8.48912,6.97621 2.69828,-3.16918 5.30539,-6.27085 7.39646,-9.24558 4.86988,-6.92766 9.97374,-16.64983 13.95242,-24.3747 3.49056,-6.77704 5.13026,-9.41865 8.57317,-14.37267 2.16116,0.70307 4.34293,1.09105 6.38785,1.09266 l 2.18532,0 0.58835,-2.10126 c 0.58728,-1.81362 2.35062,-5.59738 4.53874,-10.08609 21.17921,17.76227 37.46334,41.48016 45.97573,69.25777 0.72337,0 1.40132,0.0135 2.26937,0 0.79456,0 1.71017,-0.0492 2.60557,-0.0839 -8.79458,-29.60629 -26.11446,-54.85713 -48.7494,-73.54436 -1.52082,-1.25578 -3.05498,-2.50269 -4.62279,-3.69823 -1.56813,-1.20495 -3.17381,-2.39349 -4.79089,-3.53013 -1.667,-1.1716 -3.41418,-2.25767 -5.12709,-3.36203 -1.63395,-1.05352 -3.20114,-2.11901 -4.87494,-3.10987 -0.0721,-0.043 -0.17913,-0.0409 -0.25202,-0.0839 -23.04697,-13.59246 -49.74849,-21.15764 -77.66284,-21.01267 z"
           style="font-size:medium;font-style:normal;font-variant:normal;font-weight:normal;font-stretch:normal;text-indent:0;text-align:start;text-decoration:none;line-height:normal;letter-spacing:normal;word-spacing:normal;text-transform:none;direction:ltr;block-progression:tb;writing-mode:lr-tb;text-anchor:start;baseline-shift:baseline;color:#000000;fill:#f69600;fill-opacity:1;stroke:none;stroke-width:7.92560863;marker:none;visibility:visible;display:inline;overflow:visible;enable-background:accumulate;font-family:Sans;-inkscape-font-specification:Sans"
           inkscape:connector-curvature="0" />
        <path
           id="path3167"
           d="m 530.65831,777.95006 -11.09469,0.0839 c 0.7681,3.10894 1.37305,6.20523 1.93316,9.41368 0.53403,3.06967 1.01891,6.19716 1.34481,9.24558 l 5.9676,-2.10127 c 3.85289,32.58262 -3.29962,64.14157 -18.7433,90.77475 -3.56878,-3.49248 -6.57416,-6.57236 -7.73266,-8.06887 l -1.26076,-1.59696 -1.93317,0.6724 c -1.97523,0.71275 -4.02306,1.90479 -5.88355,3.36203 -4.91117,-3.47983 -7.28126,-5.39538 -12.85976,-10.59039 -6.35915,-5.92174 -14.42121,-13.28565 -21.34887,-18.15495 -2.9744,-2.09198 -6.47632,-4.23386 -10.08608,-6.3038 -1.61146,3.21679 -3.50431,6.37952 -5.6314,9.41368 -2.16243,3.08446 -4.53987,5.92578 -7.06026,8.57317 3.16932,2.69877 6.27064,5.30582 9.24558,7.39646 6.92626,4.87198 16.65002,9.97339 24.3747,13.95242 6.7776,3.48978 9.41887,5.13018 14.37267,8.57317 -0.70175,2.16219 -1.09091,4.34293 -1.09266,6.38785 l 0,2.18532 2.01721,0.58835 c 1.8162,0.58661 5.68119,2.3502 10.17014,4.53874 -18.88884,22.48336 -44.58536,39.5045 -74.63702,47.48864 -0.0533,-4.97849 0.0134,-9.30515 0.25202,-11.17874 l 0.25202,-2.10113 -1.84912,-0.84051 c -1.90073,-0.89268 -4.12574,-1.47969 -6.4719,-1.76506 -1.01143,-5.9317 -1.32577,-9.02396 -1.59696,-16.64204 -0.30936,-8.68372 -0.89847,-19.56297 -2.35342,-27.90483 -0.62513,-3.58392 -1.5205,-7.57452 -2.60557,-11.599 -0.78365,0.26359 -1.56171,0.52327 -2.35342,0.75646 l -0.0839,-0.25202 -16.81014,2.94178 0,0.1681 c -0.85436,0.0484 -1.66579,0.0624 -2.52152,0.0839 0.33254,4.17376 0.80143,8.33783 1.42886,11.9352 1.45528,8.34213 4.66381,18.70431 7.31241,26.98027 2.32521,7.25849 3.04979,10.28472 4.11849,16.22179 -2.02615,1.03416 -3.84797,2.33741 -5.2952,3.78228 l -1.59696,1.51291 1.00861,1.93317 c 0.86818,1.70038 2.40573,5.61257 4.03443,10.33823 -31.00801,2.73965 -60.98035,-4.43196 -86.40411,-19.16355 3.49255,-3.56886 6.57255,-6.57425 8.06886,-7.73267 l 1.59697,-1.26076 -0.67241,-1.93316 c -0.71277,-1.97499 -1.90457,-3.93909 -3.36203,-5.7995 3.48145,-4.90991 5.39539,-7.36526 10.59039,-12.94381 5.92169,-6.35907 13.28528,-14.42148 18.15495,-21.34888 2.106,-2.99489 4.22058,-6.5343 6.3038,-10.17013 -3.24591,-1.6213 -6.35313,-3.40183 -9.41367,-5.54735 -3.08398,-2.16218 -5.92559,-4.54008 -8.57317,-7.06025 -2.69858,3.16945 -5.3051,6.35436 -7.39647,9.32962 -4.86896,6.92659 -9.97341,16.56552 -13.95241,24.29065 -3.48962,6.7757 -5.13043,9.41893 -8.57317,14.37267 -2.16211,-0.70172 -4.34291,-1.09077 -6.38785,-1.09266 l -2.18532,0 -0.58836,2.10127 c -0.58822,1.81523 -2.3503,5.5971 -4.53873,10.08608 -21.13619,-17.75527 -37.38008,-41.50006 -45.89168,-69.25777 -0.74686,0 -1.45923,-0.0269 -2.35342,0 -0.8103,0 -1.69312,-0.0215 -2.60557,0 8.78226,29.66438 25.99033,54.93392 48.66535,73.62841 0.10624,0.0915 0.31229,0.16326 0.42025,0.25202 1.10412,0.90721 2.23249,1.81522 3.36203,2.68962 1.1465,0.88758 2.27488,1.75135 3.44608,2.60557 0.75072,0.55245 1.42324,1.1447 2.18532,1.68102 0.82084,0.57531 1.77246,1.12318 2.60557,1.68101 0.81033,0.54169 1.61603,1.07168 2.43747,1.59696 0.046,0.0323 0.0366,0.0549 0.0839,0.0839 1.49777,0.95885 3.00996,1.94755 4.53874,2.85772 0.2184,0.1291 0.45269,0.20764 0.67241,0.3362 28.38425,16.70928 62.26324,24.38251 97.1626,19.66787 1.961,-0.25552 3.93645,-0.50081 5.88355,-0.84051 2.02867,-0.35395 4.05648,-0.83042 6.05165,-1.26076 1.98784,-0.43061 3.9312,-0.84131 5.88354,-1.34481 31.88959,-8.21599 59.1161,-26.23498 78.92361,-50.17827 0.79736,-0.96557 1.57576,-2.04169 2.35341,-3.02582 0.45261,-0.57585 0.90065,-1.09898 1.34482,-1.68101 0.96433,-1.25471 1.93628,-2.49638 2.85772,-3.78229 0.22835,-0.32087 0.44564,-0.60234 0.6724,-0.92455 0.17618,-0.25014 0.32991,-0.50471 0.50431,-0.75646 2.13766,-3.07746 4.145,-6.35369 6.05165,-9.58178 17.69658,-29.96347 25.17424,-66.09155 18.7433,-103.04615 -0.002,-0.0269 0.0866,0.0215 0.0839,0 -0.38373,-2.19957 -0.78636,-4.39699 -1.26076,-6.55595 -0.0406,0.001 -0.12749,0 -0.1681,0 -0.0917,-0.4056 -0.15869,-0.77515 -0.25202,-1.17671 z"
           style="font-size:medium;font-style:normal;font-variant:normal;font-weight:normal;font-stretch:normal;text-indent:0;text-align:start;text-decoration:none;line-height:normal;letter-spacing:normal;word-spacing:normal;text-transform:none;direction:ltr;block-progression:tb;writing-mode:lr-tb;text-anchor:start;baseline-shift:baseline;color:#000000;fill:#2aa600;fill-opacity:1;stroke:none;stroke-width:7.92560863;marker:none;visibility:visible;display:inline;overflow:visible;enable-background:accumulate;font-family:Sans;-inkscape-font-specification:Sans"
           inkscape:connector-curvature="0" />
        <path
           id="path3157"
           d="m 381.38428,741.64016 c -3.51994,0.0769 -7.10141,0.38066 -10.67444,1.00861 -38.11149,6.69527 -63.6849,43.07941 -56.98637,81.19297 6.70068,38.11463 43.1658,63.68191 81.27702,56.98637 38.11017,-6.70039 63.68439,-43.08264 56.98637,-81.19297 -3.35033,-19.05786 -14.13746,-35.00396 -28.82939,-45.30333 -11.93708,-8.36846 -26.52016,-13.02463 -41.77319,-12.69165 z m 0.1681,4.70684 c 14.23531,-0.32252 27.71532,4.04365 38.83142,11.85114 13.68216,9.60841 23.68481,24.40429 26.81217,42.19345 6.25197,35.57268 -17.37894,69.47604 -52.95194,75.72968 -35.57388,6.24987 -69.4749,-17.45848 -75.72967,-53.03599 -6.25243,-35.57617 17.46229,-69.48034 53.03599,-75.72968 3.33518,-0.58614 6.71695,-0.93418 10.00203,-1.0086 z"
           style="font-size:medium;font-style:normal;font-variant:normal;font-weight:normal;font-stretch:normal;text-indent:0;text-align:start;text-decoration:none;line-height:normal;letter-spacing:normal;word-spacing:normal;text-transform:none;direction:ltr;block-progression:tb;writing-mode:lr-tb;text-anchor:start;baseline-shift:baseline;color:#000000;fill:#acacac;fill-opacity:1;stroke:none;stroke-width:7.92560863;marker:none;visibility:visible;display:inline;overflow:visible;enable-background:accumulate;font-family:Sans;-inkscape-font-specification:Sans"
           inkscape:connector-curvature="0" />
        <path
           id="path4019"
           d="m 381.30023,748.86852 c -3.0733,0.0858 -6.21526,0.37724 -9.32963,0.92455 -16.61108,2.91932 -30.58609,12.0877 -39.84003,24.71091 l 3.95038,2.77367 c 6.94695,-9.43761 16.76084,-16.87966 28.40914,-20.76052 l 1.84911,11.01064 16.97824,-3.02582 -1.93316,-10.92659 c 9.84264,-0.26924 19.26097,2.11807 27.65268,6.38785 l -21.76913,30.93065 3.86633,2.68963 22.02128,-31.35091 c 0.62418,0.38408 1.32351,0.77004 1.93317,1.17671 l 2.85772,-4.03444 c -10.56564,-7.07803 -23.32849,-10.87812 -36.6461,-10.50633 z"
           style="font-size:medium;font-style:normal;font-variant:normal;font-weight:normal;font-stretch:normal;text-indent:0;text-align:start;text-decoration:none;line-height:normal;letter-spacing:normal;word-spacing:normal;text-transform:none;direction:ltr;block-progression:tb;writing-mode:lr-tb;text-anchor:start;baseline-shift:baseline;color:#000000;fill:#f69600;fill-opacity:1;stroke:none;stroke-width:7.92560863;marker:none;visibility:visible;display:inline;overflow:visible;enable-background:accumulate;font-family:Sans;-inkscape-font-specification:Sans"
           inkscape:connector-curvature="0" />
        <path
           id="path4017"
           d="m 420.0476,760.97182 -2.85773,4.03443 c 0.65385,0.48144 1.29914,1.00538 1.93317,1.51291 l -21.93723,31.26686 3.86633,2.77367 21.76913,-30.8466 c 6.76911,6.39242 12.12538,14.39284 15.21318,23.61824 l -10.92659,1.84912 2.94177,16.97824 11.01064,-1.93317 c 0.32321,12.27383 -3.33107,23.9558 -9.83393,33.70433 l 3.86633,2.77367 c 8.71196,-13.00378 12.66906,-29.28111 9.74988,-45.89167 -2.91931,-16.61057 -12.17153,-30.58558 -24.79495,-39.84003 z"
           style="font-size:medium;font-style:normal;font-variant:normal;font-weight:normal;font-stretch:normal;text-indent:0;text-align:start;text-decoration:none;line-height:normal;letter-spacing:normal;word-spacing:normal;text-transform:none;direction:ltr;block-progression:tb;writing-mode:lr-tb;text-anchor:start;baseline-shift:baseline;color:#000000;fill:#0084ae;fill-opacity:1;stroke:none;stroke-width:7.92560863;marker:none;visibility:visible;display:inline;overflow:visible;enable-background:accumulate;font-family:Sans;-inkscape-font-specification:Sans"
           inkscape:connector-curvature="0" />
        <path
           id="path4015"
           d="m 352.55489,764.9222 -8.74127,12.4395 14.03646,9.83393 2.10127,-3.02582 19.58381,-3.44608 -2.18532,3.19393 3.86634,2.68962 12.01925,-17.06229 -3.78229,-2.68962 -6.55595,9.07747 -19.66786,3.44608 3.27798,-4.62279 -13.95242,-9.83393 z"
           style="font-size:medium;font-style:normal;font-variant:normal;font-weight:normal;font-stretch:normal;text-indent:0;text-align:start;text-decoration:none;line-height:normal;letter-spacing:normal;word-spacing:normal;text-transform:none;direction:ltr;block-progression:tb;writing-mode:lr-tb;text-anchor:start;baseline-shift:baseline;color:#000000;fill:#000000;fill-opacity:1;stroke:none;stroke-width:7.92560863;marker:none;visibility:visible;display:inline;overflow:visible;enable-background:accumulate;font-family:Sans;-inkscape-font-specification:Sans"
           inkscape:connector-curvature="0" />
        <path
           id="path4013"
           d="m 330.70171,776.6893 c -8.71185,13.00405 -12.6692,29.28057 -9.74988,45.89168 2.9194,16.61056 12.17145,30.50179 24.79495,39.75597 l 2.68963,-3.78228 c -0.6272,-0.46261 -1.24046,-1.02555 -1.84912,-1.51291 l 22.02128,-31.43496 -3.95038,-2.68962 -21.68508,31.0147 c -6.76886,-6.40775 -12.04795,-14.61433 -15.12912,-23.87039 l 10.75849,-1.84912 -2.94178,-16.89419 -10.75849,1.93317 c -0.32316,-12.27355 3.24683,-24.04011 9.74988,-33.78838 l -3.95038,-2.77367 z"
           style="font-size:medium;font-style:normal;font-variant:normal;font-weight:normal;font-stretch:normal;text-indent:0;text-align:start;text-decoration:none;line-height:normal;letter-spacing:normal;word-spacing:normal;text-transform:none;direction:ltr;block-progression:tb;writing-mode:lr-tb;text-anchor:start;baseline-shift:baseline;color:#000000;fill:#620074;fill-opacity:1;stroke:none;stroke-width:7.92560863;marker:none;visibility:visible;display:inline;overflow:visible;enable-background:accumulate;font-family:Sans;-inkscape-font-specification:Sans"
           inkscape:connector-curvature="0" />
        <path
           id="path4011"
           d="m 337.25766,786.77538 -8.82532,12.4395 14.12052,9.91798 2.52152,-3.69823 50.76662,35.55345 -9.58178,1.76506 2.26937,-3.19392 -4.03444,-2.77368 -12.01925,17.23039 3.86634,2.68963 6.64,-9.16153 17.5666,-3.19393 1.09266,0.75646 -2.52153,3.69823 13.95242,9.74988 2.60557,-3.61418 2.68962,-3.86633 3.53013,-4.95899 -14.03646,-9.83393 -2.10127,3.02582 -3.36203,0.58836 -54.63295,-38.32712 3.53013,-4.87494 -14.03647,-9.91798 z"
           style="font-size:medium;font-style:normal;font-variant:normal;font-weight:normal;font-stretch:normal;text-indent:0;text-align:start;text-decoration:none;line-height:normal;letter-spacing:normal;word-spacing:normal;text-transform:none;direction:ltr;block-progression:tb;writing-mode:lr-tb;text-anchor:start;baseline-shift:baseline;color:#000000;fill:#ef0000;fill-opacity:1;stroke:none;stroke-width:7.92560863;marker:none;visibility:visible;display:inline;overflow:visible;enable-background:accumulate;font-family:Sans;-inkscape-font-specification:Sans"
           inkscape:connector-curvature="0" />
        <path
           id="path4009"
           d="m 419.03899,787.61589 -12.01925,17.06229 3.86633,2.77367 2.18532,-3.10988 3.44608,19.58382 -2.10127,3.02582 14.12052,9.74988 8.65722,-12.4395 -13.95242,-9.91798 -3.27797,4.70684 -3.44608,-19.58382 6.4719,-9.07747 -3.95038,-2.77367 z"
           style="font-size:medium;font-style:normal;font-variant:normal;font-weight:normal;font-stretch:normal;text-indent:0;text-align:start;text-decoration:none;line-height:normal;letter-spacing:normal;word-spacing:normal;text-transform:none;direction:ltr;block-progression:tb;writing-mode:lr-tb;text-anchor:start;baseline-shift:baseline;color:#000000;fill:#020051;fill-opacity:1;stroke:none;stroke-width:7.92560863;marker:none;visibility:visible;display:inline;overflow:visible;enable-background:accumulate;font-family:Sans;-inkscape-font-specification:Sans"
           inkscape:connector-curvature="0" />
        <path
           id="path4007"
           d="m 354.82426,815.94097 -12.01925,17.14634 3.86633,2.77367 12.01925,-17.14634 -3.86633,-2.77367 z"
           style="font-size:medium;font-style:normal;font-variant:normal;font-weight:normal;font-stretch:normal;text-indent:0;text-align:start;text-decoration:none;line-height:normal;letter-spacing:normal;word-spacing:normal;text-transform:none;direction:ltr;block-progression:tb;writing-mode:lr-tb;text-anchor:start;baseline-shift:baseline;color:#000000;fill:#acacac;fill-opacity:1;stroke:none;stroke-width:7.92560863;marker:none;visibility:visible;display:inline;overflow:visible;enable-background:accumulate;font-family:Sans;-inkscape-font-specification:Sans"
           inkscape:connector-curvature="0" />
        <path
           id="path3984-8"
           d="m 374.66022,829.89339 -22.02128,31.3509 c -0.64841,-0.39806 -1.38478,-0.7539 -2.01722,-1.17671 l -2.77367,3.86634 c 13.00363,8.71168 29.28106,12.66919 45.89168,9.74988 16.60976,-2.91959 30.66995,-12.17149 39.92408,-24.79496 l -3.95038,-2.68962 c -6.94735,9.43708 -16.76114,16.79535 -28.40914,20.67647 l -1.93316,-10.92659 -16.89419,2.94177 1.84911,10.92659 c -9.80684,0.26359 -19.20632,-1.9879 -27.56862,-6.21975 l 21.76912,-31.0147 -3.86633,-2.68962 z"
           style="font-size:medium;font-style:normal;font-variant:normal;font-weight:normal;font-stretch:normal;text-indent:0;text-align:start;text-decoration:none;line-height:normal;letter-spacing:normal;word-spacing:normal;text-transform:none;direction:ltr;block-progression:tb;writing-mode:lr-tb;text-anchor:start;baseline-shift:baseline;color:#000000;fill:#2aa600;fill-opacity:1;stroke:none;stroke-width:7.92560863;marker:none;visibility:visible;display:inline;overflow:visible;enable-background:accumulate;font-family:Sans;-inkscape-font-specification:Sans"
           inkscape:connector-curvature="0" />
      </g>
      <g
         id="g34067"
         transform="translate(74.061637,-143.13217)" />
    </g>
  </g>
</svg>
