<?xml version="1.0" encoding="UTF-8" standalone="no"?>
<!-- Created with Inkscape (http://www.inkscape.org/) -->

<svg
   xmlns:dc="http://purl.org/dc/elements/1.1/"
   xmlns:cc="http://creativecommons.org/ns#"
   xmlns:rdf="http://www.w3.org/1999/02/22-rdf-syntax-ns#"
   xmlns:svg="http://www.w3.org/2000/svg"
   xmlns="http://www.w3.org/2000/svg"
   xmlns:sodipodi="http://sodipodi.sourceforge.net/DTD/sodipodi-0.dtd"
   xmlns:inkscape="http://www.inkscape.org/namespaces/inkscape"
   width="379.74915"
   height="496.61517"
   id="svg3365"
   version="1.1"
   inkscape:version="0.48.4 r9939"
   sodipodi:docname="techinc-women-3.svg">
  <defs
     id="defs3367" />
  <sodipodi:namedview
     id="base"
     pagecolor="#ffffff"
     bordercolor="#666666"
     borderopacity="1.0"
     inkscape:pageopacity="0.0"
     inkscape:pageshadow="2"
     inkscape:zoom="0.6023242"
     inkscape:cx="133.61108"
     inkscape:cy="127.0145"
     inkscape:document-units="px"
     inkscape:current-layer="layer1"
     showgrid="false"
     inkscape:window-width="1280"
     inkscape:window-height="717"
     inkscape:window-x="0"
     inkscape:window-y="0"
     inkscape:window-maximized="0"
     showguides="false"
     inkscape:guide-bbox="true"
     fit-margin-top="0"
     fit-margin-left="0"
     fit-margin-right="0"
     fit-margin-bottom="0"
     inkscape:snap-global="false">
    <sodipodi:guide
       orientation="0,1"
       position="206.78571,91.428572"
       id="guide4048" />
    <sodipodi:guide
       orientation="0,1"
       position="140.89286,76.25"
       id="guide4050" />
    <sodipodi:guide
       orientation="1,0"
       position="185.71429,41.071429"
       id="guide4052" />
    <sodipodi:guide
       orientation="1,0"
       position="196.42857,31.071429"
       id="guide4054" />
    <sodipodi:guide
       orientation="0,1"
       position="100.17857,87.142857"
       id="guide4056" />
    <sodipodi:guide
       orientation="0,1"
       position="185.35714,62.5"
       id="guide4058" />
    <sodipodi:guide
       orientation="1,0"
       position="170.89286,40.178572"
       id="guide4060" />
    <sodipodi:guide
       orientation="1,0"
       position="211.42857,27.321429"
       id="guide4062" />
    <sodipodi:guide
       orientation="0,1"
       position="177.32143,105"
       id="guide4064" />
    <sodipodi:guide
       orientation="0,1"
       position="115,71.428572"
       id="guide4066" />
    <sodipodi:guide
       orientation="1,0"
       position="-124.14667,-109.47212"
       id="guide4070" />
    <sodipodi:guide
       orientation="0,1"
       position="-151.73482,-93.917102"
       id="guide4118" />
    <sodipodi:guide
       orientation="1,0"
       position="-104.18928,-130.01649"
       id="guide4125" />
    <sodipodi:guide
       orientation="0,1"
       position="179.72049,116.42401"
       id="guide4133" />
  </sodipodi:namedview>
  <metadata
     id="metadata3370">
    <rdf:RDF>
      <cc:Work
         rdf:about="">
        <dc:format>image/svg+xml</dc:format>
        <dc:type
           rdf:resource="http://purl.org/dc/dcmitype/StillImage" />
        <dc:title />
      </cc:Work>
    </rdf:RDF>
  </metadata>
  <g
     inkscape:label="Layer 1"
     inkscape:groupmode="layer"
     id="layer1"
     transform="translate(-184.40594,-353.90255)">
    <g
       id="g4276">
      <path
         inkscape:connector-curvature="0"
         style="font-size:medium;font-style:normal;font-variant:normal;font-weight:normal;font-stretch:normal;text-indent:0;text-align:start;text-decoration:none;line-height:normal;letter-spacing:normal;word-spacing:normal;text-transform:none;direction:ltr;block-progression:tb;writing-mode:lr-tb;text-anchor:start;baseline-shift:baseline;color:#000000;fill:#0084ae;fill-opacity:1;stroke:none;stroke-width:7.92560863;marker:none;visibility:visible;display:inline;overflow:visible;enable-background:accumulate;font-family:Sans;-inkscape-font-specification:Sans"
         d="m 375.26202,354.13846 c -0.6516,-0.12634 -1.31388,-0.2029 -2.00106,-0.19945 -0.34371,0.002 -0.64327,-0.061 -0.97801,-0.0257 -5.02447,0.53991 -9.01669,4.82736 -8.99244,9.98093 0.01,2.01694 0.64102,3.76542 1.24701,5.05345 0.46445,1.11649 1.10506,2.31318 1.5597,3.21198 0.95544,2.16404 1.98536,5.35331 2.01919,12.90326 0.0366,7.86546 -0.70224,10.6438 -1.77051,21.17133 -0.10041,0.98958 -0.2974,1.84386 -0.40674,2.8079 4.78601,-0.34664 9.79466,-0.24839 13.92117,-0.16228 0.003,0.0342 -0.0155,0.0384 -0.0116,0.0681 0.34036,2.71212 0.77709,5.66055 1.0553,8.24872 -0.006,0.0259 0.0471,0.0691 0.0565,0.0796 29.45183,1.51853 56.22357,12.97732 77.00303,31.24923 2.20826,-1.62594 4.69963,-3.4709 6.60022,-4.98405 3.14998,2.78435 6.48602,6.0111 9.03766,8.76211 -1.77387,2.27856 -3.6519,4.60693 -5.12676,6.63763 17.60751,19.54089 29.27716,44.61299 31.99958,72.30542 -1.47873,-0.20392 -3.0532,-0.4706 -4.37658,-0.6731 -1.00949,-0.14896 -10.31769,-1.54157 -11.22007,-1.6948 -0.36503,0.49534 -0.73492,0.91553 -1.02818,1.50949 -0.29333,0.59419 -0.43473,0.85501 -0.92652,1.73727 -0.49331,0.88379 -1.56325,2.75769 -2.11812,4.62239 -4.95299,10e-4 -7.44853,-0.0879 -13.66767,-0.9174 -7.08916,-0.94552 -16.05493,-2.04634 -23.02441,-2.01499 -2.99465,0.014 -6.35569,0.19025 -9.77107,0.51612 0.10334,0.66221 0.20817,1.34803 0.28956,2.01392 l -0.21606,0.0334 -0.009,14.10262 0.21607,-0.0333 c -0.075,0.68111 -0.0449,1.40318 -0.14293,2.08082 3.39837,0.30042 6.76889,0.47518 9.74534,0.46189 6.96988,-0.0315 15.82049,-1.2069 22.90083,-2.21617 6.21155,-0.88532 8.76632,-1.05857 13.73071,-1.10682 0.55941,1.7849 1.36655,3.44469 2.33954,4.81795 l 1.08741,1.4477 1.62786,-0.49545 c 0.44539,-0.13994 1.05104,-0.30913 1.76428,-0.47229 0.29862,-3.92259 0.52679,-8.77059 0.51334,-11.70137 -0.0132,-3.23656 -0.16788,-6.43854 -0.40288,-9.6115 l 6.1383,1.04229 c 0.0234,0.005 0.0561,-0.0605 0.0796,-0.0565 l 1.43227,0.2432 c 0.31489,0.0535 0.69929,0.12542 1.02305,0.17372 l 2.38712,0.40534 c -0.003,-0.0229 0.0144,-0.0454 0.0116,-0.0681 0.6335,0.0851 1.33964,0.17512 1.98946,0.26776 0.082,0.0114 0.12309,0.0209 0.2045,0.0347 0.89662,0.12528 1.81349,0.27788 2.73969,0.39516 0.31289,0.0531 0.71598,0.0625 1.03461,0.10563 1.37513,0.18408 2.74049,0.40807 4.18357,0.57003 0.05,0.85705 0.16421,1.69647 0.19691,2.55956 0.0488,1.303 0.0393,2.58342 0.0451,3.86699 0.005,1.24258 -0.0228,2.41335 -0.0566,3.63922 -0.0228,0.82291 -0.0365,1.68618 -0.0759,2.51323 -0.54317,0.0649 -1.10596,0.0763 -1.63816,0.14285 l -2.58271,0.33332 c -0.0334,-0.006 -0.0332,-0.0281 -0.0681,-0.0116 -0.75926,0.10124 -1.41877,0.23266 -2.16191,0.33461 -0.59088,0.086 -1.21271,0.17782 -1.79774,0.25609 -1.50626,29.46862 -13.04704,56.26873 -31.32901,77.05966 0.34994,0.4645 0.73148,0.97522 1.08741,1.4477 1.27059,1.68718 2.45642,3.4306 3.88506,5.22073 0.0137,0.0248 0.0526,-0.007 0.0681,0.0116 -1.4344,1.595 -2.93134,3.12807 -4.43832,4.64944 -1.44224,1.4558 -2.86971,2.91747 -4.3804,4.30843 -0.0218,-0.004 -0.0505,0.003 -0.0681,-0.0116 -0.44324,-0.33978 -0.86311,-0.72633 -1.29329,-1.06164 l -1.98563,-1.53005 c -0.0388,-0.0291 -0.0864,-0.0625 -0.12485,-0.0912 -0.25339,-0.19347 -0.50085,-0.3628 -0.74895,-0.54819 -0.0375,-0.0288 -0.0196,-0.0512 -0.0565,-0.0796 -0.2876,-0.22623 -0.62769,-0.48966 -0.9304,-0.71934 -0.48396,-0.35613 -0.97105,-0.66035 -1.44129,-1.0166 -20.57939,18.52745 -47.2549,30.38318 -76.69616,32.2364 -0.17573,1.26891 -0.35132,2.59927 -0.52371,3.91074 29.30644,-1.67311 55.94795,-12.94967 76.94196,-30.79126 0.27724,0.21099 0.58515,0.4181 0.87378,0.63956 l 1.99721,1.46185 c 1.19349,0.92793 2.37285,1.96068 3.57362,2.92241 0.10958,0.086 0.21123,0.10883 0.31785,0.19431 0.81588,-0.71181 1.60083,-1.45772 2.4064,-2.18767 7.2488,5.75743 10.07529,7.61337 15.36001,12.85295 5.36309,5.31396 6.96385,8.25514 7.83832,10.45303 0.42856,1.07738 0.59278,2.00389 1.05911,3.26731 l 0.0565,0.0797 c 0.49433,1.33442 1.3284,2.97892 2.76163,4.39844 3.90323,3.87105 10.25696,3.7778 14.12579,-0.12753 0.2428,-0.24507 0.47278,-0.46312 0.68459,-0.7258 3.17077,-3.93428 2.99712,-9.81806 -0.66413,-13.44503 -1.43321,-1.41953 -3.11023,-2.23893 -4.44997,-2.72037 l -0.0681,-0.0116 c -1.25483,-0.45109 -2.17551,-0.69612 -3.24931,-1.1131 -2.20729,-0.85308 -5.25928,-2.3831 -10.62177,-7.69786 -5.32554,-5.27682 -6.91918,-7.97125 -12.83908,-15.30185 0.69949,-0.80028 1.40444,-1.57977 2.08854,-2.38198 -0.0873,-0.10465 -0.13852,-0.21169 -0.22649,-0.31914 -1.80341,-2.2108 -3.45061,-4.30021 -5.08699,-6.4072 16.73007,-20.10575 27.54954,-45.24231 29.76939,-72.83361 0.34271,-0.0496 0.65564,-0.13264 1.01275,-0.17888 l 2.4463,-0.35649 c 1.50003,-0.18584 3.03288,-0.24924 4.5619,-0.41826 0.13958,-0.0167 0.24016,-0.13167 0.37573,-0.1466 0.0503,-0.73402 0.1233,-1.47722 0.16609,-2.21723 l 0.0141,-0.90981 c 9.25778,-1.06123 12.43248,-1.8527 19.89732,-1.88414 7.55135,-0.0363 10.83248,0.99172 13.00496,1.92758 1.06484,0.4588 1.88859,0.94717 3.11162,1.51074 l 0.0565,0.0796 c 1.29321,0.59458 3.0633,1.08297 5.08053,1.07308 5.49722,-0.0231 9.88287,-4.61762 9.8572,-10.11476 -0.002,-0.3436 0.0503,-0.57472 0.0141,-0.90981 -0.26987,-2.51221 -1.52853,-4.83416 -3.324,-6.45869 -1.79504,-1.62488 -4.08075,-2.54517 -6.65692,-2.53375 -2.01877,0.0113 -3.7658,0.64068 -5.05346,1.24701 l -0.13641,-0.0232 c -1.20625,0.5703 -2.01015,1.04938 -3.06399,1.51465 -2.16472,0.95589 -5.35387,1.98595 -12.90326,2.0192 -7.45213,0.0358 -10.76132,-0.65821 -20.00029,-1.64184 l -0.0305,-1.05784 -0.18661,-2.20696 c -0.13466,-0.0229 -0.20434,-0.033 -0.34102,-0.0579 -2.71782,-0.27737 -5.42433,-0.54596 -7.99265,-0.86598 -2.51619,-27.58129 -13.58943,-52.61466 -30.55445,-72.55123 1.73754,-2.33032 3.53583,-4.70613 5.14992,-6.77404 -0.69575,-0.79671 -1.40547,-1.60556 -2.11946,-2.39481 5.79681,-7.30157 7.52886,-10.07046 12.78474,-15.37159 5.31589,-5.36504 8.32328,-6.9524 10.52124,-7.82674 1.07728,-0.4285 2.00451,-0.59317 3.26731,-1.05911 1.71596,-0.87221 3.3631,-1.7158 4.47823,-2.81825 3.86869,-3.9011 3.77754,-10.25645 -0.12754,-14.12579 -0.23003,-0.25463 -0.52653,-0.48752 -0.72579,-0.68461 -3.93496,-3.17069 -9.8187,-2.99652 -13.44504,0.66415 -1.42145,1.43507 -2.17046,3.12221 -2.65216,4.46155 -0.44188,1.13413 -0.81575,2.42027 -1.13626,3.38572 -0.85459,2.20563 -2.36002,5.12281 -7.6747,10.48535 -5.25457,5.30292 -8.06711,7.11345 -15.32501,12.97549 -0.81259,-0.7164 -1.68691,-1.48135 -2.50681,-2.17991 -2.27268,1.76029 -4.66741,3.77716 -6.65813,5.32507 -20.10573,-16.70943 -45.24911,-27.55435 -72.83361,-29.76939 -0.35955,-2.87615 -0.73275,-5.78729 -1.03214,-8.38513 -1.16675,-0.0634 -2.19707,-0.12258 -3.26346,-0.20329 -1.06005,-9.21091 -1.78397,-12.43736 -1.81594,-19.88573 -0.0347,-7.54988 0.92467,-10.84517 1.85938,-13.01654 0.60845,-1.16131 1.12319,-2.24658 1.59053,-3.16825 0.59481,-1.29318 1.20828,-2.97257 1.19801,-4.98914 -0.01,-2.75047 -1.17059,-5.31004 -3.00359,-7.10597 -1.38038,-1.34117 -3.212,-2.2523 -5.16674,-2.63157 z"
         id="path3187" />
      <path
         inkscape:connector-curvature="0"
         style="font-size:medium;font-style:normal;font-variant:normal;font-weight:normal;font-stretch:normal;text-indent:0;text-align:start;text-decoration:none;line-height:normal;letter-spacing:normal;word-spacing:normal;text-transform:none;direction:ltr;block-progression:tb;writing-mode:lr-tb;text-anchor:start;baseline-shift:baseline;color:#000000;fill:#f69600;fill-opacity:1;stroke:none;stroke-width:7.92560863;marker:none;visibility:visible;display:inline;overflow:visible;enable-background:accumulate;font-family:Sans;-inkscape-font-specification:Sans"
         d="m 394.64394,420.58238 c -5.23181,-0.86049 -10.58242,-1.40656 -16.00847,-1.59554 -1.63378,-0.0574 -3.2522,-0.0676 -4.90162,-0.0604 -0.0157,-1.6e-4 -0.0394,-0.0815 -0.0565,-0.0797 -1.69447,0.007 -3.33788,0.12628 -5.01615,0.2008 -1.67112,0.0742 -3.30613,0.14121 -4.95954,0.28058 -27.02328,2.27569 -51.59633,13.18595 -70.9684,29.911 -1.22103,1.05415 -2.45879,2.14173 -3.6379,3.24162 -1.20683,1.12572 -2.36304,2.22894 -3.52466,3.40119 -1.1772,1.18779 -2.3098,2.45758 -3.43458,3.69716 -1.07989,1.18096 -2.16129,2.30597 -3.19522,3.52729 -0.046,0.0528 -0.0573,0.14027 -0.1028,0.19294 -18.46622,21.88304 -29.60254,50.16532 -29.47591,81.02315 -0.001,0.0222 -0.011,0.0502 -0.0116,0.0681 0.008,1.83876 0.0445,3.60688 0.13131,5.42537 0.052,0.007 0.073,0.0847 0.12485,0.0913 0.0175,0.30925 0.0344,0.61177 0.0539,0.92136 l 9.08261,1.4722 c -0.19367,-2.62996 -0.32784,-5.23543 -0.3398,-7.91672 -0.0112,-2.56349 0.0272,-5.1693 0.18266,-7.68766 l -5.12039,0.81462 c 1.36096,-26.93754 11.54537,-51.53986 27.70529,-71.00884 2.40447,3.31344 4.43137,6.24255 5.16293,7.61298 l 0.80301,1.46958 1.66132,-0.27926 c 1.70106,-0.30642 3.45864,-1.00271 5.16928,-1.92904 3.50454,3.50157 5.23257,5.39351 9.0441,10.3771 4.34405,5.68163 9.87173,12.76756 14.82215,17.67351 2.13985,2.12152 4.72062,4.32522 7.38402,6.51655 1.76292,-2.41089 3.71503,-4.74261 5.87829,-6.93104 2.16275,-2.18785 4.44006,-4.13652 6.83056,-5.92732 -2.19989,-2.62661 -4.42565,-5.18082 -6.55144,-7.28739 -4.95062,-4.9062 -12.0682,-10.37572 -17.78831,-14.66867 -5.01827,-3.76624 -6.93593,-5.4609 -10.48151,-8.9371 0.86877,-1.65916 1.48315,-3.37341 1.7668,-5.0329 l 0.30111,-1.77329 -1.62402,-0.76695 c -1.3918,-0.72763 -4.21814,-2.67808 -7.55902,-5.0727 18.42177,-15.66489 41.60208,-25.90887 67.10785,-28.25093 -0.63505,4.04532 -1.29333,7.55083 -1.74478,9.03632 l -0.49402,1.67036 1.46444,0.8802 c 1.41934,0.98626 3.06399,1.82621 4.92868,2.38063 0.002,4.95422 -0.0878,7.44836 -0.9174,13.66768 -0.94551,7.08906 -2.04684,16.05545 -2.015,23.0244 0.0132,2.99428 0.18003,6.36606 0.51612,9.77107 0.69408,-0.10826 1.38396,-0.19376 2.08213,-0.27798 l 0.0334,0.21607 14.04599,-0.0709 0.0347,-0.2045 c 0.66701,0.0729 1.33787,0.10255 2.00106,0.19945 0.30018,-3.39847 0.47476,-6.76841 0.46189,-9.74535 -0.0333,-6.96807 -1.13864,-15.8091 -2.14798,-22.88924 -0.88481,-6.21224 -1.0467,-8.83343 -1.09523,-13.79892 1.78356,-0.55693 3.36412,-1.30954 4.73817,-2.28292 l 1.50432,-1.00763 -0.55207,-1.70764 c -0.47276,-1.50792 -1.09661,-4.91531 -1.76952,-9.00153 25.52213,2.06716 48.79506,12.05613 67.39278,27.5123 -3.31212,2.40381 -6.24352,4.43172 -7.61298,5.16293 l -1.46957,0.80301 0.27926,1.66132 c 0.30717,1.70009 0.92298,3.51522 1.84926,5.2259 -3.50265,3.50563 -5.31318,5.17654 -10.29732,8.98748 -5.68043,4.34321 -12.76717,9.87145 -17.67351,14.82214 -2.12095,2.13925 -4.32515,4.72076 -6.51656,7.38403 2.41065,1.7631 4.74291,3.71532 6.93105,5.87828 2.20481,2.17948 4.126,4.4205 5.92732,6.83056 2.6262,-2.19986 5.16912,-4.3575 7.2758,-6.48324 4.90623,-4.95048 10.38736,-12.13634 14.68026,-17.85651 3.76622,-5.01831 5.46074,-6.93593 8.9371,-10.48151 1.65681,0.86829 3.37376,1.48374 5.0329,1.7668 l 1.77329,0.30111 0.76694,-1.62401 c 0.72645,-1.39075 2.67867,-4.21814 5.07271,-7.55903 14.73858,17.33149 24.68441,38.82122 27.76446,62.53438 0.58698,0.0997 1.13524,0.20404 1.84149,0.31269 0.64475,0.10948 1.3945,0.19572 2.12586,0.29093 -3.05706,-25.23594 -13.63214,-48.1123 -29.42453,-66.39493 -1.06104,-1.22856 -2.13414,-2.45175 -3.24162,-3.6379 -1.10644,-1.19383 -2.24561,-2.37952 -3.40118,-3.52466 -1.19127,-1.18039 -2.45938,-2.30243 -3.69716,-3.43458 -1.18072,-1.08002 -2.30561,-2.16056 -3.5273,-3.19522 -0.0526,-0.0448 -0.13972,-0.0579 -0.19294,-0.10281 -16.82872,-14.20522 -37.45342,-24.02313 -60.12463,-27.75171 z"
         id="path3183" />
      <path
         inkscape:connector-curvature="0"
         style="font-size:medium;font-style:normal;font-variant:normal;font-weight:normal;font-stretch:normal;text-indent:0;text-align:start;text-decoration:none;line-height:normal;letter-spacing:normal;word-spacing:normal;text-transform:none;direction:ltr;block-progression:tb;writing-mode:lr-tb;text-anchor:start;baseline-shift:baseline;color:#000000;fill:#2aa600;fill-opacity:1;stroke:none;stroke-width:7.92560863;marker:none;visibility:visible;display:inline;overflow:visible;enable-background:accumulate;font-family:Sans;-inkscape-font-specification:Sans"
         d="m 498.91105,536.73537 -9.0144,-1.46061 c 0.19491,2.6286 0.25917,5.22445 0.2716,7.90514 0.0104,2.56448 -0.0271,5.16911 -0.18267,7.68767 l 5.13197,-0.88284 c -1.363,26.9702 -11.51533,51.59335 -27.71687,71.07704 -2.41468,-3.32572 -4.42905,-6.239 -5.16292,-7.61297 l -0.80301,-1.46958 -1.66133,0.27926 c -1.70102,0.3062 -3.52699,0.99132 -5.23748,1.91746 -3.50572,-3.50042 -5.165,-5.38137 -8.9759,-10.36552 -4.34423,-5.68143 -9.87158,-12.76776 -14.82214,-17.67351 -2.12534,-2.10738 -4.67187,-4.32794 -7.31582,-6.50497 -1.75086,2.38824 -3.7226,4.69384 -5.8667,6.86284 -2.17972,2.20495 -4.5004,4.18297 -6.91035,5.98394 2.1999,2.62661 4.35727,5.16944 6.48324,7.2758 4.94905,4.90774 12.13654,10.38711 17.85651,14.68026 5.01887,3.76566 6.93612,5.46071 10.48151,8.9371 -0.86736,1.65783 -1.48362,3.37378 -1.7668,5.0329 l -0.30111,1.77329 1.55581,0.75536 c 1.39293,0.72626 4.2862,2.68988 7.62723,5.08429 -18.42534,15.64161 -41.62219,25.91287 -67.10786,28.25093 0.64272,-4.04717 1.293,-7.54887 1.74478,-9.03632 l 0.49401,-1.67025 -1.38467,-0.93682 c -1.41935,-0.98626 -3.14397,-1.76917 -5.00845,-2.32401 -0.003,-4.95266 0.16758,-7.5052 0.99719,-13.7243 0.94546,-7.08907 1.96644,-15.99826 1.93521,-22.96778 -0.0134,-2.99432 -0.19015,-6.35588 -0.51612,-9.77108 -0.67222,0.10592 -1.33936,0.20943 -2.01392,0.28957 l -0.0334,-0.21606 -14.04601,0.0709 -0.0232,0.1364 c -0.69994,-0.0784 -1.36031,-0.17888 -2.05766,-0.27935 -0.30525,3.43264 -0.49852,6.8762 -0.48505,9.88176 0.0315,6.96978 1.20727,15.82031 2.21617,22.90082 0.88669,6.21032 1.05768,8.76581 1.10683,13.73072 -1.78662,0.56 -3.44452,1.36651 -4.81796,2.33955 l -1.50432,1.00761 0.55208,1.70766 c 0.4702,1.4994 1.1788,4.88582 1.84929,8.94489 -25.53909,-2.04938 -48.87214,-11.99859 -67.47256,-27.45566 3.32579,-2.41475 6.23917,-4.4291 7.61297,-5.16294 l 1.46959,-0.803 -0.27927,-1.66133 c -0.30626,-1.70082 -1.00272,-3.45881 -1.92905,-5.16927 3.50156,-3.50447 5.39295,-5.23317 10.37711,-9.04411 5.68138,-4.34417 12.76749,-9.87185 17.67351,-14.82214 2.12157,-2.14004 4.32514,-4.72075 6.51655,-7.38403 -2.41052,-1.76285 -4.68655,-3.6358 -6.87442,-5.7985 -2.20459,-2.17944 -4.18279,-4.50053 -5.98393,-6.91034 -2.62649,2.20004 -5.1804,4.42531 -7.2874,6.55144 -4.90533,4.94973 -10.37547,12.06797 -14.66867,17.78831 -3.76527,5.01735 -5.46091,6.93613 -8.9371,10.48151 -1.65777,-0.86733 -3.37378,-1.48351 -5.0329,-1.76681 l -1.77329,-0.3011 -0.76695,1.62401 c -0.72743,1.39193 -2.67837,4.21796 -5.0727,7.55903 -14.70463,-17.31988 -24.6141,-38.82589 -27.69625,-62.52281 -0.60604,-0.1029 -1.18039,-0.22289 -1.90969,-0.32426 -0.65752,-0.11165 -1.37093,-0.25074 -2.1143,-0.35902 3.03906,25.28138 13.52083,48.15751 29.34474,66.45156 0.0736,0.0889 0.23091,0.1755 0.30629,0.2624 0.77094,0.8883 1.56145,1.78058 2.35754,2.64575 0.80804,0.8782 1.60465,1.73459 2.43733,2.58913 0.53305,0.55172 0.99717,1.12497 1.54166,1.66518 0.58681,0.57993 1.28352,1.15563 1.88268,1.72307 0.58291,0.55121 1.16368,1.09229 1.75786,1.63171 0.0329,0.0326 0.0221,0.0496 0.0565,0.0796 1.08326,0.98444 2.1741,1.99508 3.28923,2.94429 0.15943,0.13485 0.33873,0.23087 0.49931,0.36546 20.73022,17.46979 47.16423,28.36433 76.1331,29.34727 1.62647,0.0629 3.26325,0.13601 4.89004,0.12864 1.69495,-0.008 3.40607,-0.11492 5.08436,-0.18921 1.67237,-0.0755 3.30591,-0.14102 4.95952,-0.28059 27.00902,-2.27295 51.58487,-13.1431 70.95683,-29.8428 0.78007,-0.67365 1.55998,-1.43962 2.3266,-2.13105 0.44662,-0.40491 0.88227,-0.76767 1.32289,-1.17876 0.95539,-0.88527 1.91517,-1.75891 2.84005,-2.67541 0.22951,-0.2289 0.44462,-0.42736 0.67302,-0.65758 0.17743,-0.1787 0.33725,-0.36409 0.51345,-0.54434 2.15865,-2.20268 4.23893,-4.58461 6.23088,-6.94135 18.48854,-21.87566 29.53428,-50.16164 29.4077,-81.03473 0.002,-0.0221 0.0673,0.0294 0.0681,0.0116 -0.008,-1.83772 -0.0322,-3.67631 -0.11973,-5.49357 -0.0331,-0.005 -0.10345,-0.0176 -0.1364,-0.0232 -0.0185,-0.34176 -0.022,-0.65087 -0.0424,-0.98958 z"
         id="path3167" />
      <path
         inkscape:connector-curvature="0"
         style="font-size:medium;font-style:normal;font-variant:normal;font-weight:normal;font-stretch:normal;text-indent:0;text-align:start;text-decoration:none;line-height:normal;letter-spacing:normal;word-spacing:normal;text-transform:none;direction:ltr;block-progression:tb;writing-mode:lr-tb;text-anchor:start;baseline-shift:baseline;color:#000000;fill:#acacac;fill-opacity:1;stroke:none;stroke-width:7.92560863;marker:none;visibility:visible;display:inline;overflow:visible;enable-background:accumulate;font-family:Sans;-inkscape-font-specification:Sans"
         d="m 382.78492,486.7036 c -2.86686,-0.4226 -5.81492,-0.66959 -8.80079,-0.65235 -31.84828,0.18167 -57.61318,26.18209 -57.42916,58.03249 0.18563,31.85156 26.2526,57.62265 58.10069,57.44073 31.84791,-0.186 57.61321,-26.18478 57.42915,-58.03249 -0.0927,-15.92622 -6.64884,-30.35208 -17.15156,-40.7339 -8.53335,-8.4354 -19.7253,-14.22302 -32.14833,-16.05448 z m -0.51213,3.84255 c 11.59575,1.69972 21.93257,7.10003 29.87702,14.96711 9.77855,9.682 15.85658,23.06642 15.94318,37.93243 0.17176,29.72706 -23.67507,53.98209 -53.40262,54.15516 -29.72775,0.16989 -53.97021,-23.73946 -54.14358,-53.47083 -0.17165,-29.72995 23.74331,-53.97409 53.47083,-54.14358 2.78711,-0.0161 5.57922,0.16746 8.25517,0.55971 z"
         id="path3157" />
      <path
         inkscape:connector-curvature="0"
         style="font-size:medium;font-style:normal;font-variant:normal;font-weight:normal;font-stretch:normal;text-indent:0;text-align:start;text-decoration:none;line-height:normal;letter-spacing:normal;word-spacing:normal;text-transform:none;direction:ltr;block-progression:tb;writing-mode:lr-tb;text-anchor:start;baseline-shift:baseline;color:#000000;fill:#f69600;fill-opacity:1;stroke:none;stroke-width:7.92560863;marker:none;visibility:visible;display:inline;overflow:visible;enable-background:accumulate;font-family:Sans;-inkscape-font-specification:Sans"
         d="m 381.72075,492.55751 c -2.50566,-0.35384 -5.09538,-0.55027 -7.69796,-0.53527 -13.88139,0.0801 -26.48475,5.59428 -35.73321,14.56238 l 2.82338,2.79501 c 6.93751,-6.701 15.92645,-11.38766 25.91325,-12.93183 l -0.0166,9.18942 14.19399,-0.11594 -0.0631,-9.1328 c 8.02395,1.1377 15.33756,4.37262 21.55874,8.99361 l -21.92649,22.09934 2.76676,2.71524 22.189,-22.40562 c 0.45357,0.39767 0.96787,0.80722 1.40655,1.22122 l 2.8748,-2.88002 c -7.59828,-7.1993 -17.43116,-12.04145 -28.28903,-13.57474 z"
         id="path4019" />
      <path
         inkscape:connector-curvature="0"
         style="font-size:medium;font-style:normal;font-variant:normal;font-weight:normal;font-stretch:normal;text-indent:0;text-align:start;text-decoration:none;line-height:normal;letter-spacing:normal;word-spacing:normal;text-transform:none;direction:ltr;block-progression:tb;writing-mode:lr-tb;text-anchor:start;baseline-shift:baseline;color:#000000;fill:#0084ae;fill-opacity:1;stroke:none;stroke-width:7.92560863;marker:none;visibility:visible;display:inline;overflow:visible;enable-background:accumulate;font-family:Sans;-inkscape-font-specification:Sans"
         d="m 411.49482,507.71765 -2.8748,2.88 c 0.46423,0.48076 0.91566,0.99483 1.36022,1.49402 l -22.10922,22.349 2.75518,2.78343 21.9149,-22.03113 c 4.61204,6.11985 7.85607,13.34985 9.09054,21.2613 l -9.12122,-0.005 0.0478,14.18241 9.201,-0.0516 c -1.4289,10.0042 -6.0038,18.98008 -12.62379,25.99456 l 2.75518,2.78344 c 8.8611,-9.35159 14.31491,-22.01467 14.23483,-35.89562 -0.0802,-13.88097 -5.66237,-26.49589 -14.63057,-35.74479 z"
         id="path4017" />
      <path
         inkscape:connector-curvature="0"
         style="font-size:medium;font-style:normal;font-variant:normal;font-weight:normal;font-stretch:normal;text-indent:0;text-align:start;text-decoration:none;line-height:normal;letter-spacing:normal;word-spacing:normal;text-transform:none;direction:ltr;block-progression:tb;writing-mode:lr-tb;text-anchor:start;baseline-shift:baseline;color:#000000;fill:#000000;fill-opacity:1;stroke:none;stroke-width:7.92560863;marker:none;visibility:visible;display:inline;overflow:visible;enable-background:accumulate;font-family:Sans;-inkscape-font-specification:Sans"
         d="m 356.18323,501.62363 -8.80714,8.88966 10.03497,9.91383 2.122,-2.16579 16.3662,-0.098 -2.21337,2.29062 2.76677,2.71524 12.10403,-12.18919 -2.69856,-2.70365 -6.57061,6.46263 -16.4344,0.0864 3.29689,-3.29953 -9.96678,-9.90224 z"
         id="path4015" />
      <path
         inkscape:connector-curvature="0"
         style="font-size:medium;font-style:normal;font-variant:normal;font-weight:normal;font-stretch:normal;text-indent:0;text-align:start;text-decoration:none;line-height:normal;letter-spacing:normal;word-spacing:normal;text-transform:none;direction:ltr;block-progression:tb;writing-mode:lr-tb;text-anchor:start;baseline-shift:baseline;color:#000000;fill:#620074;fill-opacity:1;stroke:none;stroke-width:7.92560863;marker:none;visibility:visible;display:inline;overflow:visible;enable-background:accumulate;font-family:Sans;-inkscape-font-specification:Sans"
         d="m 336.82901,508.16103 c -8.86105,9.35182 -14.31494,22.01422 -14.23483,35.89562 0.0802,13.88098 5.67385,26.42789 14.64215,35.67659 l 2.70366,-2.69856 c -0.4452,-0.46181 -0.86527,-1.0031 -1.29202,-1.48244 l 22.20058,-22.47382 -2.83496,-2.72681 -21.86987,22.17912 c -4.60972,-6.13226 -7.76271,-13.51892 -8.98758,-21.45433 l 8.98481,-0.0181 -0.0593,-14.11421 -8.99639,0.0863 c 1.4289,-10.00396 5.94705,-19.0601 12.56716,-26.07434 l -2.82338,-2.79502 z"
         id="path4013" />
      <path
         inkscape:connector-curvature="0"
         style="font-size:medium;font-style:normal;font-variant:normal;font-weight:normal;font-stretch:normal;text-indent:0;text-align:start;text-decoration:none;line-height:normal;letter-spacing:normal;word-spacing:normal;text-transform:none;direction:ltr;block-progression:tb;writing-mode:lr-tb;text-anchor:start;baseline-shift:baseline;color:#000000;fill:#ef0000;fill-opacity:1;stroke:none;stroke-width:7.92560863;marker:none;visibility:visible;display:inline;overflow:visible;enable-background:accumulate;font-family:Sans;-inkscape-font-specification:Sans"
         d="m 340.75915,517.24875 -8.87535,8.87808 10.09161,9.99361 2.55566,-2.65352 36.29604,35.84497 -8.01838,0.11203 2.28157,-2.27903 -2.89159,-2.80661 -12.1272,12.3256 2.76677,2.71524 6.65039,-6.51927 14.69459,-0.17129 0.78241,0.76439 -2.55567,2.65351 9.97836,9.83404 2.61228,-2.57373 2.71524,-2.76676 3.54782,-3.53759 -10.03497,-9.91383 -2.12201,2.16579 -2.8092,0.0142 -39.05122,-38.6284 3.53625,-3.46939 -10.0234,-9.98203 z"
         id="path4011" />
      <path
         inkscape:connector-curvature="0"
         style="font-size:medium;font-style:normal;font-variant:normal;font-weight:normal;font-stretch:normal;text-indent:0;text-align:start;text-decoration:none;line-height:normal;letter-spacing:normal;word-spacing:normal;text-transform:none;direction:ltr;block-progression:tb;writing-mode:lr-tb;text-anchor:start;baseline-shift:baseline;color:#000000;fill:#020051;fill-opacity:1;stroke:none;stroke-width:7.92560863;marker:none;visibility:visible;display:inline;overflow:visible;enable-background:accumulate;font-family:Sans;-inkscape-font-specification:Sans"
         d="m 407.00519,529.19914 -12.10403,12.18919 2.75518,2.78343 2.20179,-2.22242 0.0979,16.36621 -2.122,2.16579 10.11476,9.8572 8.73894,-8.90124 -9.95519,-9.97045 -3.30847,3.36773 -0.098,-16.36621 6.5024,-6.47422 -2.82338,-2.79501 z"
         id="path4009" />
      <path
         inkscape:connector-curvature="0"
         style="font-size:medium;font-style:normal;font-variant:normal;font-weight:normal;font-stretch:normal;text-indent:0;text-align:start;text-decoration:none;line-height:normal;letter-spacing:normal;word-spacing:normal;text-transform:none;direction:ltr;block-progression:tb;writing-mode:lr-tb;text-anchor:start;baseline-shift:baseline;color:#000000;fill:#acacac;fill-opacity:1;stroke:none;stroke-width:7.92560863;marker:none;visibility:visible;display:inline;overflow:visible;enable-background:accumulate;font-family:Sans;-inkscape-font-specification:Sans"
         d="m 350.99503,543.33575 -12.11561,12.25739 2.75518,2.78343 12.11561,-12.25739 -2.75518,-2.78343 z"
         id="path4007" />
      <path
         inkscape:connector-curvature="0"
         style="font-size:medium;font-style:normal;font-variant:normal;font-weight:normal;font-stretch:normal;text-indent:0;text-align:start;text-decoration:none;line-height:normal;letter-spacing:normal;word-spacing:normal;text-transform:none;direction:ltr;block-progression:tb;writing-mode:lr-tb;text-anchor:start;baseline-shift:baseline;color:#000000;fill:#2aa600;fill-opacity:1;stroke:none;stroke-width:7.92560863;marker:none;visibility:visible;display:inline;overflow:visible;enable-background:accumulate;font-family:Sans;-inkscape-font-specification:Sans"
         d="m 365.16856,557.39063 -22.189,22.40561 c -0.47131,-0.41235 -1.01981,-0.80256 -1.47475,-1.23279 l -2.78344,2.75518 c 9.35151,8.86086 22.01462,14.31501 35.89563,14.23484 13.88035,-0.0805 26.56434,-5.65072 35.813,-14.619 l -2.83497,-2.72681 c -6.93776,6.70051 -15.91508,11.31921 -25.90167,12.86363 l -0.0631,-9.1328 -14.11421,0.0593 -0.005,9.12122 c -7.99413,-1.13736 -15.31115,-4.25946 -21.51369,-8.84563 l 21.93806,-22.16754 -2.76676,-2.71523 z"
         id="path3984-8" />
      <path
         sodipodi:nodetypes="ccccccccccccccccccccccccccccccccccccccccccccccccccccccccccccccccccccccccccccccccccccccccccccccscccccccccccccccccccccccccccccccccccccccccccccccccccccccccccccccccccccccccccccccccccccccccccccccccccccccccccccccccc"
         inkscape:connector-curvature="0"
         d="m 380.89287,716.29075 0.0981,-13.7896 c -0.0363,-7.86586 0.16677,-10.64398 1.2348,-21.17133 0.10208,-0.99109 0.21737,-1.78661 0.32684,-2.7513 -0.40966,0.027 -0.78662,-0.0137 -1.19419,0.008 -2.13774,0.11598 -4.25847,0.16338 -6.41496,0.17378 -1.38044,0.006 -2.8238,0.0206 -4.20801,-0.0128 -0.27828,-0.009 -0.55279,-0.0593 -0.83,-0.0709 -0.37472,-0.03 -0.80842,-0.0418 -1.18261,-0.0605 -0.0748,-0.5754 -0.13029,-1.1536 -0.19949,-1.71795 l -0.2767,-2.50292 c -0.003,-0.0342 0.0176,-0.0357 0.0116,-0.0681 -0.10071,-0.7536 -0.23105,-1.45251 -0.33459,-2.1619 -0.0871,-0.59636 -0.17731,-1.20795 -0.25611,-1.79774 -29.47088,-1.50829 -56.26794,-13.04806 -77.05965,-31.32901 -0.44684,0.33639 -0.98163,0.67693 -1.43612,1.0192 -0.0186,0.0192 0.007,0.0532 -0.0116,0.0681 -1.68777,1.2713 -3.36261,2.468 -5.15253,3.89664 -0.019,0.0192 -0.0611,0.0395 -0.0796,0.0565 -1.59546,-1.43561 -3.12824,-2.93109 -4.64945,-4.43831 -1.45596,-1.44179 -2.91663,-2.86957 -4.30842,-4.38041 0.0146,-0.02 -0.003,-0.0503 0.0116,-0.0681 0.33977,-0.44125 0.73789,-0.93118 1.07322,-1.3615 l 1.51847,-1.91743 c 0.0289,-0.0378 0.0629,-0.087 0.0912,-0.12484 0.19267,-0.24999 0.36532,-0.5146 0.54819,-0.74896 0.0289,-0.0378 0.0519,-0.0186 0.0796,-0.0565 0.22922,-0.30126 0.49517,-0.63502 0.71934,-0.9304 0.35539,-0.48328 0.72919,-0.95994 1.08481,-1.4297 -17.59582,-19.53082 -29.20853,-44.61594 -31.93137,-72.29384 1.4436,0.19795 3.01438,0.46401 4.30837,0.66152 1.01012,0.14907 10.32966,1.47107 11.23166,1.62648 0.365,-0.49512 0.7349,-0.9153 1.02819,-1.50949 0.29329,-0.59396 0.42268,-0.78643 0.91494,-1.66906 0.49132,-0.88189 1.56341,-2.75789 2.11811,-4.6224 4.95411,-0.002 7.52832,0.0313 13.74747,0.86078 7.08913,0.94575 15.975,2.10322 22.94462,2.07162 3.00964,-0.0135 6.34893,-0.25573 9.78265,-0.58432 -0.10367,-0.66429 -0.13956,-1.33571 -0.22136,-2.00235 l 0.20451,0.0347 -0.12754,-14.12579 -0.14796,0.0449 c 0.0768,-0.69966 0.12127,-1.44018 0.2226,-2.13747 -3.39855,-0.30022 -6.76892,-0.47519 -9.74535,-0.46189 -6.96987,0.0315 -15.82049,1.2069 -22.90082,2.21618 -6.21154,0.88532 -8.84533,1.11444 -13.8105,1.16344 -0.55893,-1.7855 -1.2871,-3.50093 -2.25976,-4.87458 l -1.0874,-1.4477 -1.70766,0.55208 c -0.44451,0.14008 -1.03947,0.24092 -1.75268,0.40409 -0.29862,3.92259 -0.53773,8.83822 -0.52493,11.76957 0.0142,3.23561 0.24768,6.38192 0.48266,9.55488 l -6.21807,-0.9858 c -0.0218,-0.006 -0.045,-0.008 -0.0681,-0.0116 l -1.43226,-0.2432 c -0.31354,-0.0532 -0.71097,-0.0574 -1.03461,-0.10563 l -2.37556,-0.47342 c 0.001,0.0316 -0.0156,0.0361 -0.0116,0.0681 -0.59231,-0.0781 -1.32135,-0.10426 -1.93286,-0.18786 -1.26979,-0.17296 -2.57465,-0.35298 -3.91075,-0.52371 -1.45746,-0.18236 -2.81603,-0.42089 -4.31997,-0.5932 -0.0331,-0.005 -0.0349,-0.006 -0.0681,-0.0116 -0.037,-0.69834 -0.0541,-1.34555 -0.0734,-2.04738 -0.006,-0.0976 -0.006,-0.25389 -0.0102,-0.35259 -0.0664,-1.35538 -0.0841,-2.66708 -0.0901,-4.01498 -0.005,-1.24599 0.0396,-2.471 0.0682,-3.70742 0.0184,-0.79715 0.0316,-1.6411 0.0643,-2.44503 0.0308,0.005 0.0343,0.0283 0.0681,0.0116 0.54279,-0.074 1.118,-0.14525 1.64975,-0.21105 l 2.43472,-0.28828 c 0.0338,0.006 0.11158,-0.0289 0.14798,-0.0449 0.7583,-0.10027 1.40675,-0.16407 2.15032,-0.26639 0.59189,-0.0859 1.21213,-0.17251 1.79773,-0.25611 1.50738,-29.47247 13.04511,-56.2668 31.32901,-77.05965 -0.3409,-0.45209 -0.64773,-1.02805 -1.00762,-1.50432 -0.0164,0.0174 -0.0539,-0.0316 -0.0681,-0.0116 -1.25686,-1.63832 -2.61119,-3.46069 -3.96484,-5.16411 1.42852,-1.60767 2.92713,-3.12474 4.43831,-4.64944 1.44442,-1.45476 2.93157,-2.9155 4.44861,-4.29685 0.44137,0.33968 0.86354,0.72595 1.29329,1.06165 l 1.98564,1.53005 c 0.0403,0.0293 0.0865,0.0625 0.12485,0.0912 0.25167,0.19094 0.51386,0.36524 0.74895,0.5482 0.3397,0.25752 0.58614,0.54199 0.91882,0.78754 0.4849,0.35515 1.03986,0.67135 1.50948,1.02818 20.57781,-18.54591 47.25846,-30.44377 76.70776,-32.30461 0.17718,-1.27113 0.36198,-2.66471 0.53529,-3.97895 l -1.8e-4,1.9e-4 c -29.31494,1.68717 -55.97457,13.06597 -76.96513,30.92767 -0.27897,-0.20904 -0.58467,-0.41847 -0.87378,-0.63956 l -1.9972,-1.46184 c -1.19224,-0.92929 -2.38426,-1.89268 -3.58521,-2.85421 -0.10789,-0.0879 -0.21101,-0.10882 -0.31785,-0.19432 -0.79714,0.69524 -1.60576,1.40536 -2.39482,2.11947 -7.24827,-5.7515 -10.08638,-7.54508 -15.37158,-12.78474 -5.36155,-5.31549 -6.95229,-8.32335 -7.82675,-10.52124 -0.42699,-1.07868 -0.6608,-2.01544 -1.12731,-3.27889 l 0.0116,-0.0681 c -0.49367,-1.33499 -1.32846,-2.97871 -2.76163,-4.39844 -3.90171,-3.87236 -10.25696,-3.77781 -14.12579,0.12753 -0.2417,0.2439 -0.54142,0.45191 -0.7528,0.71422 -3.17121,3.93464 -2.92955,9.8302 0.73235,13.45661 1.43151,1.42125 3.12228,2.17035 4.46154,2.65217 l 0.0565,0.0796 c 1.2578,0.448 2.25464,0.64028 3.3291,1.05648 2.20539,0.855 5.17936,2.43992 10.54197,7.75448 5.28666,5.24147 7.09812,8.03386 12.91887,15.24522 -0.71362,0.81406 -1.481,1.68735 -2.1799,2.50682 0.0856,0.10661 0.15008,0.14338 0.23808,0.25082 1.805,2.20928 3.44995,4.30099 5.08699,6.4072 -16.6865,20.08777 -27.53986,45.28998 -29.76938,72.83361 -0.31109,0.0437 -0.60806,0.0786 -0.93297,0.12226 l -2.5145,0.34491 c -1.50003,0.18584 -3.05601,0.38543 -4.58506,0.55467 -0.13849,0.0172 -0.21659,-0.007 -0.35258,0.0102 -0.0503,0.73402 -0.0549,1.4886 -0.0978,2.22883 -0.0121,0.3543 0.0526,0.64259 0.0424,0.98958 -9.3116,1.0705 -12.55207,1.82897 -20.03371,1.86097 -7.54978,0.0348 -10.84409,-0.92352 -13.01655,-1.85938 -1.06627,-0.45724 -1.86536,-1.08378 -3.08846,-1.64714 l -0.0796,0.0565 c -1.29456,-0.59324 -2.97195,-1.20802 -4.98914,-1.19802 -5.49719,0.0229 -9.96329,4.67458 -9.93699,10.17138 0,0.34513 -0.0613,0.64257 -0.0257,0.97801 0.54097,5.02328 4.97512,8.9718 10.12891,8.9474 2.01627,-0.009 3.61783,-0.59564 4.90547,-1.20197 l 0.0796,-0.0565 c 1.20599,-0.57012 2.08949,-1.10563 3.14377,-1.57128 2.16253,-0.95379 5.35264,-1.9846 12.90326,-2.0192 7.50252,-0.0333 10.58557,0.77948 19.97713,1.77825 0.009,0.33613 0.0334,0.65326 0.0424,0.98957 l 0.18662,2.20695 c 0.13531,0.023 0.20095,0.0539 0.34101,0.0579 2.77,0.28173 5.51759,0.56202 8.12906,0.88913 2.52597,27.54681 13.48191,52.61011 30.41804,72.52807 -0.21054,0.27592 -0.40643,0.51694 -0.62798,0.80558 l -1.47342,2.06541 c -0.92922,1.19217 -1.96086,2.3728 -2.92241,3.57362 -0.0863,0.10885 -0.10912,0.21151 -0.19432,0.31785 0.70876,0.81599 1.45776,1.60075 2.18768,2.4064 -5.75086,7.24763 -7.53347,10.01859 -12.77317,15.30338 -5.31369,5.36271 -8.33468,7.02041 -10.53282,7.89494 -1.07581,0.42697 -2.00403,0.59259 -3.26731,1.05912 l -0.0796,0.0565 c -1.33658,0.4954 -2.89914,1.27185 -4.31866,2.705 -3.87164,3.90397 -3.85754,10.3137 0.0478,14.18245 0.24415,0.24132 0.46344,0.47324 0.72579,0.68459 3.93452,3.17106 9.82904,2.92945 13.45663,-0.73237 1.41945,-1.4334 2.15873,-3.05403 2.64058,-4.39334 l 0.0116,-0.0681 c 0.44976,-1.2563 0.70849,-2.24325 1.12467,-3.31752 0.85475,-2.20584 2.43983,-5.17965 7.75449,-10.54198 5.23996,-5.28833 8.0343,-7.09779 15.24523,-12.91886 0.81476,0.7143 1.61853,1.46996 2.43861,2.16832 0.10485,-0.0832 0.21136,-0.13929 0.31913,-0.22649 2.21073,-1.80336 4.30027,-3.45058 6.4072,-5.08699 20.10639,16.72975 45.24952,27.48357 72.84519,29.70118 0.0494,0.34229 0.12001,0.72399 0.16731,1.08096 l 0.35665,2.44655 c 0.18718,1.49873 0.24878,3.03317 0.41828,4.5619 0.0154,0.13959 0.14397,0.1704 0.15817,0.30754 0.73489,0.0484 1.40913,0.11101 2.14904,0.15451 l 0.98957,-0.0424 c 1.07537,9.39943 1.82888,12.52177 1.86098,20.03369 l 0.39134,13.95508 c 0,17.46372 0.18862,29.09227 -4.80021,42.7569 -9.14696,4.74182 -27.33852,4.53578 -40.73328,4.98524 -7.54937,-0.0343 -10.72609,-0.99714 -12.8917,-1.95099 -1.05363,-0.46587 -1.8677,-1.01415 -3.07558,-1.58286 l -0.068,0.0116 c -1.2877,-0.60637 -3.0478,-1.30522 -5.065,-1.31522 -5.1536,-0.0242 -9.49789,4.04781 -10.03759,9.07223 -0.038,0.33527 -0.059,0.59087 -0.059,1.02358 0.006,0.43271 0.03,0.63643 0.068,0.9717 0.5397,5.02442 4.88399,9.09643 10.03759,9.07223 2.0172,-0.01 3.7773,-0.70885 5.065,-1.31522 l 0.068,0.0116 c 1.20788,-0.56871 2.02195,-1.11699 3.07558,-1.58286 2.16561,-0.95385 5.34233,-1.91669 12.8917,-1.95099 13.39476,0.44946 31.58632,0.24342 40.673,5.03813 4.64347,9.23793 4.43743,27.42949 4.88689,40.82425 -0.0343,7.54937 -0.99714,10.72609 -1.95099,12.8917 -0.46587,1.05363 -1.01415,1.8677 -1.58286,3.07558 l 0.0116,0.068 c -0.60637,1.2877 -1.30522,3.0478 -1.31522,5.065 -0.0242,5.1536 4.04781,9.4979 9.07223,10.0376 0.33527,0.038 0.59087,0.059 1.02358,0.059 0.43271,-0.01 0.63643,-0.03 0.9717,-0.068 5.02442,-0.5397 9.09643,-4.884 9.07223,-10.0376 -0.01,-2.0172 -0.70885,-3.7773 -1.31522,-5.065 l 0.0116,-0.068 c -0.56871,-1.20788 -1.11699,-2.02195 -1.58286,-3.07558 -0.95385,-2.16561 -1.91669,-5.34233 -1.95099,-12.8917 0.44946,-13.39476 0.24342,-31.58632 4.88689,-40.74637 9.08668,-4.71684 27.27823,-4.5108 40.673,-4.96026 7.54936,0.0343 10.72608,0.99714 12.89169,1.95099 1.05363,0.46587 1.86771,1.01415 3.07558,1.58286 l 0.068,-0.0116 c 1.2877,0.60637 3.0478,1.30522 5.065,1.31522 5.1536,0.0242 9.49789,-4.04781 10.03759,-9.07223 0.038,-0.33527 0.062,-0.53899 0.068,-0.9717 0,-0.43271 -0.021,-0.68831 -0.059,-1.02358 -0.5397,-5.02442 -4.88399,-9.09643 -10.03759,-9.07223 -2.0172,0.01 -3.7773,0.70885 -5.065,1.31522 l -0.068,-0.0116 c -1.20788,0.56871 -2.02195,1.11699 -3.07558,1.58286 -2.16561,0.95385 -5.34233,1.91669 -12.8917,1.95099 -13.39476,-0.44946 -31.58631,-0.24342 -40.79157,-5.05862 -4.41963,-13.73923 -4.54652,-25.27975 -4.56322,-43.00884 z"
         style="font-size:medium;font-style:normal;font-variant:normal;font-weight:normal;font-stretch:normal;text-indent:0;text-align:start;text-decoration:none;line-height:normal;letter-spacing:normal;word-spacing:normal;text-transform:none;direction:ltr;block-progression:tb;writing-mode:lr-tb;text-anchor:start;baseline-shift:baseline;color:#000000;fill:#620074;fill-opacity:1;stroke:none;stroke-width:1;stroke-opacity:1;marker:none;visibility:visible;display:inline;overflow:visible;enable-background:accumulate;font-family:Sans;-inkscape-font-specification:Sans"
         id="path4123" />
    </g>
  </g>
</svg>
