<?xml version="1.0" encoding="UTF-8" standalone="no"?>
<!-- Created with Inkscape (http://www.inkscape.org/) -->

<svg
   xmlns:dc="http://purl.org/dc/elements/1.1/"
   xmlns:cc="http://creativecommons.org/ns#"
   xmlns:rdf="http://www.w3.org/1999/02/22-rdf-syntax-ns#"
   xmlns:svg="http://www.w3.org/2000/svg"
   xmlns="http://www.w3.org/2000/svg"
   xmlns:sodipodi="http://sodipodi.sourceforge.net/DTD/sodipodi-0.dtd"
   xmlns:inkscape="http://www.inkscape.org/namespaces/inkscape"
   width="744.09448819"
   height="1052.3622047"
   id="svg2"
   version="1.1"
   inkscape:version="0.48.1 r9760"
   sodipodi:docname="techinc_study1.svg">
  <defs
     id="defs4">
    <clipPath
       clipPathUnits="userSpaceOnUse"
       id="clipPath4403">
      <path
         inkscape:connector-curvature="0"
         d="m 180,180 5580,0 0,7740 -5580,0 0,-7740 z"
         id="path4405" />
    </clipPath>
  </defs>
  <sodipodi:namedview
     id="base"
     pagecolor="#ffffff"
     bordercolor="#666666"
     borderopacity="1.0"
     inkscape:pageopacity="0.0"
     inkscape:pageshadow="2"
     inkscape:zoom="0.7"
     inkscape:cx="-51.905658"
     inkscape:cy="589.32665"
     inkscape:document-units="px"
     inkscape:current-layer="layer1"
     showgrid="false"
     inkscape:window-width="1364"
     inkscape:window-height="750"
     inkscape:window-x="0"
     inkscape:window-y="0"
     inkscape:window-maximized="0" />
  <metadata
     id="metadata7">
    <rdf:RDF>
      <cc:Work
         rdf:about="">
        <dc:format>image/svg+xml</dc:format>
        <dc:type
           rdf:resource="http://purl.org/dc/dcmitype/StillImage" />
        <dc:title />
      </cc:Work>
    </rdf:RDF>
  </metadata>
  <g
     inkscape:groupmode="layer"
     id="layer2"
     inkscape:label="Layer">
    <rect
       style="fill:#000000;fill-opacity:1;stroke:none"
       id="rect5318"
       width="698.51501"
       height="587.47565"
       x="27.529413"
       y="133.33995" />
  </g>
  <g
     inkscape:label="Layer 1"
     inkscape:groupmode="layer"
     id="layer1">
    <g
       id="g4289"
       style="fill:#fffe56;fill-opacity:1;stroke:#fffe56;stroke-opacity:1"
       transform="matrix(0.63908921,0,0,0.63908921,365.81208,-233.20958)" />
    <g
       id="g5810"
       transform="matrix(0.99545055,0.09527957,-0.09527957,0.99545055,43.524729,-32.855647)">
      <path
         transform="matrix(0.66809511,0,0,0.66809511,365.81208,-263.05946)"
         d="m 248.49753,1051.3521 c 0,137.2413 -111.25613,248.4975 -248.49753,248.4975 -137.2414,0 -248.49753,-111.2562 -248.49753,-248.4975 0,-137.24144 111.25613,-248.49758 248.49753,-248.49758 137.2414,0 248.49753,111.25614 248.49753,248.49758 z"
         sodipodi:ry="248.49753"
         sodipodi:rx="248.49753"
         sodipodi:cy="1051.3521"
         sodipodi:cx="0"
         id="path3783"
         style="fill:none;stroke:#fffe56;stroke-width:9.56584167;stroke-linejoin:round;stroke-miterlimit:4;stroke-opacity:1;stroke-dasharray:none"
         sodipodi:type="arc" />
      <path
         sodipodi:type="arc"
         style="fill:none;stroke:#fffe56;stroke-width:10.11658573;stroke-linejoin:round;stroke-miterlimit:4;stroke-opacity:1;stroke-dasharray:none"
         id="path3876"
         sodipodi:cx="0"
         sodipodi:cy="1051.3521"
         sodipodi:rx="248.49753"
         sodipodi:ry="248.49753"
         d="m 248.49753,1051.3521 c 0,137.2413 -111.25613,248.4975 -248.49753,248.4975 -137.2414,0 -248.49753,-111.2562 -248.49753,-248.4975 0,-137.24144 111.25613,-248.49758 248.49753,-248.49758 137.2414,0 248.49753,111.25614 248.49753,248.49758 z"
         transform="matrix(0.63172423,0,0,0.63172423,365.81208,-224.82081)" />
      <path
         sodipodi:type="arc"
         style="fill:none;stroke:#fffe56;stroke-width:31.87971878;stroke-linejoin:round;stroke-miterlimit:4;stroke-opacity:1;stroke-dasharray:none"
         id="path3878"
         sodipodi:cx="0"
         sodipodi:cy="1051.3521"
         sodipodi:rx="248.49753"
         sodipodi:ry="248.49753"
         d="m 248.49753,1051.3521 c 0,137.2413 -111.25613,248.4975 -248.49753,248.4975 -137.2414,0 -248.49753,-111.2562 -248.49753,-248.4975 0,-137.24144 111.25613,-248.49758 248.49753,-248.49758 137.2414,0 248.49753,111.25614 248.49753,248.49758 z"
         transform="matrix(0.2004689,0,0,0.2004689,365.81208,228.58036)" />
      <path
         transform="matrix(0.16779511,0,0,0.16779511,365.81208,262.93203)"
         d="m 248.49753,1051.3521 c 0,137.2413 -111.25613,248.4975 -248.49753,248.4975 -137.2414,0 -248.49753,-111.2562 -248.49753,-248.4975 0,-137.24144 111.25613,-248.49758 248.49753,-248.49758 137.2414,0 248.49753,111.25614 248.49753,248.49758 z"
         sodipodi:ry="248.49753"
         sodipodi:rx="248.49753"
         sodipodi:cy="1051.3521"
         sodipodi:cx="0"
         id="path3880"
         style="fill:none;stroke:#fffe56;stroke-width:38.08747482;stroke-linejoin:round;stroke-miterlimit:4;stroke-opacity:1;stroke-dasharray:none"
         sodipodi:type="arc" />
      <path
         sodipodi:nodetypes="ssssscccssssscs"
         inkscape:connector-curvature="0"
         id="path2985"
         d="m 356.22574,207.36254 c 0,1.94962 0.56547,3.63321 1.19829,4.99289 0.63284,1.35967 1.28602,2.46705 1.91727,3.91442 1.2625,2.89474 2.5963,7.3069 2.5963,16.6962 0,9.7016 -0.97788,23.81122 -2.33667,36.62781 -1.35879,12.81658 -3.21534,24.63151 -4.51357,28.8389 2.5265,1.77242 6.84646,3.03567 10.72472,3.03567 3.87826,0 8.19822,-1.26325 10.72471,-3.03567 -1.29822,-4.20739 -3.15477,-16.02232 -4.51356,-28.8389 -1.3588,-12.81659 -2.33667,-26.92621 -2.33667,-36.62781 0,-9.3893 1.3338,-13.80146 2.5963,-16.6962 0.63125,-1.44737 1.28444,-2.55475 1.91726,-3.91442 0.63284,-1.35968 1.1983,-3.04327 1.1983,-4.99289 0,-5.25654 -4.3298,-9.58633 -9.58634,-9.58633 -5.25654,0 -9.58634,4.32979 -9.58634,9.58633 z"
         style="font-size:medium;font-style:normal;font-variant:normal;font-weight:normal;font-stretch:normal;text-indent:0;text-align:start;text-decoration:none;line-height:normal;letter-spacing:normal;word-spacing:normal;text-transform:none;direction:ltr;block-progression:tb;writing-mode:lr-tb;text-anchor:start;baseline-shift:baseline;color:#000000;fill:#000000;fill-opacity:1;fill-rule:evenodd;stroke:#fffe56;stroke-width:5.11271381;stroke-miterlimit:4;stroke-opacity:1;stroke-dasharray:none;marker:none;visibility:visible;display:inline;overflow:visible;enable-background:accumulate;font-family:Sans;-inkscape-font-specification:Sans" />
      <path
         sodipodi:nodetypes="scccscscccscs"
         inkscape:connector-curvature="0"
         id="rect4174"
         d="m 370.90482,320.16179 c -1.18512,-8.59065 -1.27818,-11.69843 -1.27818,-19.47225 l -3.81456,0 -3.81456,0 c 0,7.77382 -0.0931,10.8816 -1.27818,19.47225 -1.18512,8.59057 -2.55636,19.38741 -2.55636,27.41092 0,8.02351 1.37124,18.82035 2.55636,27.41092 1.18512,8.5907 1.27818,11.69846 1.27818,19.47228 l 3.81456,0 3.81456,0 c 0,-7.77382 0.0931,-10.88158 1.27818,-19.47228 1.18512,-8.59057 2.55636,-19.38735 2.55636,-27.41092 0,-8.02351 -1.37124,-18.82035 -2.55636,-27.41092 z"
         style="fill:#000000;fill-opacity:1;stroke:#fffe56;stroke-width:6.39089203;stroke-miterlimit:4;stroke-opacity:1;stroke-dasharray:none" />
      <path
         sodipodi:nodetypes="ssssscccssssscs"
         inkscape:connector-curvature="0"
         id="path4285"
         d="m 356.22574,207.36254 c 0,1.94962 0.56547,3.63321 1.19829,4.99289 0.63283,1.35967 1.28602,2.46705 1.91727,3.91442 1.2625,2.89474 2.5963,7.3069 2.5963,16.69621 0,9.70159 -0.97788,23.81121 -2.33667,36.6278 -1.35879,12.81658 -3.21534,24.63151 -4.51357,28.8389 2.5265,1.77242 6.84646,3.03567 10.72472,3.03567 3.87826,0 8.19822,-1.26325 10.72472,-3.03567 -1.29823,-4.20739 -3.15478,-16.02232 -4.51357,-28.8389 -1.35879,-12.81659 -2.33667,-26.92621 -2.33667,-36.6278 0,-9.38931 1.3338,-13.80147 2.5963,-16.69621 0.63125,-1.44737 1.28444,-2.55475 1.91727,-3.91442 0.63282,-1.35968 1.19829,-3.04327 1.19829,-4.99289 0,-5.25654 -4.3298,-9.58633 -9.58634,-9.58633 -5.25654,0 -9.58634,4.32979 -9.58634,9.58633 z"
         style="font-size:medium;font-style:normal;font-variant:normal;font-weight:normal;font-stretch:normal;text-indent:0;text-align:start;text-decoration:none;line-height:normal;letter-spacing:normal;word-spacing:normal;text-transform:none;direction:ltr;block-progression:tb;writing-mode:lr-tb;text-anchor:start;baseline-shift:baseline;color:#000000;fill:#fffe56;fill-opacity:1;fill-rule:evenodd;stroke:#fffe56;stroke-width:5.11271381;stroke-miterlimit:4;stroke-opacity:1;stroke-dasharray:none;marker:none;visibility:visible;display:inline;overflow:visible;enable-background:accumulate;font-family:Sans;-inkscape-font-specification:Sans" />
      <path
         sodipodi:nodetypes="scccscscccscs"
         inkscape:connector-curvature="0"
         id="path4287"
         d="m 370.90482,320.16179 c -1.18512,-8.59065 -1.27818,-11.69843 -1.27818,-19.47225 l -3.81456,0 -3.81456,0 c 0,7.77382 -0.0931,10.8816 -1.27818,19.47225 -1.18512,8.59057 -2.55636,19.38741 -2.55636,27.41092 0,8.02351 1.37124,18.82035 2.55636,27.41092 1.18512,8.5907 1.27818,11.69846 1.27818,19.47228 l 3.81456,0 3.81456,0 c 0,-7.77382 0.0931,-10.88158 1.27818,-19.47228 1.18512,-8.59057 2.55636,-19.38735 2.55636,-27.41092 0,-8.02351 -1.37124,-18.82035 -2.55636,-27.41092 z"
         style="fill:#fffe56;fill-opacity:1;stroke:#fffe56;stroke-width:6.39089203;stroke-miterlimit:4;stroke-opacity:1;stroke-dasharray:none" />
      <g
         style="fill:#fffe56;fill-opacity:1;stroke:#fffe56;stroke-opacity:1"
         transform="matrix(0.45190431,-0.45190431,0.45190431,0.45190431,-109.75494,-36.223277)"
         id="g4295">
        <path
           style="font-size:medium;font-style:normal;font-variant:normal;font-weight:normal;font-stretch:normal;text-indent:0;text-align:start;text-decoration:none;line-height:normal;letter-spacing:normal;word-spacing:normal;text-transform:none;direction:ltr;block-progression:tb;writing-mode:lr-tb;text-anchor:start;baseline-shift:baseline;color:#000000;fill:#fffe56;fill-opacity:1;fill-rule:evenodd;stroke:#fffe56;stroke-width:8;stroke-miterlimit:4;stroke-opacity:1;stroke-dasharray:none;marker:none;visibility:visible;display:inline;overflow:visible;enable-background:accumulate;font-family:Sans;-inkscape-font-specification:Sans"
           d="m -15,689.375 c 0,3.05061 0.884797,5.68498 1.875,7.8125 0.990203,2.12752 2.012265,3.86026 3,6.125 1.975469,4.52948 4.0625,11.4333 4.0625,26.125 0,15.18034 -1.530111,37.25804 -3.65625,57.3125 -2.126139,20.05446 -5.03113,38.54159 -7.0625,45.125 3.953277,2.77336 10.712828,4.75 16.78125,4.75 6.068422,0 12.827973,-1.97664 16.78125,-4.75 C 14.74988,825.29159 11.844889,806.80446 9.71875,786.75 7.592611,766.69554 6.0625,744.61784 6.0625,729.4375 c 0,-14.6917 2.087031,-21.59552 4.0625,-26.125 0.987735,-2.26474 2.009797,-3.99748 3,-6.125 0.990203,-2.12752 1.875,-4.76189 1.875,-7.8125 0,-8.22505 -6.774952,-15 -15,-15 -8.225048,0 -15,6.77495 -15,15 z"
           id="path4297"
           inkscape:connector-curvature="0"
           sodipodi:nodetypes="ssssscccssssscs" />
        <path
           style="fill:#fffe56;fill-opacity:1;stroke:#fffe56;stroke-width:10;stroke-miterlimit:4;stroke-opacity:1;stroke-dasharray:none"
           d="m 7.96875,865.875 c -1.854391,-13.44202 -2,-18.30485 -2,-30.46875 l -5.96875,0 -5.96875,0 c 0,12.1639 -0.145609,17.02673 -2,30.46875 -1.854391,13.4419 -4,30.336 -4,42.8906 0,12.5546 2.145609,29.4487 4,42.8906 1.854391,13.4421 2,18.3049 2,30.4688 l 5.96875,0 5.96875,0 c 0,-12.1639 0.145609,-17.0267 2,-30.4688 1.854391,-13.4419 4,-30.3359 4,-42.8906 0,-12.5546 -2.145609,-29.4487 -4,-42.8906 z"
           id="path4299"
           inkscape:connector-curvature="0"
           sodipodi:nodetypes="scccscscccscs" />
      </g>
      <g
         style="fill:#fffe56;fill-opacity:1;stroke:#fffe56;stroke-opacity:1"
         id="g4303"
         transform="matrix(0,-0.63908921,0.63908921,0,-306.74125,439.34375)">
        <path
           sodipodi:nodetypes="ssssscccssssscs"
           inkscape:connector-curvature="0"
           id="path4305"
           d="m -15,689.375 c 0,3.05061 0.884797,5.68498 1.875,7.8125 0.990203,2.12752 2.012265,3.86026 3,6.125 1.975469,4.52948 4.0625,11.4333 4.0625,26.125 0,15.18034 -1.530111,37.25804 -3.65625,57.3125 -2.126139,20.05446 -5.03113,38.54159 -7.0625,45.125 3.953277,2.77336 10.712828,4.75 16.78125,4.75 6.068422,0 12.827973,-1.97664 16.78125,-4.75 C 14.74988,825.29159 11.844889,806.80446 9.71875,786.75 7.592611,766.69554 6.0625,744.61784 6.0625,729.4375 c 0,-14.6917 2.087031,-21.59552 4.0625,-26.125 0.987735,-2.26474 2.009797,-3.99748 3,-6.125 0.990203,-2.12752 1.875,-4.76189 1.875,-7.8125 0,-8.22505 -6.774952,-15 -15,-15 -8.225048,0 -15,6.77495 -15,15 z"
           style="font-size:medium;font-style:normal;font-variant:normal;font-weight:normal;font-stretch:normal;text-indent:0;text-align:start;text-decoration:none;line-height:normal;letter-spacing:normal;word-spacing:normal;text-transform:none;direction:ltr;block-progression:tb;writing-mode:lr-tb;text-anchor:start;baseline-shift:baseline;color:#000000;fill:#fffe56;fill-opacity:1;fill-rule:evenodd;stroke:#fffe56;stroke-width:8;stroke-miterlimit:4;stroke-opacity:1;stroke-dasharray:none;marker:none;visibility:visible;display:inline;overflow:visible;enable-background:accumulate;font-family:Sans;-inkscape-font-specification:Sans" />
        <path
           sodipodi:nodetypes="scccscscccscs"
           inkscape:connector-curvature="0"
           id="path4307"
           d="m 7.96875,865.875 c -1.854391,-13.44202 -2,-18.30485 -2,-30.46875 l -5.96875,0 -5.96875,0 c 0,12.1639 -0.145609,17.02673 -2,30.46875 -1.854391,13.4419 -4,30.336 -4,42.8906 0,12.5546 2.145609,29.4487 4,42.8906 1.854391,13.4421 2,18.3049 2,30.4688 l 5.96875,0 5.96875,0 c 0,-12.1639 0.145609,-17.0267 2,-30.4688 1.854391,-13.4419 4,-30.3359 4,-42.8906 0,-12.5546 -2.145609,-29.4487 -4,-42.8906 z"
           style="fill:#fffe56;fill-opacity:1;stroke:#fffe56;stroke-width:10;stroke-miterlimit:4;stroke-opacity:1;stroke-dasharray:none" />
      </g>
      <g
         style="fill:#fffe56;fill-opacity:1;stroke:#fffe56;stroke-opacity:1"
         transform="matrix(-0.45190431,-0.45190431,0.45190431,-0.45190431,-109.75494,914.91075)"
         id="g4311">
        <path
           style="font-size:medium;font-style:normal;font-variant:normal;font-weight:normal;font-stretch:normal;text-indent:0;text-align:start;text-decoration:none;line-height:normal;letter-spacing:normal;word-spacing:normal;text-transform:none;direction:ltr;block-progression:tb;writing-mode:lr-tb;text-anchor:start;baseline-shift:baseline;color:#000000;fill:#fffe56;fill-opacity:1;fill-rule:evenodd;stroke:#fffe56;stroke-width:8;stroke-miterlimit:4;stroke-opacity:1;stroke-dasharray:none;marker:none;visibility:visible;display:inline;overflow:visible;enable-background:accumulate;font-family:Sans;-inkscape-font-specification:Sans"
           d="m -15,689.375 c 0,3.05061 0.884797,5.68498 1.875,7.8125 0.990203,2.12752 2.012265,3.86026 3,6.125 1.975469,4.52948 4.0625,11.4333 4.0625,26.125 0,15.18034 -1.530111,37.25804 -3.65625,57.3125 -2.126139,20.05446 -5.03113,38.54159 -7.0625,45.125 3.953277,2.77336 10.712828,4.75 16.78125,4.75 6.068422,0 12.827973,-1.97664 16.78125,-4.75 C 14.74988,825.29159 11.844889,806.80446 9.71875,786.75 7.592611,766.69554 6.0625,744.61784 6.0625,729.4375 c 0,-14.6917 2.087031,-21.59552 4.0625,-26.125 0.987735,-2.26474 2.009797,-3.99748 3,-6.125 0.990203,-2.12752 1.875,-4.76189 1.875,-7.8125 0,-8.22505 -6.774952,-15 -15,-15 -8.225048,0 -15,6.77495 -15,15 z"
           id="path4313"
           inkscape:connector-curvature="0"
           sodipodi:nodetypes="ssssscccssssscs" />
        <path
           style="fill:#fffe56;fill-opacity:1;stroke:#fffe56;stroke-width:10;stroke-miterlimit:4;stroke-opacity:1;stroke-dasharray:none"
           d="m 7.96875,865.875 c -1.854391,-13.44202 -2,-18.30485 -2,-30.46875 l -5.96875,0 -5.96875,0 c 0,12.1639 -0.145609,17.02673 -2,30.46875 -1.854391,13.4419 -4,30.336 -4,42.8906 0,12.5546 2.145609,29.4487 4,42.8906 1.854391,13.4421 2,18.3049 2,30.4688 l 5.96875,0 5.96875,0 c 0,-12.1639 0.145609,-17.0267 2,-30.4688 1.854391,-13.4419 4,-30.3359 4,-42.8906 0,-12.5546 -2.145609,-29.4487 -4,-42.8906 z"
           id="path4315"
           inkscape:connector-curvature="0"
           sodipodi:nodetypes="scccscscccscs" />
      </g>
      <g
         style="fill:#fffe56;fill-opacity:1;stroke:#fffe56;stroke-opacity:1"
         id="g4319"
         transform="matrix(-0.63908921,0,0,-0.63908921,365.81205,1111.8971)">
        <path
           sodipodi:nodetypes="ssssscccssssscs"
           inkscape:connector-curvature="0"
           id="path4321"
           d="m -15,689.375 c 0,3.05061 0.884797,5.68498 1.875,7.8125 0.990203,2.12752 2.012265,3.86026 3,6.125 1.975469,4.52948 4.0625,11.4333 4.0625,26.125 0,15.18034 -1.530111,37.25804 -3.65625,57.3125 -2.126139,20.05446 -5.03113,38.54159 -7.0625,45.125 3.953277,2.77336 10.712828,4.75 16.78125,4.75 6.068422,0 12.827973,-1.97664 16.78125,-4.75 C 14.74988,825.29159 11.844889,806.80446 9.71875,786.75 7.592611,766.69554 6.0625,744.61784 6.0625,729.4375 c 0,-14.6917 2.087031,-21.59552 4.0625,-26.125 0.987735,-2.26474 2.009797,-3.99748 3,-6.125 0.990203,-2.12752 1.875,-4.76189 1.875,-7.8125 0,-8.22505 -6.774952,-15 -15,-15 -8.225048,0 -15,6.77495 -15,15 z"
           style="font-size:medium;font-style:normal;font-variant:normal;font-weight:normal;font-stretch:normal;text-indent:0;text-align:start;text-decoration:none;line-height:normal;letter-spacing:normal;word-spacing:normal;text-transform:none;direction:ltr;block-progression:tb;writing-mode:lr-tb;text-anchor:start;baseline-shift:baseline;color:#000000;fill:#fffe56;fill-opacity:1;fill-rule:evenodd;stroke:#fffe56;stroke-width:8;stroke-miterlimit:4;stroke-opacity:1;stroke-dasharray:none;marker:none;visibility:visible;display:inline;overflow:visible;enable-background:accumulate;font-family:Sans;-inkscape-font-specification:Sans" />
        <path
           sodipodi:nodetypes="scccscscccscs"
           inkscape:connector-curvature="0"
           id="path4323"
           d="m 7.96875,865.875 c -1.854391,-13.44202 -2,-18.30485 -2,-30.46875 l -5.96875,0 -5.96875,0 c 0,12.1639 -0.145609,17.02673 -2,30.46875 -1.854391,13.4419 -4,30.336 -4,42.8906 0,12.5546 2.145609,29.4487 4,42.8906 1.854391,13.4421 2,18.3049 2,30.4688 l 5.96875,0 5.96875,0 c 0,-12.1639 0.145609,-17.0267 2,-30.4688 1.854391,-13.4419 4,-30.3359 4,-42.8906 0,-12.5546 -2.145609,-29.4487 -4,-42.8906 z"
           style="fill:#fffe56;fill-opacity:1;stroke:#fffe56;stroke-width:10;stroke-miterlimit:4;stroke-opacity:1;stroke-dasharray:none" />
      </g>
      <g
         style="fill:#fffe56;fill-opacity:1;stroke:#fffe56;stroke-opacity:1"
         transform="matrix(-0.45190431,0.45190431,-0.45190431,-0.45190431,841.37911,914.91082)"
         id="g4327">
        <path
           style="font-size:medium;font-style:normal;font-variant:normal;font-weight:normal;font-stretch:normal;text-indent:0;text-align:start;text-decoration:none;line-height:normal;letter-spacing:normal;word-spacing:normal;text-transform:none;direction:ltr;block-progression:tb;writing-mode:lr-tb;text-anchor:start;baseline-shift:baseline;color:#000000;fill:#fffe56;fill-opacity:1;fill-rule:evenodd;stroke:#fffe56;stroke-width:8;stroke-miterlimit:4;stroke-opacity:1;stroke-dasharray:none;marker:none;visibility:visible;display:inline;overflow:visible;enable-background:accumulate;font-family:Sans;-inkscape-font-specification:Sans"
           d="m -15,689.375 c 0,3.05061 0.884797,5.68498 1.875,7.8125 0.990203,2.12752 2.012265,3.86026 3,6.125 1.975469,4.52948 4.0625,11.4333 4.0625,26.125 0,15.18034 -1.530111,37.25804 -3.65625,57.3125 -2.126139,20.05446 -5.03113,38.54159 -7.0625,45.125 3.953277,2.77336 10.712828,4.75 16.78125,4.75 6.068422,0 12.827973,-1.97664 16.78125,-4.75 C 14.74988,825.29159 11.844889,806.80446 9.71875,786.75 7.592611,766.69554 6.0625,744.61784 6.0625,729.4375 c 0,-14.6917 2.087031,-21.59552 4.0625,-26.125 0.987735,-2.26474 2.009797,-3.99748 3,-6.125 0.990203,-2.12752 1.875,-4.76189 1.875,-7.8125 0,-8.22505 -6.774952,-15 -15,-15 -8.225048,0 -15,6.77495 -15,15 z"
           id="path4329"
           inkscape:connector-curvature="0"
           sodipodi:nodetypes="ssssscccssssscs" />
        <path
           style="fill:#fffe56;fill-opacity:1;stroke:#fffe56;stroke-width:10;stroke-miterlimit:4;stroke-opacity:1;stroke-dasharray:none"
           d="m 7.96875,865.875 c -1.854391,-13.44202 -2,-18.30485 -2,-30.46875 l -5.96875,0 -5.96875,0 c 0,12.1639 -0.145609,17.02673 -2,30.46875 -1.854391,13.4419 -4,30.336 -4,42.8906 0,12.5546 2.145609,29.4487 4,42.8906 1.854391,13.4421 2,18.3049 2,30.4688 l 5.96875,0 5.96875,0 c 0,-12.1639 0.145609,-17.0267 2,-30.4688 1.854391,-13.4419 4,-30.3359 4,-42.8906 0,-12.5546 -2.145609,-29.4487 -4,-42.8906 z"
           id="path4331"
           inkscape:connector-curvature="0"
           sodipodi:nodetypes="scccscscccscs" />
      </g>
      <g
         style="fill:#fffe56;fill-opacity:1;stroke:#fffe56;stroke-opacity:1"
         id="g4335"
         transform="matrix(0,0.63908921,-0.63908921,0,1038.3654,439.34381)">
        <path
           sodipodi:nodetypes="ssssscccssssscs"
           inkscape:connector-curvature="0"
           id="path4337"
           d="m -15,689.375 c 0,3.05061 0.884797,5.68498 1.875,7.8125 0.990203,2.12752 2.012265,3.86026 3,6.125 1.975469,4.52948 4.0625,11.4333 4.0625,26.125 0,15.18034 -1.530111,37.25804 -3.65625,57.3125 -2.126139,20.05446 -5.03113,38.54159 -7.0625,45.125 3.953277,2.77336 10.712828,4.75 16.78125,4.75 6.068422,0 12.827973,-1.97664 16.78125,-4.75 C 14.74988,825.29159 11.844889,806.80446 9.71875,786.75 7.592611,766.69554 6.0625,744.61784 6.0625,729.4375 c 0,-14.6917 2.087031,-21.59552 4.0625,-26.125 0.987735,-2.26474 2.009797,-3.99748 3,-6.125 0.990203,-2.12752 1.875,-4.76189 1.875,-7.8125 0,-8.22505 -6.774952,-15 -15,-15 -8.225048,0 -15,6.77495 -15,15 z"
           style="font-size:medium;font-style:normal;font-variant:normal;font-weight:normal;font-stretch:normal;text-indent:0;text-align:start;text-decoration:none;line-height:normal;letter-spacing:normal;word-spacing:normal;text-transform:none;direction:ltr;block-progression:tb;writing-mode:lr-tb;text-anchor:start;baseline-shift:baseline;color:#000000;fill:#fffe56;fill-opacity:1;fill-rule:evenodd;stroke:#fffe56;stroke-width:8;stroke-miterlimit:4;stroke-opacity:1;stroke-dasharray:none;marker:none;visibility:visible;display:inline;overflow:visible;enable-background:accumulate;font-family:Sans;-inkscape-font-specification:Sans" />
        <path
           sodipodi:nodetypes="scccscscccscs"
           inkscape:connector-curvature="0"
           id="path4339"
           d="m 7.96875,865.875 c -1.854391,-13.44202 -2,-18.30485 -2,-30.46875 l -5.96875,0 -5.96875,0 c 0,12.1639 -0.145609,17.02673 -2,30.46875 -1.854391,13.4419 -4,30.336 -4,42.8906 0,12.5546 2.145609,29.4487 4,42.8906 1.854391,13.4421 2,18.3049 2,30.4688 l 5.96875,0 5.96875,0 c 0,-12.1639 0.145609,-17.0267 2,-30.4688 1.854391,-13.4419 4,-30.3359 4,-42.8906 0,-12.5546 -2.145609,-29.4487 -4,-42.8906 z"
           style="fill:#fffe56;fill-opacity:1;stroke:#fffe56;stroke-width:10;stroke-miterlimit:4;stroke-opacity:1;stroke-dasharray:none" />
      </g>
      <g
         style="fill:#fffe56;fill-opacity:1;stroke:#fffe56;stroke-opacity:1"
         transform="matrix(0.45190431,0.45190431,-0.45190431,0.45190431,841.37917,-36.223232)"
         id="g4343">
        <path
           style="font-size:medium;font-style:normal;font-variant:normal;font-weight:normal;font-stretch:normal;text-indent:0;text-align:start;text-decoration:none;line-height:normal;letter-spacing:normal;word-spacing:normal;text-transform:none;direction:ltr;block-progression:tb;writing-mode:lr-tb;text-anchor:start;baseline-shift:baseline;color:#000000;fill:#fffe56;fill-opacity:1;fill-rule:evenodd;stroke:#fffe56;stroke-width:8;stroke-miterlimit:4;stroke-opacity:1;stroke-dasharray:none;marker:none;visibility:visible;display:inline;overflow:visible;enable-background:accumulate;font-family:Sans;-inkscape-font-specification:Sans"
           d="m -15,689.375 c 0,3.05061 0.884797,5.68498 1.875,7.8125 0.990203,2.12752 2.012265,3.86026 3,6.125 1.975469,4.52948 4.0625,11.4333 4.0625,26.125 0,15.18034 -1.530111,37.25804 -3.65625,57.3125 -2.126139,20.05446 -5.03113,38.54159 -7.0625,45.125 3.953277,2.77336 10.712828,4.75 16.78125,4.75 6.068422,0 12.827973,-1.97664 16.78125,-4.75 C 14.74988,825.29159 11.844889,806.80446 9.71875,786.75 7.592611,766.69554 6.0625,744.61784 6.0625,729.4375 c 0,-14.6917 2.087031,-21.59552 4.0625,-26.125 0.987735,-2.26474 2.009797,-3.99748 3,-6.125 0.990203,-2.12752 1.875,-4.76189 1.875,-7.8125 0,-8.22505 -6.774952,-15 -15,-15 -8.225048,0 -15,6.77495 -15,15 z"
           id="path4345"
           inkscape:connector-curvature="0"
           sodipodi:nodetypes="ssssscccssssscs" />
        <path
           style="fill:#fffe56;fill-opacity:1;stroke:#fffe56;stroke-width:10;stroke-miterlimit:4;stroke-opacity:1;stroke-dasharray:none"
           d="m 7.96875,865.875 c -1.854391,-13.44202 -2,-18.30485 -2,-30.46875 l -5.96875,0 -5.96875,0 c 0,12.1639 -0.145609,17.02673 -2,30.46875 -1.854391,13.4419 -4,30.336 -4,42.8906 0,12.5546 2.145609,29.4487 4,42.8906 1.854391,13.4421 2,18.3049 2,30.4688 l 5.96875,0 5.96875,0 c 0,-12.1639 0.145609,-17.0267 2,-30.4688 1.854391,-13.4419 4,-30.3359 4,-42.8906 0,-12.5546 -2.145609,-29.4487 -4,-42.8906 z"
           id="path4347"
           inkscape:connector-curvature="0"
           sodipodi:nodetypes="scccscscccscs" />
      </g>
    </g>
    <g
       id="g5247"
       transform="matrix(0.63908921,0,0,0.63908921,365.81208,-233.20958)">
      <path
         inkscape:connector-curvature="0"
         d="m -92.354301,1048.1238 c 0,-3.5703 -2.896665,-6.467 -6.466972,-6.467 -3.570307,0 -6.466967,2.8967 -6.466967,6.467 0,3.5703 2.89666,6.468 6.466967,6.468 3.570307,0 6.466972,-2.8977 6.466972,-6.468"
         style="fill:#fffe56;fill-opacity:1;fill-rule:nonzero;stroke:#fffe56;stroke-width:0.24949737;stroke-opacity:1"
         id="path4429" />
      <g
         id="g5026">
        <g
           id="g4998"
           style="fill:#fffe56;fill-opacity:1">
          <path
             inkscape:connector-curvature="0"
             d="m 33.392373,1084.0519 c 0,-3.5708 -2.896664,-6.4665 -6.466971,-6.4665 -3.570308,0 -6.466972,2.8957 -6.466972,6.4665 0,3.5711 2.896664,6.4675 6.466972,6.4675 3.570307,0 6.466971,-2.8964 6.466971,-6.4675"
             style="fill:#fffe56;fill-opacity:1;fill-rule:nonzero;stroke:#fffe56;stroke-width:0.24949737;stroke-opacity:1"
             id="path4407" />
          <path
             inkscape:connector-curvature="0"
             d="m 33.392373,1066.0881 c 0,-3.5708 -2.896664,-6.4665 -6.466971,-6.4665 -3.570308,0 -6.466972,2.8957 -6.466972,6.4665 0,3.5711 2.896664,6.4675 6.466972,6.4675 3.570307,0 6.466971,-2.8964 6.466971,-6.4675"
             style="fill:#fffe56;fill-opacity:1;fill-rule:nonzero;stroke:#fffe56;stroke-width:0.24949737;stroke-opacity:1"
             id="path4409" />
          <path
             inkscape:connector-curvature="0"
             d="m 33.392373,1048.1238 c 0,-3.5703 -2.896664,-6.467 -6.466971,-6.467 -3.570308,0 -6.466972,2.8967 -6.466972,6.467 0,3.5703 2.896664,6.468 6.466972,6.468 3.570307,0 6.466971,-2.8977 6.466971,-6.468"
             style="fill:#fffe56;fill-opacity:1;fill-rule:nonzero;stroke:#fffe56;stroke-width:0.24949737;stroke-opacity:1"
             id="path4411" />
          <path
             inkscape:connector-curvature="0"
             d="m -38.462869,1119.9795 c 0,-3.5708 -2.896665,-6.4664 -6.466972,-6.4664 -3.570307,0 -6.466972,2.8956 -6.466972,6.4664 0,3.5711 2.896665,6.4675 6.466972,6.4675 3.570307,0 6.466972,-2.8964 6.466972,-6.4675"
             style="fill:#fffe56;fill-opacity:1;fill-rule:nonzero;stroke:#fffe56;stroke-width:0.24949737;stroke-opacity:1"
             id="path4433" />
          <path
             inkscape:connector-curvature="0"
             d="m 51.356184,1066.0881 c 0,-3.5708 -2.896664,-6.4665 -6.466972,-6.4665 -3.570307,0 -6.466972,2.8957 -6.466972,6.4665 0,3.5711 2.896665,6.4675 6.466972,6.4675 3.570308,0 6.466972,-2.8964 6.466972,-6.4675"
             style="fill:#fffe56;fill-opacity:1;fill-rule:nonzero;stroke:#fffe56;stroke-width:0.24949737;stroke-opacity:1"
             id="path4435" />
          <path
             inkscape:connector-curvature="0"
             d="m 51.356184,1119.9795 c 0,-3.5708 -2.896664,-6.4664 -6.466972,-6.4664 -3.570307,0 -6.466972,2.8956 -6.466972,6.4664 0,3.5711 2.896665,6.4675 6.466972,6.4675 3.570308,0 6.466972,-2.8964 6.466972,-6.4675"
             style="fill:#fffe56;fill-opacity:1;fill-rule:nonzero;stroke:#fffe56;stroke-width:0.24949737;stroke-opacity:1"
             id="path4437" />
          <path
             inkscape:connector-curvature="0"
             d="m 51.356184,1048.1238 c 0,-3.5703 -2.896664,-6.467 -6.466972,-6.467 -3.570307,0 -6.466972,2.8967 -6.466972,6.467 0,3.5703 2.896665,6.468 6.466972,6.468 3.570308,0 6.466972,-2.8977 6.466972,-6.468"
             style="fill:#fffe56;fill-opacity:1;fill-rule:nonzero;stroke:#fffe56;stroke-width:0.24949737;stroke-opacity:1"
             id="path4439" />
          <path
             inkscape:connector-curvature="0"
             d="m 105.24762,1048.1238 c 0,-3.5703 -2.89667,-6.467 -6.466976,-6.467 -3.570307,0 -6.466972,2.8967 -6.466972,6.467 0,3.5703 2.896665,6.468 6.466972,6.468 3.570306,0 6.466976,-2.8977 6.466976,-6.468"
             style="fill:#fffe56;fill-opacity:1;fill-rule:nonzero;stroke:#fffe56;stroke-width:0.24949737;stroke-opacity:1"
             id="path4441" />
          <path
             inkscape:connector-curvature="0"
             d="m -20.499059,1106.5067 c 0,-3.5708 -2.896664,-6.4665 -6.466971,-6.4665 -3.570308,0 -6.466972,2.8957 -6.466972,6.4665 0,3.571 2.896664,6.4675 6.466972,6.4675 3.570307,0 6.466971,-2.8965 6.466971,-6.4675"
             style="fill:#fffe56;fill-opacity:1;fill-rule:nonzero;stroke:#fffe56;stroke-width:0.24949737;stroke-opacity:1"
             id="path4443" />
          <path
             inkscape:connector-curvature="0"
             d="m 33.392373,1106.5067 c 0,-3.5708 -2.896664,-6.4665 -6.466971,-6.4665 -3.570308,0 -6.466972,2.8957 -6.466972,6.4665 0,3.571 2.896664,6.4675 6.466972,6.4675 3.570307,0 6.466971,-2.8965 6.466971,-6.4675"
             style="fill:#fffe56;fill-opacity:1;fill-rule:nonzero;stroke:#fffe56;stroke-width:0.24949737;stroke-opacity:1"
             id="path4445" />
          <path
             inkscape:connector-curvature="0"
             d="m 25.129021,1133.4524 c 0,-3.9675 -3.218517,-7.1858 -7.185525,-7.1858 -3.967008,0 -7.185524,3.2183 -7.185524,7.1858 0,3.9678 3.218516,7.1858 7.185524,7.1858 3.967008,0 7.185525,-3.218 7.185525,-7.1858"
             style="fill:#fffe56;fill-opacity:1;fill-rule:nonzero;stroke:#fffe56;stroke-width:0.24949737;stroke-opacity:1"
             id="path4447" />
          <path
             inkscape:connector-curvature="0"
             d="m 7.1652099,1133.4524 c 0,-3.9675 -3.2185161,-7.1858 -7.18552427,-7.1858 -3.96700823,0 -7.18552423,3.2183 -7.18552423,7.1858 0,3.9678 3.218516,7.1858 7.18552423,7.1858 3.96700817,0 7.18552427,-3.218 7.18552427,-7.1858"
             style="fill:#fffe56;fill-opacity:1;fill-rule:nonzero;stroke:#fffe56;stroke-width:0.24949737;stroke-opacity:1"
             id="path4449" />
          <path
             inkscape:connector-curvature="0"
             d="m -10.801096,1133.4524 c 0,-3.9675 -3.216021,-7.1858 -7.183029,-7.1858 -3.967008,0 -7.185524,3.2183 -7.185524,7.1858 0,3.9678 3.218516,7.1858 7.185524,7.1858 3.967008,0 7.183029,-3.218 7.183029,-7.1858"
             style="fill:#fffe56;fill-opacity:1;fill-rule:nonzero;stroke:#fffe56;stroke-width:0.24949737;stroke-opacity:1"
             id="path4451" />
        </g>
        <path
           id="path4453"
           style="fill:none;stroke:#fffe56;stroke-width:5.74841976;stroke-linecap:round;stroke-linejoin:round;stroke-miterlimit:10;stroke-opacity:1;stroke-dasharray:none"
           d="m 26.925402,1048.1238 17.96381,0"
           inkscape:connector-curvature="0" />
        <path
           id="path4455"
           style="fill:none;stroke:#fffe56;stroke-width:5.74841976;stroke-linecap:round;stroke-linejoin:round;stroke-miterlimit:10;stroke-opacity:1;stroke-dasharray:none"
           d="m -9.0022197,1066.0881 0,-62.8738"
           inkscape:connector-curvature="0" />
        <path
           id="path4457"
           style="fill:none;stroke:#fffe56;stroke-width:5.74841976;stroke-linecap:round;stroke-linejoin:round;stroke-miterlimit:10;stroke-opacity:1;stroke-dasharray:none"
           d="m -26.96603,1084.0519 17.9638103,-17.9638"
           inkscape:connector-curvature="0" />
        <path
           id="path4459"
           style="fill:none;stroke:#fffe56;stroke-width:5.74841976;stroke-linecap:round;stroke-linejoin:round;stroke-miterlimit:10;stroke-opacity:1;stroke-dasharray:none"
           d="m -26.96603,1106.5067 0,-22.4548"
           inkscape:connector-curvature="0" />
        <path
           id="path4461"
           style="fill:none;stroke:#fffe56;stroke-width:5.74841976;stroke-linecap:round;stroke-linejoin:round;stroke-miterlimit:10;stroke-opacity:1;stroke-dasharray:none"
           d="M 8.9615909,1048.1238 26.925402,1030.16"
           inkscape:connector-curvature="0" />
        <path
           id="path4463"
           style="fill:none;stroke:#fffe56;stroke-width:5.74841976;stroke-linecap:round;stroke-linejoin:round;stroke-miterlimit:10;stroke-opacity:1;stroke-dasharray:none"
           d="m 8.9615909,1048.1238 0,-44.9095"
           inkscape:connector-curvature="0" />
        <path
           id="path4465"
           style="fill:none;stroke:#fffe56;stroke-width:5.74841976;stroke-linecap:round;stroke-linejoin:round;stroke-miterlimit:10;stroke-opacity:1;stroke-dasharray:none"
           d="m -0.02031437,1106.5067 8.98190527,-8.9819"
           inkscape:connector-curvature="0" />
        <path
           id="path4467"
           style="fill:none;stroke:#fffe56;stroke-width:5.74841976;stroke-linecap:round;stroke-linejoin:round;stroke-miterlimit:10;stroke-opacity:1;stroke-dasharray:none"
           d="m 8.9615909,1097.5248 0,-49.401"
           inkscape:connector-curvature="0" />
        <path
           id="path4469"
           style="fill:none;stroke:#fffe56;stroke-width:5.74841976;stroke-linecap:round;stroke-linejoin:round;stroke-miterlimit:10;stroke-opacity:1;stroke-dasharray:none"
           d="m -0.02031437,1133.4524 0,-26.9457"
           inkscape:connector-curvature="0" />
        <path
           id="path4471"
           style="fill:none;stroke:#fffe56;stroke-width:5.74841976;stroke-linecap:round;stroke-linejoin:round;stroke-miterlimit:10;stroke-opacity:1;stroke-dasharray:none"
           d="m -44.929841,1066.0881 17.963811,0"
           inkscape:connector-curvature="0" />
        <path
           id="path4473"
           style="fill:none;stroke:#fffe56;stroke-width:5.74841976;stroke-linecap:round;stroke-linejoin:round;stroke-miterlimit:10;stroke-opacity:1;stroke-dasharray:none"
           d="m 26.925402,1066.0881 17.96381,0"
           inkscape:connector-curvature="0" />
        <g
           id="g5013"
           style="fill:#fffe56;fill-opacity:1">
          <path
             inkscape:connector-curvature="0"
             d="m 33.392373,1030.16 c 0,-3.5703 -2.896664,-6.467 -6.466971,-6.467 -3.570308,0 -6.466972,2.8967 -6.466972,6.467 0,3.5703 2.896664,6.467 6.466972,6.467 3.570307,0 6.466971,-2.8967 6.466971,-6.467"
             style="fill:#fffe56;fill-opacity:1;fill-rule:nonzero;stroke:#fffe56;stroke-width:0.24949737;stroke-opacity:1"
             id="path4413" />
          <path
             inkscape:connector-curvature="0"
             d="m -20.499059,1030.16 c 0,-3.5703 -2.896664,-6.467 -6.466971,-6.467 -3.570308,0 -6.466972,2.8967 -6.466972,6.467 0,3.5703 2.896664,6.467 6.466972,6.467 3.570307,0 6.466971,-2.8967 6.466971,-6.467"
             style="fill:#fffe56;fill-opacity:1;fill-rule:nonzero;stroke:#fffe56;stroke-width:0.24949737;stroke-opacity:1"
             id="path4415" />
          <path
             inkscape:connector-curvature="0"
             d="m -20.499059,1048.1238 c 0,-3.5703 -2.896664,-6.467 -6.466971,-6.467 -3.570308,0 -6.466972,2.8967 -6.466972,6.467 0,3.5703 2.896664,6.468 6.466972,6.468 3.570307,0 6.466971,-2.8977 6.466971,-6.468"
             style="fill:#fffe56;fill-opacity:1;fill-rule:nonzero;stroke:#fffe56;stroke-width:0.24949737;stroke-opacity:1"
             id="path4417" />
          <path
             inkscape:connector-curvature="0"
             d="m -20.499059,1066.0881 c 0,-3.5708 -2.896664,-6.4665 -6.466971,-6.4665 -3.570308,0 -6.466972,2.8957 -6.466972,6.4665 0,3.5711 2.896664,6.4675 6.466972,6.4675 3.570307,0 6.466971,-2.8964 6.466971,-6.4675"
             style="fill:#fffe56;fill-opacity:1;fill-rule:nonzero;stroke:#fffe56;stroke-width:0.24949737;stroke-opacity:1"
             id="path4419" />
          <path
             inkscape:connector-curvature="0"
             d="m -20.499059,1084.0519 c 0,-3.5708 -2.896664,-6.4665 -6.466971,-6.4665 -3.570308,0 -6.466972,2.8957 -6.466972,6.4665 0,3.5711 2.896664,6.4675 6.466972,6.4675 3.570307,0 6.466971,-2.8964 6.466971,-6.4675"
             style="fill:#fffe56;fill-opacity:1;fill-rule:nonzero;stroke:#fffe56;stroke-width:0.24949737;stroke-opacity:1"
             id="path4421" />
          <path
             inkscape:connector-curvature="0"
             d="m 16.089731,1003.2143 c 0,-3.93709 -3.191072,-7.12817 -7.1281401,-7.12817 -3.9370685,0 -7.1306348,3.19108 -7.1306348,7.12817 0,3.937 3.1935663,7.1306 7.1306348,7.1306 3.9370681,0 7.1281401,-3.1936 7.1281401,-7.1306"
             style="fill:#fffe56;fill-opacity:1;fill-rule:nonzero;stroke:#fffe56;stroke-width:0.24949737;stroke-opacity:1"
             id="path4423" />
          <path
             inkscape:connector-curvature="0"
             d="m -1.8740798,1003.2143 c 0,-3.93709 -3.1910714,-7.12817 -7.1281399,-7.12817 -3.9370683,0 -7.1306353,3.19108 -7.1306353,7.12817 0,3.937 3.193567,7.1306 7.1306353,7.1306 3.9370685,0 7.1281399,-3.1936 7.1281399,-7.1306"
             style="fill:#fffe56;fill-opacity:1;fill-rule:nonzero;stroke:#fffe56;stroke-width:0.24949737;stroke-opacity:1"
             id="path4425" />
          <path
             inkscape:connector-curvature="0"
             d="m -38.462869,1048.1238 c 0,-3.5703 -2.896665,-6.467 -6.466972,-6.467 -3.570307,0 -6.466972,2.8967 -6.466972,6.467 0,3.5703 2.896665,6.468 6.466972,6.468 3.570307,0 6.466972,-2.8977 6.466972,-6.468"
             style="fill:#fffe56;fill-opacity:1;fill-rule:nonzero;stroke:#fffe56;stroke-width:0.24949737;stroke-opacity:1"
             id="path4427" />
          <path
             inkscape:connector-curvature="0"
             d="m -38.462869,1066.0881 c 0,-3.5708 -2.896665,-6.4665 -6.466972,-6.4665 -3.570307,0 -6.466972,2.8957 -6.466972,6.4665 0,3.5711 2.896665,6.4675 6.466972,6.4675 3.570307,0 6.466972,-2.8964 6.466972,-6.4675"
             style="fill:#fffe56;fill-opacity:1;fill-rule:nonzero;stroke:#fffe56;stroke-width:0.24949737;stroke-opacity:1"
             id="path4431" />
          <path
             inkscape:connector-curvature="0"
             d="m 48.447045,1012.1962 c 0,-1.9636 -1.594288,-3.5579 -3.557833,-3.5579 -1.966039,0 -3.560327,1.5943 -3.560327,3.5579 0,1.966 1.594288,3.5603 3.560327,3.5603 1.963545,0 3.557833,-1.5943 3.557833,-3.5603"
             style="fill:#fffe56;fill-opacity:1;fill-rule:nonzero;stroke:#fffe56;stroke-width:0.24949737;stroke-opacity:1"
             id="path4475" />
          <path
             inkscape:connector-curvature="0"
             d="m -41.372008,1012.1962 c 0,-1.9636 -1.594289,-3.5579 -3.557833,-3.5579 -1.966039,0 -3.560327,1.5943 -3.560327,3.5579 0,1.966 1.594288,3.5603 3.560327,3.5603 1.963544,0 3.557833,-1.5943 3.557833,-3.5603"
             style="fill:#fffe56;fill-opacity:1;fill-rule:nonzero;stroke:#fffe56;stroke-width:0.24949737;stroke-opacity:1"
             id="path4477" />
        </g>
        <path
           id="path4479"
           style="fill:none;stroke:#fffe56;stroke-width:5.74841976;stroke-linecap:round;stroke-linejoin:round;stroke-miterlimit:10;stroke-opacity:1;stroke-dasharray:none"
           d="m 26.925402,1106.5067 0,-22.4548"
           inkscape:connector-curvature="0" />
        <path
           id="path4481"
           style="fill:none;stroke:#fffe56;stroke-width:5.74841976;stroke-linecap:round;stroke-linejoin:round;stroke-miterlimit:10;stroke-opacity:1;stroke-dasharray:none"
           d="m 17.943496,1115.4886 8.981906,-8.9819"
           inkscape:connector-curvature="0" />
        <path
           id="path4483"
           style="fill:none;stroke:#fffe56;stroke-width:5.74841976;stroke-linecap:round;stroke-linejoin:round;stroke-miterlimit:10;stroke-opacity:1;stroke-dasharray:none"
           d="m 17.943496,1133.4524 0,-17.9638"
           inkscape:connector-curvature="0" />
        <path
           id="path4485"
           style="fill:none;stroke:#fffe56;stroke-width:5.74841976;stroke-linecap:round;stroke-linejoin:round;stroke-miterlimit:10;stroke-opacity:1;stroke-dasharray:none"
           d="m -44.929841,1048.1238 17.963811,0"
           inkscape:connector-curvature="0" />
        <g
           id="g5321">
          <path
             id="path4509"
             style="fill:#000000;fill-opacity:1;fill-rule:nonzero;stroke:#fffe56;stroke-width:0.24949737;stroke-opacity:1"
             d="m -95.947063,1048.1238 c 0,-1.5868 -1.287407,-2.8742 -2.87421,-2.8742 -1.586807,0 -2.874207,1.2874 -2.874207,2.8742 0,1.5868 1.2874,2.8742 2.874207,2.8742 1.586803,0 2.87421,-1.2874 2.87421,-2.8742"
             inkscape:connector-curvature="0" />
          <path
             inkscape:connector-curvature="0"
             d="m 29.799611,1084.0519 c 0,-1.5865 -1.287406,-2.8739 -2.874209,-2.8739 -1.586804,0 -2.87421,1.2874 -2.87421,2.8739 0,1.5868 1.287406,2.8742 2.87421,2.8742 1.586803,0 2.874209,-1.2874 2.874209,-2.8742"
             style="fill:#000000;fill-opacity:1;fill-rule:nonzero;stroke:#fffe56;stroke-width:0.24949737;stroke-opacity:1"
             id="path4487" />
          <path
             inkscape:connector-curvature="0"
             d="m 29.799611,1066.0881 c 0,-1.5865 -1.287406,-2.874 -2.874209,-2.874 -1.586804,0 -2.87421,1.2875 -2.87421,2.874 0,1.5868 1.287406,2.8742 2.87421,2.8742 1.586803,0 2.874209,-1.2874 2.874209,-2.8742"
             style="fill:#000000;fill-opacity:1;fill-rule:nonzero;stroke:#fffe56;stroke-width:0.24949737;stroke-opacity:1"
             id="path4489" />
          <path
             inkscape:connector-curvature="0"
             d="m 29.799611,1048.1238 c 0,-1.5868 -1.287406,-2.8742 -2.874209,-2.8742 -1.586804,0 -2.87421,1.2874 -2.87421,2.8742 0,1.5868 1.287406,2.8742 2.87421,2.8742 1.586803,0 2.874209,-1.2874 2.874209,-2.8742"
             style="fill:#000000;fill-opacity:1;fill-rule:nonzero;stroke:#fffe56;stroke-width:0.24949737;stroke-opacity:1"
             id="path4491" />
          <path
             inkscape:connector-curvature="0"
             d="m 29.799611,1030.16 c 0,-1.5868 -1.287406,-2.8742 -2.874209,-2.8742 -1.586804,0 -2.87421,1.2874 -2.87421,2.8742 0,1.5868 1.287406,2.8742 2.87421,2.8742 1.586803,0 2.874209,-1.2874 2.874209,-2.8742"
             style="fill:#000000;fill-opacity:1;fill-rule:nonzero;stroke:#fffe56;stroke-width:0.24949737;stroke-opacity:1"
             id="path4493" />
          <path
             inkscape:connector-curvature="0"
             d="m -24.091821,1030.16 c 0,-1.5868 -1.287406,-2.8742 -2.874209,-2.8742 -1.586804,0 -2.87421,1.2874 -2.87421,2.8742 0,1.5868 1.287406,2.8742 2.87421,2.8742 1.586803,0 2.874209,-1.2874 2.874209,-2.8742"
             style="fill:#000000;fill-opacity:1;fill-rule:nonzero;stroke:#fffe56;stroke-width:0.24949737;stroke-opacity:1"
             id="path4495" />
          <path
             inkscape:connector-curvature="0"
             d="m -24.091821,1048.1238 c 0,-1.5868 -1.287406,-2.8742 -2.874209,-2.8742 -1.586804,0 -2.87421,1.2874 -2.87421,2.8742 0,1.5868 1.287406,2.8742 2.87421,2.8742 1.586803,0 2.874209,-1.2874 2.874209,-2.8742"
             style="fill:#000000;fill-opacity:1;fill-rule:nonzero;stroke:#fffe56;stroke-width:0.24949737;stroke-opacity:1"
             id="path4497" />
          <path
             inkscape:connector-curvature="0"
             d="m -24.091821,1066.0881 c 0,-1.5865 -1.287406,-2.874 -2.874209,-2.874 -1.586804,0 -2.87421,1.2875 -2.87421,2.874 0,1.5868 1.287406,2.8742 2.87421,2.8742 1.586803,0 2.874209,-1.2874 2.874209,-2.8742"
             style="fill:#000000;fill-opacity:1;fill-rule:nonzero;stroke:#fffe56;stroke-width:0.24949737;stroke-opacity:1"
             id="path4499" />
          <path
             inkscape:connector-curvature="0"
             d="m -24.091821,1084.0519 c 0,-1.5865 -1.287406,-2.8739 -2.874209,-2.8739 -1.586804,0 -2.87421,1.2874 -2.87421,2.8739 0,1.5868 1.287406,2.8742 2.87421,2.8742 1.586803,0 2.874209,-1.2874 2.874209,-2.8742"
             style="fill:#000000;fill-opacity:1;fill-rule:nonzero;stroke:#fffe56;stroke-width:0.24949737;stroke-opacity:1"
             id="path4501" />
          <path
             inkscape:connector-curvature="0"
             d="m 12.496969,1003.2143 c 0,-1.9511 -1.584309,-3.5354 -3.5353781,-3.5354 -1.9535644,0 -3.5378727,1.5843 -3.5378727,3.5354 0,1.9535 1.5843083,3.5378 3.5378727,3.5378 1.9510691,0 3.5353781,-1.5843 3.5353781,-3.5378"
             style="fill:#000000;fill-opacity:1;fill-rule:nonzero;stroke:#fffe56;stroke-width:0.24949737;stroke-opacity:1"
             id="path4503" />
          <path
             inkscape:connector-curvature="0"
             d="m -5.466842,1003.2143 c 0,-1.9511 -1.5843083,-3.5354 -3.5353777,-3.5354 -1.9535643,0 -3.5378723,1.5843 -3.5378723,3.5354 0,1.9535 1.584308,3.5378 3.5378723,3.5378 1.9510694,0 3.5353777,-1.5843 3.5353777,-3.5378"
             style="fill:#000000;fill-opacity:1;fill-rule:nonzero;stroke:#fffe56;stroke-width:0.24949737;stroke-opacity:1"
             id="path4505" />
          <path
             inkscape:connector-curvature="0"
             d="m -42.055631,1048.1238 c 0,-1.5868 -1.287407,-2.8742 -2.87421,-2.8742 -1.586803,0 -2.87421,1.2874 -2.87421,2.8742 0,1.5868 1.287407,2.8742 2.87421,2.8742 1.586803,0 2.87421,-1.2874 2.87421,-2.8742"
             style="fill:#000000;fill-opacity:1;fill-rule:nonzero;stroke:#fffe56;stroke-width:0.24949737;stroke-opacity:1"
             id="path4507" />
          <path
             inkscape:connector-curvature="0"
             d="m -42.055631,1066.0881 c 0,-1.5865 -1.287407,-2.874 -2.87421,-2.874 -1.586803,0 -2.87421,1.2875 -2.87421,2.874 0,1.5868 1.287407,2.8742 2.87421,2.8742 1.586803,0 2.87421,-1.2874 2.87421,-2.8742"
             style="fill:#000000;fill-opacity:1;fill-rule:nonzero;stroke:#fffe56;stroke-width:0.24949737;stroke-opacity:1"
             id="path4511" />
          <path
             inkscape:connector-curvature="0"
             d="m -42.055631,1119.9795 c 0,-1.5865 -1.287407,-2.8739 -2.87421,-2.8739 -1.586803,0 -2.87421,1.2874 -2.87421,2.8739 0,1.5868 1.287407,2.8743 2.87421,2.8743 1.586803,0 2.87421,-1.2875 2.87421,-2.8743"
             style="fill:#000000;fill-opacity:1;fill-rule:nonzero;stroke:#fffe56;stroke-width:0.24949737;stroke-opacity:1"
             id="path4513" />
          <path
             inkscape:connector-curvature="0"
             d="m 47.763422,1066.0881 c 0,-1.5865 -1.287407,-2.874 -2.87421,-2.874 -1.586803,0 -2.874209,1.2875 -2.874209,2.874 0,1.5868 1.287406,2.8742 2.874209,2.8742 1.586803,0 2.87421,-1.2874 2.87421,-2.8742"
             style="fill:#000000;fill-opacity:1;fill-rule:nonzero;stroke:#fffe56;stroke-width:0.24949737;stroke-opacity:1"
             id="path4515" />
          <path
             inkscape:connector-curvature="0"
             d="m 47.763422,1119.9795 c 0,-1.5865 -1.287407,-2.8739 -2.87421,-2.8739 -1.586803,0 -2.874209,1.2874 -2.874209,2.8739 0,1.5868 1.287406,2.8743 2.874209,2.8743 1.586803,0 2.87421,-1.2875 2.87421,-2.8743"
             style="fill:#000000;fill-opacity:1;fill-rule:nonzero;stroke:#fffe56;stroke-width:0.24949737;stroke-opacity:1"
             id="path4517" />
          <path
             inkscape:connector-curvature="0"
             d="m 47.763422,1048.1238 c 0,-1.5868 -1.287407,-2.8742 -2.87421,-2.8742 -1.586803,0 -2.874209,1.2874 -2.874209,2.8742 0,1.5868 1.287406,2.8742 2.874209,2.8742 1.586803,0 2.87421,-1.2874 2.87421,-2.8742"
             style="fill:#000000;fill-opacity:1;fill-rule:nonzero;stroke:#fffe56;stroke-width:0.24949737;stroke-opacity:1"
             id="path4519" />
          <path
             inkscape:connector-curvature="0"
             d="m 101.65485,1048.1238 c 0,-1.5868 -1.2874,-2.8742 -2.874206,-2.8742 -1.586803,0 -2.87421,1.2874 -2.87421,2.8742 0,1.5868 1.287407,2.8742 2.87421,2.8742 1.586806,0 2.874206,-1.2874 2.874206,-2.8742"
             style="fill:#000000;fill-opacity:1;fill-rule:nonzero;stroke:#fffe56;stroke-width:0.24949737;stroke-opacity:1"
             id="path4521" />
          <path
             inkscape:connector-curvature="0"
             d="m -24.091821,1106.5067 c 0,-1.5866 -1.287406,-2.874 -2.874209,-2.874 -1.586804,0 -2.87421,1.2874 -2.87421,2.874 0,1.5868 1.287406,2.8742 2.87421,2.8742 1.586803,0 2.874209,-1.2874 2.874209,-2.8742"
             style="fill:#000000;fill-opacity:1;fill-rule:nonzero;stroke:#fffe56;stroke-width:0.24949737;stroke-opacity:1"
             id="path4523" />
          <path
             inkscape:connector-curvature="0"
             d="m 29.799611,1106.5067 c 0,-1.5866 -1.287406,-2.874 -2.874209,-2.874 -1.586804,0 -2.87421,1.2874 -2.87421,2.874 0,1.5868 1.287406,2.8742 2.87421,2.8742 1.586803,0 2.874209,-1.2874 2.874209,-2.8742"
             style="fill:#000000;fill-opacity:1;fill-rule:nonzero;stroke:#fffe56;stroke-width:0.24949737;stroke-opacity:1"
             id="path4525" />
          <path
             inkscape:connector-curvature="0"
             d="m 21.536258,1133.4524 c 0,-1.9833 -1.609258,-3.5923 -3.592762,-3.5923 -1.983504,0 -3.592762,1.609 -3.592762,3.5923 0,1.9833 1.609258,3.5935 3.592762,3.5935 1.983504,0 3.592762,-1.6102 3.592762,-3.5935"
             style="fill:#000000;fill-opacity:1;fill-rule:nonzero;stroke:#fffe56;stroke-width:0.24949737;stroke-opacity:1"
             id="path4527" />
          <path
             inkscape:connector-curvature="0"
             d="m 3.5724478,1133.4524 c 0,-1.9833 -1.6092581,-3.5923 -3.59276217,-3.5923 -1.98350413,0 -3.59276213,1.609 -3.59276213,3.5923 0,1.9833 1.609258,3.5935 3.59276213,3.5935 1.98350407,0 3.59276217,-1.6102 3.59276217,-3.5935"
             style="fill:#000000;fill-opacity:1;fill-rule:nonzero;stroke:#fffe56;stroke-width:0.24949737;stroke-opacity:1"
             id="path4529" />
          <path
             inkscape:connector-curvature="0"
             d="m -14.391363,1133.4524 c 0,-1.9833 -1.609258,-3.5923 -3.592762,-3.5923 -1.983504,0 -3.592762,1.609 -3.592762,3.5923 0,1.9833 1.609258,3.5935 3.592762,3.5935 1.983504,0 3.592762,-1.6102 3.592762,-3.5935"
             style="fill:#000000;fill-opacity:1;fill-rule:nonzero;stroke:#fffe56;stroke-width:0.24949737;stroke-opacity:1"
             id="path4531" />
          <path
             inkscape:connector-curvature="0"
             d="m 47.00994,1012.1962 c 0,-1.1702 -0.950585,-2.1207 -2.120728,-2.1207 -1.172637,0 -2.123222,0.9505 -2.123222,2.1207 0,1.1726 0.950585,2.1232 2.123222,2.1232 1.170143,0 2.120728,-0.9506 2.120728,-2.1232"
             style="fill:#000000;fill-opacity:1;fill-rule:nonzero;stroke:#fffe56;stroke-width:0.24949737;stroke-opacity:1"
             id="path4533" />
          <path
             inkscape:connector-curvature="0"
             d="m -42.809113,1012.1962 c 0,-1.1702 -0.950585,-2.1207 -2.120728,-2.1207 -1.172638,0 -2.123223,0.9505 -2.123223,2.1207 0,1.1726 0.950585,2.1232 2.123223,2.1232 1.170143,0 2.120728,-0.9506 2.120728,-2.1232"
             style="fill:#000000;fill-opacity:1;fill-rule:nonzero;stroke:#fffe56;stroke-width:0.24949737;stroke-opacity:1"
             id="path4535" />
        </g>
      </g>
    </g>
  </g>
</svg>
