<?xml version="1.0" encoding="UTF-8" standalone="no"?>
<!-- Created with Inkscape (http://www.inkscape.org/) -->

<svg
   xmlns:dc="http://purl.org/dc/elements/1.1/"
   xmlns:cc="http://creativecommons.org/ns#"
   xmlns:rdf="http://www.w3.org/1999/02/22-rdf-syntax-ns#"
   xmlns:svg="http://www.w3.org/2000/svg"
   xmlns="http://www.w3.org/2000/svg"
   xmlns:xlink="http://www.w3.org/1999/xlink"
   xmlns:sodipodi="http://sodipodi.sourceforge.net/DTD/sodipodi-0.dtd"
   xmlns:inkscape="http://www.inkscape.org/namespaces/inkscape"
   width="524.40942"
   height="744.09448"
   id="svg2"
   version="1.1"
   inkscape:version="0.48.3.1 r9886"
   sodipodi:docname="techinc_studysticker.svg">
  <defs
     id="defs4">
    <linearGradient
       id="linearGradient3834">
      <stop
         id="stop3836"
         offset="0"
         style="stop-color:#000000;stop-opacity:1;" />
      <stop
         id="stop3838"
         offset="1"
         style="stop-color:#1a1200;stop-opacity:1;" />
    </linearGradient>
    <linearGradient
       id="linearGradient3803">
      <stop
         style="stop-color:#dfded4;stop-opacity:1;"
         offset="0"
         id="stop3805" />
      <stop
         style="stop-color:#b4aaa3;stop-opacity:1;"
         offset="1"
         id="stop3807" />
    </linearGradient>
    <clipPath
       clipPathUnits="userSpaceOnUse"
       id="clipPath4403">
      <path
         inkscape:connector-curvature="0"
         d="m 180,180 5580,0 0,7740 -5580,0 0,-7740 z"
         id="path4405" />
    </clipPath>
    <clipPath
       clipPathUnits="userSpaceOnUse"
       id="clipPath6692">
      <path
         inkscape:connector-curvature="0"
         d="m 180,180 5580,0 0,7740 -5580,0 0,-7740 z"
         id="path6694" />
    </clipPath>
    <clipPath
       clipPathUnits="userSpaceOnUse"
       id="clipPath3654">
      <path
         inkscape:connector-curvature="0"
         d="m 180,180 5580,0 0,7740 -5580,0 0,-7740 z"
         id="path3656-2" />
    </clipPath>
    <clipPath
       clipPathUnits="userSpaceOnUse"
       id="clipPath3654-7">
      <path
         inkscape:connector-curvature="0"
         d="m 180,180 5580,0 0,7740 -5580,0 0,-7740 z"
         id="path3656-7" />
    </clipPath>
    <radialGradient
       inkscape:collect="always"
       xlink:href="#linearGradient3803"
       id="radialGradient3809"
       cx="325.7341"
       cy="1205.9625"
       fx="325.7341"
       fy="1205.9625"
       r="84.539986"
       gradientTransform="matrix(1,0,0,0.99998156,0,0.02267732)"
       gradientUnits="userSpaceOnUse" />
    <radialGradient
       inkscape:collect="always"
       xlink:href="#linearGradient3803"
       id="radialGradient3821"
       gradientUnits="userSpaceOnUse"
       gradientTransform="matrix(1,0,0,0.99998156,0,-219.97732)"
       cx="325.7341"
       cy="1205.9625"
       fx="325.7341"
       fy="1205.9625"
       r="84.539986" />
    <radialGradient
       inkscape:collect="always"
       xlink:href="#linearGradient3834"
       id="radialGradient3902"
       cx="341.06003"
       cy="583.35675"
       fx="341.06003"
       fy="583.35675"
       r="84.539986"
       gradientTransform="matrix(1,0,0,1.000012,140,319.99261)"
       gradientUnits="userSpaceOnUse" />
    <radialGradient
       inkscape:collect="always"
       xlink:href="#linearGradient3834"
       id="radialGradient5590"
       gradientUnits="userSpaceOnUse"
       gradientTransform="matrix(1,0,0,0.99998156,-101.6741,-1596.2545)"
       cx="325.7341"
       cy="1205.9625"
       fx="325.7341"
       fy="1205.9625"
       r="84.539986" />
    <radialGradient
       inkscape:collect="always"
       xlink:href="#linearGradient3834"
       id="radialGradient5592"
       gradientUnits="userSpaceOnUse"
       gradientTransform="matrix(1,0,0,0.99998156,-101.6741,-1596.2545)"
       cx="325.7341"
       cy="1205.9625"
       fx="325.7341"
       fy="1205.9625"
       r="84.539986" />
    <radialGradient
       inkscape:collect="always"
       xlink:href="#linearGradient3834"
       id="radialGradient6783"
       gradientUnits="userSpaceOnUse"
       gradientTransform="matrix(1,0,0,0.99998156,-77.548734,-716.2545)"
       cx="325.7341"
       cy="1205.9625"
       fx="325.7341"
       fy="1205.9625"
       r="84.539986" />
    <radialGradient
       inkscape:collect="always"
       xlink:href="#linearGradient3834"
       id="radialGradient7069"
       gradientUnits="userSpaceOnUse"
       gradientTransform="matrix(1,0,0,0.99998156,-77.548734,-716.2545)"
       cx="325.7341"
       cy="1205.9625"
       fx="325.7341"
       fy="1205.9625"
       r="84.539986" />
    <radialGradient
       inkscape:collect="always"
       xlink:href="#linearGradient3834"
       id="radialGradient4186"
       gradientUnits="userSpaceOnUse"
       gradientTransform="matrix(2.7746509,0,0,2.7746015,-555.28812,-2853.576)"
       cx="330.28345"
       cy="1203.7321"
       fx="330.28345"
       fy="1203.7321"
       r="84.539986" />
    <radialGradient
       inkscape:collect="always"
       xlink:href="#linearGradient3834"
       id="radialGradient3047"
       gradientUnits="userSpaceOnUse"
       gradientTransform="matrix(2.7746509,0,0,2.7746015,-537.74397,-2853.576)"
       cx="330.28345"
       cy="1203.7321"
       fx="330.28345"
       fy="1203.7321"
       r="84.539986" />
    <path
       transform="matrix(-0.89638853,-0.00465642,0.00465642,-0.89638853,-801.29384,1138.0877)"
       d="m -195.16147,438.62436 a 230.51682,230.51682 0 1 1 -461.03363,0 230.51682,230.51682 0 1 1 461.03363,0 z"
       sodipodi:ry="230.51682"
       sodipodi:rx="230.51682"
       sodipodi:cy="438.62436"
       sodipodi:cx="-425.67828"
       id="path5009-5"
       style="fill:#ffffff;fill-opacity:1;stroke:#000000;stroke-width:3;stroke-linejoin:round;stroke-miterlimit:4;stroke-opacity:1;stroke-dasharray:none"
       sodipodi:type="arc" />
  </defs>
  <sodipodi:namedview
     id="base"
     pagecolor="#ffffff"
     bordercolor="#666666"
     borderopacity="1.0"
     inkscape:pageopacity="0.0"
     inkscape:pageshadow="2"
     inkscape:zoom="0.70710678"
     inkscape:cx="293.47764"
     inkscape:cy="341.38871"
     inkscape:document-units="px"
     inkscape:current-layer="layer1"
     showgrid="false"
     inkscape:window-width="1364"
     inkscape:window-height="750"
     inkscape:window-x="0"
     inkscape:window-y="0"
     inkscape:window-maximized="0"
     showguides="true"
     inkscape:guide-bbox="true" />
  <metadata
     id="metadata7">
    <rdf:RDF>
      <cc:Work
         rdf:about="">
        <dc:format>image/svg+xml</dc:format>
        <dc:type
           rdf:resource="http://purl.org/dc/dcmitype/StillImage" />
        <dc:title></dc:title>
      </cc:Work>
    </rdf:RDF>
  </metadata>
  <g
     inkscape:groupmode="layer"
     id="layer2"
     inkscape:label="Layer"
     transform="translate(0,-308.26766)" />
  <g
     inkscape:label="Layer 1"
     inkscape:groupmode="layer"
     id="layer1"
     transform="translate(0,-308.26766)">
    <path
       style="fill:none;stroke:none"
       d="M 156.77633,784.45136 C 276.93106,842.7425 421.58989,792.592 479.88109,672.4374 538.17221,552.28267 488.02186,407.62375 367.86713,349.33262 307.78976,320.18706 241.58633,318.15186 183.11588,338.42242 124.64542,358.69296 73.907882,401.26925 44.762347,461.3466 -13.528774,581.50132 36.621607,726.16024 156.77633,784.45136 z"
       id="path5163"
       inkscape:connector-curvature="0"
       sodipodi:nodetypes="ssssss"
       inkscape:export-filename="/home/erik/techinc_sticker_2048.png"
       inkscape:export-xdpi="381.03931"
       inkscape:export-ydpi="381.03931" />
    <g
       id="g7632"
       transform="matrix(0.8983362,0,0,0.8983362,-81.57408,-162.32772)">
      <path
         inkscape:connector-curvature="0"
         style="font-size:medium;font-style:normal;font-variant:normal;font-weight:normal;font-stretch:normal;text-indent:0;text-align:start;text-decoration:none;line-height:normal;letter-spacing:normal;word-spacing:normal;text-transform:none;direction:ltr;block-progression:tb;writing-mode:lr-tb;text-anchor:start;baseline-shift:baseline;color:#000000;fill:#0084ae;fill-opacity:1;stroke:none;stroke-width:7.92560863;marker:none;visibility:visible;display:inline;overflow:visible;enable-background:accumulate;font-family:Sans;-inkscape-font-specification:Sans"
         d="m 345.41058,584.38131 c -0.80619,-0.0188 -1.61506,0.0242 -2.43747,0.1681 -0.41124,0.0726 -0.78292,0.0578 -1.17671,0.1681 -5.90859,1.66864 -9.81852,7.61621 -8.74127,13.78432 0.422,2.41393 1.53368,4.37991 2.52152,5.79949 0.78341,1.24288 1.79414,2.546 2.52152,3.53013 1.58459,2.3978 3.46692,6.00849 5.04304,15.04508 1.64363,9.41394 1.3237,12.89216 2.18532,25.71951 0.081,1.20576 0.0188,2.2691 0.0839,3.44608 5.66227,-1.38865 11.6817,-2.28968 16.64203,-3.02583 0.0108,0.0403 -0.0108,0.0492 0,0.0839 0.95931,3.1794 2.08212,6.62225 2.94178,9.66583 -0.002,0.0323 0.0705,0.0732 0.0839,0.0839 35.5868,-4.17134 69.9851,4.10907 98.59147,21.76913 2.31439,-2.39673 4.92335,-5.11338 6.89215,-7.31242 4.33941,2.69447 8.99168,5.881 12.60761,8.65723 -1.66133,3.0901 -3.43731,6.26103 -4.79089,8.99342 25.06505,19.82521 44.14262,47.48353 53.03599,80.10031 -1.81273,0.0565 -3.75289,0.0573 -5.37925,0.0839 -1.23948,0.0269 -12.67226,0.25201 -13.78431,0.25201 -0.3365,0.66757 -0.69409,1.24611 -0.92456,2.01722 -0.2305,0.77139 -0.34683,1.11256 -0.75646,2.26937 -0.41113,1.15896 -1.31159,3.62117 -1.59696,5.9676 -5.93258,1.00861 -8.93987,1.40963 -16.55798,1.68101 -8.68383,0.30931 -19.6471,0.81429 -27.98889,2.26937 -3.58419,0.62588 -7.57427,1.52058 -11.59899,2.60557 0.25847,0.77219 0.52353,1.57236 0.75645,2.35342 l -0.25201,0.0839 2.85772,16.89419 0.25202,-0.0839 c 0.0487,0.8311 0.23157,1.68989 0.25202,2.52152 4.13174,-0.33136 8.20455,-0.80756 11.76709,-1.42886 8.34224,-1.45535 18.7046,-4.6634 26.98028,-7.31241 7.26025,-2.32383 10.28516,-3.05097 16.22178,-4.11848 1.03311,2.02421 2.3375,3.84817 3.78228,5.29519 l 1.59696,1.51291 1.84912,-0.92455 c 0.50503,-0.25821 1.19607,-0.58406 2.01722,-0.92456 -0.44013,-4.75929 -1.15286,-10.61271 -1.76507,-14.12052 -0.67405,-3.87413 -1.51063,-7.67806 -2.43747,-11.43089 l 7.56456,0 c 0.029,8e-4 0.0549,-0.0839 0.0839,-0.0839 l 1.76506,0 c 0.38806,0 0.86313,0.008 1.26076,0 l 2.94178,0 c -0.008,-0.0269 0.008,-0.0573 0,-0.0839 0.77612,-0.0269 1.64026,-0.0627 2.43747,-0.0839 0.10059,-0.003 0.15169,0 0.25202,0 1.09946,-0.0323 2.22875,-0.036 3.36202,-0.0839 0.38559,0 0.87034,-0.0707 1.26076,-0.0839 1.6846,-0.0592 3.36561,-0.0686 5.1271,-0.16811 0.23426,1.01641 0.54174,1.99866 0.75645,3.02583 0.32346,1.55084 0.57249,3.08648 0.84051,4.62279 0.25874,1.48736 0.46356,2.89538 0.67241,4.37063 0.14012,0.99032 0.29919,2.02717 0.42025,3.02583 -0.63741,0.18827 -1.30923,0.3163 -1.93317,0.5043 l -3.02582,0.92456 c -0.0412,0 -0.0455,-0.0269 -0.0839,0 -0.88886,0.27569 -1.6521,0.56724 -2.52152,0.84051 -0.69026,0.22324 -1.41643,0.45965 -2.10127,0.6724 4.18944,35.60441 -4.18341,70.05336 -21.85318,98.67552 0.51364,0.4852 1.07453,1.01936 1.59697,1.51291 1.86509,1.76251 3.6401,3.60961 5.71544,5.46329 0.0215,0.0269 0.0616,-0.0188 0.0839,0 -1.39374,2.20227 -2.87499,4.34307 -4.37064,6.47191 -1.43144,2.03712 -2.844,4.07827 -4.37063,6.05165 -0.0269,0 -0.06,0.0135 -0.0839,0 -0.60003,-0.31684 -1.18158,-0.69446 -1.76506,-1.00861 l -2.68962,-1.42886 c -0.0524,-0.0269 -0.1162,-0.0573 -0.16811,-0.0839 -0.34287,-0.1802 -0.67372,-0.3327 -1.0086,-0.5043 -0.0508,-0.0269 -0.0339,-0.0573 -0.0839,-0.0839 -0.39051,-0.21248 -0.85145,-0.45885 -1.26076,-0.6724 -0.65213,-0.32814 -1.29745,-0.59347 -1.93317,-0.92456 -20.88204,26.3782 -50.4231,46.00478 -85.31145,54.2127 0.0476,1.55567 0.10785,3.18491 0.1681,4.79088 34.7635,-7.96477 64.38162,-26.8907 85.89981,-52.53168 0.37499,0.19634 0.78593,0.38179 1.17671,0.58836 l 2.68962,1.34481 c 1.61832,0.86875 3.24102,1.86592 4.87494,2.77367 0.14874,0.0807 0.27515,0.0874 0.42025,0.1681 0.8325,-1.01856 1.62101,-2.07168 2.43747,-3.10987 9.85376,5.42201 13.61686,7.07021 21.01268,12.2714 7.50482,5.27435 10.02045,8.47177 11.51494,10.92659 0.73247,1.20333 1.11762,2.27972 1.93317,3.69823 l 0.0839,0.0839 c 0.86353,1.49785 2.19707,3.29802 4.20253,4.70684 5.4627,3.84294 13.05435,2.43895 16.89419,-3.02582 0.24099,-0.34293 0.47211,-0.65089 0.6724,-1.00861 2.9978,-5.35746 1.59309,-12.36984 -3.53012,-15.96963 -2.00544,-1.40883 -4.18086,-2.04923 -5.88355,-2.35342 l -0.0839,0 c -1.59481,-0.2851 -2.74745,-0.39134 -4.11848,-0.67241 -2.81744,-0.57289 -6.78436,-1.78483 -14.28862,-7.06026 -7.4523,-5.2375 -9.90921,-8.14081 -18.49115,-15.71747 0.67509,-1.10087 1.36095,-2.17793 2.01721,-3.27798 -0.12587,-0.10759 -0.20898,-0.22539 -0.3362,-0.3362 -2.60982,-2.28134 -5.00783,-4.44904 -7.39646,-6.64001 15.95024,-27.48579 23.79743,-59.79541 20.84457,-93.29627 0.40043,-0.1291 0.75837,-0.29223 1.17671,-0.42025 l 2.85772,-0.92456 c 1.75896,-0.5277 3.58215,-0.91541 5.37925,-1.42886 0.1638,-0.0484 0.26089,-0.20656 0.42025,-0.25202 -0.089,-0.88946 -0.15277,-1.79452 -0.25202,-2.68962 l -0.1681,-1.09266 c 10.87329,-3.15412 14.51503,-4.74786 23.45015,-6.3038 9.03777,-1.57935 13.17705,-1.01534 15.96963,-0.33621 1.3688,0.33298 2.45484,0.75041 4.03443,1.17671 l 0.0839,0.0839 c 1.66996,0.44917 3.88954,0.67415 6.3038,0.25202 6.57997,-1.14578 10.8987,-7.54116 9.74988,-14.12052 -0.0718,-0.41124 -0.0567,-0.69863 -0.1681,-1.09266 -0.83421,-2.95428 -2.81413,-5.47956 -5.29519,-7.06026 -2.48062,-1.58122 -5.40566,-2.21867 -8.48912,-1.68101 -2.41582,0.42415 -4.38043,1.53335 -5.7995,2.52152 l -0.1681,0 c -1.32887,0.92846 -2.19436,1.66582 -3.36203,2.43747 -2.39853,1.58526 -6.00905,3.46773 -15.04508,5.04304 -8.919,1.55864 -13.02398,1.40035 -24.29065,2.10127 l -0.25174,-1.26089 -0.67241,-2.60558 c -0.16595,0 -0.25148,0.002 -0.42025,0 -3.31187,0.22055 -6.60841,0.44931 -9.74988,0.58836 -8.62374,-32.5256 -26.97904,-60.25883 -51.35498,-80.68867 1.60729,-3.1447 3.27809,-6.35625 4.79089,-9.16152 -0.99543,-0.81281 -2.01006,-1.63731 -3.02582,-2.43747 5.45845,-9.92498 6.96996,-13.59389 12.18735,-21.01268 5.27626,-7.50754 8.55571,-10.02059 11.01064,-11.51494 1.20323,-0.73238 2.28039,-1.11821 3.69823,-1.93317 1.878,-1.39376 3.6794,-2.73924 4.79089,-4.28658 3.84054,-5.45967 2.43873,-13.05368 -3.02583,-16.89419 -0.32732,-0.25821 -0.72985,-0.47687 -1.00861,-0.67241 -5.35826,-2.99758 -12.37048,-1.59225 -15.96963,3.53013 -1.41076,2.00807 -1.96479,4.18129 -2.26937,5.88355 -0.29862,1.44836 -0.48485,3.06496 -0.6724,4.28659 -0.57504,2.81576 -1.78494,6.6162 -7.06026,14.12051 -5.21545,7.42067 -8.21612,10.1614 -15.71748,18.65926 -1.11904,-0.69285 -2.3219,-1.43129 -3.44608,-2.10127 -2.36423,2.57074 -4.82246,5.47365 -6.89215,7.73266 -27.48157,-15.92552 -59.80453,-23.80181 -93.29627,-20.84457 -1.01566,-3.37198 -2.05479,-6.78309 -2.94178,-9.83393 -1.41044,0.16138 -2.65662,0.30003 -3.95038,0.42025 -3.14317,-10.81739 -4.66652,-14.53485 -6.21975,-23.45014 -1.57717,-9.03632 -1.09823,-13.17861 -0.42026,-15.96963 0.49261,-1.5148 0.88844,-2.91945 1.26077,-4.11849 0.44946,-1.66998 0.84271,-3.80635 0.42025,-6.21975 -0.57082,-3.29263 -2.48217,-6.12238 -5.04304,-7.90076 -1.92623,-1.32572 -4.3055,-2.04455 -6.72406,-2.10127 z"
         id="path3187" />
      <path
         inkscape:connector-curvature="0"
         style="font-size:medium;font-style:normal;font-variant:normal;font-weight:normal;font-stretch:normal;text-indent:0;text-align:start;text-decoration:none;line-height:normal;letter-spacing:normal;word-spacing:normal;text-transform:none;direction:ltr;block-progression:tb;writing-mode:lr-tb;text-anchor:start;baseline-shift:baseline;color:#000000;fill:#620074;fill-opacity:1;stroke:none;stroke-width:7.92560863;marker:none;visibility:visible;display:inline;overflow:visible;enable-background:accumulate;font-family:Sans;-inkscape-font-specification:Sans"
         d="m 347.17565,656.91706 c -34.77082,7.98334 -64.38986,27.03541 -85.89981,52.69978 -0.37668,-0.19365 -0.78545,-0.38233 -1.17671,-0.58835 l -2.68962,-1.34481 c -1.61709,-0.87063 -3.24086,-1.78215 -4.87494,-2.68962 -0.14713,-0.0834 -0.27488,-0.0874 -0.42026,-0.16811 -0.81342,0.9949 -1.63757,2.00996 -2.43747,3.02583 -9.85192,-5.41502 -13.61626,-6.98616 -21.01267,-12.18735 -7.50329,-5.2765 -10.02048,-8.55582 -11.51495,-11.01064 -0.73085,-1.20522 -1.20145,-2.27973 -2.01721,-3.69823 l 0,-0.0839 c -0.86286,-1.49866 -2.1971,-3.29775 -4.20254,-4.70684 -5.46114,-3.84481 -13.05435,-2.43895 -16.89419,3.02583 -0.23991,0.34131 -0.55661,0.65142 -0.75645,1.00861 -2.99826,5.35799 -1.50969,12.37064 3.61418,15.96963 2.00376,1.41124 4.18136,1.96463 5.88354,2.26937 l 0.0839,0.0839 c 1.59774,0.2808 2.83088,0.30837 4.20254,0.58836 2.81555,0.57558 6.70019,1.86915 14.20456,7.14431 7.39853,5.20307 10.13627,8.17941 18.57521,15.63342 -0.68922,1.12023 -1.43078,2.32236 -2.10127,3.44608 0.12426,0.11028 0.20898,0.14121 0.3362,0.25202 2.61141,2.27919 5.00719,4.45011 7.39646,6.64001 -15.90172,27.45539 -23.77615,59.85054 -20.84457,93.29626 -0.36374,0.11566 -0.71235,0.21786 -1.09266,0.33621 l -2.94177,0.92456 c -1.75896,0.5277 -3.58215,1.08324 -5.37925,1.59696 -0.16245,0.0484 -0.26089,0.0355 -0.42025,0.0839 0.089,0.88946 0.23696,1.79425 0.3362,2.68963 0.0576,0.42684 0.19366,0.75901 0.25202,1.17671 -10.93587,3.17617 -14.66309,4.74382 -23.61824,6.3038 -9.03619,1.57719 -13.17708,1.09938 -15.96964,0.42025 -1.3702,-0.33082 -2.45479,-0.91877 -4.03443,-1.34481 l -0.0839,0.0839 c -1.6713,-0.44729 -3.80546,-0.84199 -6.21975,-0.42026 -6.57997,1.14551 -10.98342,7.62575 -9.83393,14.20457 0.0702,0.4134 0.0573,0.78214 0.1681,1.17671 1.66967,5.90695 7.78407,9.73468 13.95242,8.65722 2.41337,-0.42039 4.21235,-1.4493 5.63139,-2.43747 l 0.0839,-0.0839 c 1.32859,-0.92819 2.27795,-1.74933 3.44608,-2.52153 2.39632,-1.5823 6.00784,-3.46584 15.04507,-5.04304 8.97987,-1.56589 12.83813,-1.21934 24.29065,-1.93316 0.0794,0.40075 0.17295,0.77568 0.25202,1.17671 l 0.67241,2.60557 c 0.16675,0 0.25175,0.0242 0.42025,0 3.37526,-0.22593 6.72338,-0.44903 9.91798,-0.58836 8.62844,32.4823 26.84932,60.27524 51.18687,80.68867 -0.19607,0.37332 -0.38168,0.70186 -0.58835,1.09266 l -1.34481,2.77367 c -0.87055,1.617 -1.86614,3.241 -2.77367,4.87494 -0.0812,0.14793 -0.0877,0.27555 -0.16811,0.42025 1.01493,0.83325 2.07171,1.62091 3.10988,2.43747 -5.41437,9.85102 -6.98603,13.5327 -12.18735,20.92863 -5.27411,7.50431 -8.55555,10.10437 -11.01064,11.59899 -1.20178,0.73024 -2.27994,1.11741 -3.69823,1.93317 l -0.0839,0.0839 c -1.50022,0.86525 -3.21396,2.1131 -4.62279,4.11848 -3.84349,5.4637 -2.52292,13.13853 2.94178,16.97828 0.34153,0.2394 0.65137,0.4726 1.00861,0.6724 5.3578,2.9981 12.36922,1.5098 15.96963,-3.61421 1.40871,-2.00566 1.96461,-4.09724 2.26937,-5.7995 l 0,-0.0839 c 0.28321,-1.59629 0.39239,-2.8311 0.6724,-4.20253 0.57518,-2.81604 1.86897,-6.70052 7.14431,-14.20457 5.20092,-7.40023 8.18,-10.13598 15.63343,-18.5752 1.12122,0.68988 2.23768,1.43155 3.36203,2.10126 0.10866,-0.12103 0.22485,-0.20979 0.3362,-0.3362 2.28126,-2.60974 4.44912,-5.00781 6.64001,-7.39646 27.48648,15.94973 59.79062,23.71695 93.29626,20.76052 0.12884,0.39995 0.29105,0.84279 0.42026,1.26076 l 0.92482,2.85799 c 0.52903,1.75713 0.91491,3.58258 1.42887,5.37925 0.0468,0.16407 0.2071,0.17482 0.25201,0.3362 0.89011,-0.0915 1.71047,-0.15358 2.60558,-0.25202 l 1.17671,-0.25201 c 3.19987,11.04009 4.73747,14.62683 6.3038,23.61822 1.57794,9.035 1.09954,13.0927 0.42025,15.8856 -0.33217,1.3677 -0.83421,2.4543 -1.26076,4.0344 l 0,0.084 c -0.44946,1.6697 -0.75818,3.9736 -0.3362,6.3878 1.14556,6.5799 7.54135,10.8986 14.12051,9.7499 0.41262,-0.073 0.69869,-0.055 1.09266,-0.1681 5.90857,-1.6684 9.90257,-7.7003 8.82533,-13.8684 -0.42198,-2.4142 -1.61735,-4.3804 -2.60558,-5.7995 l 0,-0.084 c -0.92687,-1.3311 -1.74919,-2.1947 -2.52152,-3.362 -1.583,-2.4 -3.38241,-6.0093 -4.95899,-15.0451 -1.64336,-9.41448 -1.32345,-12.89243 -2.18532,-25.71951 -0.0793,-1.20791 -0.10301,-2.18424 -0.1681,-3.36203 -0.4852,0.11566 -0.945,0.14363 -1.42886,0.25202 -2.53704,0.5737 -5.06765,1.06186 -7.64861,1.51291 -1.65237,0.28752 -3.37822,0.59898 -5.04304,0.84051 -0.33518,0.0457 -0.67421,0.0414 -1.00861,0.0839 -0.45495,0.0403 -0.97685,0.1143 -1.42886,0.1681 -0.20657,-0.67402 -0.39072,-1.3553 -0.58836,-2.01722 l -0.84051,-2.94177 c -0.0107,-0.0403 0.0135,-0.0463 0,-0.0839 -0.27391,-0.8822 -0.57219,-1.69285 -0.8405,-2.52152 -0.22566,-0.69661 -0.45807,-1.41084 -0.67241,-2.10127 -35.60753,4.18747 -70.05263,-4.18478 -98.67551,-21.85318 -0.46681,0.49382 -1.03814,1.01049 -1.51291,1.51291 -0.0188,0.0269 0.0188,0.0624 0,0.0839 -1.76308,1.86606 -3.52583,3.64014 -5.37925,5.71545 -0.0188,0.0269 -0.0651,0.0597 -0.0839,0.0839 -2.20307,-1.3951 -4.34323,-2.87466 -6.47191,-4.37063 -2.03723,-1.43088 -4.07725,-2.84401 -6.05165,-4.37064 0.0134,-0.0269 -0.0135,-0.0597 0,-0.0839 0.31724,-0.59764 0.69446,-1.26547 1.00861,-1.84912 l 1.42886,-2.60557 c 0.0269,-0.0511 0.0576,-0.117 0.0839,-0.1681 0.17993,-0.33863 0.33292,-0.6907 0.5043,-1.00861 0.0269,-0.0511 0.0584,-0.0328 0.0839,-0.0839 0.21329,-0.40747 0.46396,-0.86135 0.6724,-1.26076 0.32739,-0.65116 0.67819,-1.29814 1.00861,-1.93316 -25.04899,-19.81553 -44.06101,-47.50102 -52.95193,-80.10031 1.76944,-0.0565 3.70506,-0.0573 5.29519,-0.0839 1.24027,-0.0269 12.67226,-0.33889 13.78431,-0.3362 0.3365,-0.6673 0.69411,-1.24584 0.92456,-2.01722 0.2305,-0.77111 0.34634,-1.02797 0.75646,-2.18532 0.40914,-1.15627 1.31175,-3.62144 1.59696,-5.9676 5.93368,-1.01022 9.02392,-1.49368 16.64204,-1.76506 8.68385,-0.30904 19.56291,-0.72997 27.90483,-2.18532 3.60226,-0.6283 7.55286,-1.59764 11.59899,-2.68962 -0.25928,-0.77461 -0.43884,-1.57155 -0.6724,-2.35342 l 0.25202,0 -3.02583,-16.89419 -0.1681,0.0839 c -0.0503,-0.85369 -0.14766,-1.74974 -0.1681,-2.60558 -4.13191,0.33163 -8.20459,0.80756 -11.7671,1.42887 -8.34224,1.45535 -18.7046,4.6634 -26.98027,7.31241 -7.26023,2.32383 -10.36844,3.13394 -16.30584,4.20253 -1.03265,-2.02502 -2.25377,-3.93169 -3.69823,-5.37924 l -1.59696,-1.51292 -1.93317,1.00861 c -0.50395,0.25821 -1.1961,0.5 -2.01721,0.84051 0.44013,4.75929 1.15352,10.69595 1.76506,14.20457 0.67515,3.87278 1.59471,7.59401 2.52152,11.34684 l -7.64861,0.0839 c -0.0274,-0.003 -0.0554,0 -0.0839,0 l -1.76506,0 c -0.38639,0 -0.86329,0.0758 -1.26076,0.0839 l -2.94178,-0.0839 c 0.008,0.0376 -0.0108,0.0463 0,0.0839 -0.72536,0.0269 -1.60393,0.1439 -2.35342,0.1681 -1.55616,0.0511 -3.15576,0.10086 -4.79088,0.16811 -1.78287,0.078 -3.4587,0.0686 -5.2952,0.1681 -0.0406,10e-4 -0.043,0 -0.0839,0 -0.1864,-0.82895 -0.33844,-1.60073 -0.50431,-2.43747 -0.0269,-0.11566 -0.0584,-0.30299 -0.0839,-0.42026 -0.35517,-1.61 -0.64277,-3.17765 -0.92456,-4.79089 -0.25982,-1.49139 -0.45519,-2.96786 -0.67241,-4.45468 -0.14013,-0.95858 -0.29594,-1.97217 -0.42025,-2.94178 0.0379,0 0.0468,0.0269 0.0839,0 0.63511,-0.19903 1.30961,-0.40142 1.93317,-0.58835 l 2.85772,-0.84051 c 0.0417,0 0.12776,-0.0573 0.16811,-0.0839 0.88792,-0.27434 1.65167,-0.48265 2.52152,-0.75645 0.6915,-0.22324 1.41681,-0.4532 2.10126,-0.67241 -4.18889,-35.60925 4.18148,-70.05067 21.85318,-98.67551 -0.50029,-0.47219 -0.98496,-1.09968 -1.51291,-1.59696 -0.0161,0.0242 -0.071,-0.0269 -0.0839,0 -1.83871,-1.70678 -3.83161,-3.61418 -5.7995,-5.37925 1.38413,-2.21625 2.87063,-4.33822 4.37063,-6.4719 1.43427,-2.03632 2.91851,-4.0885 4.45469,-6.05165 0.59777,0.3171 1.18201,0.69392 1.76506,1.00861 l 2.68963,1.42886 c 0.0541,0.0269 0.11619,0.0573 0.1681,0.0839 0.34029,0.17752 0.68981,0.33298 1.00861,0.50431 0.45928,0.23937 0.81232,0.52999 1.26076,0.75645 0.65306,0.32679 1.38211,0.59266 2.01721,0.92456 20.87639,-26.39998 50.41504,-46.07807 85.31146,-54.29675 -0.0463,-1.55863 -0.10839,-3.26547 -0.1681,-4.87494 z"
         id="path3185" />
      <path
         inkscape:connector-curvature="0"
         style="font-size:medium;font-style:normal;font-variant:normal;font-weight:normal;font-stretch:normal;text-indent:0;text-align:start;text-decoration:none;line-height:normal;letter-spacing:normal;word-spacing:normal;text-transform:none;direction:ltr;block-progression:tb;writing-mode:lr-tb;text-anchor:start;baseline-shift:baseline;color:#000000;fill:#f69600;fill-opacity:1;stroke:none;stroke-width:7.92560863;marker:none;visibility:visible;display:inline;overflow:visible;enable-background:accumulate;font-family:Sans;-inkscape-font-specification:Sans"
         d="m 382.14073,660.02693 c -6.44178,0.0334 -12.9619,0.46757 -19.49976,1.34482 -1.96864,0.26358 -3.90928,0.58055 -5.88354,0.92455 -0.0188,0.003 -0.0638,-0.0896 -0.0839,-0.0839 -2.02822,0.35314 -3.97249,0.83015 -5.9676,1.26076 -1.98661,0.42872 -3.93142,0.84158 -5.88355,1.34481 -31.90613,8.22217 -59.12112,26.28863 -78.9236,50.26231 -1.24817,1.51103 -2.50958,3.0655 -3.69823,4.62279 -1.2166,1.59387 -2.37714,3.15049 -3.53013,4.79089 -1.16848,1.66219 -2.26687,3.41353 -3.36203,5.12709 -1.05331,1.63422 -2.11982,3.20173 -3.10987,4.87494 -0.0444,0.0726 -0.0401,0.17967 -0.0839,0.25202 -17.66834,29.96777 -25.25526,66.10984 -18.82735,103.04615 0.003,0.0269 -0.003,0.0624 0,0.0839 0.38332,2.20091 0.7869,4.31133 1.26076,6.4719 0.0637,-0.002 0.10462,0.0866 0.1681,0.0839 0.0839,0.36686 0.16568,0.72579 0.25201,1.09266 l 11.17875,-0.0839 c -0.76689,-3.11082 -1.45754,-6.20442 -2.01722,-9.41368 -0.53478,-3.06832 -1.01875,-6.19743 -1.34481,-9.24557 l -5.9676,2.01721 c -3.84869,-32.54308 3.34648,-64.08361 18.7433,-90.6907 3.55404,3.47984 6.57766,6.57613 7.73267,8.06887 l 1.26076,1.59696 1.93316,-0.6724 c 1.97524,-0.71302 3.93888,-1.90452 5.7995,-3.36203 4.90999,3.48145 7.36467,5.39619 12.94381,10.59039 6.35897,5.92201 14.42135,13.28539 21.34888,18.15495 2.99465,2.10597 6.53416,4.22069 10.17013,6.3038 1.6213,-3.24637 3.48532,-6.4364 5.6314,-9.49773 2.14559,-3.06052 4.47706,-5.85786 6.9762,-8.48912 -3.16929,-2.69877 -6.35485,-5.30555 -9.32962,-7.39646 -6.92782,-4.86983 -16.56584,-9.97366 -24.29065,-13.95242 -6.77699,-3.49059 -9.41868,-5.13045 -14.37267,-8.57317 0.70317,-2.16407 1.09042,-4.34239 1.09266,-6.38785 l 0,-2.18532 -2.10127,-0.58835 c -1.81512,-0.58849 -5.59727,-2.34992 -10.08608,-4.53874 18.87983,-22.51052 44.56209,-39.49562 74.63701,-47.48864 0.0621,4.97472 -0.0134,9.30757 -0.25202,11.17874 l -0.25201,2.10127 1.93316,0.75646 c 1.9007,0.89268 4.04154,1.56428 6.38786,1.84911 1.01003,5.93385 1.40981,8.93963 1.68101,16.55799 0.30931,8.68371 0.8138,19.64782 2.26937,27.98888 0.6248,3.58392 1.51044,7.58877 2.60557,11.59899 0.80936,-0.27084 1.61832,-0.51358 2.43747,-0.75645 l 0.0839,0.25202 16.81013,-2.94178 0,-0.25202 c 0.81378,-0.0484 1.62338,-0.14927 2.43747,-0.1681 -0.33165,-4.1318 -0.80796,-8.20388 -1.42886,-11.7671 -1.4571,-8.33971 -4.57932,-18.70484 -7.22836,-26.98027 -2.32337,-7.26117 -3.05041,-10.36795 -4.11848,-16.30583 2.02311,-1.02986 3.76326,-2.25283 5.21114,-3.69823 l 1.59697,-1.51292 -1.00861,-1.93316 c -0.87297,-1.71006 -2.31327,-5.66461 -3.95039,-10.42229 30.99131,-2.7149 60.89972,4.51655 86.32007,19.24761 -3.47841,3.55299 -6.57723,6.57828 -8.06887,7.73267 l -1.59696,1.26076 0.6724,1.93316 c 0.71372,1.97392 1.82053,4.02287 3.27798,5.88355 -3.48252,4.91152 -5.31136,7.28121 -10.50634,12.85976 -5.92074,6.35773 -13.28498,14.42094 -18.15495,21.34887 -2.10541,2.99382 -4.22058,6.53431 -6.3038,10.17014 3.24611,1.62157 6.4368,3.48561 9.49773,5.63139 3.08424,2.16219 5.84129,4.45577 8.48912,6.97621 2.69828,-3.16918 5.30539,-6.27085 7.39646,-9.24558 4.86988,-6.92766 9.97374,-16.64983 13.95242,-24.3747 3.49056,-6.77704 5.13026,-9.41865 8.57317,-14.37267 2.16116,0.70307 4.34293,1.09105 6.38785,1.09266 l 2.18532,0 0.58835,-2.10126 c 0.58728,-1.81362 2.35062,-5.59738 4.53874,-10.08609 21.17921,17.76227 37.46334,41.48016 45.97573,69.25777 0.72337,0 1.40132,0.0135 2.26937,0 0.79456,0 1.71017,-0.0492 2.60557,-0.0839 -8.79458,-29.60629 -26.11446,-54.85713 -48.7494,-73.54436 -1.52082,-1.25578 -3.05498,-2.50269 -4.62279,-3.69823 -1.56813,-1.20495 -3.17381,-2.39349 -4.79089,-3.53013 -1.667,-1.1716 -3.41418,-2.25767 -5.12709,-3.36203 -1.63395,-1.05352 -3.20114,-2.11901 -4.87494,-3.10987 -0.0721,-0.043 -0.17913,-0.0409 -0.25202,-0.0839 -23.04697,-13.59246 -49.74849,-21.15764 -77.66284,-21.01267 z"
         id="path3183" />
      <path
         inkscape:connector-curvature="0"
         style="font-size:medium;font-style:normal;font-variant:normal;font-weight:normal;font-stretch:normal;text-indent:0;text-align:start;text-decoration:none;line-height:normal;letter-spacing:normal;word-spacing:normal;text-transform:none;direction:ltr;block-progression:tb;writing-mode:lr-tb;text-anchor:start;baseline-shift:baseline;color:#000000;fill:#2aa600;fill-opacity:1;stroke:none;stroke-width:7.92560863;marker:none;visibility:visible;display:inline;overflow:visible;enable-background:accumulate;font-family:Sans;-inkscape-font-specification:Sans"
         d="m 530.65831,777.95006 -11.09469,0.0839 c 0.7681,3.10894 1.37305,6.20523 1.93316,9.41368 0.53403,3.06967 1.01891,6.19716 1.34481,9.24558 l 5.9676,-2.10127 c 3.85289,32.58262 -3.29962,64.14157 -18.7433,90.77475 -3.56878,-3.49248 -6.57416,-6.57236 -7.73266,-8.06887 l -1.26076,-1.59696 -1.93317,0.6724 c -1.97523,0.71275 -4.02306,1.90479 -5.88355,3.36203 -4.91117,-3.47983 -7.28126,-5.39538 -12.85976,-10.59039 -6.35915,-5.92174 -14.42121,-13.28565 -21.34887,-18.15495 -2.9744,-2.09198 -6.47632,-4.23386 -10.08608,-6.3038 -1.61146,3.21679 -3.50431,6.37952 -5.6314,9.41368 -2.16243,3.08446 -4.53987,5.92578 -7.06026,8.57317 3.16932,2.69877 6.27064,5.30582 9.24558,7.39646 6.92626,4.87198 16.65002,9.97339 24.3747,13.95242 6.7776,3.48978 9.41887,5.13018 14.37267,8.57317 -0.70175,2.16219 -1.09091,4.34293 -1.09266,6.38785 l 0,2.18532 2.01721,0.58835 c 1.8162,0.58661 5.68119,2.3502 10.17014,4.53874 -18.88884,22.48336 -44.58536,39.5045 -74.63702,47.48864 -0.0533,-4.97849 0.0134,-9.30515 0.25202,-11.17874 l 0.25202,-2.10113 -1.84912,-0.84051 c -1.90073,-0.89268 -4.12574,-1.47969 -6.4719,-1.76506 -1.01143,-5.9317 -1.32577,-9.02396 -1.59696,-16.64204 -0.30936,-8.68372 -0.89847,-19.56297 -2.35342,-27.90483 -0.62513,-3.58392 -1.5205,-7.57452 -2.60557,-11.599 -0.78365,0.26359 -1.56171,0.52327 -2.35342,0.75646 l -0.0839,-0.25202 -16.81014,2.94178 0,0.1681 c -0.85436,0.0484 -1.66579,0.0624 -2.52152,0.0839 0.33254,4.17376 0.80143,8.33783 1.42886,11.9352 1.45528,8.34213 4.66381,18.70431 7.31241,26.98027 2.32521,7.25849 3.04979,10.28472 4.11849,16.22179 -2.02615,1.03416 -3.84797,2.33741 -5.2952,3.78228 l -1.59696,1.51291 1.00861,1.93317 c 0.86818,1.70038 2.40573,5.61257 4.03443,10.33823 -31.00801,2.73965 -60.98035,-4.43196 -86.40411,-19.16355 3.49255,-3.56886 6.57255,-6.57425 8.06886,-7.73267 l 1.59697,-1.26076 -0.67241,-1.93316 c -0.71277,-1.97499 -1.90457,-3.93909 -3.36203,-5.7995 3.48145,-4.90991 5.39539,-7.36526 10.59039,-12.94381 5.92169,-6.35907 13.28528,-14.42148 18.15495,-21.34888 2.106,-2.99489 4.22058,-6.5343 6.3038,-10.17013 -3.24591,-1.6213 -6.35313,-3.40183 -9.41367,-5.54735 -3.08398,-2.16218 -5.92559,-4.54008 -8.57317,-7.06025 -2.69858,3.16945 -5.3051,6.35436 -7.39647,9.32962 -4.86896,6.92659 -9.97341,16.56552 -13.95241,24.29065 -3.48962,6.7757 -5.13043,9.41893 -8.57317,14.37267 -2.16211,-0.70172 -4.34291,-1.09077 -6.38785,-1.09266 l -2.18532,0 -0.58836,2.10127 c -0.58822,1.81523 -2.3503,5.5971 -4.53873,10.08608 -21.13619,-17.75527 -37.38008,-41.50006 -45.89168,-69.25777 -0.74686,0 -1.45923,-0.0269 -2.35342,0 -0.8103,0 -1.69312,-0.0215 -2.60557,0 8.78226,29.66438 25.99033,54.93392 48.66535,73.62841 0.10624,0.0915 0.31229,0.16326 0.42025,0.25202 1.10412,0.90721 2.23249,1.81522 3.36203,2.68962 1.1465,0.88758 2.27488,1.75135 3.44608,2.60557 0.75072,0.55245 1.42324,1.1447 2.18532,1.68102 0.82084,0.57531 1.77246,1.12318 2.60557,1.68101 0.81033,0.54169 1.61603,1.07168 2.43747,1.59696 0.046,0.0323 0.0366,0.0549 0.0839,0.0839 1.49777,0.95885 3.00996,1.94755 4.53874,2.85772 0.2184,0.1291 0.45269,0.20764 0.67241,0.3362 28.38425,16.70928 62.26324,24.38251 97.1626,19.66787 1.961,-0.25552 3.93645,-0.50081 5.88355,-0.84051 2.02867,-0.35395 4.05648,-0.83042 6.05165,-1.26076 1.98784,-0.43061 3.9312,-0.84131 5.88354,-1.34481 31.88959,-8.21599 59.1161,-26.23498 78.92361,-50.17827 0.79736,-0.96557 1.57576,-2.04169 2.35341,-3.02582 0.45261,-0.57585 0.90065,-1.09898 1.34482,-1.68101 0.96433,-1.25471 1.93628,-2.49638 2.85772,-3.78229 0.22835,-0.32087 0.44564,-0.60234 0.6724,-0.92455 0.17618,-0.25014 0.32991,-0.50471 0.50431,-0.75646 2.13766,-3.07746 4.145,-6.35369 6.05165,-9.58178 17.69658,-29.96347 25.17424,-66.09155 18.7433,-103.04615 -0.002,-0.0269 0.0866,0.0215 0.0839,0 -0.38373,-2.19957 -0.78636,-4.39699 -1.26076,-6.55595 -0.0406,0.001 -0.12749,0 -0.1681,0 -0.0917,-0.4056 -0.15869,-0.77515 -0.25202,-1.17671 z"
         id="path3167" />
      <path
         inkscape:connector-curvature="0"
         style="font-size:medium;font-style:normal;font-variant:normal;font-weight:normal;font-stretch:normal;text-indent:0;text-align:start;text-decoration:none;line-height:normal;letter-spacing:normal;word-spacing:normal;text-transform:none;direction:ltr;block-progression:tb;writing-mode:lr-tb;text-anchor:start;baseline-shift:baseline;color:#000000;fill:#acacac;fill-opacity:1;stroke:none;stroke-width:7.92560863;marker:none;visibility:visible;display:inline;overflow:visible;enable-background:accumulate;font-family:Sans;-inkscape-font-specification:Sans"
         d="m 381.38428,741.64016 c -3.51994,0.0769 -7.10141,0.38066 -10.67444,1.00861 -38.11149,6.69527 -63.6849,43.07941 -56.98637,81.19297 6.70068,38.11463 43.1658,63.68191 81.27702,56.98637 38.11017,-6.70039 63.68439,-43.08264 56.98637,-81.19297 -3.35033,-19.05786 -14.13746,-35.00396 -28.82939,-45.30333 -11.93708,-8.36846 -26.52016,-13.02463 -41.77319,-12.69165 z m 0.1681,4.70684 c 14.23531,-0.32252 27.71532,4.04365 38.83142,11.85114 13.68216,9.60841 23.68481,24.40429 26.81217,42.19345 6.25197,35.57268 -17.37894,69.47604 -52.95194,75.72968 -35.57388,6.24987 -69.4749,-17.45848 -75.72967,-53.03599 -6.25243,-35.57617 17.46229,-69.48034 53.03599,-75.72968 3.33518,-0.58614 6.71695,-0.93418 10.00203,-1.0086 z"
         id="path3157" />
      <path
         inkscape:connector-curvature="0"
         style="font-size:medium;font-style:normal;font-variant:normal;font-weight:normal;font-stretch:normal;text-indent:0;text-align:start;text-decoration:none;line-height:normal;letter-spacing:normal;word-spacing:normal;text-transform:none;direction:ltr;block-progression:tb;writing-mode:lr-tb;text-anchor:start;baseline-shift:baseline;color:#000000;fill:#f69600;fill-opacity:1;stroke:none;stroke-width:7.92560863;marker:none;visibility:visible;display:inline;overflow:visible;enable-background:accumulate;font-family:Sans;-inkscape-font-specification:Sans"
         d="m 381.30023,748.86852 c -3.0733,0.0858 -6.21526,0.37724 -9.32963,0.92455 -16.61108,2.91932 -30.58609,12.0877 -39.84003,24.71091 l 3.95038,2.77367 c 6.94695,-9.43761 16.76084,-16.87966 28.40914,-20.76052 l 1.84911,11.01064 16.97824,-3.02582 -1.93316,-10.92659 c 9.84264,-0.26924 19.26097,2.11807 27.65268,6.38785 l -21.76913,30.93065 3.86633,2.68963 22.02128,-31.35091 c 0.62418,0.38408 1.32351,0.77004 1.93317,1.17671 l 2.85772,-4.03444 c -10.56564,-7.07803 -23.32849,-10.87812 -36.6461,-10.50633 z"
         id="path4019" />
      <path
         inkscape:connector-curvature="0"
         style="font-size:medium;font-style:normal;font-variant:normal;font-weight:normal;font-stretch:normal;text-indent:0;text-align:start;text-decoration:none;line-height:normal;letter-spacing:normal;word-spacing:normal;text-transform:none;direction:ltr;block-progression:tb;writing-mode:lr-tb;text-anchor:start;baseline-shift:baseline;color:#000000;fill:#0084ae;fill-opacity:1;stroke:none;stroke-width:7.92560863;marker:none;visibility:visible;display:inline;overflow:visible;enable-background:accumulate;font-family:Sans;-inkscape-font-specification:Sans"
         d="m 420.0476,760.97182 -2.85773,4.03443 c 0.65385,0.48144 1.29914,1.00538 1.93317,1.51291 l -21.93723,31.26686 3.86633,2.77367 21.76913,-30.8466 c 6.76911,6.39242 12.12538,14.39284 15.21318,23.61824 l -10.92659,1.84912 2.94177,16.97824 11.01064,-1.93317 c 0.32321,12.27383 -3.33107,23.9558 -9.83393,33.70433 l 3.86633,2.77367 c 8.71196,-13.00378 12.66906,-29.28111 9.74988,-45.89167 -2.91931,-16.61057 -12.17153,-30.58558 -24.79495,-39.84003 z"
         id="path4017" />
      <path
         inkscape:connector-curvature="0"
         style="font-size:medium;font-style:normal;font-variant:normal;font-weight:normal;font-stretch:normal;text-indent:0;text-align:start;text-decoration:none;line-height:normal;letter-spacing:normal;word-spacing:normal;text-transform:none;direction:ltr;block-progression:tb;writing-mode:lr-tb;text-anchor:start;baseline-shift:baseline;color:#000000;fill:#000000;fill-opacity:1;stroke:none;stroke-width:7.92560863;marker:none;visibility:visible;display:inline;overflow:visible;enable-background:accumulate;font-family:Sans;-inkscape-font-specification:Sans"
         d="m 352.55489,764.9222 -8.74127,12.4395 14.03646,9.83393 2.10127,-3.02582 19.58381,-3.44608 -2.18532,3.19393 3.86634,2.68962 12.01925,-17.06229 -3.78229,-2.68962 -6.55595,9.07747 -19.66786,3.44608 3.27798,-4.62279 -13.95242,-9.83393 z"
         id="path4015" />
      <path
         inkscape:connector-curvature="0"
         style="font-size:medium;font-style:normal;font-variant:normal;font-weight:normal;font-stretch:normal;text-indent:0;text-align:start;text-decoration:none;line-height:normal;letter-spacing:normal;word-spacing:normal;text-transform:none;direction:ltr;block-progression:tb;writing-mode:lr-tb;text-anchor:start;baseline-shift:baseline;color:#000000;fill:#620074;fill-opacity:1;stroke:none;stroke-width:7.92560863;marker:none;visibility:visible;display:inline;overflow:visible;enable-background:accumulate;font-family:Sans;-inkscape-font-specification:Sans"
         d="m 330.70171,776.6893 c -8.71185,13.00405 -12.6692,29.28057 -9.74988,45.89168 2.9194,16.61056 12.17145,30.50179 24.79495,39.75597 l 2.68963,-3.78228 c -0.6272,-0.46261 -1.24046,-1.02555 -1.84912,-1.51291 l 22.02128,-31.43496 -3.95038,-2.68962 -21.68508,31.0147 c -6.76886,-6.40775 -12.04795,-14.61433 -15.12912,-23.87039 l 10.75849,-1.84912 -2.94178,-16.89419 -10.75849,1.93317 c -0.32316,-12.27355 3.24683,-24.04011 9.74988,-33.78838 l -3.95038,-2.77367 z"
         id="path4013" />
      <path
         inkscape:connector-curvature="0"
         style="font-size:medium;font-style:normal;font-variant:normal;font-weight:normal;font-stretch:normal;text-indent:0;text-align:start;text-decoration:none;line-height:normal;letter-spacing:normal;word-spacing:normal;text-transform:none;direction:ltr;block-progression:tb;writing-mode:lr-tb;text-anchor:start;baseline-shift:baseline;color:#000000;fill:#ef0000;fill-opacity:1;stroke:none;stroke-width:7.92560863;marker:none;visibility:visible;display:inline;overflow:visible;enable-background:accumulate;font-family:Sans;-inkscape-font-specification:Sans"
         d="m 337.25766,786.77538 -8.82532,12.4395 14.12052,9.91798 2.52152,-3.69823 50.76662,35.55345 -9.58178,1.76506 2.26937,-3.19392 -4.03444,-2.77368 -12.01925,17.23039 3.86634,2.68963 6.64,-9.16153 17.5666,-3.19393 1.09266,0.75646 -2.52153,3.69823 13.95242,9.74988 2.60557,-3.61418 2.68962,-3.86633 3.53013,-4.95899 -14.03646,-9.83393 -2.10127,3.02582 -3.36203,0.58836 -54.63295,-38.32712 3.53013,-4.87494 -14.03647,-9.91798 z"
         id="path4011" />
      <path
         inkscape:connector-curvature="0"
         style="font-size:medium;font-style:normal;font-variant:normal;font-weight:normal;font-stretch:normal;text-indent:0;text-align:start;text-decoration:none;line-height:normal;letter-spacing:normal;word-spacing:normal;text-transform:none;direction:ltr;block-progression:tb;writing-mode:lr-tb;text-anchor:start;baseline-shift:baseline;color:#000000;fill:#020051;fill-opacity:1;stroke:none;stroke-width:7.92560863;marker:none;visibility:visible;display:inline;overflow:visible;enable-background:accumulate;font-family:Sans;-inkscape-font-specification:Sans"
         d="m 419.03899,787.61589 -12.01925,17.06229 3.86633,2.77367 2.18532,-3.10988 3.44608,19.58382 -2.10127,3.02582 14.12052,9.74988 8.65722,-12.4395 -13.95242,-9.91798 -3.27797,4.70684 -3.44608,-19.58382 6.4719,-9.07747 -3.95038,-2.77367 z"
         id="path4009" />
      <path
         inkscape:connector-curvature="0"
         style="font-size:medium;font-style:normal;font-variant:normal;font-weight:normal;font-stretch:normal;text-indent:0;text-align:start;text-decoration:none;line-height:normal;letter-spacing:normal;word-spacing:normal;text-transform:none;direction:ltr;block-progression:tb;writing-mode:lr-tb;text-anchor:start;baseline-shift:baseline;color:#000000;fill:#acacac;fill-opacity:1;stroke:none;stroke-width:7.92560863;marker:none;visibility:visible;display:inline;overflow:visible;enable-background:accumulate;font-family:Sans;-inkscape-font-specification:Sans"
         d="m 354.82426,815.94097 -12.01925,17.14634 3.86633,2.77367 12.01925,-17.14634 -3.86633,-2.77367 z"
         id="path4007" />
      <path
         inkscape:connector-curvature="0"
         style="font-size:medium;font-style:normal;font-variant:normal;font-weight:normal;font-stretch:normal;text-indent:0;text-align:start;text-decoration:none;line-height:normal;letter-spacing:normal;word-spacing:normal;text-transform:none;direction:ltr;block-progression:tb;writing-mode:lr-tb;text-anchor:start;baseline-shift:baseline;color:#000000;fill:#2aa600;fill-opacity:1;stroke:none;stroke-width:7.92560863;marker:none;visibility:visible;display:inline;overflow:visible;enable-background:accumulate;font-family:Sans;-inkscape-font-specification:Sans"
         d="m 374.66022,829.89339 -22.02128,31.3509 c -0.64841,-0.39806 -1.38478,-0.7539 -2.01722,-1.17671 l -2.77367,3.86634 c 13.00363,8.71168 29.28106,12.66919 45.89168,9.74988 16.60976,-2.91959 30.66995,-12.17149 39.92408,-24.79496 l -3.95038,-2.68962 c -6.94735,9.43708 -16.76114,16.79535 -28.40914,20.67647 l -1.93316,-10.92659 -16.89419,2.94177 1.84911,10.92659 c -9.80684,0.26359 -19.20632,-1.9879 -27.56862,-6.21975 l 21.76912,-31.0147 -3.86633,-2.68962 z"
         id="path3984-8" />
    </g>
    <g
       style="font-size:28px;font-style:normal;font-variant:normal;font-weight:normal;font-stretch:normal;text-align:start;line-height:125%;letter-spacing:0px;word-spacing:0px;writing-mode:lr-tb;text-anchor:start;fill:#acacac;fill-opacity:1;stroke:none;font-family:Mishmash BRK;-inkscape-font-specification:Mishmash BRK"
       id="text4915"
       transform="translate(0,-180)">
      <path
         d="m 64.380563,611.42029 c 0.299927,-0.47289 0.707499,-0.76701 1.222716,-0.88236 0.515228,-0.11531 1.009296,-0.023 1.482206,0.27688 0.472917,0.29995 0.767038,0.70752 0.882363,1.22272 0.115332,0.51525 0.02304,1.00932 -0.276888,1.48221 l -3.149168,4.96559 11.586389,7.34806 c 0.472908,0.29993 0.767029,0.7075 0.882364,1.22272 0.115322,0.51523 0.02303,1.0093 -0.276889,1.4822 -0.299926,0.47292 -0.707498,0.76705 -1.222715,0.88237 -0.515228,0.11533 -1.009296,0.023 -1.482206,-0.27689 l -11.586389,-7.34806 -3.149169,4.96559 c -0.299909,0.47293 -0.70748,0.76705 -1.222716,0.88237 -0.515209,0.11534 -1.009277,0.023 -1.482205,-0.27689 -0.472899,-0.29991 -0.76702,-0.70748 -0.882364,-1.22272 -0.115313,-0.51521 -0.02302,-1.00928 0.276888,-1.4822 l 8.397783,-13.24159 0,0"
         id="path5973"
         inkscape:connector-curvature="0" />
      <path
         d="m 74.089538,604.79289 c -0.24098,0.30919 -0.390273,0.607 -0.447882,0.89343 -0.06084,0.26027 -0.05619,0.5124 0.01395,0.75639 0.05543,0.23255 0.161624,0.4455 0.318583,0.63883 0.142252,0.18189 0.294349,0.33595 0.456289,0.46216 l 1.545875,1.20494 3.614811,-4.63762 c 0.34427,-0.44166 0.778385,-0.69497 1.302348,-0.75993 0.523964,-0.0649 1.006785,0.0747 1.448463,0.41899 0.441678,0.34429 0.694987,0.7784 0.759928,1.30235 0.06494,0.52398 -0.07472,1.0068 -0.418991,1.44846 l -3.614811,4.63763 1.545874,1.20493 c 0.309176,0.241 0.601248,0.39765 0.876217,0.46997 0.271723,0.0461 0.523853,0.0415 0.75639,-0.014 0.244012,-0.0701 0.456955,-0.17633 0.638831,-0.31858 0.193349,-0.15696 0.35314,-0.31642 0.479373,-0.47837 l 7.229622,-9.27525 c 0.344259,-0.44166 0.778375,-0.69497 1.302348,-0.75993 0.523954,-0.0649 1.006775,0.0747 1.448464,0.419 0.441666,0.34428 0.694975,0.7784 0.759928,1.30234 0.06493,0.52398 -0.07474,1.0068 -0.418991,1.44847 l -7.229623,9.27524 c -0.367223,0.47113 -0.844105,0.91594 -1.430647,1.33444 -0.575072,0.40379 -1.230249,0.6978 -1.965531,0.88203 -0.723809,0.16951 -1.500658,0.17934 -2.330551,0.0295 -0.829889,-0.14984 -1.67179,-0.55756 -2.525705,-1.22315 l -6.1835,-4.81971 c -0.45639,-0.35573 -0.893843,-0.82687 -1.312359,-1.41343 -0.418493,-0.58653 -0.712501,-1.24171 -0.882024,-1.96553 -0.184221,-0.73527 -0.201414,-1.51786 -0.05158,-2.34777 0.149861,-0.82987 0.557577,-1.67177 1.223149,-2.5257 l 7.229623,-9.27524 c 0.344272,-0.44166 0.778387,-0.69497 1.302348,-0.75993 0.523966,-0.0649 1.006787,0.0747 1.448463,0.41899 0.441679,0.34429 0.694988,0.77841 0.759928,1.30235 0.06494,0.52399 -0.07472,1.00681 -0.418991,1.44846 l -7.229622,9.27524 0,0"
         id="path5975"
         inkscape:connector-curvature="0" />
      <path
         d="m 89.061467,586.84171 c -0.270522,0.28371 -0.448681,0.5652 -0.534478,0.84449 -0.08641,0.25292 -0.106849,0.50426 -0.06132,0.75403 0.03204,0.2369 0.116537,0.45935 0.253499,0.66733 0.123467,0.19513 0.259495,0.36354 0.408087,0.50523 l 5.673737,5.41058 c 0.283687,0.27053 0.558739,0.45545 0.825158,0.55474 0.265791,0.0729 0.517134,0.0933 0.754029,0.0613 0.249776,-0.0455 0.472221,-0.13003 0.667337,-0.25349 0.207995,-0.13697 0.382846,-0.27975 0.524553,-0.42835 l 8.115861,-8.51061 c 0.38646,-0.40525 0.84361,-0.61415 1.37144,-0.6267 0.52782,-0.0125 0.99436,0.17446 1.39964,0.56091 0.40525,0.38648 0.61415,0.84363 0.6267,1.37144 0.0125,0.52784 -0.17445,0.99438 -0.56091,1.39964 l -8.11586,8.5106 c -0.412241,0.43229 -0.930979,0.8275 -1.556219,1.18561 -0.612364,0.34462 -1.293522,0.57204 -2.043477,0.68227 -0.737075,0.0967 -1.511053,0.0293 -2.321938,-0.20233 -0.810883,-0.23161 -1.608082,-0.721 -2.391601,-1.46818 l -5.673737,-5.41057 c -0.418766,-0.39934 -0.807216,-0.91164 -1.16535,-1.53689 -0.358113,-0.62523 -0.585533,-1.30639 -0.682262,-2.04348 -0.110216,-0.74994 -0.04953,-1.53036 0.182069,-2.34126 0.231616,-0.81087 0.721006,-1.60807 1.46817,-2.3916 l 8.115861,-8.51061 c 0.38647,-0.40524 0.843617,-0.61414 1.371441,-0.6267 0.527823,-0.0125 0.994368,0.17447 1.399636,0.56091 0.405265,0.3865 0.614165,0.84364 0.626698,1.37144 0.01253,0.52785 -0.174439,0.9944 -0.560907,1.39964 l -8.11586,8.5106 0,0"
         id="path5977"
         inkscape:connector-curvature="0" />
      <path
         d="m 112.12116,559.83379 c 0.42495,-0.36468 0.90065,-0.52695 1.4271,-0.48681 0.52644,0.0402 0.97201,0.27276 1.33672,0.69769 l 10.2118,11.8988 c 0.3647,0.42497 0.52697,0.90067 0.48681,1.4271 -0.0402,0.52646 -0.27274,0.97203 -0.69768,1.33673 -0.42497,0.36471 -0.90067,0.52699 -1.4271,0.48681 -0.52646,-0.0402 -0.97203,-0.27272 -1.33673,-0.69769 l -3.82942,-4.46205 -8.9241,7.65885 3.82942,4.46205 c 0.36471,0.42496 0.52698,0.90066 0.48681,1.4271 -0.0402,0.52645 -0.27273,0.97202 -0.69768,1.33673 -0.42496,0.36471 -0.90066,0.52698 -1.4271,0.48681 -0.52645,-0.0402 -0.97202,-0.27273 -1.33673,-0.69769 l -10.2118,-11.8988 c -0.364698,-0.42494 -0.526968,-0.90064 -0.486813,-1.4271 0.04018,-0.52643 0.27274,-0.972 0.697683,-1.33672 0.42497,-0.36469 0.90067,-0.52696 1.4271,-0.48682 0.52645,0.0402 0.97203,0.27275 1.33673,0.69769 l 3.82942,4.46205 8.92411,-7.65885 -3.82943,-4.46205 c -0.36471,-0.42493 -0.52698,-0.90063 -0.48681,-1.4271 0.0402,-0.52642 0.27273,-0.97199 0.69769,-1.33673"
         id="path5979"
         inkscape:connector-curvature="0" />
      <path
         d="m 131.38492,545.8938 c 0.45916,-0.32055 0.94865,-0.43464 1.46848,-0.34228 0.51982,0.0924 0.94002,0.3682 1.2606,0.82734 l 8.97608,12.85661 c 0.22439,0.32143 0.34093,0.684 0.34963,1.08771 0.024,0.39306 -0.082,0.763 -0.31792,1.10984 -0.22064,0.33617 -0.51303,0.58584 -0.87717,0.74901 -0.34887,0.1525 -0.71592,0.18111 -1.10116,0.0858 l -17.19324,-3.05591 6.28326,8.99962 c 0.32057,0.45917 0.43466,0.94866 0.34227,1.46849 -0.0924,0.51983 -0.36818,0.94003 -0.82734,1.2606 -0.45916,0.32057 -0.94866,0.43466 -1.46848,0.34227 -0.51983,-0.0924 -0.94003,-0.36817 -1.2606,-0.82734 l -8.97609,-12.85661 c -0.22439,-0.3214 -0.34858,-0.67862 -0.37258,-1.07168 -0.009,-0.40371 0.10496,-0.779 0.34088,-1.12586 0.22063,-0.33615 0.50537,-0.58047 0.85421,-0.73299 0.36417,-0.16316 0.73887,-0.1971 1.12412,-0.10184 l 17.19324,3.05592 -6.28326,-8.99963 c -0.32058,-0.45914 -0.43467,-0.94863 -0.34227,-1.46848 0.0924,-0.5198 0.36817,-0.94 0.82734,-1.2606"
         id="path5981"
         inkscape:connector-curvature="0" />
      <path
         d="m 148.5105,535.85335 c 0.50499,-0.28253 1.10899,-0.50283 1.81199,-0.6609 0.70299,-0.15802 1.42091,-0.1747 2.15378,-0.05 0.74914,0.11561 1.47705,0.4035 2.18374,0.86368 0.70667,0.46022 1.32433,1.16273 1.85298,2.10754 l 3.82814,6.84185 c 0.29165,0.5213 0.5165,1.13344 0.67457,1.83642 0.14892,0.68672 0.16559,1.40465 0.05,2.15379 -0.12472,0.73287 -0.41717,1.45263 -0.87735,2.1593 -0.46021,0.70669 -1.16272,1.32435 -2.10754,1.85299 l -6.84186,3.82813 c -0.52129,0.29167 -1.13343,0.51653 -1.83642,0.67457 -0.68671,0.14894 -1.40463,0.16561 -2.15378,0.05 -0.73286,-0.1247 -1.45263,-0.41715 -2.1593,-0.87735 -0.70668,-0.46019 -1.32434,-1.1627 -1.85299,-2.10754 l -3.82813,-6.84185 c -0.28255,-0.50499 -0.50285,-1.10898 -0.6609,-1.81199 -0.15804,-0.70298 -0.17472,-1.42091 -0.05,-2.15378 0.11559,-0.74913 0.40348,-1.47705 0.86368,-2.18374 0.4602,-0.70666 1.16271,-1.32432 2.10754,-1.85299 l 6.84185,-3.82813 0,0 m 4.58157,4.17436 c -0.19142,-0.34207 -0.40338,-0.5871 -0.6359,-0.73509 -0.22535,-0.17335 -0.46407,-0.27507 -0.71618,-0.30515 -0.23582,-0.0392 -0.47329,-0.0239 -0.7124,0.0457 -0.22283,0.0605 -0.42384,0.14091 -0.60302,0.24115 l -6.84186,3.82813 c -0.34209,0.19143 -0.59527,0.40795 -0.75953,0.64957 -0.15708,0.21624 -0.25065,0.45041 -0.28071,0.7025 -0.0392,0.23584 -0.024,0.4733 0.0457,0.7124 0.0605,0.22284 0.14089,0.42385 0.24115,0.60303 l 3.82813,6.84186 c 0.19141,0.3421 0.39978,0.59983 0.62513,0.7732 0.23252,0.14797 0.46669,0.24155 0.70251,0.28071 0.23581,0.0392 0.46513,0.0285 0.68796,-0.032 0.23911,-0.0696 0.45641,-0.15911 0.6519,-0.26849 l 6.84186,-3.82813 c 0.34208,-0.1914 0.59167,-0.39522 0.74876,-0.61146 0.16425,-0.24162 0.26597,-0.48035 0.30515,-0.71618 0.0301,-0.25209 0.0148,-0.48956 -0.0457,-0.7124 -0.0696,-0.2391 -0.15457,-0.44826 -0.25482,-0.62746 l -3.82813,-6.84186"
         id="path5983"
         inkscape:connector-curvature="0" />
      <path
         d="m 179.80682,538.4414 c 0.51292,-0.22469 1.01527,-0.24097 1.50705,-0.0488 0.49175,0.19217 0.84999,0.54471 1.07471,1.05764 0.22469,0.51295 0.24097,1.0153 0.0488,1.50706 -0.19217,0.49177 -0.54472,0.85001 -1.05764,1.07471 l -14.36229,6.29182 c -0.51294,0.22471 -1.01529,0.24098 -1.50705,0.0488 -0.49177,-0.19215 -0.85,-0.5447 -1.07471,-1.05764 L 158.1439,532.9527 c -0.2247,-0.51292 -0.24098,-1.01527 -0.0488,-1.50705 0.19216,-0.49175 0.5447,-0.84999 1.05764,-1.07471 0.51294,-0.22469 1.01529,-0.24097 1.50705,-0.0488 0.49177,0.19217 0.85,0.54471 1.07471,1.05763 l 5.50534,12.56701 12.56701,-5.50535 0,0"
         id="path5985"
         inkscape:connector-curvature="0" />
      <path
         d="m 191.50557,517.84724 c 0.55001,-0.1798 1.18516,-0.27944 1.90545,-0.29892 0.72027,-0.0194 1.42792,0.10272 2.12297,0.36644 0.71276,0.25796 1.37146,0.68088 1.97609,1.26875 0.6046,0.58791 1.07513,1.39638 1.41158,2.42543 l 2.43626,7.45186 c 0.1856,0.56777 0.28814,1.21179 0.30761,1.93206 0.0136,0.70255 -0.10851,1.41021 -0.36643,2.12297 -0.26377,0.69504 -0.68958,1.34487 -1.27745,1.94948 -0.58791,0.60462 -1.39638,1.07515 -2.42543,1.41158 l -7.45187,2.43626 c -0.56776,0.18562 -1.21178,0.28816 -1.93206,0.30761 -0.70254,0.0137 -1.4102,-0.10849 -2.12297,-0.36643 -0.69503,-0.26375 -1.34486,-0.68956 -1.94948,-1.27745 -0.60461,-0.58789 -1.07514,-1.39636 -1.41158,-2.42543 l -2.43625,-7.45187 c -0.17982,-0.55 -0.27946,-1.18515 -0.29892,-1.90544 -0.0195,-0.72027 0.1027,-1.42792 0.36644,-2.12298 0.25794,-0.71275 0.68086,-1.37145 1.26875,-1.97609 0.58789,-0.60459 1.39636,-1.07512 2.42543,-1.41158 l 7.45186,-2.43625 0,0 m 3.69016,4.97983 c -0.12183,-0.37258 -0.28253,-0.6539 -0.48213,-0.84397 -0.18767,-0.21357 -0.40229,-0.35943 -0.64385,-0.43758 -0.22384,-0.0839 -0.45979,-0.11479 -0.70783,-0.0926 -0.23032,0.0164 -0.44306,0.0565 -0.63822,0.12028 l -7.45186,2.43625 c -0.3726,0.12183 -0.66279,0.28544 -0.87058,0.49083 -0.19585,0.18188 -0.33284,0.3936 -0.41097,0.63516 -0.0839,0.22384 -0.11481,0.45979 -0.0926,0.70782 0.0164,0.23033 0.0565,0.44307 0.12028,0.63822 l 2.43625,7.45187 c 0.12181,0.3726 0.27655,0.66569 0.46422,0.87927 0.1996,0.19006 0.41132,0.32705 0.63515,0.41098 0.22383,0.0839 0.4509,0.11771 0.68122,0.10133 0.24805,-0.0222 0.47853,-0.0681 0.69144,-0.13768 l 7.45187,-2.43626 c 0.37258,-0.12181 0.6568,-0.27364 0.85266,-0.45552 0.20778,-0.20539 0.35364,-0.42001 0.43759,-0.64385 0.0781,-0.24156 0.10899,-0.47751 0.0926,-0.70783 -0.0222,-0.24804 -0.0652,-0.46965 -0.12898,-0.66483 l -2.43626,-7.45186"
         id="path5987"
         inkscape:connector-curvature="0" />
      <path
         d="m 207.70044,517.48225 c -0.2005,0.0443 -0.41319,0.11998 -0.63806,0.227 -0.20664,0.10302 -0.39411,0.24958 -0.56238,0.43968 -0.15006,0.1861 -0.26069,0.42083 -0.3319,0.70418 -0.057,0.26113 -0.0432,0.58307 0.0413,0.96583 l 1.69136,7.65538 c 0.0443,0.20051 0.11996,0.41319 0.22699,0.63806 0.103,0.20665 0.24956,0.39411 0.43968,0.56239 0.18609,0.15006 0.4117,0.2627 0.67685,0.33794 0.27933,0.053 0.61039,0.0372 0.99316,-0.0474 l 7.65539,-1.69136 c 0.20048,-0.0443 0.40405,-0.11794 0.61071,-0.22095 0.22486,-0.10703 0.41232,-0.25359 0.56239,-0.43968 0.16827,-0.19011 0.28091,-0.41572 0.33794,-0.67684 0.0712,-0.28336 0.0645,-0.61643 -0.02,-0.99921 l -0.42283,-1.91385 -5.74154,1.26852 c -0.54682,0.12082 -1.04277,0.0392 -1.48785,-0.24479 -0.44509,-0.28399 -0.72803,-0.69939 -0.84884,-1.24622 -0.12082,-0.5468 -0.0392,-1.04275 0.24479,-1.48784 0.28399,-0.44507 0.6994,-0.72802 1.24622,-0.84884 l 7.65538,-1.69136 c 0.5468,-0.12079 1.04275,-0.0392 1.48785,0.24479 0.44506,0.28401 0.72801,0.69942 0.84884,1.24622 l 0.84568,3.82769 c 0.23355,1.05718 0.23949,1.99259 0.0178,2.80624 -0.22171,0.81366 -0.57385,1.51275 -1.05642,2.09729 -0.46438,0.58052 -1.01162,1.04553 -1.64171,1.39502 -0.63012,0.3495 -1.22769,0.58667 -1.79271,0.71151 l -7.65539,1.69135 c -1.05718,0.23357 -1.99259,0.23951 -2.80624,0.0178 -0.81365,-0.22168 -1.51073,-0.56471 -2.09125,-1.02908 -0.58454,-0.48258 -1.04955,-1.02982 -1.39502,-1.6417 -0.3495,-0.6301 -0.58868,-1.23679 -0.71754,-1.82006 l -1.69136,-7.65538 c -0.23357,-1.05716 -0.23951,-1.99257 -0.0178,-2.80624 0.22169,-0.81364 0.56471,-1.51072 1.02908,-2.09125 0.48259,-0.58453 1.02982,-1.04953 1.6417,-1.39502 0.63011,-0.34948 1.23679,-0.58866 1.82006,-0.71755 l 11.48308,-2.53703 c 0.5468,-0.12079 1.04274,-0.0392 1.48784,0.24478 0.44507,0.28403 0.72802,0.69943 0.84884,1.24622 0.1208,0.54684 0.0392,1.04279 -0.24478,1.48785 -0.28402,0.4451 -0.69943,0.72805 -1.24622,0.84884 l -11.48308,2.53703 0,0"
         id="path5989"
         inkscape:connector-curvature="0" />
      <path
         d="m 236.50285,512.49625 1.39368,11.67713 5.83856,-0.69684 c 0.55603,-0.0664 1.04153,0.0637 1.4565,0.39014 0.41492,0.32646 0.65558,0.76772 0.72197,1.32376 0.0663,0.55606 -0.0637,1.04156 -0.39014,1.4565 -0.32648,0.41495 -0.76774,0.65561 -1.32377,0.72197 l -15.5695,1.85824 c -0.55606,0.0664 -1.04156,-0.0637 -1.4565,-0.39014 -0.41495,-0.32646 -0.6556,-0.76771 -0.72197,-1.32377 -0.0664,-0.55605 0.0637,-1.04155 0.39014,-1.4565 0.32646,-0.41494 0.76771,-0.65559 1.32377,-0.72196 l 5.83856,-0.69684 -1.39368,-11.67713 -5.83856,0.69684 c -0.55606,0.0664 -1.04156,-0.0637 -1.4565,-0.39014 -0.41495,-0.32644 -0.6556,-0.7677 -0.72197,-1.32377 -0.0664,-0.55603 0.0637,-1.04153 0.39014,-1.4565 0.32646,-0.41492 0.76771,-0.65558 1.32377,-0.72196 l 15.5695,-1.85824 c 0.55604,-0.0663 1.04153,0.0637 1.4565,0.39014 0.41493,0.32647 0.65558,0.76773 0.72197,1.32376 0.0663,0.55608 -0.0637,1.04158 -0.39014,1.4565 -0.32648,0.41497 -0.76774,0.65562 -1.32377,0.72197 l -5.83856,0.69684"
         id="path5991"
         inkscape:connector-curvature="0" />
      <path
         d="m 261.70482,507.11371 c 0.57853,-0.0114 1.21511,0.0786 1.90972,0.27021 0.69459,0.19163 1.33579,0.51499 1.9236,0.97008 0.60645,0.45476 1.11304,1.0515 1.51977,1.79024 0.4067,0.73877 0.62079,1.64937 0.64226,2.73181 l 0.23301,11.75769 c 0.0111,0.55989 -0.1663,1.03017 -0.53215,1.41082 -0.36588,0.38066 -0.82875,0.57654 -1.38862,0.58763 -0.55991,0.0111 -1.03019,-0.16629 -1.41083,-0.53215 -0.38067,-0.36586 -0.57655,-0.82874 -0.58763,-1.38863 l -0.1165,-5.87884 -11.75769,0.23301 0.1165,5.87885 c 0.0111,0.55989 -0.16629,1.03016 -0.53215,1.41082 -0.36586,0.38066 -0.82874,0.57653 -1.38863,0.58763 -0.55989,0.0111 -1.03016,-0.16629 -1.41082,-0.53215 -0.38066,-0.36586 -0.57653,-0.82874 -0.58763,-1.38863 l -0.23301,-11.75769 c -0.0115,-0.57854 0.0786,-1.21512 0.27021,-1.90973 0.19161,-0.69458 0.51497,-1.33578 0.97008,-1.9236 0.45473,-0.60644 1.05148,-1.11303 1.79023,-1.51977 0.73875,-0.4067 1.64936,-0.62078 2.73182,-0.64226 l 7.83846,-0.15534 0,0 m 2.11495,7.79963 -0.0388,-1.95962 c -0.008,-0.39191 -0.0794,-0.70788 -0.21483,-0.94793 -0.11717,-0.25905 -0.27987,-0.4612 -0.48811,-0.60645 -0.1896,-0.14559 -0.40626,-0.24398 -0.64997,-0.29518 -0.22508,-0.0515 -0.44026,-0.0753 -0.64554,-0.0712 l -7.83846,0.15534 c -0.39193,0.008 -0.71724,0.0796 -0.97593,0.21538 -0.2404,0.11681 -0.43322,0.27933 -0.57845,0.48756 -0.14561,0.18961 -0.244,0.40626 -0.29518,0.64998 -0.0515,0.22508 -0.0753,0.44026 -0.0712,0.64554 l 0.0388,1.95961 11.75769,-0.23301"
         id="path5993"
         inkscape:connector-curvature="0" />
      <path
         d="m 306.33,515.1763 -2.09782,11.57137 5.78569,1.04891 c 0.551,0.0999 0.97688,0.36682 1.27765,0.80076 0.30073,0.43394 0.40115,0.92642 0.30128,1.47744 -0.0999,0.55102 -0.36684,0.9769 -0.80076,1.27765 -0.43396,0.30074 -0.92644,0.40117 -1.47744,0.30128 l -15.4285,-2.79709 c -0.55102,-0.0999 -0.97691,-0.36682 -1.27765,-0.80076 -0.30075,-0.43394 -0.40118,-0.92642 -0.30128,-1.47744 0.0999,-0.55102 0.36681,-0.9769 0.80076,-1.27765 0.43394,-0.30074 0.92642,-0.40117 1.47744,-0.30128 l 5.78569,1.04891 2.09781,-11.57138 -5.78568,-1.0489 c -0.55103,-0.0999 -0.97691,-0.3668 -1.27765,-0.80076 -0.30076,-0.43393 -0.40118,-0.92641 -0.30128,-1.47744 0.0999,-0.551 0.36681,-0.97689 0.80076,-1.27765 0.43393,-0.30073 0.92641,-0.40116 1.47744,-0.30128 l 15.4285,2.79709 c 0.551,0.0999 0.97688,0.36683 1.27765,0.80076 0.30072,0.43396 0.40115,0.92644 0.30128,1.47744 -0.0999,0.55103 -0.36684,0.97691 -0.80076,1.27765 -0.43397,0.30076 -0.92645,0.40118 -1.47744,0.30128 L 306.33,515.1763"
         id="path5995"
         inkscape:connector-curvature="0" />
      <path
         d="m 335.78291,518.53364 c 0.53829,0.15436 0.93543,0.46242 1.19143,0.92417 0.25595,0.46179 0.30677,0.96183 0.15245,1.50012 l -4.32167,15.07268 c -0.10807,0.37681 -0.31605,0.69584 -0.62396,0.9571 -0.29001,0.26638 -0.64399,0.41733 -1.06195,0.45285 -0.40005,0.0406 -0.77818,-0.0289 -1.1344,-0.20875 -0.33831,-0.17467 -0.59191,-0.44157 -0.76078,-0.8007 l -8.46642,-15.27304 -3.02517,10.55087 c -0.15435,0.53831 -0.46241,0.93545 -0.92417,1.19143 -0.46178,0.25598 -0.96182,0.30679 -1.50012,0.15245 -0.53832,-0.15435 -0.93546,-0.46241 -1.19143,-0.92418 -0.25598,-0.46177 -0.3068,-0.9618 -0.15245,-1.50012 l 4.32167,-15.07267 c 0.10804,-0.3768 0.30705,-0.69841 0.59704,-0.96482 0.30793,-0.26123 0.67088,-0.4096 1.08886,-0.44513 0.40003,-0.0406 0.76919,0.0264 1.10749,0.20103 0.35623,0.17983 0.6188,0.4493 0.7877,0.80841 l 8.46642,15.27305 3.02517,-10.55087 c 0.15432,-0.5383 0.46238,-0.93544 0.92417,-1.19143 0.46175,-0.25597 0.96179,-0.30678 1.50012,-0.15245"
         id="path5997"
         inkscape:connector-curvature="0" />
      <path
         d="m 345.64117,526.24531 c -0.36423,-0.14494 -0.6919,-0.20504 -0.98302,-0.18028 -0.26689,0.0143 -0.50767,0.0893 -0.72234,0.22483 -0.20778,0.11822 -0.38255,0.27971 -0.5243,0.48446 -0.13488,0.18742 -0.24027,0.37652 -0.31619,0.56729 l -2.8991,7.28428 c -0.14496,0.36422 -0.21373,0.68844 -0.20629,0.97266 0.0317,0.27379 0.1066,0.51457 0.22482,0.72234 0.13555,0.21468 0.29704,0.38945 0.48446,0.52431 0.20475,0.14177 0.40252,0.25061 0.59331,0.32654 l 10.92643,4.34865 c 0.52028,0.20707 0.88485,0.55307 1.09368,1.038 0.2088,0.48492 0.20967,0.98753 0.003,1.50784 -0.20709,0.5203 -0.55309,0.88487 -1.038,1.09369 -0.48494,0.20881 -0.98755,0.20968 -1.50784,0.003 l -10.92643,-4.34865 c -0.555,-0.22088 -1.11539,-0.55441 -1.68116,-1.00059 -0.54845,-0.43927 -1.01388,-0.98614 -1.3963,-1.64061 -0.36509,-0.64757 -0.59169,-1.3907 -0.6798,-2.2294 -0.0881,-0.8387 0.068,-1.76101 0.46837,-2.76694 l 2.8991,-7.28428 c 0.21397,-0.53764 0.54405,-1.08935 0.99023,-1.65515 0.44617,-0.56577 0.99304,-1.0312 1.64062,-1.3963 0.65446,-0.38241 1.40105,-0.61768 2.23975,-0.70581 0.83869,-0.0881 1.761,0.068 2.76693,0.46837 l 10.92643,4.34864 c 0.52029,0.20709 0.88485,0.55309 1.09369,1.03801 0.20879,0.48493 0.20966,0.98754 0.003,1.50784 -0.2071,0.52032 -0.5531,0.88488 -1.038,1.09369 -0.48495,0.20882 -0.98756,0.20969 -1.50784,0.003 l -10.92643,-4.34865 0,0"
         id="path5999"
         inkscape:connector-curvature="0" />
      <path
         d="m 375.81276,535.71318 c 0.51396,0.26585 1.03052,0.64861 1.54968,1.14828 0.51912,0.49969 0.92848,1.0897 1.22811,1.77004 0.31615,0.68893 0.47682,1.45504 0.48201,2.29833 0.005,0.8433 -0.24097,1.74577 -0.73833,2.70742 l -3.60173,6.96371 c -0.27444,0.53056 -0.66148,1.05541 -1.16114,1.57455 -0.49112,0.50256 -1.08114,0.91192 -1.77004,1.22811 -0.68037,0.29959 -1.44219,0.45197 -2.28547,0.45714 -0.84331,0.005 -1.74578,-0.24095 -2.70742,-0.73833 l -6.9637,-3.60173 c -0.53058,-0.27442 -1.05543,-0.66147 -1.57456,-1.16114 -0.50256,-0.49111 -0.91193,-1.08112 -1.22811,-1.77004 -0.2996,-0.68035 -0.45198,-1.44217 -0.45714,-2.28547 -0.005,-0.84329 0.24094,-1.74576 0.73833,-2.70742 l 3.60173,-6.9637 c 0.26583,-0.51398 0.64859,-1.03054 1.14828,-1.54969 0.49967,-0.51913 1.08968,-0.92849 1.77004,-1.22811 0.68891,-0.31616 1.45502,-0.47683 2.29833,-0.48201 0.84328,-0.005 1.74576,0.24096 2.70742,0.73833 l 6.96371,3.60173 0,0 m -0.96038,6.12321 c 0.18007,-0.34818 0.26782,-0.66006 0.26326,-0.93564 0.0206,-0.28357 -0.026,-0.53884 -0.1398,-0.76582 -0.0972,-0.21839 -0.24073,-0.4082 -0.43052,-0.56943 -0.17326,-0.15264 -0.35107,-0.27613 -0.53343,-0.37047 l -6.9637,-3.60173 c -0.3482,-0.18008 -0.66837,-0.27212 -0.96051,-0.27612 -0.26701,-0.012 -0.51399,0.0389 -0.74095,0.15266 -0.21841,0.0972 -0.40822,0.24072 -0.56943,0.43052 -0.15266,0.17325 -0.27615,0.35106 -0.37047,0.53343 l -3.60173,6.9637 c -0.18009,0.34819 -0.28043,0.66407 -0.30099,0.94765 0.005,0.27557 0.0555,0.52255 0.15266,0.74095 0.0972,0.2184 0.23241,0.40392 0.40565,0.55657 0.18981,0.16122 0.3842,0.29329 0.58317,0.39619 l 6.9637,3.60173 c 0.34817,0.18009 0.65576,0.27613 0.92278,0.28813 0.29213,0.004 0.54741,-0.0426 0.76582,-0.1398 0.22696,-0.11378 0.41677,-0.25729 0.56943,-0.43052 0.16121,-0.18982 0.28898,-0.37592 0.38333,-0.5583 l 3.60173,-6.9637"
         id="path6001"
         inkscape:connector-curvature="0" />
      <path
         d="m 387.42576,546.98553 c -0.17233,-0.11165 -0.37554,-0.20997 -0.60962,-0.29496 -0.21845,-0.0748 -0.45443,-0.10539 -0.70795,-0.0917 -0.23787,0.0238 -0.48269,0.10984 -0.73445,0.25808 -0.22597,0.14275 -0.44554,0.3786 -0.65871,0.70756 l -4.26358,6.57932 c -0.11167,0.17231 -0.20999,0.37552 -0.29496,0.60962 -0.0748,0.21844 -0.10541,0.45442 -0.0918,0.70794 0.0238,0.23786 0.102,0.47761 0.23459,0.71923 0.1584,0.23611 0.40208,0.46075 0.73106,0.67393 l 6.57932,4.26359 c 0.1723,0.11166 0.36767,0.2049 0.58612,0.27973 0.23409,0.085 0.47007,0.11555 0.70794,0.0918 0.25351,-0.0137 0.49326,-0.0919 0.71923,-0.23459 0.25176,-0.14826 0.48424,-0.38687 0.69743,-0.71583 l 1.0659,-1.64483 -4.93449,-3.19769 c -0.46997,-0.30454 -0.76008,-0.71497 -0.87034,-1.2313 -0.11029,-0.51633 -0.0131,-1.00947 0.2914,-1.47942 0.30453,-0.46995 0.71497,-0.76006 1.23131,-0.87034 0.51631,-0.11027 1.00945,-0.0131 1.47942,0.2914 l 6.57932,4.26359 c 0.46993,0.30454 0.76004,0.71497 0.87034,1.2313 0.11025,0.51633 0.0131,1.00947 -0.29141,1.47942 l -2.13179,3.28966 c -0.5888,0.90857 -1.2507,1.56957 -1.9857,1.983 -0.73504,0.41341 -1.48008,0.65351 -2.23513,0.7203 -0.73942,0.0769 -1.45476,0.0138 -2.14601,-0.18953 -0.69129,-0.20329 -1.27973,-0.46228 -1.76534,-0.77696 l -6.57932,-4.26359 c -0.90857,-0.58878 -1.56957,-1.25068 -1.98299,-1.9857 -0.41343,-0.73502 -0.6586,-1.47223 -0.73553,-2.21163 -0.0668,-0.75507 -0.004,-1.47041 0.18953,-2.14601 0.20328,-0.69127 0.46734,-1.28755 0.79219,-1.78883 l 4.26358,-6.57933 c 0.58878,-0.90856 1.25068,-1.56955 1.98571,-1.98299 0.73501,-0.41341 1.47222,-0.65859 2.21163,-0.73553 0.75505,-0.0668 1.47039,-0.004 2.14601,0.18953 0.69126,0.2033 1.28753,0.46736 1.78883,0.79219 l 9.86898,6.39538 c 0.46993,0.30454 0.76004,0.71498 0.87034,1.2313 0.11025,0.51634 0.0131,1.00947 -0.2914,1.47942 -0.30457,0.46996 -0.71501,0.76007 -1.23131,0.87034 -0.51635,0.11027 -1.00949,0.0131 -1.47942,-0.2914 l -9.86898,-6.39538 0,0"
         id="path6003"
         inkscape:connector-curvature="0" />
      <path
         d="m 418.24186,564.5992 c 0.4376,0.3494 0.68583,0.78645 0.74468,1.31113 0.0588,0.52469 -0.0865,1.00584 -0.43586,1.44348 l -9.7831,12.2537 c -0.2446,0.30633 -0.55923,0.52091 -0.94391,0.64374 -0.37011,0.13446 -0.75492,0.13776 -1.15442,0.01 -0.38494,-0.11624 -0.70729,-0.32582 -0.96703,-0.62873 -0.24518,-0.2913 -0.37671,-0.63517 -0.39458,-1.03161 l -1.94559,-17.35399 -6.84818,8.57759 c -0.3494,0.43763 -0.78644,0.68586 -1.31112,0.74469 -0.52469,0.0588 -1.00585,-0.0865 -1.44348,-0.43586 -0.43763,-0.3494 -0.68586,-0.78644 -0.74468,-1.31112 -0.0588,-0.52469 0.0865,-1.00585 0.43586,-1.44348 l 9.7831,-12.25371 c 0.24457,-0.30632 0.55191,-0.52673 0.92202,-0.66121 0.38468,-0.12281 0.77678,-0.12028 1.17631,0.008 0.38492,0.11624 0.69996,0.32 0.94515,0.61127 0.25974,0.30294 0.39856,0.65263 0.41646,1.04908 l 1.94559,17.35398 6.84818,-8.57759 c 0.34937,-0.43763 0.78641,-0.68586 1.31112,-0.74468 0.52466,-0.0588 1.00582,0.0865 1.44348,0.43585"
         id="path6005"
         inkscape:connector-curvature="0" />
      <path
         d="m 428.58881,579.61442 -8.21515,8.4148 4.20741,4.10757 c 0.40068,0.39119 0.60421,0.85076 0.61056,1.3787 0.006,0.52793 -0.18611,0.99224 -0.57729,1.39296 -0.39121,0.40069 -0.85078,0.60422 -1.3787,0.61057 -0.52795,0.006 -0.99227,-0.18611 -1.39296,-0.57729 L 410.62294,583.9882 c -0.4007,-0.3912 -0.60422,-0.85077 -0.61056,-1.3787 -0.006,-0.52794 0.18609,-0.99226 0.57729,-1.39296 0.39119,-0.40071 0.85076,-0.60423 1.3787,-0.61057 0.52793,-0.006 0.99225,0.18609 1.39296,0.57729 l 4.2074,4.10758 8.21515,-8.41481 -4.2074,-4.10757 c -0.40072,-0.39119 -0.60424,-0.85076 -0.61057,-1.3787 -0.006,-0.52793 0.18608,-0.99225 0.57729,-1.39296 0.39119,-0.40069 0.85075,-0.60422 1.3787,-0.61057 0.52792,-0.006 0.99224,0.18611 1.39296,0.57729 l 11.21974,10.95354 c 0.40068,0.39119 0.6042,0.85076 0.61056,1.37869 0.006,0.52794 -0.18612,0.99226 -0.57729,1.39296 -0.39122,0.40071 -0.85079,0.60423 -1.37869,0.61057 -0.52797,0.006 -0.99228,-0.18609 -1.39296,-0.57729 l -4.20741,-4.10757"
         id="path6007"
         inkscape:connector-curvature="0" />
      <path
         d="m 451.10555,598.84664 c 0.36042,0.42858 0.51793,0.90587 0.47254,1.43189 -0.0454,0.52601 -0.28245,0.96924 -0.711,1.32969 -0.4286,0.36044 -0.9059,0.51796 -1.43189,0.47254 -0.52604,-0.0454 -0.96927,-0.28242 -1.32969,-0.711 l -3.78469,-4.50006 -10.50014,8.83094 c -0.42859,0.36043 -0.90588,0.51795 -1.43189,0.47253 -0.52602,-0.0454 -0.96925,-0.28242 -1.32969,-0.71099 -0.36046,-0.42859 -0.51797,-0.90588 -0.47254,-1.43189 0.0454,-0.52602 0.28241,-0.96926 0.711,-1.3297 l 10.50014,-8.83093 -3.78469,-4.50006 c -0.36046,-0.42857 -0.51797,-0.90587 -0.47253,-1.43189 0.0454,-0.52601 0.2824,-0.96924 0.71099,-1.32969 0.42857,-0.36044 0.90586,-0.51795 1.43189,-0.47254 0.526,0.0454 0.96923,0.28243 1.3297,0.711 l 10.09249,12.00016 0,0"
         id="path6009"
         inkscape:connector-curvature="0" />
      <path
         d="m 462.16437,614.37053 c 0.32733,0.47717 0.6017,1.0586 0.82312,1.74429 0.22137,0.68568 0.30334,1.39911 0.2459,2.14028 -0.0469,0.75656 -0.26735,1.50766 -0.66127,2.2533 -0.39398,0.74563 -1.03734,1.42469 -1.93009,2.03717 l -9.69738,6.6527 c -0.46179,0.31678 -0.95221,0.42685 -1.47125,0.33021 -0.51906,-0.0967 -0.93698,-0.37589 -1.25376,-0.83766 -0.31681,-0.46179 -0.42688,-0.95221 -0.33021,-1.47124 0.0966,-0.51907 0.37586,-0.93699 0.83765,-1.25377 l 4.84869,-3.32635 -6.6527,-9.69738 -4.84869,3.32635 c -0.46178,0.31679 -0.9522,0.42686 -1.47124,0.33021 -0.51906,-0.0967 -0.93698,-0.37588 -1.25377,-0.83766 -0.3168,-0.46178 -0.42687,-0.9522 -0.33021,-1.47124 0.0967,-0.51905 0.37587,-0.93698 0.83766,-1.25377 l 9.69738,-6.6527 c 0.47716,-0.32735 1.05858,-0.60172 1.74428,-0.82313 0.68568,-0.22138 1.3991,-0.30335 2.14029,-0.2459 0.75654,0.0469 1.50764,0.26734 2.2533,0.66128 0.74562,0.39396 1.42467,1.03732 2.03717,1.93009 l 4.43513,6.46492 0,0 m -5.35614,6.05136 1.61623,-1.10878 c 0.32323,-0.22176 0.54794,-0.45516 0.67415,-0.70018 0.15212,-0.2402 0.23168,-0.48719 0.23868,-0.74098 0.0175,-0.23841 -0.0193,-0.47351 -0.11033,-0.70529 -0.0806,-0.21639 -0.17891,-0.40925 -0.29505,-0.57857 l -4.43513,-6.46492 c -0.22178,-0.32324 -0.46045,-0.55565 -0.71602,-0.69723 -0.22965,-0.13674 -0.47137,-0.20861 -0.72515,-0.2156 -0.23842,-0.0175 -0.47351,0.0192 -0.70528,0.11034 -0.21641,0.0805 -0.40926,0.17889 -0.57857,0.29505 l -1.61623,1.10878 6.6527,9.69738"
         id="path6011"
         inkscape:connector-curvature="0" />
    </g>
    <g
       style="font-size:28px;font-style:normal;font-variant:normal;font-weight:normal;font-stretch:normal;text-align:start;line-height:125%;letter-spacing:0px;word-spacing:0px;writing-mode:lr-tb;text-anchor:start;fill:#acacac;fill-opacity:1;stroke:none;font-family:Mishmash BRK;-inkscape-font-specification:Mishmash BRK"
       id="text4915-3"
       transform="translate(0,-180)">
      <path
         d="m 185.47004,952.53763 c 0.517,0.21516 0.87614,0.56679 1.07741,1.05489 0.20123,0.48812 0.19428,0.99069 -0.0208,1.5077 -0.21517,0.51703 -0.56679,0.87617 -1.05488,1.07741 -0.48814,0.20126 -0.9907,0.19432 -1.5077,-0.0208 l -5.42874,-2.25902 -5.27105,12.66707 c -0.21516,0.51702 -0.56679,0.87615 -1.05489,1.07741 -0.48812,0.20125 -0.99069,0.1943 -1.5077,-0.0208 -0.51703,-0.21515 -0.87617,-0.56678 -1.07741,-1.05489 -0.20126,-0.48811 -0.19431,-0.99068 0.0208,-1.5077 l 5.27105,-12.66706 -5.42874,-2.25902 c -0.51704,-0.21513 -0.87617,-0.56676 -1.07742,-1.05488 -0.20126,-0.4881 -0.19431,-0.99067 0.0208,-1.50771 0.21514,-0.517 0.56677,-0.87614 1.05489,-1.07741 0.4881,-0.20123 0.99067,-0.19429 1.5077,0.0208 l 14.47664,6.02405 0,0"
         id="path6014"
         inkscape:connector-curvature="0" />
      <path
         d="m 194.80913,959.81221 c -0.37555,-0.11239 -0.70724,-0.14347 -0.99505,-0.0932 -0.2646,0.0377 -0.49787,0.13353 -0.6998,0.28741 -0.1966,0.13602 -0.3565,0.31224 -0.47972,0.52864 -0.11789,0.19855 -0.20627,0.39618 -0.26513,0.59288 l -0.562,1.8777 5.6331,1.686 c 0.53647,0.16057 0.93001,0.47321 1.18064,0.93791 0.25059,0.46471 0.29561,0.96531 0.13506,1.50179 -0.16059,0.53649 -0.47323,0.93003 -0.93792,1.18064 -0.46472,0.25061 -0.96531,0.29563 -1.50178,0.13505 l -5.6331,-1.686 -0.562,1.8777 c -0.11241,0.37555 -0.15243,0.70455 -0.12006,0.98703 0.0556,0.26994 0.1514,0.50321 0.28741,0.69979 0.15389,0.20194 0.3301,0.36185 0.52865,0.47973 0.21641,0.12323 0.42298,0.21428 0.6197,0.27315 l 7.51079,2.248 c 0.37553,0.1124 0.69559,0.14975 0.9602,0.11203 0.28781,-0.0503 0.53002,-0.14338 0.72662,-0.27938 0.20192,-0.1539 0.36183,-0.33011 0.47973,-0.52865 0.12321,-0.21642 0.21426,-0.42298 0.27315,-0.6197 0.16056,-0.53648 0.4732,-0.93003 0.93792,-1.18064 0.46468,-0.25061 0.96528,-0.29562 1.50178,-0.13506 0.53647,0.16058 0.93002,0.47322 1.18065,0.93792 0.25058,0.4647 0.2956,0.9653 0.13505,1.50178 -0.17129,0.57226 -0.45431,1.15977 -0.84904,1.76257 -0.38941,0.5849 -0.89328,1.09657 -1.51161,1.53502 -0.61302,0.42055 -1.33337,0.71155 -2.16107,0.873 -0.82773,0.16144 -1.76019,0.087 -2.79738,-0.22349 l -7.51079,-2.248 c -0.57226,-0.17127 -1.15978,-0.45429 -1.76257,-0.84904 -0.58491,-0.38939 -1.09658,-0.89327 -1.53502,-1.51161 -0.42056,-0.613 -0.71156,-1.33335 -0.873,-2.16107 -0.16145,-0.82771 -0.087,-1.76017 0.22349,-2.79738 l 2.248,-7.51079 c 0.16592,-0.55436 0.44625,-1.13294 0.84101,-1.73574 0.39474,-0.60278 0.89861,-1.11445 1.51161,-1.53502 0.61834,-0.43843 1.34137,-0.73837 2.1691,-0.89983 0.8277,-0.16143 1.76016,-0.0869 2.79738,0.22349 l 7.51079,2.248 c 0.55435,0.16594 1.13293,0.44627 1.73574,0.84101 0.60277,0.39476 1.11444,0.89863 1.53502,1.51161 0.43842,0.61836 0.73837,1.34139 0.89983,2.1691 0.16142,0.82772 0.0869,1.76018 -0.22349,2.79738 -0.16059,0.53649 -0.47323,0.93004 -0.93791,1.18064 -0.46473,0.25061 -0.96532,0.29563 -1.50179,0.13506 -0.5365,-0.16057 -0.93005,-0.47321 -1.18064,-0.93792 -0.25063,-0.4647 -0.29565,-0.96529 -0.13506,-1.50178 0.11238,-0.37554 0.14078,-0.69828 0.0852,-0.96823 -0.0324,-0.28246 -0.12552,-0.52467 -0.27939,-0.72662 -0.13603,-0.19658 -0.31224,-0.35648 -0.52864,-0.47972 -0.19856,-0.11787 -0.39618,-0.20625 -0.59288,-0.26513 l -7.51079,-2.248 0,0"
         id="path6016"
         inkscape:connector-curvature="0" />
      <path
         d="m 217.22803,965.68688 c -0.38522,-0.0726 -0.71833,-0.069 -0.99934,0.011 -0.25923,0.0651 -0.48124,0.18471 -0.66603,0.3588 -0.18134,0.15577 -0.32201,0.34769 -0.422,0.57577 -0.0966,0.20975 -0.16384,0.41551 -0.20188,0.61728 l -1.45281,7.70421 c -0.0727,0.38522 -0.0782,0.7166 -0.0165,0.99416 0.0834,0.26268 0.20302,0.48469 0.35879,0.66602 0.1741,0.1848 0.36602,0.32547 0.57577,0.42201 0.22808,0.1 0.44301,0.16902 0.6448,0.20707 l 7.70421,1.45281 c 0.3852,0.0726 0.70741,0.0764 0.96665,0.0113 0.281,-0.08 0.51218,-0.19784 0.69354,-0.3536 0.18478,-0.17411 0.32544,-0.36603 0.422,-0.57578 0.1,-0.22808 0.169,-0.44301 0.20707,-0.64479 0.10376,-0.5503 0.37367,-0.97429 0.80973,-1.27198 0.43603,-0.29768 0.92921,-0.39464 1.47953,-0.29087 0.55028,0.10377 0.97427,0.37368 1.27198,0.80973 0.29766,0.43605 0.39462,0.92922 0.29087,1.47952 -0.11071,0.58699 -0.33094,1.20081 -0.66068,1.84147 -0.32632,0.62231 -0.77411,1.18372 -1.34337,1.68423 -0.56583,0.48217 -1.25193,0.84667 -2.05828,1.09352 -0.8064,0.24685 -1.74154,0.26996 -2.80544,0.0693 l -7.70422,-1.45281 c -0.58699,-0.11069 -1.20081,-0.33092 -1.84146,-0.66068 -0.62232,-0.32631 -1.18373,-0.77409 -1.68423,-1.34337 -0.48218,-0.56581 -0.84668,-1.25191 -1.09353,-2.05828 -0.24685,-0.80638 -0.26996,-1.74152 -0.0693,-2.80544 l 1.45281,-7.70422 c 0.10723,-0.56863 0.32572,-1.17328 0.65549,-1.81395 0.32976,-0.64064 0.77755,-1.20205 1.34337,-1.68423 0.56926,-0.50049 1.25709,-0.87417 2.06347,-1.12104 0.80637,-0.24683 1.74151,-0.26994 2.80544,-0.0693 l 7.70421,1.45281 c 0.56863,0.10725 1.17328,0.32574 1.81395,0.65549 0.64064,0.32978 1.20205,0.77757 1.68424,1.34337 0.50049,0.56928 0.87417,1.25711 1.12104,2.06347 0.24682,0.80639 0.26993,1.74153 0.0693,2.80544 -0.1038,0.55031 -0.37371,0.9743 -0.80973,1.27198 -0.43607,0.29769 -0.92925,0.39465 -1.47953,0.29087 -0.55032,-0.10377 -0.97431,-0.37368 -1.27198,-0.80973 -0.2977,-0.43604 -0.39466,-0.92922 -0.29087,-1.47953 0.0726,-0.3852 0.0672,-0.70914 -0.0162,-0.97183 -0.0617,-0.27755 -0.17952,-0.50873 -0.35361,-0.69354 -0.15578,-0.18132 -0.3477,-0.32199 -0.57577,-0.422 -0.20976,-0.0965 -0.41552,-0.16382 -0.61728,-0.20188 l -7.70422,-1.45281 0,0"
         id="path6018"
         inkscape:connector-curvature="0" />
      <path
         d="m 252.1751,966.242 c 0.55811,0.0457 1.00798,0.26988 1.34961,0.67243 0.34158,0.40258 0.48952,0.88293 0.44383,1.44104 l -1.28017,15.62766 c -0.0457,0.55813 -0.26989,1.008 -0.67243,1.3496 -0.40259,0.34161 -0.88294,0.48955 -1.44105,0.44383 -0.55815,-0.0457 -1.00802,-0.26986 -1.34961,-0.67243 -0.34162,-0.40257 -0.48956,-0.88291 -0.44383,-1.44104 l 0.48007,-5.86037 -11.72074,-0.96013 -0.48007,5.86037 c -0.0457,0.55813 -0.26987,1.008 -0.67243,1.34961 -0.40257,0.3416 -0.88292,0.48955 -1.44104,0.44383 -0.55814,-0.0457 -1.00801,-0.26987 -1.34961,-0.67244 -0.34161,-0.40256 -0.48955,-0.88291 -0.44383,-1.44104 l 1.28017,-15.62766 c 0.0457,-0.55811 0.26986,-1.00798 0.67243,-1.3496 0.40256,-0.34159 0.88291,-0.48953 1.44105,-0.44383 0.55812,0.0457 1.00799,0.26988 1.3496,0.67243 0.3416,0.40258 0.48954,0.88293 0.44383,1.44105 l -0.48006,5.86037 11.72074,0.96012 0.48006,-5.86037 c 0.0457,-0.55811 0.26985,-1.00798 0.67243,-1.3496 0.40255,-0.34159 0.8829,-0.48954 1.44105,-0.44383"
         id="path6020"
         inkscape:connector-curvature="0" />
      <path
         d="m 269.16337,970.14645 0.26663,11.75698 5.87848,-0.13331 c 0.55984,-0.0127 1.03062,0.16334 1.41234,0.52811 0.38168,0.36478 0.57888,0.82709 0.5916,1.38695 0.0127,0.55986 -0.16336,1.03063 -0.52812,1.41233 -0.36479,0.38171 -0.8271,0.57891 -1.38694,0.5916 l -15.67597,0.3555 c -0.55986,0.0127 -1.03064,-0.16334 -1.41234,-0.52811 -0.3817,-0.36478 -0.5789,-0.82709 -0.59159,-1.38695 -0.0127,-0.55985 0.16334,-1.03063 0.52811,-1.41233 0.36477,-0.3817 0.82709,-0.5789 1.38694,-0.5916 l 5.87849,-0.13331 -0.26662,-11.75698 -5.87849,0.13331 c -0.55986,0.0127 -1.03064,-0.16332 -1.41234,-0.52811 -0.3817,-0.36476 -0.5789,-0.82707 -0.59159,-1.38695 -0.0127,-0.55984 0.16334,-1.03061 0.52811,-1.41233 0.36477,-0.38169 0.82709,-0.57889 1.38695,-0.5916 l 15.67596,-0.3555 c 0.55984,-0.0127 1.03062,0.16336 1.41234,0.52811 0.38168,0.3648 0.57888,0.82711 0.5916,1.38695 0.0127,0.55987 -0.16336,1.03065 -0.52812,1.41233 -0.36479,0.38172 -0.8271,0.57892 -1.38694,0.5916 l -5.87849,0.13331"
         id="path6022"
         inkscape:connector-curvature="0" />
      <path
         d="m 293.71251,964.07591 c 0.57402,-0.0731 1.21657,-0.0514 1.92765,0.0651 0.71106,0.11648 1.38308,0.36964 2.01606,0.75946 0.65148,0.38751 1.2188,0.92685 1.70198,1.61801 0.48314,0.6912 0.79309,1.57378 0.92985,2.64776 l 1.48523,11.66584 c 0.0707,0.55552 -0.0555,1.04202 -0.3787,1.45951 -0.32321,0.4175 -0.76257,0.66161 -1.31806,0.73233 -0.55554,0.0707 -1.04204,-0.0555 -1.45952,-0.3787 -0.41751,-0.32319 -0.66162,-0.76254 -0.73233,-1.31806 l -1.48523,-11.66584 c -0.0495,-0.38884 -0.15441,-0.69538 -0.31467,-0.91962 -0.14412,-0.24508 -0.32745,-0.42873 -0.54998,-0.55095 -0.20405,-0.12455 -0.42996,-0.19928 -0.67775,-0.2242 -0.22929,-0.0272 -0.44577,-0.0279 -0.64945,-0.002 l -7.77722,0.99015 c -0.38887,0.0495 -0.70467,0.1556 -0.9474,0.3182 -0.22658,0.14177 -0.40097,0.32392 -0.52318,0.54645 -0.12456,0.20405 -0.19929,0.42997 -0.22419,0.67775 -0.0273,0.22929 -0.0279,0.44577 -0.002,0.64945 l 1.48524,11.66583 c 0.0707,0.55552 -0.0555,1.04203 -0.3787,1.45952 -0.3232,0.41749 -0.76255,0.6616 -1.31807,0.73233 -0.55552,0.0707 -1.04202,-0.0555 -1.45951,-0.3787 -0.4175,-0.3232 -0.66161,-0.76255 -0.73233,-1.31807 l -1.48524,-11.66583 c -0.0731,-0.57402 -0.0514,-1.21657 0.0651,-1.92765 0.11646,-0.71106 0.36961,-1.38308 0.75946,-2.01606 0.38749,-0.65147 0.92682,-1.2188 1.618,-1.70198 0.69118,-0.48314 1.57377,-0.79309 2.64777,-0.92985 l 7.77722,-0.99015 0,0"
         id="path6024"
         inkscape:connector-curvature="0" />
      <path
         d="m 309.32069,965.23732 c -0.38167,0.0895 -0.68481,0.22758 -0.90944,0.4144 -0.21072,0.16443 -0.36536,0.36362 -0.46391,0.59759 -0.10281,0.21583 -0.1538,0.44826 -0.15296,0.69729 -0.003,0.23088 0.0183,0.44627 0.0651,0.64618 l 1.78855,7.63326 c 0.0894,0.38167 0.21847,0.68694 0.38714,0.91583 0.18258,0.20646 0.38178,0.3611 0.59759,0.4639 0.23399,0.0986 0.46641,0.14955 0.69729,0.15296 0.24903,-8.3e-4 0.47351,-0.0247 0.67344,-0.0715 l 7.63326,-1.78856 c 0.38165,-0.0894 0.67784,-0.21633 0.88857,-0.38075 0.22462,-0.18683 0.38834,-0.38816 0.49116,-0.60398 0.0985,-0.23397 0.14953,-0.4664 0.15296,-0.69728 -8.5e-4,-0.24903 -0.0247,-0.47351 -0.0715,-0.67344 -0.12777,-0.54522 -0.0525,-1.04217 0.22585,-1.49084 0.2783,-0.44864 0.69008,-0.73685 1.23533,-0.86462 0.54522,-0.12774 1.04216,-0.0525 1.49084,0.22585 0.44864,0.27833 0.73684,0.69011 0.86461,1.23533 0.13626,0.58159 0.18321,1.23203 0.14088,1.95132 -0.0466,0.70113 -0.22899,1.39571 -0.54706,2.08375 -0.32236,0.66987 -0.80231,1.28081 -1.43984,1.8328 -0.63757,0.55201 -1.4834,0.95151 -2.5375,1.19849 l -7.63326,1.78856 c -0.58159,0.13627 -1.23203,0.18323 -1.95132,0.14088 -0.70113,-0.0466 -1.39571,-0.22897 -2.08375,-0.54706 -0.66987,-0.32235 -1.28081,-0.80229 -1.83281,-1.43985 -0.552,-0.63754 -0.95149,-1.48337 -1.19849,-2.53749 l -1.78855,-7.63326 c -0.13202,-0.5634 -0.17684,-1.20475 -0.13449,-1.92406 0.0424,-0.71928 0.22471,-1.41386 0.54705,-2.08375 0.31809,-0.68803 0.79591,-1.30805 1.43346,-1.86007 0.63755,-0.55198 1.48338,-0.95148 2.5375,-1.19849 l 7.63326,-1.78856 c 0.5634,-0.13199 1.20475,-0.17682 1.92406,-0.13448 0.71928,0.0424 1.41386,0.22473 2.08375,0.54705 0.68803,0.31811 1.30805,0.79593 1.86007,1.43346 0.55198,0.63757 0.95148,1.4834 1.19849,2.5375 0.12773,0.54525 0.0525,1.04219 -0.22585,1.49084 -0.27834,0.44867 -0.69011,0.73688 -1.23533,0.86461 -0.54525,0.12777 -1.04219,0.0525 -1.49084,-0.22584 -0.44867,-0.27831 -0.73687,-0.69008 -0.86461,-1.23533 -0.0894,-0.38165 -0.22545,-0.67571 -0.40802,-0.88218 -0.16868,-0.22888 -0.37,-0.3926 -0.60398,-0.49117 -0.21582,-0.10279 -0.44825,-0.15378 -0.69728,-0.15296 -0.23088,-0.003 -0.44627,0.0183 -0.64618,0.0651 l -7.63326,1.78856 0,0"
         id="path6026"
         inkscape:connector-curvature="0" />
      <path
         d="m 331.93436,971.41041 c 0.53484,-0.16597 1.03586,-0.12601 1.50307,0.1199 0.46721,0.24591 0.7838,0.63628 0.94978,1.17112 0.16597,0.53484 0.126,1.03586 -0.1199,1.50307 -0.24592,0.46721 -0.63629,0.7838 -1.17113,0.94978 -0.53484,0.16597 -1.03586,0.12601 -1.50307,-0.1199 -0.46721,-0.24591 -0.7838,-0.63629 -0.94977,-1.17113 -0.16598,-0.53483 -0.12601,-1.03586 0.1199,-1.50307 0.24591,-0.4672 0.63628,-0.78379 1.17112,-0.94977"
         id="path6028"
         inkscape:connector-curvature="0" />
      <path
         d="m 345.69489,949.85417 c 0.53917,-0.21009 1.16779,-0.34489 1.88589,-0.40438 0.71807,-0.0594 1.43143,0.0232 2.14006,0.24784 0.726,0.21794 1.40719,0.60358 2.04357,1.15693 0.63635,0.55338 1.1511,1.33445 1.54424,2.3432 l 4.27016,10.95734 c 0.20332,0.52179 0.19884,1.02438 -0.0134,1.50779 -0.21231,0.48342 -0.57934,0.82679 -1.1011,1.03013 -0.5218,0.20335 -1.02439,0.19887 -1.50779,-0.0134 -0.48343,-0.21228 -0.8268,-0.57932 -1.03013,-1.1011 l -4.27016,-10.95734 c -0.14235,-0.36523 -0.31845,-0.63718 -0.5283,-0.81586 -0.19926,-0.2028 -0.42166,-0.33651 -0.66719,-0.40111 -0.22816,-0.0713 -0.46545,-0.0891 -0.71188,-0.0531 -0.22906,0.0292 -0.43924,0.081 -0.63055,0.15558 l -7.30489,2.84677 c -0.36525,0.14236 -0.64589,0.32185 -0.84194,0.53847 -0.18544,0.19249 -0.31045,0.4115 -0.37503,0.65702 -0.0714,0.22817 -0.0891,0.46546 -0.0531,0.71188 0.0292,0.22906 0.081,0.43925 0.15558,0.63055 l 4.27016,10.95734 c 0.20334,0.52178 0.19886,1.02438 -0.0134,1.50779 -0.21229,0.48341 -0.57932,0.82679 -1.1011,1.03013 -0.52178,0.20334 -1.02438,0.19886 -1.50779,-0.0134 -0.48341,-0.21229 -0.82679,-0.57932 -1.03013,-1.1011 l -4.27016,-10.95734 c -0.21011,-0.53916 -0.34491,-1.16779 -0.40438,-1.88589 -0.0595,-0.71806 0.0232,-1.43142 0.24784,-2.14006 0.21792,-0.72599 0.60356,-1.40718 1.15693,-2.04357 0.55336,-0.63634 1.33443,-1.15109 2.3432,-1.54423 l 7.30489,-2.84678 0,0"
         id="path6030"
         inkscape:connector-curvature="0" />
      <path
         d="m 376.95889,952.27798 c 0.49801,-0.25607 0.99838,-0.30346 1.50113,-0.14218 0.50272,0.16131 0.88212,0.49097 1.13822,0.98898 0.25606,0.49803 0.30345,0.99841 0.14217,1.50113 -0.16131,0.50274 -0.49097,0.88214 -0.98898,1.13821 l -10.45843,5.37763 c -0.96284,0.49508 -1.8659,0.73903 -2.70918,0.73185 -0.84328,-0.007 -1.60474,-0.16137 -2.28436,-0.4626 -0.68817,-0.31782 -1.2772,-0.7286 -1.7671,-1.23233 -0.49844,-0.52032 -0.88423,-1.0461 -1.15738,-1.57733 l -5.37763,-10.45843 c -0.25607,-0.498 -0.30346,-0.99838 -0.14217,-1.50113 0.1613,-0.50271 0.49096,-0.88211 0.98897,-1.13821 0.49803,-0.25606 0.99841,-0.30345 1.50113,-0.14217 0.50274,0.16131 0.88214,0.49097 1.13822,0.98897 l 5.37762,10.45843 c 0.0939,0.18262 0.22123,0.36902 0.382,0.55921 0.15223,0.17361 0.34169,0.31757 0.5684,0.43189 0.21816,0.0977 0.46502,0.1492 0.74058,0.15443 0.28363,-0.0199 0.59974,-0.11947 0.94836,-0.29873 l 10.45843,-5.37762 0,0"
         id="path6032"
         inkscape:connector-curvature="0" />
    </g>
    <path
       sodipodi:type="arc"
       style="fill:none;stroke:none"
       id="path5149"
       sodipodi:cx="-425.67828"
       sodipodi:cy="438.62436"
       sodipodi:rx="230.51682"
       sodipodi:ry="230.51682"
       d="m -195.16147,438.62436 a 230.51682,230.51682 0 1 1 -461.03363,0 230.51682,230.51682 0 1 1 461.03363,0 z"
       transform="matrix(0.82246233,0.40806675,-0.40806675,0.82246233,791.41408,379.84514)" />
  </g>
</svg>
