<?xml version="1.0" encoding="UTF-8" standalone="no"?>
<!-- Created with Inkscape (http://www.inkscape.org/) -->

<svg
   xmlns:dc="http://purl.org/dc/elements/1.1/"
   xmlns:cc="http://creativecommons.org/ns#"
   xmlns:rdf="http://www.w3.org/1999/02/22-rdf-syntax-ns#"
   xmlns:svg="http://www.w3.org/2000/svg"
   xmlns="http://www.w3.org/2000/svg"
   xmlns:xlink="http://www.w3.org/1999/xlink"
   xmlns:sodipodi="http://sodipodi.sourceforge.net/DTD/sodipodi-0.dtd"
   xmlns:inkscape="http://www.inkscape.org/namespaces/inkscape"
   width="744.09448819"
   height="1052.3622047"
   id="svg2"
   version="1.1"
   inkscape:version="0.48.1 r9760"
   sodipodi:docname="techinc_studysmd13.svg">
  <defs
     id="defs4">
    <linearGradient
       id="linearGradient3834">
      <stop
         id="stop3836"
         offset="0"
         style="stop-color:#d18800;stop-opacity:1;" />
      <stop
         id="stop3838"
         offset="1"
         style="stop-color:#1a1200;stop-opacity:1;" />
    </linearGradient>
    <linearGradient
       id="linearGradient3803">
      <stop
         style="stop-color:#dfded4;stop-opacity:1;"
         offset="0"
         id="stop3805" />
      <stop
         style="stop-color:#b4aaa3;stop-opacity:1;"
         offset="1"
         id="stop3807" />
    </linearGradient>
    <clipPath
       clipPathUnits="userSpaceOnUse"
       id="clipPath4403">
      <path
         inkscape:connector-curvature="0"
         d="m 180,180 5580,0 0,7740 -5580,0 0,-7740 z"
         id="path4405" />
    </clipPath>
    <clipPath
       clipPathUnits="userSpaceOnUse"
       id="clipPath6692">
      <path
         inkscape:connector-curvature="0"
         d="m 180,180 5580,0 0,7740 -5580,0 0,-7740 z"
         id="path6694" />
    </clipPath>
    <clipPath
       clipPathUnits="userSpaceOnUse"
       id="clipPath3654">
      <path
         inkscape:connector-curvature="0"
         d="m 180,180 5580,0 0,7740 -5580,0 0,-7740 z"
         id="path3656-2" />
    </clipPath>
    <clipPath
       clipPathUnits="userSpaceOnUse"
       id="clipPath3654-7">
      <path
         inkscape:connector-curvature="0"
         d="m 180,180 5580,0 0,7740 -5580,0 0,-7740 z"
         id="path3656-7" />
    </clipPath>
    <radialGradient
       inkscape:collect="always"
       xlink:href="#linearGradient3803"
       id="radialGradient3809"
       cx="325.7341"
       cy="1205.9625"
       fx="325.7341"
       fy="1205.9625"
       r="84.539982"
       gradientTransform="matrix(1,0,0,0.99998156,0,0.02267732)"
       gradientUnits="userSpaceOnUse" />
    <radialGradient
       inkscape:collect="always"
       xlink:href="#linearGradient3803"
       id="radialGradient3821"
       gradientUnits="userSpaceOnUse"
       gradientTransform="matrix(1,0,0,0.99998156,0,-219.97732)"
       cx="325.7341"
       cy="1205.9625"
       fx="325.7341"
       fy="1205.9625"
       r="84.539982" />
    <radialGradient
       inkscape:collect="always"
       xlink:href="#linearGradient3834"
       id="radialGradient3902"
       cx="341.06003"
       cy="583.35675"
       fx="341.06003"
       fy="583.35675"
       r="84.539986"
       gradientTransform="matrix(1,0,0,1.000012,140,319.99261)"
       gradientUnits="userSpaceOnUse" />
    <radialGradient
       inkscape:collect="always"
       xlink:href="#linearGradient3834"
       id="radialGradient5590"
       gradientUnits="userSpaceOnUse"
       gradientTransform="matrix(1,0,0,0.99998156,-101.6741,-1596.2545)"
       cx="325.7341"
       cy="1205.9625"
       fx="325.7341"
       fy="1205.9625"
       r="84.539986" />
    <radialGradient
       inkscape:collect="always"
       xlink:href="#linearGradient3834"
       id="radialGradient5592"
       gradientUnits="userSpaceOnUse"
       gradientTransform="matrix(1,0,0,0.99998156,-101.6741,-1596.2545)"
       cx="325.7341"
       cy="1205.9625"
       fx="325.7341"
       fy="1205.9625"
       r="84.539986" />
    <radialGradient
       inkscape:collect="always"
       xlink:href="#linearGradient3834"
       id="radialGradient6783"
       gradientUnits="userSpaceOnUse"
       gradientTransform="matrix(1,0,0,0.99998156,-77.548734,-716.2545)"
       cx="325.7341"
       cy="1205.9625"
       fx="325.7341"
       fy="1205.9625"
       r="84.539986" />
    <radialGradient
       inkscape:collect="always"
       xlink:href="#linearGradient3834"
       id="radialGradient7069"
       gradientUnits="userSpaceOnUse"
       gradientTransform="matrix(1,0,0,0.99998156,-77.548734,-716.2545)"
       cx="325.7341"
       cy="1205.9625"
       fx="325.7341"
       fy="1205.9625"
       r="84.539986" />
    <radialGradient
       inkscape:collect="always"
       xlink:href="#linearGradient3834"
       id="radialGradient4186"
       gradientUnits="userSpaceOnUse"
       gradientTransform="matrix(2.7746509,0,0,2.7746015,-555.28812,-2853.576)"
       cx="330.28345"
       cy="1203.7321"
       fx="330.28345"
       fy="1203.7321"
       r="84.539986" />
  </defs>
  <sodipodi:namedview
     id="base"
     pagecolor="#ffffff"
     bordercolor="#666666"
     borderopacity="1.0"
     inkscape:pageopacity="0.0"
     inkscape:pageshadow="2"
     inkscape:zoom="2"
     inkscape:cx="357.0153"
     inkscape:cy="774.39076"
     inkscape:document-units="px"
     inkscape:current-layer="g4079"
     showgrid="false"
     inkscape:window-width="1280"
     inkscape:window-height="743"
     inkscape:window-x="0"
     inkscape:window-y="26"
     inkscape:window-maximized="1"
     showguides="true"
     inkscape:guide-bbox="true" />
  <metadata
     id="metadata7">
    <rdf:RDF>
      <cc:Work
         rdf:about="">
        <dc:format>image/svg+xml</dc:format>
        <dc:type
           rdf:resource="http://purl.org/dc/dcmitype/StillImage" />
        <dc:title></dc:title>
      </cc:Work>
    </rdf:RDF>
  </metadata>
  <g
     inkscape:groupmode="layer"
     id="layer2"
     inkscape:label="Layer" />
  <g
     inkscape:label="Layer 1"
     inkscape:groupmode="layer"
     id="layer1">
    <g
       id="g4079"
       transform="translate(0,-220)">
      <path
         id="path3187"
         d="m 359.25,429.15625 c -0.29974,-0.007 -0.60048,0.009 -0.90625,0.0625 -0.1529,0.027 -0.29109,0.0215 -0.4375,0.0625 -2.19681,0.6204 -3.65052,2.8317 -3.25,5.125 0.1569,0.8975 0.57022,1.62845 0.9375,2.15625 0.29127,0.4621 0.66706,0.9466 0.9375,1.3125 0.58915,0.8915 1.289,2.23395 1.875,5.59375 0.6111,3.5001 0.49215,4.7933 0.8125,9.5625 0.0301,0.4483 0.007,0.84365 0.0312,1.28125 2.10523,-0.5163 4.34325,-0.8513 6.1875,-1.125 0.004,0.015 -0.004,0.0183 0,0.0312 0.35667,1.1821 0.77413,2.46215 1.09375,3.59375 -8.3e-4,0.012 0.0262,0.0272 0.0312,0.0312 13.23115,-1.5509 26.02042,1.52775 36.65625,8.09375 0.86049,-0.8911 1.8305,-1.90115 2.5625,-2.71875 1.61339,1.0018 3.3431,2.18655 4.6875,3.21875 -0.61768,1.1489 -1.27799,2.32785 -1.78125,3.34375 9.31917,7.371 16.4122,17.65435 19.71875,29.78125 -0.67397,0.021 -1.39532,0.0213 -2,0.0312 -0.46084,0.01 -4.71154,0.0937 -5.125,0.0937 -0.12511,0.2482 -0.25806,0.4633 -0.34375,0.75 -0.0857,0.2868 -0.12895,0.41365 -0.28125,0.84375 -0.15286,0.4309 -0.48765,1.34635 -0.59375,2.21875 -2.20573,0.375 -3.32384,0.5241 -6.15625,0.625 -3.22864,0.115 -7.30478,0.30275 -10.40625,0.84375 -1.3326,0.2327 -2.81611,0.56535 -4.3125,0.96875 0.0961,0.2871 0.19465,0.5846 0.28125,0.875 l -0.0937,0.0312 1.0625,6.28125 0.0937,-0.0312 c 0.0181,0.309 0.0861,0.6283 0.0937,0.9375 1.53618,-0.1232 3.05045,-0.30025 4.375,-0.53125 3.10164,-0.5411 6.95436,-1.73385 10.03125,-2.71875 2.69936,-0.864 3.82402,-1.13435 6.03125,-1.53125 0.38411,0.7526 0.86908,1.43075 1.40625,1.96875 l 0.59375,0.5625 0.6875,-0.34375 c 0.18777,-0.096 0.4447,-0.21715 0.75,-0.34375 -0.16364,-1.7695 -0.42863,-3.9458 -0.65625,-5.25 -0.25061,-1.4404 -0.56165,-2.8547 -0.90625,-4.25 l 2.8125,0 c 0.0108,3e-4 0.0204,-0.0312 0.0312,-0.0312 l 0.65625,0 c 0.14428,0 0.32091,0.003 0.46875,0 l 1.09375,0 c -0.003,-0.01 0.003,-0.0213 0,-0.0312 0.28856,-0.01 0.60985,-0.0233 0.90625,-0.0312 0.0374,-0.001 0.0564,0 0.0937,0 0.40878,-0.012 0.82865,-0.0134 1.25,-0.0312 0.14336,0 0.32359,-0.0263 0.46875,-0.0312 0.62633,-0.022 1.25133,-0.0255 1.90625,-0.0625 0.0871,0.3779 0.20142,0.7431 0.28125,1.125 0.12026,0.5766 0.21285,1.14755 0.3125,1.71875 0.0962,0.553 0.17235,1.0765 0.25,1.625 0.0521,0.3682 0.11124,0.7537 0.15625,1.125 -0.23699,0.07 -0.48677,0.1176 -0.71875,0.1875 l -1.125,0.34375 c -0.0153,0 -0.0169,-0.01 -0.0312,0 -0.33048,0.1025 -0.61425,0.2109 -0.9375,0.3125 -0.25664,0.083 -0.52663,0.1709 -0.78125,0.25 1.55763,13.2377 -1.55539,26.0458 -8.125,36.6875 0.19097,0.1804 0.39951,0.379 0.59375,0.5625 0.69344,0.6553 1.35339,1.34205 2.125,2.03125 0.008,0.01 0.0229,-0.007 0.0312,0 -0.51819,0.8188 -1.06892,1.61475 -1.625,2.40625 -0.53221,0.7574 -1.0574,1.5163 -1.625,2.25 -0.01,0 -0.0223,0.005 -0.0312,0 -0.22309,-0.1178 -0.43931,-0.2582 -0.65625,-0.375 l -1,-0.53125 c -0.0195,-0.01 -0.0432,-0.0213 -0.0625,-0.0312 -0.12748,-0.067 -0.25049,-0.1237 -0.375,-0.1875 -0.0189,-0.01 -0.0126,-0.0213 -0.0312,-0.0312 -0.14519,-0.079 -0.31657,-0.1706 -0.46875,-0.25 -0.24246,-0.122 -0.48239,-0.22065 -0.71875,-0.34375 -7.76393,9.8074 -18.74728,17.10455 -31.71875,20.15625 0.0177,0.5784 0.0401,1.18415 0.0625,1.78125 12.92505,-2.9613 23.93705,-9.99795 31.9375,-19.53125 0.13942,0.073 0.29221,0.14195 0.4375,0.21875 l 1,0.5 c 0.60169,0.323 1.20501,0.69375 1.8125,1.03125 0.0553,0.03 0.1023,0.0325 0.15625,0.0625 0.30952,-0.3787 0.60269,-0.77025 0.90625,-1.15625 3.66362,2.0159 5.06274,2.6287 7.8125,4.5625 2.79029,1.961 3.7256,3.1498 4.28125,4.0625 0.27233,0.4474 0.41553,0.8476 0.71875,1.375 l 0.0312,0.0312 c 0.32106,0.5569 0.81687,1.2262 1.5625,1.75 2.03103,1.4288 4.8536,0.9068 6.28125,-1.125 0.0896,-0.1275 0.17553,-0.242 0.25,-0.375 1.11458,-1.9919 0.59231,-4.5991 -1.3125,-5.9375 -0.74562,-0.5238 -1.55444,-0.7619 -2.1875,-0.875 l -0.0312,0 c -0.59295,-0.106 -1.0215,-0.1455 -1.53125,-0.25 -1.04752,-0.213 -2.52242,-0.6636 -5.3125,-2.625 -2.77076,-1.9473 -3.68424,-3.02675 -6.875,-5.84375 0.251,-0.4093 0.506,-0.80975 0.75,-1.21875 -0.0468,-0.04 -0.0777,-0.0838 -0.125,-0.125 -0.97033,-0.8482 -1.86191,-1.65415 -2.75,-2.46875 5.93029,-10.2192 8.84787,-22.2319 7.75,-34.6875 0.14888,-0.048 0.28196,-0.10865 0.4375,-0.15625 l 1.0625,-0.34375 c 0.65398,-0.1962 1.33184,-0.34035 2,-0.53125 0.0609,-0.018 0.097,-0.0768 0.15625,-0.0937 -0.0331,-0.3307 -0.0568,-0.6672 -0.0937,-1 l -0.0625,-0.40625 c 4.04268,-1.1727 5.39668,-1.76525 8.71875,-2.34375 3.36024,-0.5872 4.89922,-0.3775 5.9375,-0.125 0.50892,0.1238 0.91271,0.279 1.5,0.4375 l 0.0312,0.0312 c 0.62089,0.167 1.44613,0.25065 2.34375,0.0937 2.44643,-0.426 4.05213,-2.8038 3.625,-5.25 -0.0267,-0.1529 -0.0211,-0.25975 -0.0625,-0.40625 -0.31016,-1.0984 -1.04629,-2.0373 -1.96875,-2.625 -0.92229,-0.5879 -2.00982,-0.8249 -3.15625,-0.625 -0.8982,0.1577 -1.62864,0.5701 -2.15625,0.9375 l -0.0625,0 c -0.49407,0.3452 -0.81586,0.61935 -1.25,0.90625 -0.89177,0.5894 -2.23416,1.2893 -5.59375,1.875 -3.31608,0.5795 -4.84231,0.52065 -9.03125,0.78125 L 434.25,499.25 434,498.28125 c -0.0617,0 -0.0935,6e-4 -0.15625,0 -1.23135,0.082 -2.457,0.16705 -3.625,0.21875 -3.2063,-12.093 -10.03079,-22.4042 -19.09375,-30 0.59759,-1.1692 1.21879,-2.36325 1.78125,-3.40625 -0.3701,-0.3022 -0.74734,-0.60875 -1.125,-0.90625 2.02945,-3.6901 2.59143,-5.0542 4.53125,-7.8125 1.96171,-2.7913 3.18101,-3.72565 4.09375,-4.28125 0.44736,-0.2723 0.84785,-0.41575 1.375,-0.71875 0.69824,-0.5182 1.368,-1.01845 1.78125,-1.59375 1.42791,-2.0299 0.90672,-4.85335 -1.125,-6.28125 -0.1217,-0.096 -0.27136,-0.1773 -0.375,-0.25 -1.9922,-1.1145 -4.59934,-0.592 -5.9375,1.3125 -0.52452,0.7466 -0.73051,1.5546 -0.84375,2.1875 -0.11103,0.5385 -0.18027,1.13955 -0.25,1.59375 -0.2138,1.0469 -0.66364,2.4599 -2.625,5.25 -1.9391,2.759 -3.05475,3.778 -5.84375,6.9375 -0.41606,-0.2576 -0.86328,-0.53215 -1.28125,-0.78125 -0.87902,0.9558 -1.79299,2.0351 -2.5625,2.875 -10.21763,-5.9211 -22.23529,-8.8495 -34.6875,-7.75 -0.37762,-1.2537 -0.76397,-2.52195 -1.09375,-3.65625 -0.5244,0.06 -0.98773,0.11155 -1.46875,0.15625 -1.16863,-4.0219 -1.73501,-5.40405 -2.3125,-8.71875 -0.58639,-3.3597 -0.40832,-4.8998 -0.15625,-5.9375 0.18315,-0.5632 0.33032,-1.08545 0.46875,-1.53125 0.16711,-0.6209 0.31332,-1.4152 0.15625,-2.3125 -0.21223,-1.2242 -0.92287,-2.2763 -1.875,-2.9375 -0.71617,-0.4929 -1.60078,-0.76016 -2.5,-0.78125 z"
         style="font-size:medium;font-style:normal;font-variant:normal;font-weight:normal;font-stretch:normal;text-indent:0;text-align:start;text-decoration:none;line-height:normal;letter-spacing:normal;word-spacing:normal;text-transform:none;direction:ltr;block-progression:tb;writing-mode:lr-tb;text-anchor:start;baseline-shift:baseline;color:#000000;fill:#0084ae;fill-opacity:1;stroke:none;stroke-width:7.92560863;marker:none;visibility:visible;display:inline;overflow:visible;enable-background:accumulate;font-family:Sans;-inkscape-font-specification:Sans"
         inkscape:connector-curvature="0" />
      <path
         id="path3185"
         d="m 359.90625,456.125 c -12.92777,2.9682 -23.94011,10.05175 -31.9375,19.59375 -0.14005,-0.072 -0.29203,-0.14215 -0.4375,-0.21875 l -1,-0.5 c -0.60123,-0.3237 -1.20495,-0.6626 -1.8125,-1 -0.0547,-0.031 -0.1022,-0.0325 -0.15625,-0.0625 -0.30243,0.3699 -0.60885,0.7473 -0.90625,1.125 -3.66294,-2.0133 -5.06252,-2.59745 -7.8125,-4.53125 -2.78972,-1.9618 -3.72561,-3.18105 -4.28125,-4.09375 -0.27173,-0.4481 -0.4467,-0.8476 -0.75,-1.375 l 0,-0.0312 c -0.32081,-0.5572 -0.81688,-1.2261 -1.5625,-1.75 -2.03045,-1.4295 -4.8536,-0.9068 -6.28125,1.125 -0.0892,0.1269 -0.20695,0.2422 -0.28125,0.375 -1.11475,1.9921 -0.5613,4.5994 1.34375,5.9375 0.745,0.5247 1.55463,0.73045 2.1875,0.84375 l 0.0312,0.0312 c 0.59404,0.1044 1.05252,0.11465 1.5625,0.21875 1.04682,0.214 2.49113,0.69495 5.28125,2.65625 2.75077,1.9345 3.76866,3.0411 6.90625,5.8125 -0.25625,0.4165 -0.53196,0.86345 -0.78125,1.28125 0.0462,0.041 0.0777,0.0525 0.125,0.0937 0.97092,0.8474 1.86167,1.65455 2.75,2.46875 -5.91225,10.2079 -8.83996,22.2524 -7.75,34.6875 -0.13524,0.043 -0.26485,0.081 -0.40625,0.125 l -1.09375,0.34375 c -0.65398,0.1962 -1.33184,0.40275 -2,0.59375 -0.0604,0.018 -0.097,0.0132 -0.15625,0.0312 0.0331,0.3307 0.0881,0.6671 0.125,1 0.0214,0.1587 0.072,0.2822 0.0937,0.4375 -4.06595,1.1809 -5.45173,1.76375 -8.78125,2.34375 -3.35965,0.5864 -4.89923,0.40875 -5.9375,0.15625 -0.50944,-0.123 -0.91269,-0.3416 -1.5,-0.5 l -0.0312,0.0312 c -0.62139,-0.1663 -1.41487,-0.31305 -2.3125,-0.15625 -2.44643,0.4259 -4.08363,2.83525 -3.65625,5.28125 0.0261,0.1537 0.0213,0.2908 0.0625,0.4375 0.62078,2.1962 2.89411,3.61935 5.1875,3.21875 0.89729,-0.1563 1.56615,-0.53885 2.09375,-0.90625 l 0.0312,-0.0312 c 0.49397,-0.3451 0.84694,-0.6504 1.28125,-0.9375 0.89095,-0.5883 2.23371,-1.2886 5.59375,-1.875 3.33871,-0.5822 4.77321,-0.45335 9.03125,-0.71875 0.0295,0.149 0.0643,0.2884 0.0937,0.4375 l 0.25,0.96875 c 0.062,0 0.0936,0.009 0.15625,0 1.25492,-0.084 2.49975,-0.16695 3.6875,-0.21875 3.20805,12.0769 9.98256,22.4103 19.03125,30 -0.0729,0.1388 -0.14191,0.26095 -0.21875,0.40625 l -0.5,1.03125 c -0.32367,0.6012 -0.69383,1.205 -1.03125,1.8125 -0.0302,0.055 -0.0326,0.10245 -0.0625,0.15625 0.37735,0.3098 0.77026,0.60265 1.15625,0.90625 -2.01306,3.6626 -2.5974,5.03145 -4.53125,7.78125 -1.96091,2.7901 -3.18095,3.7568 -4.09375,4.3125 -0.44682,0.2715 -0.84768,0.41545 -1.375,0.71875 l -0.0312,0.0312 c -0.55778,0.3217 -1.19495,0.78565 -1.71875,1.53125 -1.42901,2.0314 -0.93802,4.8849 1.09375,6.3125 0.12698,0.089 0.24218,0.1757 0.375,0.25 1.99203,1.1147 4.59887,0.56135 5.9375,-1.34375 0.52376,-0.7457 0.73044,-1.52335 0.84375,-2.15625 l 0,-0.0312 c 0.1053,-0.5935 0.14589,-1.0526 0.25,-1.5625 0.21385,-1.047 0.69488,-2.49125 2.65625,-5.28125 1.9337,-2.7514 3.04132,-3.76855 5.8125,-6.90625 0.41687,0.2565 0.83197,0.53225 1.25,0.78125 0.0404,-0.045 0.0836,-0.078 0.125,-0.125 0.84817,-0.9703 1.65418,-1.8619 2.46875,-2.75 10.21946,5.9301 22.23012,8.81795 34.6875,7.71875 0.0479,0.1487 0.10821,0.31335 0.15625,0.46875 L 378.78125,574 c 0.19669,0.6533 0.34016,1.332 0.53125,2 0.0174,0.061 0.077,0.065 0.0937,0.125 0.33094,-0.034 0.63595,-0.0571 0.96875,-0.0937 l 0.4375,-0.0937 c 1.18971,4.1047 1.76139,5.43825 2.34375,8.78125 0.58668,3.3592 0.40881,4.86785 0.15625,5.90625 -0.1235,0.5085 -0.31016,0.9125 -0.46875,1.5 l 0,0.0312 c -0.16711,0.6208 -0.28189,1.4774 -0.125,2.375 0.42592,2.4464 2.80387,4.0521 5.25,3.625 0.15341,-0.027 0.25977,-0.0205 0.40625,-0.0625 2.1968,-0.6203 3.68177,-2.86295 3.28125,-5.15625 -0.15689,-0.8976 -0.60133,-1.62865 -0.96875,-2.15625 l 0,-0.0312 c -0.34461,-0.4949 -0.65035,-0.816 -0.9375,-1.25 -0.58856,-0.8923 -1.25758,-2.23425 -1.84375,-5.59375 -0.611,-3.5003 -0.49206,-4.7934 -0.8125,-9.5625 -0.0295,-0.4491 -0.0383,-0.8121 -0.0625,-1.25 -0.1804,0.043 -0.35135,0.0534 -0.53125,0.0937 -0.94327,0.2133 -1.88415,0.3948 -2.84375,0.5625 -0.61435,0.1069 -1.25602,0.2227 -1.875,0.3125 -0.12462,0.017 -0.25067,0.0154 -0.375,0.0312 -0.16915,0.015 -0.36319,0.0425 -0.53125,0.0625 -0.0768,-0.2506 -0.14527,-0.5039 -0.21875,-0.75 l -0.3125,-1.09375 c -0.004,-0.015 0.005,-0.0172 0,-0.0312 -0.10184,-0.328 -0.21274,-0.6294 -0.3125,-0.9375 -0.0839,-0.259 -0.17031,-0.52455 -0.25,-0.78125 -13.23886,1.5569 -26.04553,-1.5559 -36.6875,-8.125 -0.17356,0.1836 -0.38598,0.3757 -0.5625,0.5625 -0.007,0.01 0.007,0.0232 0,0.0312 -0.65551,0.6938 -1.3109,1.3534 -2,2.125 -0.007,0.01 -0.0242,0.0222 -0.0312,0.0312 -0.8191,-0.5187 -1.61481,-1.0688 -2.40625,-1.625 -0.75744,-0.532 -1.51592,-1.0574 -2.25,-1.625 0.005,-0.01 -0.005,-0.0222 0,-0.0312 0.11795,-0.2222 0.2582,-0.4705 0.375,-0.6875 L 336.75,560.25 c 0.01,-0.019 0.0214,-0.0435 0.0312,-0.0625 0.0669,-0.1259 0.12378,-0.2568 0.1875,-0.375 0.01,-0.019 0.0217,-0.0122 0.0312,-0.0312 0.0793,-0.1515 0.1725,-0.32025 0.25,-0.46875 0.12172,-0.2421 0.25215,-0.48265 0.375,-0.71875 -9.3132,-7.3674 -16.38186,-17.66085 -19.6875,-29.78125 0.65788,-0.021 1.37754,-0.0213 1.96875,-0.0312 0.46113,-0.01 4.71154,-0.126 5.125,-0.125 0.12511,-0.2481 0.25807,-0.4632 0.34375,-0.75 0.0857,-0.2867 0.12877,-0.3822 0.28125,-0.8125 0.15212,-0.4299 0.48771,-1.34645 0.59375,-2.21875 2.20614,-0.3756 3.35509,-0.55535 6.1875,-0.65625 3.22865,-0.1149 7.27348,-0.2714 10.375,-0.8125 1.33932,-0.2336 2.80815,-0.594 4.3125,-1 -0.0964,-0.288 -0.16316,-0.5843 -0.25,-0.875 l 0.0937,0 -1.125,-6.28125 -0.0625,0.0312 c -0.0187,-0.3174 -0.0549,-0.65055 -0.0625,-0.96875 -1.53624,0.1233 -3.05046,0.30025 -4.375,0.53125 -3.10164,0.5411 -6.95436,1.73385 -10.03125,2.71875 -2.69935,0.864 -3.85498,1.1652 -6.0625,1.5625 -0.38394,-0.7529 -0.83795,-1.4618 -1.375,-2 l -0.59375,-0.5625 -0.71875,0.375 c -0.18737,0.096 -0.44471,0.1859 -0.75,0.3125 0.16364,1.7695 0.42888,3.97675 0.65625,5.28125 0.25102,1.4399 0.59291,2.82345 0.9375,4.21875 l -2.84375,0.0312 c -0.0102,-10e-4 -0.0206,0 -0.0312,0 l -0.65625,0 c -0.14366,0 -0.32097,0.0282 -0.46875,0.0312 l -1.09375,-0.0312 c 0.003,0.014 -0.004,0.0172 0,0.0312 -0.26969,0.01 -0.59634,0.0535 -0.875,0.0625 -0.57858,0.019 -1.17331,0.0375 -1.78125,0.0625 -0.66287,0.029 -1.28594,0.0255 -1.96875,0.0625 -0.0151,4e-4 -0.016,0 -0.0312,0 -0.0693,-0.3082 -0.12583,-0.59515 -0.1875,-0.90625 -0.01,-0.043 -0.0217,-0.11265 -0.0312,-0.15625 -0.13205,-0.5986 -0.23898,-1.18145 -0.34375,-1.78125 -0.0966,-0.5545 -0.16924,-1.10345 -0.25,-1.65625 -0.0521,-0.3564 -0.11003,-0.73325 -0.15625,-1.09375 0.0141,0 0.0174,0.01 0.0312,0 0.23613,-0.074 0.48691,-0.14925 0.71875,-0.21875 l 1.0625,-0.3125 c 0.0155,0 0.0475,-0.0213 0.0625,-0.0312 0.33013,-0.102 0.61409,-0.17945 0.9375,-0.28125 0.2571,-0.083 0.52677,-0.1685 0.78125,-0.25 -1.55743,-13.2395 1.55467,-26.0448 8.125,-36.6875 -0.18601,-0.17556 -0.36621,-0.40886 -0.5625,-0.59375 -0.006,0.009 -0.0264,-0.01 -0.0312,0 -0.68363,-0.63458 -1.42459,-1.34375 -2.15625,-2 0.51462,-0.824 1.0673,-1.61295 1.625,-2.40625 0.53326,-0.7571 1.0851,-1.5201 1.65625,-2.25 0.22225,0.1179 0.43947,0.258 0.65625,0.375 l 1,0.53125 c 0.0201,0.01 0.0432,0.0213 0.0625,0.0312 0.12652,0.066 0.25647,0.1238 0.375,0.1875 0.17076,0.089 0.30202,0.19705 0.46875,0.28125 0.24281,0.1215 0.51387,0.22035 0.75,0.34375 7.76183,-9.8155 18.74428,-17.1318 31.71875,-20.1875 -0.0172,-0.5795 -0.0403,-1.2141 -0.0625,-1.8125 z"
         style="font-size:medium;font-style:normal;font-variant:normal;font-weight:normal;font-stretch:normal;text-indent:0;text-align:start;text-decoration:none;line-height:normal;letter-spacing:normal;word-spacing:normal;text-transform:none;direction:ltr;block-progression:tb;writing-mode:lr-tb;text-anchor:start;baseline-shift:baseline;color:#000000;fill:#620074;fill-opacity:1;stroke:none;stroke-width:7.92560863;marker:none;visibility:visible;display:inline;overflow:visible;enable-background:accumulate;font-family:Sans;-inkscape-font-specification:Sans"
         inkscape:connector-curvature="0" />
      <path
         id="path3183"
         d="m 372.90625,457.28125 c -2.39505,0.0124 -4.81923,0.17384 -7.25,0.5 -0.73194,0.098 -1.45347,0.21585 -2.1875,0.34375 -0.007,10e-4 -0.0237,-0.0333 -0.0312,-0.0312 -0.75409,0.1313 -1.47697,0.30865 -2.21875,0.46875 -0.73862,0.1594 -1.4617,0.3129 -2.1875,0.5 -11.86268,3.057 -21.9812,9.7741 -29.34375,18.6875 -0.46407,0.5618 -0.93306,1.13975 -1.375,1.71875 -0.45233,0.5926 -0.88382,1.17135 -1.3125,1.78125 -0.43444,0.618 -0.84282,1.26915 -1.25,1.90625 -0.39162,0.6076 -0.78815,1.1904 -1.15625,1.8125 -0.0165,0.027 -0.0149,0.0668 -0.0312,0.0937 -6.56908,11.142 -9.38989,24.5796 -7,38.3125 0.001,0.01 -10e-4,0.0232 0,0.0312 0.14252,0.8183 0.29257,1.60295 0.46875,2.40625 0.0237,-6e-4 0.0389,0.0322 0.0625,0.0312 0.0312,0.1364 0.0616,0.26985 0.0937,0.40625 l 4.15625,-0.0312 c -0.28513,-1.1566 -0.54191,-2.3068 -0.75,-3.5 -0.19883,-1.1408 -0.37877,-2.3042 -0.5,-3.4375 l -2.21875,0.75 c -1.43094,-12.0995 1.24422,-23.82625 6.96875,-33.71875 1.32139,1.2938 2.44557,2.445 2.875,3 l 0.46875,0.59375 0.71875,-0.25 c 0.73439,-0.2651 1.46447,-0.7081 2.15625,-1.25 1.82553,1.2944 2.73818,2.0063 4.8125,3.9375 2.36426,2.2018 5.36185,4.9395 7.9375,6.75 1.11341,0.783 2.4294,1.56925 3.78125,2.34375 0.6028,-1.207 1.29584,-2.39305 2.09375,-3.53125 0.79773,-1.1379 1.66457,-2.17795 2.59375,-3.15625 -1.17834,-1.0034 -2.36273,-1.9726 -3.46875,-2.75 -2.57576,-1.8106 -6.15917,-3.7082 -9.03125,-5.1875 -2.51968,-1.2978 -3.50186,-1.9075 -5.34375,-3.1875 0.26144,-0.8046 0.40542,-1.6145 0.40625,-2.375 l 0,-0.8125 -0.78125,-0.21875 c -0.67486,-0.2188 -2.08106,-0.8737 -3.75,-1.6875 7.01951,-8.3694 16.56816,-14.68445 27.75,-17.65625 0.0231,1.8496 -0.005,3.46055 -0.0937,4.15625 l -0.0937,0.78125 0.71875,0.28125 c 0.70668,0.3319 1.50264,0.5816 2.375,0.6875 0.37553,2.2062 0.52417,3.32375 0.625,6.15625 0.115,3.2286 0.30257,7.30505 0.84375,10.40625 0.2323,1.3325 0.56158,2.8215 0.96875,4.3125 0.30092,-0.1007 0.60169,-0.19095 0.90625,-0.28125 l 0.0312,0.0937 6.25,-1.09375 0,-0.0937 c 0.30256,-0.018 0.60357,-0.0555 0.90625,-0.0625 -0.12331,-1.5362 -0.3004,-3.0502 -0.53125,-4.375 -0.54175,-3.1007 -1.70259,-6.95445 -2.6875,-10.03125 -0.86383,-2.6997 -1.13414,-3.8548 -1.53125,-6.0625 0.75219,-0.3829 1.39918,-0.8376 1.9375,-1.375 l 0.59375,-0.5625 -0.375,-0.71875 c -0.32457,-0.6358 -0.86007,-2.1061 -1.46875,-3.875 11.52255,-1.0094 22.64248,1.67925 32.09375,7.15625 -1.29327,1.321 -2.44541,2.4458 -3,2.875 l -0.59375,0.46875 0.25,0.71875 c 0.26536,0.7339 0.67687,1.4957 1.21875,2.1875 -1.2948,1.8261 -1.97476,2.70715 -3.90625,4.78125 -2.20133,2.3638 -4.93935,5.3617 -6.75,7.9375 -0.78279,1.1131 -1.56921,2.42945 -2.34375,3.78125 1.2069,0.6029 2.3932,1.29595 3.53125,2.09375 1.14672,0.8039 2.17179,1.65665 3.15625,2.59375 1.00322,-1.1783 1.97254,-2.3315 2.75,-3.4375 1.81062,-2.5757 3.70823,-6.1904 5.1875,-9.0625 1.29779,-2.5197 1.90743,-3.50185 3.1875,-5.34375 0.80352,0.2614 1.6147,0.40565 2.375,0.40625 l 0.8125,0 0.21875,-0.78125 c 0.21835,-0.6743 0.87396,-2.0811 1.6875,-3.75 7.87442,6.604 13.92885,15.4223 17.09375,25.75 0.26895,0 0.52101,0.005 0.84375,0 0.29542,0 0.63584,-0.0183 0.96875,-0.0312 -3.26982,-11.0076 -9.70934,-20.39585 -18.125,-27.34375 -0.56544,-0.4669 -1.13584,-0.9305 -1.71875,-1.375 -0.58303,-0.448 -1.18002,-0.8899 -1.78125,-1.3125 -0.61979,-0.4356 -1.26939,-0.8394 -1.90625,-1.25 -0.6075,-0.3917 -1.19018,-0.78785 -1.8125,-1.15625 -0.0268,-0.016 -0.0666,-0.0152 -0.0937,-0.0312 -8.56885,-5.05367 -18.49646,-7.8664 -28.875,-7.8125 z"
         style="font-size:medium;font-style:normal;font-variant:normal;font-weight:normal;font-stretch:normal;text-indent:0;text-align:start;text-decoration:none;line-height:normal;letter-spacing:normal;word-spacing:normal;text-transform:none;direction:ltr;block-progression:tb;writing-mode:lr-tb;text-anchor:start;baseline-shift:baseline;color:#000000;fill:#f69600;fill-opacity:1;stroke:none;stroke-width:7.92560863000000015;marker:none;visibility:visible;display:inline;overflow:visible;enable-background:accumulate;font-family:Sans;-inkscape-font-specification:Sans"
         inkscape:connector-curvature="0" />
      <path
         id="path3167"
         d="M 428.125,501.125 424,501.1562 c 0.28558,1.1559 0.5105,2.3071 0.71875,3.5 0.19855,1.1413 0.37883,2.3041 0.5,3.4375 l 2.21875,-0.78125 c 1.4325,12.1142 -1.2268,23.8478 -6.96875,33.75 -1.32687,-1.2985 -2.44427,-2.4436 -2.875,-3 l -0.46875,-0.59375 -0.71875,0.25 c -0.73439,0.265 -1.49577,0.7082 -2.1875,1.25 -1.82597,-1.2938 -2.70717,-2.006 -4.78125,-3.9375 -2.36433,-2.2017 -5.3618,-4.9396 -7.9375,-6.75 -1.10588,-0.7778 -2.40789,-1.57415 -3.75,-2.34375 -0.59914,1.196 -1.3029,2.3719 -2.09375,3.5 -0.80399,1.1468 -1.68792,2.2032 -2.625,3.1875 1.17835,1.0034 2.33142,1.9727 3.4375,2.75 2.57518,1.8114 6.19047,3.7081 9.0625,5.1875 2.51991,1.2975 3.50193,1.9074 5.34375,3.1875 -0.26091,0.8039 -0.4056,1.6147 -0.40625,2.375 l 0,0.8125 0.75,0.21875 c 0.67526,0.2181 2.11226,0.8738 3.78125,1.6875 -7.02286,8.3593 -16.57681,14.68775 -27.75,17.65625 -0.0198,-1.851 0.005,-3.45965 0.0937,-4.15625 l 0.0937,-0.7812 -0.6875,-0.3125 c -0.70669,-0.3319 -1.53395,-0.55015 -2.40625,-0.65625 -0.37605,-2.2054 -0.49292,-3.3551 -0.59375,-6.1875 -0.11502,-3.2286 -0.33405,-7.2735 -0.875,-10.375 -0.23242,-1.3325 -0.56532,-2.8162 -0.96875,-4.3125 -0.29136,0.098 -0.58064,0.19455 -0.875,0.28125 L 381,539.90625 374.75,541 l 0,0.0625 c -0.31765,0.018 -0.61934,0.0232 -0.9375,0.0312 0.12364,1.5518 0.29797,3.1 0.53125,4.4375 0.54107,3.1016 1.734,6.95425 2.71875,10.03125 0.86451,2.6987 1.13391,3.82385 1.53125,6.03125 -0.75332,0.3845 -1.43067,0.86905 -1.96875,1.40625 l -0.59375,0.5625 0.375,0.71875 c 0.32279,0.6322 0.89445,2.08675 1.5,3.84375 -11.52876,1.0186 -22.67246,-1.6478 -32.125,-7.125 1.29853,-1.3269 2.44367,-2.4443 3,-2.875 l 0.59375,-0.46875 -0.25,-0.71875 c -0.26501,-0.7343 -0.70812,-1.46455 -1.25,-2.15625 1.2944,-1.8255 2.006,-2.7384 3.9375,-4.8125 2.20168,-2.3643 4.93946,-5.3619 6.75,-7.9375 0.78301,-1.1135 1.56921,-2.42945 2.34375,-3.78125 -1.20683,-0.6028 -2.36209,-1.2648 -3.5,-2.0625 -1.14662,-0.8039 -2.20313,-1.688 -3.1875,-2.625 -1.00333,1.1784 -1.97243,2.36255 -2.75,3.46875 -1.81028,2.5753 -3.70811,6.15905 -5.1875,9.03125 -1.29744,2.5192 -1.90749,3.50195 -3.1875,5.34375 -0.80387,-0.2609 -1.61469,-0.40555 -2.375,-0.40625 l -0.8125,0 -0.21875,0.78125 c -0.2187,0.6749 -0.87384,2.081 -1.6875,3.75 -7.85842,-6.6014 -13.89789,-15.4297 -17.0625,-25.75 -0.27768,0 -0.54254,-0.01 -0.875,0 -0.30127,0 -0.6295,-0.008 -0.96875,0 3.26524,11.0292 9.66319,20.4244 18.09375,27.375 0.0395,0.034 0.11611,0.0607 0.15625,0.0937 0.41051,0.3373 0.83004,0.6749 1.25,1 0.42627,0.33 0.8458,0.65115 1.28125,0.96875 0.27912,0.2054 0.52916,0.4256 0.8125,0.625 0.30519,0.2139 0.659,0.4176 0.96875,0.625 0.30128,0.2014 0.60084,0.39845 0.90625,0.59375 0.0171,0.012 0.0136,0.0204 0.0312,0.0312 0.55687,0.3565 1.1191,0.7241 1.6875,1.0625 0.0812,0.048 0.16831,0.0772 0.25,0.125 10.55325,6.2125 23.14944,9.0654 36.125,7.3125 0.7291,-0.095 1.46357,-0.1862 2.1875,-0.3125 0.75426,-0.1316 1.5082,-0.30875 2.25,-0.46875 0.73908,-0.1601 1.46162,-0.3128 2.1875,-0.5 11.85653,-3.0547 21.97933,-9.75415 29.34375,-18.65625 0.29646,-0.359 0.58587,-0.7591 0.875,-1.125 0.16828,-0.2141 0.33486,-0.4086 0.5,-0.625 0.35854,-0.4665 0.71991,-0.92815 1.0625,-1.40625 0.0849,-0.1193 0.16569,-0.22395 0.25,-0.34375 0.0655,-0.093 0.12266,-0.18765 0.1875,-0.28125 0.79478,-1.1442 1.54111,-2.3623 2.25,-3.5625 6.57958,-11.1404 9.35977,-24.5728 6.96875,-38.3125 -6.5e-4,-0.01 0.0322,0.008 0.0312,0 -0.14267,-0.8178 -0.29237,-1.6348 -0.46875,-2.4375 -0.0151,5e-4 -0.0474,0 -0.0625,0 -0.0341,-0.1508 -0.059,-0.2882 -0.0937,-0.4375 z"
         style="font-size:medium;font-style:normal;font-variant:normal;font-weight:normal;font-stretch:normal;text-indent:0;text-align:start;text-decoration:none;line-height:normal;letter-spacing:normal;word-spacing:normal;text-transform:none;direction:ltr;block-progression:tb;writing-mode:lr-tb;text-anchor:start;baseline-shift:baseline;color:#000000;fill:#2aa600;fill-opacity:1;stroke:none;stroke-width:7.92560863;marker:none;visibility:visible;display:inline;overflow:visible;enable-background:accumulate;font-family:Sans;-inkscape-font-specification:Sans"
         inkscape:connector-curvature="0" />
      <path
         id="path3157"
         d="m 372.625,487.625 c -1.30871,0.0286 -2.6403,0.14153 -3.96875,0.375 -14.16983,2.4893 -23.67801,16.0169 -21.1875,30.1875 2.49131,14.171 16.04902,23.6769 30.21875,21.1875 14.16934,-2.4912 23.67782,-16.0181 21.1875,-30.1875 -1.24565,-7.0857 -5.2563,-13.01445 -10.71875,-16.84375 -4.4382,-3.11139 -9.86018,-4.84255 -15.53125,-4.71875 z m 0.0625,1.75 c 5.29268,-0.11991 10.30454,1.50343 14.4375,4.40625 5.08702,3.5724 8.806,9.0735 9.96875,15.6875 2.32448,13.2259 -6.46148,25.83115 -19.6875,28.15625 -13.22635,2.3237 -25.83073,-6.49105 -28.15625,-19.71875 -2.32465,-13.2272 6.49247,-25.83275 19.71875,-28.15625 1.24002,-0.21793 2.49736,-0.34733 3.71875,-0.375 z"
         style="font-size:medium;font-style:normal;font-variant:normal;font-weight:normal;font-stretch:normal;text-indent:0;text-align:start;text-decoration:none;line-height:normal;letter-spacing:normal;word-spacing:normal;text-transform:none;direction:ltr;block-progression:tb;writing-mode:lr-tb;text-anchor:start;baseline-shift:baseline;color:#000000;fill:#acacac;fill-opacity:1;stroke:none;stroke-width:7.92560863000000015;marker:none;visibility:visible;display:inline;overflow:visible;enable-background:accumulate;font-family:Sans;-inkscape-font-specification:Sans"
         inkscape:connector-curvature="0" />
      <path
         id="path4019"
         d="m 372.59375,490.3125 c -1.14265,0.0319 -2.31083,0.14026 -3.46875,0.34375 -6.17599,1.0854 -11.37189,4.4942 -14.8125,9.1875 l 1.46875,1.03125 c 2.58287,-3.5089 6.23167,-6.27585 10.5625,-7.71875 l 0.6875,4.09375 6.3125,-1.125 -0.71875,-4.0625 c 3.65949,-0.1001 7.16122,0.7875 10.28125,2.375 l -8.09375,11.5 1.4375,1 8.1875,-11.65625 c 0.23207,0.1428 0.49208,0.2863 0.71875,0.4375 l 1.0625,-1.5 c -3.9283,-2.63161 -8.67352,-4.04448 -13.625,-3.90625 z"
         style="font-size:medium;font-style:normal;font-variant:normal;font-weight:normal;font-stretch:normal;text-indent:0;text-align:start;text-decoration:none;line-height:normal;letter-spacing:normal;word-spacing:normal;text-transform:none;direction:ltr;block-progression:tb;writing-mode:lr-tb;text-anchor:start;baseline-shift:baseline;color:#000000;fill:#f69600;fill-opacity:1;stroke:none;stroke-width:7.92560863000000015;marker:none;visibility:visible;display:inline;overflow:visible;enable-background:accumulate;font-family:Sans;-inkscape-font-specification:Sans"
         inkscape:connector-curvature="0" />
      <path
         id="path4017"
         d="m 387,494.8125 -1.0625,1.5 c 0.2431,0.179 0.48302,0.3738 0.71875,0.5625 L 378.5,508.5 l 1.4375,1.03125 8.09375,-11.46875 c 2.51675,2.3767 4.50821,5.35125 5.65625,8.78125 l -4.0625,0.6875 1.09375,6.3125 4.09375,-0.71875 c 0.12017,4.5634 -1.23849,8.90675 -3.65625,12.53125 l 1.4375,1.03125 c 3.2391,-4.8348 4.71035,-10.8867 3.625,-17.0625 -1.0854,-6.1758 -4.52537,-11.3717 -9.21875,-14.8125 z"
         style="font-size:medium;font-style:normal;font-variant:normal;font-weight:normal;font-stretch:normal;text-indent:0;text-align:start;text-decoration:none;line-height:normal;letter-spacing:normal;word-spacing:normal;text-transform:none;direction:ltr;block-progression:tb;writing-mode:lr-tb;text-anchor:start;baseline-shift:baseline;color:#000000;fill:#0084ae;fill-opacity:1;stroke:none;stroke-width:7.92560863;marker:none;visibility:visible;display:inline;overflow:visible;enable-background:accumulate;font-family:Sans;-inkscape-font-specification:Sans"
         inkscape:connector-curvature="0" />
      <path
         id="path4015"
         d="m 361.90625,496.28125 -3.25,4.625 5.21875,3.65625 0.78125,-1.125 7.28125,-1.28125 -0.8125,1.1875 1.4375,1 4.46875,-6.34375 -1.40625,-1 -2.4375,3.375 -7.3125,1.28125 1.21875,-1.71875 -5.1875,-3.65625 z"
         style="font-size:medium;font-style:normal;font-variant:normal;font-weight:normal;font-stretch:normal;text-indent:0;text-align:start;text-decoration:none;line-height:normal;letter-spacing:normal;word-spacing:normal;text-transform:none;direction:ltr;block-progression:tb;writing-mode:lr-tb;text-anchor:start;baseline-shift:baseline;color:#000000;fill:#000000;fill-opacity:1;stroke:none;stroke-width:7.92560863;marker:none;visibility:visible;display:inline;overflow:visible;enable-background:accumulate;font-family:Sans;-inkscape-font-specification:Sans"
         inkscape:connector-curvature="0" />
      <path
         id="path4013"
         d="m 353.78125,500.65625 c -3.23906,4.8349 -4.7104,10.8865 -3.625,17.0625 1.08543,6.1758 4.52534,11.34055 9.21875,14.78125 l 1,-1.40625 c -0.23319,-0.172 -0.4612,-0.3813 -0.6875,-0.5625 l 8.1875,-11.6875 -1.46875,-1 -8.0625,11.53125 c -2.51666,-2.3824 -4.47942,-5.4336 -5.625,-8.875 l 4,-0.6875 -1.09375,-6.28125 -4,0.71875 c -0.12015,-4.5633 1.20717,-8.9381 3.625,-12.5625 l -1.46875,-1.03125 z"
         style="font-size:medium;font-style:normal;font-variant:normal;font-weight:normal;font-stretch:normal;text-indent:0;text-align:start;text-decoration:none;line-height:normal;letter-spacing:normal;word-spacing:normal;text-transform:none;direction:ltr;block-progression:tb;writing-mode:lr-tb;text-anchor:start;baseline-shift:baseline;color:#000000;fill:#620074;fill-opacity:1;stroke:none;stroke-width:7.92560863;marker:none;visibility:visible;display:inline;overflow:visible;enable-background:accumulate;font-family:Sans;-inkscape-font-specification:Sans"
         inkscape:connector-curvature="0" />
      <path
         id="path4011"
         d="m 356.21875,504.40625 -3.28125,4.625 5.25,3.6875 0.9375,-1.375 18.875,13.21875 -3.5625,0.65625 0.84375,-1.1875 -1.5,-1.03125 -4.46875,6.40625 1.4375,1 2.46875,-3.40625 6.53125,-1.1875 0.40625,0.28125 -0.9375,1.375 5.1875,3.625 0.96875,-1.34375 1,-1.4375 1.3125,-1.84375 -5.21875,-3.65625 -0.78125,1.125 -1.25,0.21875 -20.3125,-14.25 1.3125,-1.8125 -5.21875,-3.6875 z"
         style="font-size:medium;font-style:normal;font-variant:normal;font-weight:normal;font-stretch:normal;text-indent:0;text-align:start;text-decoration:none;line-height:normal;letter-spacing:normal;word-spacing:normal;text-transform:none;direction:ltr;block-progression:tb;writing-mode:lr-tb;text-anchor:start;baseline-shift:baseline;color:#000000;fill:#ef0000;fill-opacity:1;stroke:none;stroke-width:7.92560863;marker:none;visibility:visible;display:inline;overflow:visible;enable-background:accumulate;font-family:Sans;-inkscape-font-specification:Sans"
         inkscape:connector-curvature="0" />
      <path
         id="path4009"
         d="m 386.625,504.71875 -4.46875,6.34375 1.4375,1.03125 0.8125,-1.15625 1.28125,7.28125 -0.78125,1.125 5.25,3.625 3.21875,-4.625 -5.1875,-3.6875 -1.21875,1.75 -1.28125,-7.28125 2.40625,-3.375 -1.46875,-1.03125 z"
         style="font-size:medium;font-style:normal;font-variant:normal;font-weight:normal;font-stretch:normal;text-indent:0;text-align:start;text-decoration:none;line-height:normal;letter-spacing:normal;word-spacing:normal;text-transform:none;direction:ltr;block-progression:tb;writing-mode:lr-tb;text-anchor:start;baseline-shift:baseline;color:#000000;fill:#020051;fill-opacity:1;stroke:none;stroke-width:7.92560863;marker:none;visibility:visible;display:inline;overflow:visible;enable-background:accumulate;font-family:Sans;-inkscape-font-specification:Sans"
         inkscape:connector-curvature="0" />
      <path
         id="path4007"
         d="m 362.75,515.25 -4.46875,6.375 1.4375,1.03125 4.46875,-6.375 L 362.75,515.25 z"
         style="font-size:medium;font-style:normal;font-variant:normal;font-weight:normal;font-stretch:normal;text-indent:0;text-align:start;text-decoration:none;line-height:normal;letter-spacing:normal;word-spacing:normal;text-transform:none;direction:ltr;block-progression:tb;writing-mode:lr-tb;text-anchor:start;baseline-shift:baseline;color:#000000;fill:#acacac;fill-opacity:1;stroke:none;stroke-width:7.92560863000000015;marker:none;visibility:visible;display:inline;overflow:visible;enable-background:accumulate;font-family:Sans;-inkscape-font-specification:Sans"
         inkscape:connector-curvature="0" />
      <path
         id="path3984"
         d="m 370.125,520.4375 -8.1875,11.65625 c -0.24108,-0.148 -0.51486,-0.2803 -0.75,-0.4375 l -1.03125,1.4375 c 4.83474,3.239 10.88668,4.7104 17.0625,3.625 6.1755,-1.0855 11.40307,-4.52535 14.84375,-9.21875 l -1.46875,-1 c -2.58302,3.5087 -6.23178,6.2445 -10.5625,7.6875 l -0.71875,-4.0625 -6.28125,1.09375 0.6875,4.0625 c -3.64618,0.098 -7.1409,-0.7391 -10.25,-2.3125 l 8.09375,-11.53125 -1.4375,-1 z"
         style="font-size:medium;font-style:normal;font-variant:normal;font-weight:normal;font-stretch:normal;text-indent:0;text-align:start;text-decoration:none;line-height:normal;letter-spacing:normal;word-spacing:normal;text-transform:none;direction:ltr;block-progression:tb;writing-mode:lr-tb;text-anchor:start;baseline-shift:baseline;color:#000000;fill:#2aa600;fill-opacity:1;stroke:none;stroke-width:7.92560863;marker:none;visibility:visible;display:inline;overflow:visible;enable-background:accumulate;font-family:Sans;-inkscape-font-specification:Sans"
         inkscape:connector-curvature="0" />
    </g>
  </g>
</svg>
